<?xml version="1.0" encoding="utf-8"?>
<!-- Generator: Adobe Illustrator 24.0.1, SVG Export Plug-In . SVG Version: 6.00 Build 0)  -->
<svg version="1.1" id="Layer_2_1_" xmlns="http://www.w3.org/2000/svg" xmlns:xlink="http://www.w3.org/1999/xlink" x="0px" y="0px"
	 viewBox="0 0 512 512" style="enable-background:new 0 0 512 512;" xml:space="preserve">
<style type="text/css">
	.st0{fill:#C8E540;}
	.st1{fill:#861DCE;}
	.st2{fill:#DE3B4F;}
	.st3{fill:#15F7D1;}
	.st4{fill:#868686;}
</style>
<g>
	<path class="st0" d="M442.4,119c0,19.4,0,38.8,0,58.1c0,17.1-11.7,28.7-28.9,28.7c-38.3,0-76.6,0-114.9,0
		c-17.4,0-29.1-11.7-29.1-29c0-37.9,0.4-75.7-0.2-113.6c-0.2-17.5,12.1-30.9,30.5-30.7c37.9,0.4,75.7,0.1,113.6,0.1
		c17.4,0,29,11.7,29,29.1C442.5,80.8,442.5,99.9,442.4,119C442.4,119,442.4,119,442.4,119z M365,126.8
		C365,126.8,365,126.8,365,126.8c0-7-0.1-13.9,0-20.9c0.1-3.6-1.6-8.3,0.7-10.5c2.2-2.3,6.9-0.7,10.5-0.7c11.3-0.1,11.1,0,11.1-11.5
		c0-3-0.9-3.8-3.8-3.8c-15.9,0.1-31.8,0.1-47.7,0.1c-11.3,0-11.2,0-11.1,11.4c0,3.3,1.2,4.1,4.2,3.9c3.6-0.2,7.3-0.1,10.9-0.1
		c7.3,0,7.3,0,7.3,7.1c0,14.5-0.1,29.1,0,43.6c0,4.5-2,10.4,0.9,13c3.1,2.7,9,0.5,13.6,0.8c2.6,0.2,3.4-0.8,3.3-3.3
		C364.9,146.2,365,136.5,365,126.8z"/>
	<path class="st1" d="M241.6,314.4c0,19.5-0.5,39.1,0.2,58.6c0.5,14.2-12.3,28.6-28.7,28.4c-38.8-0.5-77.6-0.1-116.3-0.2
		c-15.8,0-27.8-11.9-27.9-27.7c-0.1-39.2-0.1-78.5,0-117.7c0-15.3,12.1-27.4,27.1-27.4c39.1,0,78.2,0,117.3,0
		c13.4,0,22.1,6.1,27.2,18.4c1.3,3.1,1.1,6.2,1.1,9.4C241.6,275.6,241.6,295,241.6,314.4C241.6,314.4,241.6,314.4,241.6,314.4z
		 M155.9,337.1C155.9,337.1,155.9,337.1,155.9,337.1c2.9,0,5.8,0,8.6,0c8.4,0,8.4,0,11.6,7.8c3.7,9.2,3.7,9.2,13.4,9.2
		c1.8,0,3.6-0.1,5.5,0c3.3,0.2,3.5-1.3,2.4-3.9c-9.7-22.5-19.5-45-28.9-67.6c-2.5-6-5.6-9-12.8-8.6c-6.2,0.3-9.1,2-11.5,7.9
		c-9.5,23.1-19.8,45.9-29.7,68.8c-0.5,1.1-1.9,3.2,0.9,3.3c5.3,0.1,10.8,0.9,15.8-0.5c3.1-0.8,3.2-6,4.8-9.2
		c0.7-1.3,1.3-2.7,1.8-4.1c0.8-2.3,2.3-3.3,4.8-3.2C147.1,337.2,151.5,337.1,155.9,337.1z"/>
	<path class="st2" d="M247,118.9c0.3,49.2-39.3,90.9-90.3,91.1c-51.6,0.3-91.5-41.3-91.6-90.5C65,68.7,105.2,28.1,155.9,28
		C206.3,27.8,246.8,68.3,247,118.9z M165,127.1c0-3.3,0-6.7,0-10c0-3.5,0-7,0-10.4C165,95,165,95,176.8,95c10.6,0,10.4,0,10.6-10.8
		c0-3.5-0.9-4.7-4.6-4.7c-15.6,0.2-31.2,0.1-46.7,0.1c-12.2,0-12.2,0-11.3,12.3c0.2,2.4,1.1,3.1,3.3,3.1c4.5-0.1,9.1,0.2,13.6-0.1
		c4-0.3,5.5,0.8,5.4,5.2c-0.3,18.1,0,36.3-0.2,54.5c-0.1,4.1,1.2,5.4,5.1,4.9c2.2-0.3,4.5,0,6.8,0c6.2,0,6.2,0,6.2-6
		C165,144.7,165,135.9,165,127.1z"/>
	<path class="st3" d="M265.1,314.5c0.1-50.1,40.9-90.6,91.1-90.5c50.6,0.1,91,40.9,90.8,91.8c-0.2,49.9-40.9,90.3-90.9,90.3
		C305.4,406,264.9,365.3,265.1,314.5z M325.9,354.5c5,1.4,10.1,1.3,15.1,0c1.8-0.9,1.4-2.5,1.4-4c0-3.6,0.4-7.3-0.1-10.9
		c-0.7-5.7,1.4-9.8,5.3-13.6c2.3-2.3,3.4-2.5,5.4,0.3c6.3,8.7,12.8,17.2,19.1,25.8c0.7,1,1.3,2.2,2.7,2.2c6.1,0.1,12.3,0,18.6,0
		c-0.4-2.1-1.5-3.1-2.3-4.3c-8.7-12.3-17.4-24.7-26.3-36.9c-1.8-2.4-1.5-3.8,0.3-5.8c3.6-3.8,7.2-7.8,10.7-11.7
		c5.9-6.6,11.7-13.1,18.4-20.6c-7.5,0-13.9,0-20.2,0c-1.6,0-2.4,1-3.3,2c-4.3,4.7-8.6,9.3-12.9,14c-4.8,5.2-9.7,10.5-14.5,15.7
		c-1-6.6-0.9-12.8-1-19c-0.1-4.1,1.7-9.3-0.7-11.8c-2.7-2.8-8.1-0.5-12.2-1c-3.4-0.4-4.7,0.7-4.7,4.4c0.2,23.6,0.1,47.3,0.1,70.9
		C324.9,351.7,324.4,353.4,325.9,354.5z"/>
	<path class="st4" d="M432.3,465.7c0-7.3,0.3-14.7-0.1-22c-0.2-4.4,2.3-3.9,5.1-4c3-0.1,5.1,0,5,4.2c-0.3,11.9-0.2,23.9,0,35.8
		c0.1,3.1-1.1,3.7-3.9,3.9c-4.2,0.2-7.2-0.8-9.8-4.7c-4.8-7.1-10.3-13.7-15.5-20.4c-1.8,1-1.3,2.3-1.4,3.4c0,5.3,0,10.6,0,15.9
		c0,5.2-3.8,7.6-8.7,5.6c-1.4-0.5-1.3-1.5-1.3-2.5c0-12.7,0-25.4,0-38.1c0-1.2-0.2-2.9,1.4-2.8c3.2,0.2,6.8-1.7,9.6,2.1
		c5.1,7,10.4,13.7,15.7,20.5c0.9,1.2,1.9,2.3,2.8,3.5C431.5,465.8,431.9,465.8,432.3,465.7z"/>
	<path class="st4" d="M69.9,461.7c0-6.2,0-12.4,0-18.6c0-1.8,0-3.5,2.5-3.4c7.5,0.3,15.1-1,22.5,1.3c10.4,3.2,15.6,11.1,14.7,23
		c-0.7,10.1-7.5,17.6-17.6,19c-6.5,0.9-13,0.4-19.5,0.5c-2.3,0-2.7-1.2-2.7-3.1C69.9,474.1,69.9,467.9,69.9,461.7z M85.1,448.5
		c-1.5,1-5.3-2.1-5.4,2.7c0,6.9,0,13.9,0,20.8c0,1.1,0,2,1.3,2.5c8.2,3.3,18.2-3.1,18.5-11.9C100,453.5,95.1,448.6,85.1,448.5z"/>
	<path class="st4" d="M170.1,483.9c-13.2,0-23-9.8-23-22.8c0-12.6,10.1-22.4,23-22.4c12.9,0,23.2,10.2,23.1,22.9
		C193,474.2,182.9,484,170.1,483.9z M157.5,461.1c-0.1,8.1,5,13.8,12.3,13.9c7.5,0.1,13.2-5.9,13.1-13.7c0-7.6-5.7-13.7-12.8-13.8
		C163,447.5,157.6,453.3,157.5,461.1z"/>
	<path class="st4" d="M240.3,466.2c0-4.7-0.2-9.4,0.1-14c0.1-3-1-4.1-3.9-3.8c-1.2,0.1-2.4-0.1-3.6,0.1c-4.1,0.6-5.2-1.1-5-5
		c0.1-3.1,1.3-3.8,4-3.7c9.1,0.1,18.1,0.2,27.2,0c3.8-0.1,3.6,1.9,3.7,4.5c0.1,2.8-0.2,4.4-3.8,4.4c-8.6-0.1-8.6,0.1-8.6,8.9
		c0,7.3-0.3,14.5,0.1,21.8c0.2,4.4-2.1,4.4-5.3,4.4c-3,0-5.3,0-5-4.2C240.6,475,240.3,470.6,240.3,466.2z"/>
	<path class="st4" d="M349.4,461.3c0-5.9,0.2-11.8-0.1-17.7c-0.2-3.9,1.9-4.2,4.8-3.9c2.5,0.2,5.5-1,5.4,3.7
		c-0.2,12.2-0.2,24.5,0,36.7c0.1,4.5-2.9,3.3-5.2,3.4c-2.5,0.1-5.2,0.7-5-3.6C349.7,473.7,349.4,467.5,349.4,461.3z"/>
	<path class="st1" d="M156.2,321.3c-10.1,0.1-10.1,0.1-6.2-9.2c1.5-3.5,2.9-7,4.3-10.4c0.3-0.8,0.6-1.8,1.7-1.9c1.2,0,1.4,1,1.7,1.8
		c2.3,5.2,4.4,10.5,6.8,15.7c1.5,3.3,0.6,4.3-2.8,4C159.9,321.2,158.1,321.3,156.2,321.3z"/>
</g>
</svg>
