<?xml version="1.0" encoding="utf-8"?>
<!-- Generator: Adobe Illustrator 24.0.1, SVG Export Plug-In . SVG Version: 6.00 Build 0)  -->
<svg version="1.1" id="Layer_1" xmlns="http://www.w3.org/2000/svg" xmlns:xlink="http://www.w3.org/1999/xlink" x="0px" y="0px"
	 viewBox="0 0 1366 1366" style="enable-background:new 0 0 1366 1366;" xml:space="preserve">
<style type="text/css">
	.st0{fill:#EA5050;}
</style>
<g>
	<g>
		<path class="st0" d="M668.3,246.5c-2.8-1.7-5-2.8-7.1-4.1c-2.4-1.5-2.6-2.7-0.7-4.8c1-1,2-1.8,3.2-2.6c8.7-5.2,17.9-8.7,28.2-8.6
			c1.9,0,3.9,0.4,5.5,1.4c18.9,11.1,39.2,19.2,59.2,28.2c17.4,7.9,34.5,16.3,49.8,27.9c13,10,26.8,19.1,38.9,30.2
			c39.2,35.8,66.1,79,79.7,130.4c8.1,30.4,10.4,61.3,7.6,92.6c-2.9,32.9-10.3,64.7-23.9,94.8c-10.8,23.7-25.5,45-43.5,63.7
			c-41.4,43.2-92.2,70.1-149.3,86c-36.1,10.1-73,14.6-110.4,13.2c-39.1-1.4-77-9-112.5-26c-33.3-16-60.9-38.4-80.6-70.1
			c-12.7-20.5-21.1-43-26.9-66.5c-8-32.6-10.5-65.8-9.3-99.3c1.8-49.1,10.7-96.9,28.2-143c10.8-28.4,24.6-55.3,43.9-79
			c15.7-19.3,34-35.2,57.4-44.4c9.7-3.8,20-5.8,30.3-7.6c42.3-7,85.1-10.3,127.9-12.4C665.1,246.9,666.2,246.7,668.3,246.5z
			 M413.3,537.5c0,12.1,0.6,24.2,1.7,36.2c2,21.8,6,43.3,12.9,64.1c5.8,17.4,13.2,34.1,24.9,48.5c15.4,19.2,35.1,32.5,57.1,42.8
			c39.1,18.3,80.7,25.8,123.5,27c20.6,0.6,41.2-0.9,61.5-4.3c21.5-3.6,42.3-9.3,61.9-19.2c31.2-15.7,56.8-38.1,78-65.7
			c28.5-37.2,46.4-79,54.1-125.2c4.3-25.7,4.8-51.5,0.9-77.3c-6-38.9-21.3-73.8-47.7-103.4c-10.6-12-22.2-22.9-36.2-31.1
			c-4.7-2.7-9.4-5.2-14.1-8.1c-8.4-5.4-17.4-9.5-26.4-13.9c-1.1-0.5-1.8-0.4-2.8,0.1c-4.6,2.1-9.3,3.9-14.3,5.2
			c-5.9,1.5-11.4,1.2-17.1-1.8c-15.5-8.2-30.9-16.6-47.2-23.2c-15.4-6-31.1-9.7-47.8-9.3c-26.4,0.7-52.2,5.1-77.4,12.5
			c-14.3,4.2-28.2,9.1-41.8,15c-20.8,9-37.1,23.6-50.5,41.6c-15.5,20.6-26.3,43.8-34.4,68.1C419.2,455.6,413.6,496.1,413.3,537.5z"
			/>
		<path class="st0" d="M654.6,651.8c-11.6,0-23.1-0.8-34.5-2.6c-32.4-5.1-62.7-15.5-88.9-35.9c-20.1-15.8-34.3-35.5-39.3-61
			c-1.2-5.8-1.6-11.7-1.7-17.6c-0.1-4,1.4-6.3,4.2-7.4c3.8-1.4,6.2-0.6,8.1,3c1,1.8,1.8,3.7,2.3,5.6c3.8,13.7,12.1,24.6,22.4,34.1
			c20.6,18.8,45.3,29.9,71.8,37.1c19.8,5.4,39.9,7.9,60.3,7.2c38.7-1.3,73.9-12.7,103.8-37.9c7.8-6.5,14.9-13.9,21.1-22
			c1.3-1.7,2-3.7,3.1-5.5c1.5-2.6,3.7-3.7,6.7-3.4c3.1,0.3,4.5,1.6,4.4,4.8c-0.3,11.1-3.5,21.5-8,31.4
			c-11.8,26.1-32.2,43.2-57.7,54.7c-18.9,8.5-38.8,12.9-59.4,14.6C667.2,651.5,660.9,651.6,654.6,651.8z"/>
		<path class="st0" d="M716.4,460.2c0.2-2.1,0.4-4.2,0.7-6.3c1.5-9.6,8.5-13.6,16.7-16.3c14.3-4.6,25.3,2.2,31.7,13.9
			c2.6,4.8,1.5,10.5,0.1,15.8c-3.4,13.2-16,22.8-28.7,21.8c-6.7-0.5-11.5-4.2-15-9.6C718.2,473.5,716.6,467.1,716.4,460.2z"/>
		<path class="st0" d="M530.8,458.9c0.1-3.6,0.3-6.3,1.1-9.1c2.3-8.1,6.5-14.5,15.4-16.4c10.1-2.1,19.3-0.5,26.1,7.9
			c7.1,8.7,9,18.8,5.6,29.4c-2.7,8.7-8.8,13.6-18.2,14c-15.8,0.7-26.9-7-29.5-21.2C531,461.9,530.9,460,530.8,458.9z"/>
	</g>
	<g>
		<path class="st0" d="M744.7,979.7c20.2-32.4,64.2-31.8,77.8,1.6c5.2-9.1,12.2-16.3,21.4-20.9c26.1-13,54.3,0.7,61.1,29.4
			c1.8,7.7,2.3,15.5,2.3,23.2c0,22.6-0.1,45.3,0.1,67.9c0,4.4-0.7,6.5-5.6,5.9c-5.4-0.7-12.7,2.2-16.1-1.1c-3.4-3.4-0.8-10.5-1-16
			c-0.7-22.8,1.5-45.6-1.3-68.4c-1.3-10.8-5.5-20.3-16.7-24.6c-17.5-6.7-37.9,6.7-38.5,26.4c-0.8,25-0.4,50.1-0.6,75.3
			c-0.1,9.9,1.3,8.6-8.3,8.6c-14.5,0.1-14.5,0-14.6-14.7c0-22-0.1-44.1-0.2-66.1c0-4.1-0.9-8.1-2.2-12c-3.1-10-9.3-16.9-19.9-18.7
			c-11-2-19.7,2.4-26.7,10.7c-6.1,7.2-8.4,15.7-8.3,25.1c0.1,23.2-0.1,46.5,0.2,69.7c0.1,5.1-1.6,6.5-6.3,6
			c-5.4-0.6-12.7,2.2-16.1-1s-1-10.5-1.1-15.9c-0.6-35.6,1-71.1-1-106.8c-0.2-3.2,0.3-4.6,4.1-4.7c16.2-0.4,16.2-0.6,17,15.4
			C744.3,975.4,744.5,976.8,744.7,979.7z"/>
		<path class="st0" d="M171.4,1065.2c-0.6,6.9-1,12.2-1.3,17.4c-0.1,2.9-0.7,4.2-4.2,4.3c-15.8,0.6-15.8,0.7-15.6-15.3
			c1-55.3,0.4-110.6,0.3-165.9c0-6.1,1.7-8,7.5-7.2c3.5,0.5,7,0.4,10.5,0c4.6-0.5,5.3,1.5,5.3,5.5c-0.2,22.2-0.1,44.4-0.1,66.6
			c0,2.2,0,4.4,0,8c5.2-5.5,8.7-10.7,14-14.2c25.4-17,58.8-9.6,74.4,16.6c15.5,25.8,12.6,66.6-6.4,89.3
			c-20.2,24.4-58.9,25.8-78.7,2.7C175.4,1071.1,173.9,1068.6,171.4,1065.2z M173.9,1023.6c0,3.7-0.1,7.4,0,11.1
			c0.7,17.7,11.8,32,27.7,35.4c17.3,3.8,33.2-3.3,41-19.5c8.7-18.2,9-37.1,0.6-55.3c-12.2-26-46.1-28.3-62.3-4.9
			C173.8,1000.5,173.4,1011.9,173.9,1023.6z"/>
		<path class="st0" d="M1094.7,1066.6c-14.2,20.2-32.4,26.7-53.9,21.7c-23-5.3-35.8-21.9-40.7-44.1c-5.2-23.4-2.8-46.3,11.9-66.4
			c16.9-23.1,50.6-29,72.3-12.9c4.4,3.3,7.4,7.6,11.9,11.8c0-4.3,0.2-8.7-0.1-13c-0.2-3.6,0.7-5.3,4.8-5c5.7,0.6,13-2.2,16.6,1.1
			c3.4,3.1,0.7,10.5,0.7,15.9c0,52.2-0.1,104.5,0,156.7c0,5.2-0.7,7.7-6.6,6.8c-3.8-0.6-7.9-0.5-11.7,0c-4.6,0.5-5.3-1.4-5.2-5.5
			C1094.9,1111.9,1094.7,1090.2,1094.7,1066.6z M1094.4,1022.8c0-5.9,0.1-10,0-14.1c-0.5-16-10.6-29.2-25.4-33.2
			c-15.2-4-31.6,2.1-39.3,15.7c-11.1,19.8-11.5,40.4-1.7,60.7c6.7,13.6,19.9,20.4,33.6,18.9c15.5-1.7,27.1-11.5,31.1-26.6
			C1094.9,1036.7,1094.6,1028.9,1094.4,1022.8z"/>
		<path class="st0" d="M370.5,1070.5c-10,12.4-22.5,18.2-37.3,19c-20.7,1.1-38.2-11.8-41.1-30.3c-2.9-19.4,6.5-36.4,24.4-44.7
			c14.4-6.7,29.8-9,45.5-8.9c5.8,0.1,7.1-2.2,6.6-7.5c-1.6-16.4-13.1-26.2-30.4-25.2c-9.9,0.6-19.6,2.3-28.2,7.6
			c-3.3,2-4.3,0.8-5.4-2.3c-4.2-12.1-4.2-12.2,8.2-16.9c11.3-4.3,23.1-5.9,35.1-5.2c26.3,1.6,41.6,17.1,43.3,43.6
			c1.5,23.2,0,46.5,0.9,69.6c0.2,4.7,0.7,9.4,1.3,14.1c0.4,2.7-0.6,3.8-3.3,3.6c-0.2,0-0.4,0-0.7,0
			C373.2,1087.8,373.2,1087.8,370.5,1070.5z M368.8,1035.7c0-3.7,0-7.4,0-11.1c0-1.7,0.1-3.3-2.4-3.3c-13.1,0.3-26.3,0.5-38.3,7
			c-11.8,6.5-16.2,18.4-11.6,30.9c3.7,10.2,14.5,14.9,27.6,12.1C360.9,1067.8,368.9,1056.4,368.8,1035.7z"/>
		<path class="st0" d="M665.6,1070.1c-6,7-12,12.1-19.5,15.3c-18,7.7-39.9,4.1-50.7-8.6c-17.4-20.7-8.2-52.7,18.3-63.4
			c14.2-5.7,28.9-8.1,44-7.8c5.4,0.1,6.5-2.2,6-6.8c-1.8-17.4-13-27-31.1-25.8c-9.9,0.7-19.5,2.6-28.1,7.9c-2.7,1.7-3.7,0.9-4.7-1.7
			c-5-12.2-4.9-12.6,7.2-17.5c14.1-5.6,28.8-7.2,43.6-4.7c21.7,3.7,34.8,20.1,35.5,44.4c0.7,23.1,0.7,46.1,1,69.1
			c0.1,4.3,0.7,8.6,1.2,12.8c0.4,2.6-0.3,3.8-3.2,3.7c-5-0.2-9.8-0.3-14.8-0.2c-2.5,0-3-1.2-3.2-3.4
			C666.9,1079.6,666.3,1075.8,665.6,1070.1z M664,1037c0-5.2,0-8.8,0-12.6c0-1.4,0.2-3.1-2-3.1c-15.2,0.5-30.6,0.2-43.5,10.1
			c-7.8,6-10.4,16.7-7.2,26.8c2.7,8.4,9.8,13.7,19.6,14c5.3,0.2,10.6-0.7,15.5-3.2C660.3,1062.1,665.4,1050.6,664,1037z"/>
		<path class="st0" d="M521.1,1089c-13.9,0-24.5-1.9-34.6-6.5c-3.3-1.5-4.4-3-2.8-6.4c1.8-3.9,2.1-9.6,5-11.5
			c3.3-2.2,7.4,2.5,11.3,3.7c10.1,3.2,20.2,5.2,30.7,2c7-2.2,11.9-6.6,13.1-14c1.3-8-1.1-14.5-8.1-19.2c-6.2-4.2-13.2-6.6-20-9.4
			c-6.1-2.5-11.8-5.7-17-9.8c-18.4-14.7-15.7-43.3,5.7-55.4c17.8-10,36.2-8.3,54.5-0.6c2.2,0.9,3.2,2.2,2.2,4.8
			c-1.3,3.5-2.5,6.9-3.6,10.5c-0.7,2.7-2.1,2.9-4.4,1.7c-7.2-3.8-15-5.4-23.1-5.6c-9.7-0.2-18,4.5-20.5,11.7
			c-2.5,7-0.5,13.8,5.7,18.6c5.9,4.6,13.1,6.6,19.9,9.7c6.9,3.1,13.9,6.1,19.5,11.3c20.2,18.7,13.5,50.9-12.3,60.5
			C534.5,1088,526.4,1088.8,521.1,1089z"/>
		<path class="st0" d="M429.2,992.9c0-29.6,0.1-59.2-0.1-88.8c0-4.1,0.8-6.1,5.3-5.5c5.8,0.7,13.7-2.5,17.1,1.3
			c2.9,3.3,0.9,11,0.9,16.7c0,54.5-0.1,109,0.1,163.5c0,5.1-0.7,7.7-6.6,6.9c-5.4-0.7-12.7,2.3-15.9-1.3c-2.7-3.1-0.9-10.2-0.9-15.5
			C429.2,1044.4,429.2,1018.7,429.2,992.9z"/>
		<path class="st0" d="M945.2,1022.9c0-19.8,0.1-39.5-0.1-59.2c0-4,1-5.3,5.1-5.1c4.7,0.4,9.5,0.3,14.2,0c3.1-0.1,4.3,0.7,4.3,4
			c-0.1,40.1-0.1,80.1,0,120.2c0,3-1,3.9-3.9,3.8c-5-0.2-9.8-0.3-14.8,0c-3.8,0.3-4.9-1-4.8-4.8
			C945.3,1062.4,945.2,1042.6,945.2,1022.9z"/>
		<path class="st0" d="M1186.1,1013.5c-16.4,0.2-29.6-12.7-29.8-28.8c-0.1-16,12.8-29,29.3-29.3c16.2-0.4,29.9,12.7,30.1,28.6
			C1215.8,1000.7,1203.1,1013.4,1186.1,1013.5z M1186.2,1007.3c12.6,0,22.1-9.9,22-23c-0.1-12.7-9.7-22.7-21.7-22.9
			c-12.8-0.2-22.7,9.9-22.7,23.1C1163.9,997.5,1173.5,1007.3,1186.2,1007.3z"/>
		<path class="st0" d="M956.9,908.1c8.2,0,14.2,6,14.3,14.3c0.1,8.4-6.2,14.4-15,14.3c-7.9-0.1-13.7-6.2-13.7-14.3
			C942.5,914.3,948.5,908.2,956.9,908.1z"/>
		<path class="st0" d="M1199.8,999.2c-5.1,1.7-8.1,0.4-8.8-5c-0.2-1.4-0.7-2.8-1.4-3.9c-1.4-2.2-3.8-2.1-6.1-2
			c-2.9,0.2-1.9,2.6-2,4.3c-0.1,1.2-0.2,2.4,0,3.7c0.4,2.7-0.8,3.6-3.5,3.5c-2.3-0.1-3.2-0.7-3.2-3.2c0.1-7.6,0.1-15.2,0-22.8
			c0-1.8,0.3-3.4,2.4-3.5c5.5-0.3,11.1-1.2,16.4,0.8c5.7,2.2,7,8.2,2.4,12.1c-2.4,2.1-2.5,2.9-0.1,4.6c0.7,0.5,1,1.3,1.3,2.1
			C1198.2,992.9,1199,996.1,1199.8,999.2z M1184.8,974.6c-3.3-0.7-3.3,1.8-3.3,4.5c0,2.6,0.4,4.6,3.7,3.9c2.7-0.6,6.2-0.4,6-4.6
			C1191.1,974.9,1188.2,974.7,1184.8,974.6z"/>
	</g>
</g>
</svg>
