<?xml version="1.0" encoding="utf-8"?>
<!-- Generator: Adobe Illustrator 24.0.1, SVG Export Plug-In . SVG Version: 6.00 Build 0)  -->
<svg version="1.1" id="Layer_2_1_" xmlns="http://www.w3.org/2000/svg" xmlns:xlink="http://www.w3.org/1999/xlink" x="0px" y="0px"
	 viewBox="0 0 512 512" style="enable-background:new 0 0 512 512;" xml:space="preserve">
<style type="text/css">
	.st0{fill:#FA5252;}
	.st1{fill:#6A7984;}
</style>
<g>
	<path class="st0" d="M489.2,250.6c-5.3,0-10.6-0.1-15.8,0.1c-2.4,0.1-3.5-0.8-4.5-2.9c-4.8-9.8-11.2-18.7-19.2-26.1
		c-13.6-12.6-29.4-21.2-47.9-24.4c-6.6-1.2-13.2-2.2-19.8-1.9c-19.1,0.9-36.7,6.4-52.5,17.7c-13.8,9.8-24.2,22.3-31.4,37.5
		c-4,8.5-6.6,17.4-7.8,26.8c-1.7,13.3-0.6,26.3,2.9,39.2c0,0.2,0,0.4,0,0.7c-9.9,0-19.7-0.1-29.6,0c-2.1,0-2.3-0.9-2.3-2.6
		c0.1-7.7-0.1-15.5,0.1-23.2c0-2.4-0.4-3.3-3.1-3.2c-5.7,0.2-5.7,0-5.7,5.9c0,6.8-0.1,13.7,0,20.5c0,2.1-0.5,2.7-2.6,2.6
		c-8.1-0.1-16.2-0.2-24.3,0c-2.5,0.1-2.9-0.9-2.9-3.1c0.1-7.6,0-15.3,0.1-22.9c0-2.2-0.3-3.1-2.9-3.1c-10.6,0.1-21.1,0.1-31.7,0
		c-2.1,0-2.7,0.6-2.6,2.6c0.1,7.9,0,15.7,0.1,23.6c0,2.1-0.5,2.9-2.7,2.9c-7.9-0.1-15.7-0.1-23.6,0c-2.3,0-2.8-0.8-2.7-2.9
		c0.1-7.9,0-15.7,0.1-23.6c0-2.1-0.6-2.6-2.6-2.6c-6.2,0-6.2-0.1-6.2,6.1c0,6.6-0.1,13.2,0,19.9c0,2.2-0.4,3.1-2.9,3.1
		c-8.1-0.2-16.2-0.1-24.3,0c-2.1,0-2.6-0.6-2.6-2.7c0.1-7.9,0-15.7,0.1-23.6c0-2.2-0.5-2.9-2.8-2.8c-4.3,0.2-8.5,0.2-12.8,0
		c-2.4-0.1-2.7,0.8-2.7,2.9c0.1,7.7-0.1,15.5,0.1,23.2c0,2.4-0.7,2.9-3,2.9c-23.9-0.1-47.9-0.1-71.8,0c-1.8,0-2.8-0.1-2.8-2.4
		c-0.2-16.4,1.8-32.4,5.2-48.4c4.7-22,12.7-42.8,23.3-62.5c6.2-11.6,13.5-22.5,21.7-32.7c4.9-6.2,10.2-12,15.6-17.8
		c12.9-13.7,27.4-25.5,43.2-35.6c18.4-11.8,38.1-20.9,59.2-27.2c11.1-3.3,22.3-6,33.7-7.7c8.6-1.3,17.4-2.3,26.2-2.2
		c4.1,0,8.2-0.9,12.3-0.6c11.6,1,23.2,1.2,34.7,3.2c9.3,1.6,18.6,3.5,27.7,6c0.9,0.2,1.8,0.6,2.4-0.2c2.9-4.4,7.2-7,11.6-9.6
		c0.4,0,0.9,0,1.3,0c0.1,0.2,0.1,0.4,0.3,0.6c5,4.6,9,9.8,10.1,16.7c0.1,0.8,0.6,1.8,1.8,2.3c3.1,1.2,6,2.6,9.1,3.9
		c0.9,0.4,1.6,0.6,2.6-0.3c4.8-4.6,10.8-6.5,17.2-7.6c0.9-0.1,1.6,0.1,2,0.9c2.7,5.5,5,11.1,3.8,17.4c-0.4,2-0.2,3.4,1.6,4.6
		c6.4,4.1,12.6,8.5,18.6,13.2c10.9,8.6,20.9,17.9,30.2,28.2c9.9,11,18.6,22.7,26.3,35.2c7.4,12,13.4,24.8,18.7,37.9
		c2.2,5.6,3.5,11.5,6.1,16.9C489.2,249.7,489.2,250.2,489.2,250.6z M322.1,152.6c-1.2,12,11.5,23.3,22.6,23.4
		c12.9,0.1,23.9-11.2,23.9-22.9c0-13.4-10.9-23.5-23.1-23.7C332.7,129.2,321.3,140.5,322.1,152.6z"/>
	<path class="st1" d="M75.3,383c8.4,2.7,12.9,8.6,14,16.5c1.2,8.9-0.2,17.4-7.3,24c-4.5,4.2-10,6.2-15.9,6.9
		c-13.4,1.6-26.8,0.3-40.3,0.8c-1.9,0.1-2.4-0.5-2.4-2.4c0.1-29.2,0.1-58.4,0-87.5c0-1.9,0.5-2.4,2.4-2.4
		c12.1,0.1,24.3-0.5,36.4,0.2c10.2,0.6,20.8,4.8,24.1,16.3c2.9,10.3,0.4,21-9.7,26.7C76.3,382.2,75.9,382.5,75.3,383z M40.4,403.2
		c0,4,0.1,8.1,0,12.1c-0.1,1.9,0.5,2.5,2.4,2.4c5.5-0.1,11,0.1,16.5-0.1c3.7-0.1,6.9-1.6,9.8-4c4-3.3,3.8-7.7,3.7-12.1
		c-0.1-5-3.2-9.3-7.9-10.8c-7.6-2.5-15.4-0.9-23.2-1.3c-1.7-0.1-1.3,1.1-1.3,2.1C40.3,395.4,40.4,399.3,40.4,403.2z M40.4,364.6
		c0,3.6,0,7.2,0,10.8c0,1.1,0,2,1.5,1.9c6.3-0.4,12.7,0.8,19-0.7c6.8-1.6,10.9-6.2,9.7-14.7c-0.9-6.1-4.4-9-12.2-9.5
		c-5.1-0.3-10.3,0-15.5-0.1c-2-0.1-2.8,0.3-2.7,2.5C40.5,358.1,40.4,361.3,40.4,364.6z"/>
	<path class="st1" d="M260.1,401.7c0,3.1,0.1,6.3,0,9.4c-0.2,3,1.2,6.3-0.7,8.8c-2.8,3.9-6.8,6.8-11.3,8.4c-5,1.8-10.1,3.1-15.5,3.7
		c-7.3,0.8-14.2,0.1-21.1-2.2c-10.7-3.5-17.8-10.9-21.3-21.2c-5.5-16-5.4-32.3,0-48.3c4.1-12.2,12.8-19.9,25.8-22.1
		c8.6-1.4,17.1-1.3,25.4,2c7.7,3.1,13.1,8.4,16.2,16.1c1.1,2.7,1.7,5.6,2.5,8.4c0.6,2-0.2,2.5-2.1,2.5c-3.9-0.1-7.9-0.2-11.8,0
		c-1.8,0.1-2.5-0.7-2.8-2.1c-2.9-15.8-22.7-18.1-32.3-9c-3.6,3.4-5.6,8-6.4,13c-1.7,11.5-2.4,23,1,34.2
		c3.6,11.7,14.4,17.5,26.2,15.2c3.8-0.7,7.4-1.5,10.5-4c1.1-0.9,1.6-1.6,1.6-2.9c0-4.5-0.1-9,0-13.5c0-1.7-0.6-2-2.1-2
		c-4.9,0.1-9.9-0.1-14.8,0.1c-1.9,0-2.9-0.3-2.7-2.5c0.2-2.8,0.1-5.6,0-8.4c0-1.4,0.3-1.9,1.9-1.9c10.7,0.1,21.3,0.1,32,0
		c1.9,0,1.9,0.9,1.9,2.3C260.1,390.9,260.1,396.3,260.1,401.7z"/>
	<path class="st1" d="M280.9,402.8c0.9,0,1.8,0.1,2.7,0c3.2-0.3,5.2-0.2,6.1,4.2c1.8,8.8,7.9,11,15.9,11.9
		c5.1,0.6,10.1-0.1,14.9-3.1c5.6-3.4,6.2-15-0.8-18.6c-6-3.1-12.2-5-18.5-7.2c-7.6-2.6-14.9-5.7-20.4-12c-4.3-4.9-5.6-10.5-5.3-17.1
		c0.7-13.2,12.9-21.1,23.8-22.8c9.7-1.4,19.2-1.4,28,3.5c8.1,4.5,13.1,11.4,14.5,20.8c0.4,2.4-0.2,3.6-3.1,3.4
		c-3.9-0.3-7.9-0.1-11.8-0.1c-1.3,0-1.9-0.2-2-1.8c-0.3-7.8-5.4-12.1-12.7-12.9c-5.5-0.6-11.3-0.8-16.1,3.2
		c-4.4,3.5-6.3,11.8,0.2,16.4c6.3,4.5,13.7,6,20.7,8.5c8.3,3,16.4,6.5,21.4,14.4c7.2,11.5,3.9,29.3-11.3,35.4
		c-6.3,2.5-12.9,3.8-19.6,3.3c-10.8-0.7-20.9-3.4-28.6-12c-4-4.5-5.5-9.8-6.4-15.5c-0.2-1.5,0.2-2.3,2-2.1
		C276.4,403,278.7,402.8,280.9,402.8z"/>
	<path class="st1" d="M427.9,384.8c0-14.4,0.1-28.7-0.1-43.1c0-2.4,0.7-2.9,3-2.9c18.3,0.1,36.6,0.1,54.9,0c2.4,0,3.1,0.7,2.9,3
		c-0.3,3.4,1.4,8-0.7,10c-1.8,1.7-6.4,0.5-9.7,0.5c-10.2,0-20.4,0.1-30.7,0c-2.1,0-2.9,0.4-2.8,2.7c0.2,6.3,0.2,12.6,0,18.9
		c-0.1,2.2,0.5,2.8,2.8,2.8c10.8-0.1,21.6,0,32.3-0.1c2.2,0,2.9,0.6,2.7,2.8c-0.2,2.8-0.2,5.6,0,8.4c0.1,2-0.6,2.4-2.5,2.4
		c-10.7-0.1-21.3,0-32-0.1c-2.4,0-3.5,0.4-3.4,3.2c0.2,7.1,0.2,14.1,0,21.2c-0.1,2.5,0.5,3.4,3.2,3.4c12.6-0.2,25.2,0,37.7-0.1
		c2.3,0,3.2,0.5,3,2.9c-0.2,2.9-0.1,5.8,0,8.7c0.1,1.5-0.4,1.9-1.9,1.9c-19,0-38-0.1-56.9,0c-2.3,0-1.8-1.3-1.8-2.6
		C427.9,414,427.9,399.4,427.9,384.8z"/>
	<path class="st1" d="M103.7,373.3c0-10.4,0.1-20.9-0.1-31.3c-0.1-2.8,0.9-3.4,3.4-3.2c3.1,0.2,6.3,0.2,9.4,0
		c2.7-0.2,3.6,0.5,3.5,3.4c-0.2,19.5-0.3,39.1,0,58.6c0.2,8.6,3.3,14.8,11.3,17.2c8.7,2.6,18.4,0.2,22.2-6.7
		c1.8-3.2,2.8-6.6,2.7-10.3c0-19.6,0-39.3-0.1-58.9c0-2.6,0.5-3.5,3.3-3.3c3.3,0.3,6.7,0.2,10.1,0c2.4-0.2,3,0.6,2.9,2.9
		c-0.1,19.3-0.2,38.6,0,57.9c0.1,7-1,13.5-5,19.4c-5.2,7.6-12.8,11.1-21.4,12.8c-7.2,1.4-14.5,0.7-21.6-1.3
		c-9.8-2.8-18.4-11.1-20.1-21.7c-1.7-10.7-0.3-21.4-0.7-32.1C103.7,375.5,103.7,374.4,103.7,373.3z"/>
	<path class="st1" d="M355.1,384.9c0-14.4,0.1-28.7-0.1-43.1c0-2.3,0.5-3,2.9-3c18.1,0.1,36.2,0.1,54.2,0c2.4,0,3.1,0.6,2.9,2.9
		c-0.2,2.7-0.2,5.4,0,8.1c0.2,2.2-0.6,2.6-2.6,2.6c-12.5-0.1-24.9,0-37.4-0.1c-2.8,0-3.3,0.8-3.2,3.4c0.2,5.8,0.3,11.7,0,17.5
		c-0.2,3.2,1,3.6,3.7,3.5c10.2-0.2,20.4,0,30.7-0.1c2.1,0,3,0.4,2.8,2.7c-0.4,3.5,1.5,8.3-0.7,10.3c-2,1.7-6.6,0.5-10.1,0.5
		c-7.9,0-15.7,0.1-23.6,0c-2.2,0-2.8,0.6-2.8,2.8c0.1,7.4,0.2,14.8,0,22.2c0,2.3,0.7,2.7,2.8,2.7c12.5-0.1,24.9,0.1,37.4-0.1
		c3.2-0.1,4,1,3.7,3.9c-0.2,2.4-0.1,4.9,0,7.4c0.1,1.7-0.3,2.3-2.2,2.3c-18.8-0.1-37.5-0.1-56.3,0c-2.6,0-2.3-1.3-2.3-2.9
		C355.1,413.8,355.1,399.3,355.1,384.9z"/>
	<path class="st0" d="M353.9,169.8c-5.3,0.5-9.9-3.6-10.2-9.5c-0.2-5.3,4.9-10.1,10.1-10.1c5.2,0.1,10.3,5,10,9.9
		C363.5,165.6,359.7,170.3,353.9,169.8z"/>
</g>
</svg>
