<?xml version="1.0" encoding="utf-8"?>
<!-- Generator: Adobe Illustrator 24.0.1, SVG Export Plug-In . SVG Version: 6.00 Build 0)  -->
<svg version="1.1" id="Layer_1" xmlns="http://www.w3.org/2000/svg" xmlns:xlink="http://www.w3.org/1999/xlink" x="0px" y="0px"
	 viewBox="0 0 512 512" style="enable-background:new 0 0 512 512;" xml:space="preserve">
<style type="text/css">
	.st0{fill:#7A7A7A;}
	.st1{fill:#A3A3A3;}
	.st2{fill:#F65400;}
	.st3{fill:#F43400;}
	.st4{fill:#FF8500;}
	.st5{fill:#DD0217;}
	.st6{fill:#FFAE00;}
	.st7{fill:#FFD051;}
	.st8{fill:#A6232A;}
</style>
<g>
	<g>
		<path class="st0" d="M243.1,365.8c0-0.4,0-0.6,0-0.9c0-5.8,0-11.6,0-17.4c0-0.6,0.1-0.8,0.7-0.8c2.4,0,4.8,0,7.1,0
			c0.5,0,0.7,0.2,0.7,0.7c0,20.4,0,40.8,0,61.3c0,0.6-0.1,0.7-0.7,0.7c-2.4,0-4.8,0-7.2,0c-0.4,0-0.6-0.1-0.6-0.6c0-1.2,0-2.3,0-3.5
			c-0.4,0.1-0.7,0.4-1,0.7c-2.8,2.2-5.8,3.8-9.3,4.4c-8.7,1.4-15.9-2.7-19-11c-1.8-4.9-2.2-9.9-1.9-15c0.2-3.9,1.2-7.6,3.1-11
			c4-7,10-10.6,18.2-10.3c3.2,0.1,6.3,1,9.1,2.4C242.6,365.5,242.8,365.6,243.1,365.8z M243.1,385.5c0-4,0-8,0-12
			c0-0.3,0.1-0.6-0.3-0.8c-3.7-1.7-7.7-2.5-11.8-2c-4.8,0.7-7.8,3.6-9.3,8.1c-1.7,5.2-1.6,10.6-0.4,15.9c0.5,2.3,1.4,4.3,3.2,5.9
			c2.4,2.2,5.4,2.5,8.5,2.2c3.6-0.4,6.6-2.1,9.5-4.2c0.4-0.3,0.5-0.6,0.5-1.1C243.1,393.4,243.1,389.5,243.1,385.5z"/>
		<path class="st0" d="M94.7,358.5c0,1.4,0,2.8,0,4.1c0,0.3,0.2,0.7-0.1,0.8c-0.4,0.1-0.9,0.2-1.3-0.2c-0.8-0.7-1.5-1.3-2.3-1.9
			c-4.5-3.5-9.5-5.6-15.3-5.7c-8.1-0.1-14.6,4.2-17.6,11.9c-1.8,4.5-2.2,9.2-2,14c0.2,4.2,1.1,8.3,3.1,12c3.7,6.6,9.5,9.7,17,9.4
			c6.5-0.3,12-2.9,16.9-7.2c0.1-0.1,0.2-0.3,0.4-0.3c0.3-0.2,0.7-0.2,1-0.1c0.3,0.1,0.2,0.5,0.2,0.7c0,2.9,0,5.7,0,8.6
			c0,0.4,0,0.6-0.4,0.8c-4.1,2-8.3,3.8-12.9,4.5c-8.1,1.3-15.8,0.5-22.8-4.1c-4.9-3.2-7.9-7.8-9.8-13.2c-1.9-5.5-2.2-11.1-1.9-16.8
			c0.3-4.3,1.2-8.5,3.1-12.4c4.1-8.3,10.7-13.3,19.9-14.7c8-1.2,15.6,0.2,22.9,3.7c1.5,0.7,2.3,1.5,2,3.2
			C94.6,356.6,94.7,357.6,94.7,358.5z"/>
		<path class="st0" d="M159.8,386.9c0,4.6-0.6,9.1-2.8,13.2c-3.1,5.9-8,9.2-14.5,10.2c-3.9,0.6-7.9,0.4-11.6-0.9
			c-5.6-2-9.5-5.9-11.5-11.4c-2.9-8-2.9-16,0.7-23.8c2.8-6.1,7.8-9.7,14.4-10.8c4.4-0.7,8.8-0.5,13,1.3c6.1,2.6,9.7,7.3,11.4,13.6
			C159.6,381.1,159.8,384,159.8,386.9z M126.2,386.2c0,2,0.1,3.5,0.3,5c0.1,0.8,0.3,1.6,0.5,2.4c1.3,5.5,4.7,9.4,10.7,9.8
			c5.7,0.4,10.2-2.1,12.1-7.8c1.9-5.7,1.8-11.6,0.2-17.4c-0.8-2.8-2.4-5.1-4.9-6.6c-2.2-1.3-4.6-1.7-7.2-1.6
			c-4.9,0.2-8.5,2.8-10.2,7.4C126.5,380.5,126.2,383.6,126.2,386.2z"/>
		<path class="st0" d="M195.8,404.9c-1.2,0.8-2.2,1.6-3.3,2.4c-3.4,2.3-7,3.5-11.2,3.4c-7.2-0.2-12.6-4.6-13.9-11.8
			c-0.3-1.7-0.5-3.4-0.5-5.1c0-9.6,0-19.1,0-28.7c0-0.7,0.1-0.9,0.8-0.9c2.3,0,4.6,0,6.9,0c0.6,0,0.7,0.2,0.7,0.7
			c0,8.6,0,17.2,0,25.8c0,2.2,0,4.3,0.5,6.4c0.9,3.7,3,5.4,6.7,5.6c2.9,0.2,5.6-0.6,8.1-1.9c1.5-0.8,2.9-1.7,4.3-2.7
			c0.5-0.4,0.7-0.8,0.7-1.4c0-10.5,0-21.1,0-31.6c0-0.7,0.2-1,0.9-0.9c2.3,0.1,4.6,0,6.9,0c0.5,0,0.7,0.1,0.7,0.6
			c0,14.6,0,29.3,0,43.9c0,0.5-0.1,0.7-0.7,0.7c-2.4,0-4.8,0-7.2,0c-0.5,0-0.7-0.1-0.6-0.6C195.8,407.5,195.8,406.2,195.8,404.9z"/>
		<path class="st1" d="M261.5,397.8c2.1,1.6,4.2,2.9,6.4,3.9c3.8,1.7,7.8,2.8,12,2.9c3.6,0,7.1-0.4,10.2-2.2
			c5.7-3.3,6.1-9.6,4.2-13.7c-1.2-2.6-3.3-4-5.9-4.9c-3-1.1-6.2-1.7-9.4-2.4c-3-0.7-6.1-1.3-8.9-2.7c-5.4-2.5-8.3-7.3-8.1-13.2
			c0.2-6.1,3.5-10.1,8.6-13c2.9-1.6,6.1-2.3,9.4-2.4c6.3-0.3,12.4,0.7,18.2,3c0.5,0.2,0.8,0.5,0.7,1.1c0,1.9,0,3.8,0,5.6
			c-0.4,0.1-0.5-0.2-0.7-0.3c-5-3.3-10.5-5.2-16.5-5.1c-3.1,0.1-6.1,0.6-8.8,2.3c-3.3,2.1-5,5-4.8,9c0.2,3.8,2,6.6,5.4,8.3
			c2.3,1.2,4.8,1.6,7.2,2.2c3.7,0.9,7.5,1.6,11.1,2.9c2.9,1,5.5,2.5,7.2,5.1c2.6,3.9,2.9,8.1,1.6,12.5c-2,6.5-6.8,10-13.2,11.6
			c-3.6,0.9-7.3,0.8-10.9,0.6c-5.1-0.3-9.8-1.8-14.5-3.7c-0.5-0.2-0.7-0.5-0.7-1.1C261.5,402,261.5,400,261.5,397.8z"/>
		<path class="st1" d="M317,404.7c0,2.5,0,5,0,7.4c0,3.8,0,7.6,0,11.4c0,0.6-0.2,0.7-0.8,0.7c-1.3,0-2.6,0-3.9,0
			c-0.6,0-0.8-0.1-0.8-0.7c0.1-1.1,0-2.2,0-3.3c0-17.8,0-35.7,0-53.5c0-0.7,0.2-0.9,0.9-0.9c1.3,0.1,2.5,0,3.8,0
			c0.6,0,0.8,0.1,0.8,0.7c0,1.7,0,3.5,0,5.2c0.3,0,0.5-0.3,0.7-0.5c2.6-2.3,5.3-4.4,8.6-5.6c5-1.8,10-1.8,14.5,1.2
			c3,2,4.8,4.9,5.8,8.2c2.4,7.6,2.4,15.2-0.7,22.6c-2,4.8-5.4,8.4-10.4,10.1c-5.1,1.7-10.2,1.2-15.1-1.1
			C319.4,406.1,318.3,405.4,317,404.7z M317,388.2c0,4.2,0,8.4,0,12.6c0,0.3-0.1,0.7,0.4,0.9c3.6,1.7,7.3,2.8,11.3,2.7
			c5.9-0.1,10.5-3.1,12.5-8.8c2.1-5.9,1.9-11.9,0.4-17.8c-0.6-2.5-1.8-4.7-3.8-6.3c-2.9-2.4-6.4-2.6-9.9-2c-3.9,0.6-7.2,2.7-10.4,5
			c-0.4,0.3-0.5,0.6-0.5,1.1C317.1,379.8,317,384,317,388.2z"/>
		<path class="st1" d="M414.6,387.1c-0.1,4.7-0.7,8.8-2.8,12.7c-2.9,5.3-7.4,8.3-13.4,9c-3.6,0.5-7.2,0.3-10.7-0.9
			c-5.1-1.8-8.6-5.4-10.4-10.3c-2.7-7.3-2.8-14.7,0.1-21.9c2.7-6.7,7.9-10.3,15.1-11c3.5-0.4,6.9-0.1,10.2,1.1
			c5.6,2.2,9.1,6.4,10.8,12.1C414.3,381.1,414.6,384.3,414.6,387.1z M380.9,386.9c0.1,2.3,0.2,4.6,0.7,6.9c0.7,3,1.9,5.7,4.1,7.9
			c2.6,2.5,5.8,3.4,9.4,3.4c5.8,0,10.3-3,12.2-8.5c2.1-5.8,2-11.7,0.6-17.6c-0.7-3.1-2.1-5.7-4.6-7.7c-2.6-2.1-5.7-2.7-8.9-2.7
			c-5.6,0.1-9.9,3.1-11.9,8.3C381.3,380,381,383.4,380.9,386.9z"/>
		<path class="st0" d="M101.3,378c0-10.1,0-20.3,0-30.4c0-0.8,0.2-0.9,0.9-0.9c2.3,0,4.6,0,6.8,0c0.6,0,0.8,0.2,0.8,0.8
			c0,10.5,0,21,0,31.5c0,9.8,0,19.6,0,29.4c0,1.1,0.1,1-1,1c-2.2,0-4.4,0-6.6,0c-0.8,0-0.9-0.2-0.9-0.9
			C101.3,398.3,101.3,388.2,101.3,378z"/>
		<path class="st1" d="M465.2,403.6c0,1.3,0,2.5,0,3.8c0,0.2,0,0.4-0.3,0.4c-4,0.9-8.1,1.5-12.2,0.2c-4-1.2-6.2-4-7-8
			c-0.3-1.5-0.4-3-0.4-4.6c0-8.4,0-16.8,0-25.1c0-0.6-0.2-0.8-0.8-0.8c-1.3,0-2.7,0-4,0c-0.4,0-0.6-0.1-0.5-0.5c0-0.9,0-1.8,0-2.7
			c0-0.4,0.1-0.5,0.5-0.5c1.4,0,2.8,0,4.1,0c0.5,0,0.7-0.2,0.7-0.7c0-3.8,0-7.6,0-11.4c0-0.6,0.2-0.8,0.8-0.8c1.3,0.1,2.6,0.1,3.9,0
			c0.6,0,0.7,0.2,0.7,0.8c0,3.8,0,7.5,0,11.3c0,0.6,0.1,0.8,0.8,0.8c4.3,0,8.7,0,13,0c0.6,0,0.7,0.1,0.7,0.7c-0.1,0.8,0,1.6,0,2.4
			c0,0.5-0.2,0.7-0.7,0.7c-4.4,0-8.7,0-13.1,0c-0.6,0-0.7,0.1-0.7,0.7c0,8.2,0,16.4,0.1,24.6c0,1.4,0,2.9,0.4,4.3
			c0.9,3.2,2.9,5,6.3,5.4c2.5,0.3,4.8,0.1,7.2-0.7C464.8,403.7,465,403.6,465.2,403.6z"/>
		<path class="st1" d="M364.6,378c0,9.7,0,19.3,0,29c0,0.7-0.2,0.8-0.8,0.8c-1.4-0.1-2.7,0-4.1,0c-0.4,0-0.6-0.1-0.5-0.5
			c0-0.1,0-0.3,0-0.4c0-19.2,0-38.5,0-57.7c0-0.7,0.2-0.9,0.9-0.9c1.2,0.1,2.5,0.1,3.7,0c0.7,0,0.9,0.1,0.9,0.8c0,6.8,0,13.7,0,20.5
			C364.6,372.5,364.6,375.2,364.6,378z"/>
		<path class="st1" d="M425.3,386.8c0-6.7,0-13.4,0-20.2c0-0.8,0.2-0.9,0.9-0.9c1.3,0.1,2.5,0,3.8,0c0.6,0,0.8,0.1,0.8,0.7
			c0,7.8,0,15.7,0,23.5c0,5.7,0,11.3,0,17c0,0.6-0.1,0.8-0.8,0.8c-1.3-0.1-2.6,0-3.9,0c-0.6,0-0.7-0.2-0.7-0.7
			C425.3,400.3,425.3,393.6,425.3,386.8z"/>
		<path class="st1" d="M428,350.6c0.9,0,1.8,0,2.7,0c0.4,0,0.5,0.1,0.5,0.5c0,1.4,0,2.9,0,4.3c0,0.5-0.2,0.5-0.6,0.5
			c-1.8,0-3.6,0-5.3,0c-0.5,0-0.6-0.1-0.6-0.6c0-1.4,0-2.8,0-4.1c0-0.5,0.1-0.6,0.6-0.6C426.2,350.6,427.1,350.6,428,350.6z"/>
	</g>
	<g>
		<path class="st2" d="M363.7,114.5c-0.4,4.8-0.6,10-1.2,15.2c-0.4,4-0.8,8-1.3,12c-0.7,5.1-1.5,10.2-2.3,15.3
			c-0.3,2.2-0.8,4.3-1.2,6.5c-0.5,2.6-1.9,4.3-4.6,5.2c-24.2,8.1-48.4,16.2-72.6,24.3c-34.2,11.5-68.4,22.9-102.6,34.3
			c-0.5,0.2-1.1,0.4-1.7,0.5c-0.5,0.1-1.1,0-1.3-0.6c-0.2-0.5-0.1-1,0.4-1.4c1.2-0.9,2.4-1.7,3.6-2.5
			c57.2-39.9,114.4-79.8,171.6-119.7c1.5-1,2.9-1.3,4.6-0.6c0.5,0.2,1.1,0.4,1.6,0.6C361.4,105.7,363.7,109,363.7,114.5z"/>
		<path class="st3" d="M155.1,166.3c0-2.6,1.2-4.2,3.8-5.2c9.5-3.4,19.1-6.8,28.6-10.2c49.3-17.6,98.6-35.2,148-52.8
			c0.8-0.3,2-1.3,2.6,0c0.6,1.2-0.9,1.5-1.5,2c-53.9,37.6-107.9,75.2-161.8,112.8c-0.3,0.2-0.7,0.5-1,0.7c-2.3,1.4-4.5,0.6-5.5-1.9
			c-5.5-14.5-9.8-29.4-12.9-44.6C155.2,166.7,155.2,166.4,155.1,166.3z"/>
		<path class="st4" d="M203.8,269.6c-1.1,0-2-0.5-2.8-1.3c-7.2-8.3-13.4-17.2-18.8-26.8c-1.2-2.1-0.3-3.9,2.2-4.7
			c12.7-4.3,25.5-8.5,38.3-12.8c42.8-14.3,85.5-28.6,128.3-42.9c0.7-0.2,1.6-1.1,2.1-0.1c0.6,1-0.6,1.4-1.3,1.8
			c-48.4,28.6-96.8,57.1-145.2,85.7C205.7,269.1,204.8,269.6,203.8,269.6z"/>
		<path class="st5" d="M253.8,87.8c16-0.1,29.2,0.6,42.4,2.2c5.4,0.6,10.8,1.3,16.1,2.2c0.6,0.1,1.5,0,1.6,1c0.1,1-0.7,1.2-1.4,1.4
			c-19.3,6.9-38.7,13.8-58,20.7c-33.3,11.9-66.5,23.8-99.8,35.6c-0.2,0.1-0.5,0.2-0.7,0.3c-0.6,0.2-1.3,0.4-1.7-0.4
			c-0.3-0.6,0.1-1.1,0.6-1.5c1.1-0.9,2.2-1.8,3.3-2.8c21.1-18,42.3-36,63.4-54c3.7-3.2,8.2-3.9,12.8-4.1
			C240.5,88.1,248.5,87.7,253.8,87.8z"/>
		<path class="st6" d="M347.8,200.7c-0.1,0.3-0.2,0.8-0.4,1.2c-5.9,18-14.1,35-24.5,50.9c-1.1,1.7-2.6,2.8-4.6,3.2
			c-33.2,7.6-66.5,15.3-99.7,22.9c-1.5,0.4-3.1,0.7-4.6,1.1c-0.8,0.2-1.6,0.4-2.1-0.5c-0.5-1,0.3-1.5,1.1-2c9-5.3,18.1-10.7,27.1-16
			c34.8-20.6,69.7-41.1,104.5-61.7c0.6-0.4,1.2-0.9,2-0.8C347.5,199.2,347.9,199.7,347.8,200.7z"/>
		<path class="st7" d="M255.6,304.7c-1.8,0-3.8-0.4-5.8-1.2c-7.9-3.1-15.3-7.1-22.3-11.8c-0.8-0.5-1.5-1-1.3-2.1
			c0.2-1.1,1.1-1.3,2-1.5c25.1-5.8,50.2-11.6,75.3-17.3c0.9-0.2,1.7-0.4,2.6-0.6c0.6-0.1,1.3-0.3,1.7,0.4c0.4,0.7,0.1,1.3-0.4,1.8
			c-3.9,4.2-8,8.1-12.4,11.7c-9.9,8.1-20.8,14.6-32.7,19.4C260.2,304.3,258.1,304.7,255.6,304.7z"/>
		<path class="st8" d="M148.4,114.6c-0.6-4.7,2.2-8.9,7.7-11c13.4-5,27.2-8.5,41.3-11c0.7-0.1,1.4-0.2,2-0.3c0.6-0.1,1.2,0,1.5,0.6
			c0.4,0.7,0,1.2-0.5,1.6c-2.4,2.1-4.9,4.2-7.3,6.3c-13,11.1-26.1,22.3-39.1,33.4c-0.2,0.2-0.5,0.4-0.7,0.6c-1.6,1.3-3,0.8-3.2-1.2
			c-0.5-4.1-0.8-8.3-1.2-12.4C148.6,119.1,148.6,117.2,148.4,114.6z"/>
	</g>
</g>
</svg>
