<?xml version="1.0" encoding="utf-8"?>
<!-- Generator: Adobe Illustrator 24.0.1, SVG Export Plug-In . SVG Version: 6.00 Build 0)  -->
<svg version="1.1" id="Layer_1" xmlns="http://www.w3.org/2000/svg" xmlns:xlink="http://www.w3.org/1999/xlink" x="0px" y="0px"
	 viewBox="0 0 512 512" style="enable-background:new 0 0 512 512;" xml:space="preserve">
<style type="text/css">
	.st0{fill:#0080FF;}
	.st1{fill-rule:evenodd;clip-rule:evenodd;fill:#0080FF;}
</style>
<g id="XMLID_229_">
	<g id="XMLID_690_">
		<g id="XMLID_691_">
			<g>
				<g id="XMLID_44_">
					<g id="XMLID_48_">
						<path id="XMLID_49_" class="st0" d="M256,299.5v-41c43.4,0,77.1-43.1,60.5-88.8c-6.1-16.8-19.7-30.4-36.6-36.5
							c-45.7-16.6-88.8,17-88.8,60.5l0,0h-40.9c0-69.2,67-123.2,139.5-100.5c31.7,10,57,35.2,66.8,66.8
							C379.2,232.5,325.2,299.5,256,299.5z"/>
					</g>
					<polygon id="XMLID_47_" class="st1" points="256.1,258.7 215.2,258.7 215.2,217.8 215.2,217.8 256.1,217.8 256.1,217.8 					
						"/>
					<polygon id="XMLID_46_" class="st1" points="215.2,290 183.9,290 183.9,290 183.9,258.7 215.2,258.7 					"/>
					<path id="XMLID_45_" class="st1" d="M183.9,258.7h-26.3l0,0v-26.3l0,0h26.3l0,0V258.7z"/>
				</g>
			</g>
		</g>
	</g>
	<g id="XMLID_234_">
		<path id="XMLID_677_" class="st0" d="M81.1,351c-5.3-3.7-12-5.5-19.7-5.5H44.6v53.4h16.9c7.7,0,14.4-1.9,19.7-5.9
			c2.9-2,5.2-4.9,6.8-8.5c1.6-3.6,2.4-7.9,2.4-12.6s-0.8-8.9-2.4-12.5C86.3,355.8,84.1,352.9,81.1,351z M54.4,354.5h5.3
			c5.9,0,10.7,1.2,14.4,3.5c4.1,2.5,6.1,7.2,6.1,13.9c0,7-2,11.9-6.1,14.5l0,0c-3.5,2.3-8.3,3.5-14.3,3.5h-5.4
			C54.4,389.9,54.4,354.5,54.4,354.5z"/>
		<path id="XMLID_676_" class="st0" d="M102.1,344.8c-1.7,0-3,0.6-4.2,1.7c-1.1,1.1-1.7,2.4-1.7,4.1s0.6,3,1.7,4.2
			c1.1,1.1,2.5,1.7,4.2,1.7c1.6,0,3-0.6,4.2-1.7c1.1-1.1,1.7-2.5,1.7-4.2s-0.6-3-1.7-4.1C105.1,345.4,103.6,344.8,102.1,344.8z"/>
		<rect id="XMLID_675_" x="97.3" y="361.2" class="st0" width="9.5" height="37.7"/>
		<path id="XMLID_670_" class="st0" d="M141.2,364.3c-2.9-2.5-6-4.1-9.5-4.1c-5.3,0-9.6,1.8-13,5.4c-3.4,3.5-5.2,8-5.2,13.6
			c0,5.3,1.7,9.8,5,13.4c3.4,3.5,7.8,5.3,13,5.3c3.6,0,6.8-1,9.4-3v0.8c0,3.1-0.8,5.5-2.5,7.2s-4,2.5-6.8,2.5
			c-4.3,0-7.1-1.7-10.4-6.2l-6.5,6.2l0.1,0.2c1.4,1.9,3.5,3.8,6.4,5.6c2.8,1.8,6.4,2.8,10.6,2.8c5.6,0,10.2-1.7,13.6-5.2s5-8,5-13.7
			v-34.2H141v3.2h0.2V364.3z M138.7,386.6c-1.7,1.9-3.8,2.8-6.5,2.8c-2.8,0-4.8-1-6.5-2.8c-1.7-1.9-2.4-4.3-2.4-7.3
			c0-3.1,0.8-5.5,2.4-7.4s3.8-2.8,6.5-2.8c2.8,0,4.8,1,6.5,2.8c1.7,1.9,2.5,4.4,2.5,7.4C141.2,382.3,140.3,384.7,138.7,386.6z"/>
		<rect id="XMLID_668_" x="158.6" y="361.2" class="st0" width="9.5" height="37.7"/>
		<path id="XMLID_660_" class="st0" d="M163.4,344.8c-1.7,0-3,0.6-4.2,1.7c-1.1,1.1-1.7,2.4-1.7,4.1s0.6,3,1.7,4.2
			c1.1,1.1,2.5,1.7,4.2,1.7c1.6,0,3-0.6,4.2-1.7c1.1-1.1,1.7-2.5,1.7-4.2s-0.6-3-1.7-4.1C166.4,345.4,165.1,344.8,163.4,344.8z"/>
		<path id="XMLID_652_" class="st0" d="M188.8,351h-9.4v10.2H174v8.6h5.4v15.6c0,4.9,1,8.4,2.9,10.4s5.4,3,10.2,3
			c1.6,0,3.1,0,4.6-0.1h0.5v-8.6l-3.2,0.1c-2.3,0-3.7-0.4-4.4-1.2c-0.7-0.8-1.1-2.5-1.1-5v-14.3h8.9v-8.6h-8.9V351H188.8z"/>
		<rect id="XMLID_642_" x="242.1" y="345.4" class="st0" width="9.5" height="53.5"/>
		<path id="XMLID_448_" class="st0" d="M347.3,385.4c-1.7,1.9-3.5,3.6-4.8,4.4l0,0c-1.3,0.8-3,1.3-4.9,1.3c-2.8,0-5-1-6.8-3.1
			c-1.8-2-2.8-4.8-2.8-7.9c0-3.2,1-5.9,2.8-7.9s4.1-3.1,6.8-3.1c3,0,6.2,1.9,9,5.2l6.2-6l0,0c-4.1-5.3-9.2-7.8-15.5-7.8
			c-5.2,0-9.7,1.9-13.4,5.6c-3.7,3.7-5.5,8.4-5.5,14s1.9,10.3,5.5,14c3.7,3.7,8.2,5.6,13.4,5.6c6.8,0,12.4-3,16.2-8.4L347.3,385.4z"
			/>
		<path id="XMLID_445_" class="st0" d="M386.3,366.5c-1.3-1.9-3.1-3.4-5.4-4.4c-2.3-1.1-4.9-1.7-7.8-1.7c-5.3,0-9.6,1.9-12.8,5.8
			c-3.1,3.8-4.8,8.5-4.8,14.2c0,5.8,1.8,10.4,5.2,14c3.5,3.6,8,5.4,13.7,5.4c6.4,0,11.6-2.6,15.6-7.7l0.2-0.2l-6.2-6l0,0
			c-0.6,0.7-1.4,1.4-2.2,2.2c-1,0.8-1.8,1.6-2.8,2c-1.4,0.7-3,1.1-4.8,1.1c-2.6,0-4.8-0.7-6.5-2.3c-1.6-1.4-2.5-3.4-2.8-5.8H390
			l0.1-3.5c0-2.4-0.4-4.8-1-7C388.6,370.4,387.6,368.4,386.3,366.5z M365.5,375.4c0.5-1.8,1.3-3.4,2.5-4.4c1.3-1.3,3-1.9,4.9-1.9
			c2.3,0,4.1,0.6,5.3,1.9c1.1,1.2,1.8,2.6,1.9,4.4H365.5z"/>
		<path id="XMLID_442_" class="st0" d="M422.7,364.1L422.7,364.1c-2.9-2.4-6.8-3.7-11.8-3.7c-3.1,0-6.1,0.7-8.8,2
			c-2.5,1.2-4.9,3.4-6.5,6l0.1,0.1l6.1,5.8c2.5-4,5.3-5.4,9-5.4c2,0,3.6,0.5,4.9,1.6c1.2,1.1,1.9,2.4,1.9,4.1v1.8
			c-2.4-0.7-4.7-1.1-7-1.1c-4.7,0-8.5,1.1-11.4,3.2c-2.9,2.2-4.3,5.4-4.3,9.5c0,3.6,1.2,6.4,3.7,8.5c2.5,2,5.5,3.1,9.1,3.1
			s7-1.4,10.1-4v3.1h9.4v-24.2C427,370.1,425.5,366.5,422.7,364.1z M405.9,384.5c1.1-0.7,2.6-1.1,4.6-1.1c2.3,0,4.7,0.5,7.2,1.3v3.7
			c-2,1.9-4.8,2.9-8.2,2.9c-1.7,0-2.9-0.4-3.8-1.1c-0.8-0.7-1.3-1.6-1.3-2.8C404.3,386.2,404.8,385.2,405.9,384.5z"/>
		<path id="XMLID_393_" class="st0" d="M463.5,364.8c-2.6-3-6.4-4.4-11-4.4c-3.7,0-6.8,1.1-9.1,3.2v-2.3h-9.2v37.6h9.5v-20.8
			c0-2.9,0.7-5.2,2-6.7c1.3-1.6,3.1-2.4,5.6-2.4c2.2,0,3.7,0.7,4.9,2.2c1.2,1.4,1.8,3.5,1.8,5.9v21.8h9.5V377
			C467.4,371.9,466.1,367.7,463.5,364.8z"/>
		<path id="XMLID_320_" class="st0" d="M230.2,364.1L230.2,364.1c-2.9-2.4-6.8-3.7-11.8-3.7c-3.1,0-6.1,0.7-8.8,2
			c-2.5,1.2-4.9,3.4-6.5,6l0.1,0.1l6.1,5.8c2.5-4,5.3-5.4,9-5.4c2,0,3.6,0.5,4.9,1.6c1.2,1.1,1.9,2.4,1.9,4.1v1.8
			c-2.4-0.7-4.7-1.1-7-1.1c-4.7,0-8.5,1.1-11.4,3.2c-2.9,2.2-4.3,5.4-4.3,9.5c0,3.6,1.2,6.4,3.7,8.5c2.5,2,5.5,3.1,9.1,3.1
			s7-1.4,10.1-4v3.1h9.4v-24.2C234.5,370.1,233.1,366.5,230.2,364.1z M213.4,384.5c1.1-0.7,2.6-1.1,4.6-1.1c2.3,0,4.7,0.5,7.2,1.3
			v3.7c-2,1.9-4.8,2.9-8.2,2.9c-1.7,0-2.9-0.4-3.8-1.1c-0.8-0.7-1.3-1.6-1.3-2.8C211.8,386.2,212.3,385.2,213.4,384.5z"/>
		<path id="XMLID_235_" class="st0" d="M286,399.7c-15.2,0-27.6-12.4-27.6-27.6s12.4-27.6,27.6-27.6s27.6,12.4,27.6,27.6
			C313.6,387.4,301.2,399.7,286,399.7z M286,354.3c-9.8,0-17.9,8-17.9,17.9c0,9.8,8,17.9,17.9,17.9s17.9-8,17.9-17.9
			S295.8,354.3,286,354.3z"/>
	</g>
</g>
</svg>
