<?xml version="1.0" encoding="utf-8"?>
<!-- Generator: Adobe Illustrator 24.0.1, SVG Export Plug-In . SVG Version: 6.00 Build 0)  -->
<svg version="1.1" id="Layer_1" xmlns="http://www.w3.org/2000/svg" xmlns:xlink="http://www.w3.org/1999/xlink" x="0px" y="0px"
	 viewBox="0 0 512 512" style="enable-background:new 0 0 512 512;" xml:space="preserve">
<style type="text/css">
	.st0{fill:url(#XMLID_2_);}
	.st1{fill:url(#XMLID_3_);}
	.st2{fill:url(#XMLID_4_);}
	.st3{fill:url(#XMLID_5_);}
	.st4{fill:#FFFFFF;}
</style>
<g>
	
		<linearGradient id="XMLID_2_" gradientUnits="userSpaceOnUse" x1="159.2897" y1="68.392" x2="427.3759" y2="230.1957" gradientTransform="matrix(1 0 0 -1 0 514)">
		<stop  offset="0" style="stop-color:#FCEE39"/>
		<stop  offset="1" style="stop-color:#F37B3D"/>
	</linearGradient>
	<path id="XMLID_3041_" class="st0" d="M456.1,279.1c3.1-2.7,4.8-6.5,5.1-10.9c0.3-8.9-6.2-16.1-15-16.8c-4.1-0.3-8.2,1.4-11.3,3.8
		l0,0l-286.6,157c-6.5,2.7-12.3,7.5-16.1,14c-9.9,16.4-4.4,37.6,12.3,47.5c11.6,6.8,25.6,6.2,36.6-0.7l0,0l0,0
		c0.7-0.7,1.7-1,2.4-1.7l266.7-187.4C451.6,282.8,455.4,280.1,456.1,279.1L456.1,279.1L456.1,279.1z"/>
	
		<linearGradient id="XMLID_3_" gradientUnits="userSpaceOnUse" x1="215.9662" y1="456.9026" x2="460.6568" y2="242.683" gradientTransform="matrix(1 0 0 -1 0 514)">
		<stop  offset="0" style="stop-color:#EF5A6B"/>
		<stop  offset="0.57" style="stop-color:#F26F4E"/>
		<stop  offset="1" style="stop-color:#F37B3D"/>
	</linearGradient>
	<path id="XMLID_3049_" class="st1" d="M456.8,256.2L456.8,256.2L238.6,42.1c-4.8-5.1-11.6-8.5-19.5-8.5c-14.7,0-26.3,12-26.3,26.3
		l0,0c0,7.2,2.7,13.3,7.2,18.1l0,0l0,0c1.4,1.4,2.7,2.4,4.1,3.4l230.5,197.3l0,0c2.7,2.4,6.2,4.1,10.3,4.4c8.9,0.3,16.1-6.2,16.8-15
		C461.6,263.7,459.8,259.2,456.8,256.2z"/>
	
		<linearGradient id="XMLID_4_" gradientUnits="userSpaceOnUse" x1="231.5119" y1="262.7198" x2="86.4946" y2="353.2838" gradientTransform="matrix(1 0 0 -1 0 514)">
		<stop  offset="0" style="stop-color:#7C59A4"/>
		<stop  offset="0.3852" style="stop-color:#AF4C92"/>
		<stop  offset="0.7654" style="stop-color:#DC4183"/>
		<stop  offset="0.957" style="stop-color:#ED3D7D"/>
	</linearGradient>
	<path id="XMLID_3042_" class="st2" d="M245.8,237c-0.3,0-134.7-106-137.5-107.7l0,0l0,0c-2.1-1-4.1-2.1-6.2-3.1
		c-19.8-7.5-41.7,2.7-49.2,22.6c-6.5,17.4,0.7,36.6,15.7,45.8l0,0l0,0c2.4,1.4,4.4,2.4,6.8,3.1c1.4,0.7,155.2,64.3,155.2,64.3l0,0
		c6.2,2.7,13.3,1,17.4-4.1C253.3,251.4,252.3,242.1,245.8,237z"/>
	
		<linearGradient id="XMLID_5_" gradientUnits="userSpaceOnUse" x1="228.8868" y1="467.8444" x2="87.3088" y2="350.9135" gradientTransform="matrix(1 0 0 -1 0 514)">
		<stop  offset="0" style="stop-color:#EF5A6B"/>
		<stop  offset="0.364" style="stop-color:#EE4E72"/>
		<stop  offset="1" style="stop-color:#ED3D7D"/>
	</linearGradient>
	<path id="XMLID_3057_" class="st3" d="M219.1,33.6c-5.8,0-11.3,2.1-15.7,5.1L67.3,130.3c-0.3,0.3-0.7,0.3-0.7,0.7h-0.3l0,0
		c-5.8,4.1-10.6,10.3-13.3,17.4c-7.5,19.8,2.7,42.1,22.6,49.2c12.3,4.8,25.6,2.4,35.6-4.8l0,0l0,0c2.4-1.7,4.4-3.4,6.2-5.5
		L235.5,80.7l0,0c6.2-4.8,10.3-12.3,10.3-20.9l0,0C245.8,45.5,233.8,33.6,219.1,33.6z"/>
	<g id="XMLID_3008_">
		<rect id="XMLID_3033_" x="168.8" y="161.4" width="174.4" height="174.4"/>
		<rect id="XMLID_3032_" x="183.9" y="303" class="st4" width="65.3" height="10.9"/>
		<g id="XMLID_3009_">
			<path id="XMLID_3030_" class="st4" d="M183.2,207.3l5.1-4.8c1.4,1.7,2.7,2.7,4.4,2.7c2.1,0,3.1-1.4,3.1-4.1V183h7.9v18.1
				c0,3.4-1,6.2-2.7,7.9c-1.7,1.7-4.4,2.7-7.9,2.7C188,212.1,185.3,210,183.2,207.3z"/>
			<path id="XMLID_3028_" class="st4" d="M205.4,183.3h22.9v6.5h-15v4.4H227v6.2h-13.7v4.4h15.4v6.8h-22.9L205.4,183.3z"/>
			<path id="XMLID_3026_" class="st4" d="M238.6,190.2h-8.5v-6.8h25v6.8h-8.5v21.5h-7.9V190.2z"/>
			<path id="XMLID_3022_" class="st4" d="M183.9,218.2h14.7c3.4,0,6.2,1,7.9,2.4c1,1,1.7,2.7,1.7,4.8l0,0c0,3.4-1.7,5.1-4.4,6.5
				c3.4,1,5.5,3.1,5.5,6.8l0,0c0,4.8-4.1,7.9-10.6,7.9h-14.7V218.2z M200.3,227.1c0-1.7-1.4-2.4-3.4-2.4h-5.1v5.1h4.8
				C198.9,229.5,200.3,228.8,200.3,227.1L200.3,227.1z M197.6,235.3h-6.2v5.1h6.2c2.4,0,3.8-1,3.8-2.7l0,0
				C201.3,236,200,235.3,197.6,235.3z"/>
			<path id="XMLID_3019_" class="st4" d="M210.6,218.2h13.3c4.4,0,7.2,1,9.2,3.1c1.7,1.7,2.4,3.8,2.4,6.5l0,0c0,4.4-2.4,7.2-5.8,8.9
				l6.8,9.9h-8.9l-5.8-8.5h-3.4v8.5h-7.9L210.6,218.2z M223.6,231.9c2.7,0,4.1-1.4,4.1-3.4l0,0c0-2.4-1.7-3.4-4.1-3.4h-5.1v6.8
				H223.6z"/>
			<path id="XMLID_3016_" class="st4" d="M244.8,218.2h7.5l12,28.7h-8.5l-2.1-5.1h-10.9l-2.1,5.1h-8.2L244.8,218.2z M251.6,235.3
				l-3.1-7.9l-3.1,7.9H251.6z"/>
			<path id="XMLID_3014_" class="st4" d="M265.3,218.2h7.9v28.4h-7.9V218.2z"/>
			<path id="XMLID_3012_" class="st4" d="M275.2,218.2h7.2l11.6,15v-15h7.9v28.4H295l-12-15.4v15.7h-7.9V218.2z"/>
			<path id="XMLID_3010_" class="st4" d="M302.5,242.5l4.4-5.1c2.7,2.4,5.8,3.4,9.2,3.4c2.1,0,3.4-0.7,3.4-2.1l0,0
				c0-1.4-1-1.7-4.8-2.7c-6.2-1.4-10.6-3.1-10.6-8.9l0,0c0-5.1,4.1-9.2,10.9-9.2c4.8,0,8.5,1.4,11.6,3.8l-4.1,5.5
				c-2.7-1.7-5.5-2.7-7.9-2.7c-2.1,0-2.7,0.7-2.7,1.7l0,0c0,1.4,1,1.7,4.8,2.7c6.5,1.4,10.6,3.4,10.6,8.9l0,0
				c0,5.8-4.4,9.2-11.6,9.2C310.8,247.3,306,245.6,302.5,242.5z"/>
		</g>
	</g>
</g>
</svg>
