<?xml version="1.0" encoding="utf-8"?>
<!-- Generator: Adobe Illustrator 24.0.1, SVG Export Plug-In . SVG Version: 6.00 Build 0)  -->
<svg version="1.1" id="Layer_1" xmlns="http://www.w3.org/2000/svg" xmlns:xlink="http://www.w3.org/1999/xlink" x="0px" y="0px"
	 viewBox="0 0 512 512" style="enable-background:new 0 0 512 512;" xml:space="preserve">
<style type="text/css">
	.st0{fill:#213166;}
	.st1{fill:#223267;}
	.st2{fill:#FEFEFF;}
</style>
<g>
	<path class="st0" d="M0.1,294c0-25.4,0-50.7,0-76.1c170.5,0,341.2,0,511.7,0c0,0.2,0,0.5,0,0.7c0,24.8,0,49.6,0,74.3
		c0,0.2,0,0.5,0,0.7c0,0.2-0.1,0.4-0.4,0.4c-0.2,0-0.5,0-0.7,0c-76.4,0-152.7,0-229.1,0c-0.2,0-0.4,0-0.6,0s-0.4,0-0.6-0.1
		c0-0.2,0-0.6,0-0.8c0-24.7,0-49.4,0-73.9c0-0.2,0.1-0.6-0.1-0.8s-0.6-0.1-0.8-0.1c-92.7,0-185.4,0-278.2,0c-1.1,0-0.8-0.1-0.8,1
		c0,24.7,0,49.4,0,73.9c0,0.2,0,0.5,0,0.7S0.2,294,0.1,294z M450.8,279.1c0.1-0.2,0.1-0.5,0.1-0.7c0-8.1,0-16.2,0-24.3
		c0-0.2,0-0.4,0-0.6s0.1-0.4,0.2-0.4s0.2-0.1,0.4-0.1c1.6-0.5,3.1-1,4.8-1.1c1.1-0.1,2.1-0.1,3.1,0c1.9,0.2,3.3,1.2,3.9,3
		c0.2,0.7,0.4,1.3,0.5,2.1c0.1,1.3,0.2,2.7,0.2,4c0,5.8,0,11.6,0,17.4c0,0.2,0,0.4,0,0.6c0,0.1,0,0.2,0.2,0.2c0.1,0,0.2,0,0.4,0
		c2.1,0,4.1,0,6.2,0c0.5,0,0.6,0,0.6-0.6v-0.1c0-6.1,0-12.1,0-18.2c0-2.1-0.1-4.2-0.5-6.3c-0.2-1.2-0.6-2.5-1.1-3.6
		c-1.1-2.3-2.8-3.8-5.2-4.5c-1.1-0.4-2.2-0.5-3.3-0.5c-1.3-0.1-2.7,0-4,0.2c-1.9,0.4-3.8,1-5.6,1.8c-0.2,0.1-0.5,0.2-0.7,0.2
		c-0.2-0.2-0.1-0.5-0.1-0.7c0-4.6,0-9.2,0-13.8c0-0.2,0-0.4,0-0.6c0-0.1-0.1-0.1-0.1-0.1c-0.1,0-0.4,0-0.5,0c-1.9,0-3.9,0-5.8,0
		c-0.8,0-0.7-0.1-0.7,0.7c0,15.1,0,30.3,0,45.3c0,0.1,0,0.4,0,0.5c0,0.2,0,0.2,0.2,0.4c0.1,0,0.2,0,0.4,0c2.1,0,4,0,6.1,0
		C450.4,279.1,450.6,279.1,450.8,279.1z M406.9,265.5c0-0.2,0.1-0.5,0.1-0.8c0.1-0.8,0.1-1.8,0.2-2.7c0.1-0.8,0.2-1.8,0.1-2.7
		c0-0.5-0.1-1-0.1-1.5c-0.1-1.6-0.4-3.1-0.8-4.6c-0.5-1.5-1.1-2.8-2.1-3.9c-1.5-1.7-3.3-2.8-5.3-3.4c-1.3-0.4-2.8-0.6-4.1-0.7
		c-1.9-0.1-3.8,0-5.6,0.5c-3.4,0.8-5.9,2.7-7.7,5.7c-0.7,1.2-1.2,2.7-1.6,4c-0.7,2.5-0.8,5.2-0.8,7.9c0,1.6,0.1,3.3,0.4,4.8
		c0.2,1.6,0.6,3.1,1.2,4.6c1.3,3.4,3.8,5.6,7.4,6.5c1.6,0.4,3,0.5,4.6,0.6c2.1,0,4.1-0.1,6.2-0.4c1.7-0.2,3.5-0.5,5.2-0.7
		c0.7-0.1,1.3-0.2,2.1-0.4c0.2,0,0.2-0.1,0.2-0.2s0-0.2,0-0.4c0-1.3-0.1-2.7-0.1-4c0-0.8,0-0.7-0.7-0.7c-1.8,0.1-3.5,0.2-5.3,0.4
		c-1.5,0.1-2.9,0.1-4.4,0.1c-1.1,0-2.2,0-3.3,0c-0.7-0.1-1.6-0.2-2.3-0.5c-1.5-0.6-2.4-1.6-3-2.9c-0.1-0.2-0.2-0.6-0.4-0.8
		c-0.2-0.8-0.4-1.8-0.5-2.7c-0.1-1-0.1-0.8,0.7-0.8c6.3,0,12.6,0,18.9,0C406.3,265.5,406.7,265.7,406.9,265.5z M328,248
		c0-0.4,0-0.6,0-0.8c0-0.4,0-0.6,0-1c0-0.1-0.1-0.2-0.2-0.2s-0.2,0-0.4,0c-2.1,0-4,0-6.1,0c-0.1,0-0.1,0-0.2,0c-0.4,0-0.4,0-0.4,0.4
		c0,0.1,0,0.2,0,0.4c0,10.7,0,21.2,0,31.8c0,0.1,0,0.2,0,0.5c0,0.1,0.1,0.2,0.2,0.2s0.4,0,0.5,0c1.9,0,3.9,0,5.7,0
		c0.8,0,0.8,0.1,0.8-0.8c0-8,0-16,0-24c0-0.2,0-0.4,0-0.6s0.1-0.4,0.2-0.5c0.1,0,0.2-0.1,0.4-0.1c1.6-0.6,3.3-1.1,5.1-1.3
		c1-0.1,2.1-0.2,3,0c0.5,0.1,0.8,0.1,1.3,0.4c1.2,0.5,1.9,1.3,2.4,2.5c0.4,0.8,0.5,1.8,0.6,2.8c0.1,1.3,0.2,2.5,0.2,3.9
		c0,5.7,0,11.4,0,17.2c0,0.2,0,0.4,0,0.6c0,0.1,0.1,0.1,0.1,0.1c0.1,0,0.2,0,0.4,0c2.1,0,4,0,6.1,0c0.5,0,0.6,0,0.6-0.6
		c0-6.3,0-12.5,0-18.8c0-1.9-0.1-4-0.5-5.9c-0.2-1.2-0.6-2.4-1.1-3.5c-1.1-2.3-2.8-3.9-5.3-4.6c-1.1-0.4-2.2-0.5-3.4-0.5
		c-1.2-0.1-2.5,0-3.8,0.2c-2.1,0.4-4,1.2-5.8,2.1C328.5,247.8,328.3,247.9,328,248z M358.5,261.8c0,1.9,0,3.9,0,5.7
		c0,1.8,0.1,3.6,0.4,5.4c0.2,1.1,0.5,2.2,1,3.3c0.7,1.3,1.7,2.3,3,2.9c0.4,0.1,0.7,0.2,1.1,0.4c1.7,0.5,3.3,0.5,5,0.5
		c1.6-0.1,3.1-0.4,4.7-0.6c0.4-0.1,0.7-0.1,1.2-0.2c0.1,0,0.1-0.1,0.1-0.1c0-0.1,0-0.1,0-0.2c-0.1-1.7-0.2-3.4-0.2-5.2v-0.1
		c0-0.1-0.1-0.1-0.1-0.1c-0.1,0-0.2,0-0.4,0c-1.3,0-2.5,0.1-3.9,0.1c-0.7,0-1.3,0-2.1,0c-1.2-0.1-1.9-0.7-2.3-1.9
		c0-0.1-0.1-0.2-0.1-0.5c-0.1-0.8-0.2-1.7-0.2-2.7c0-5.2,0-10.4,0-15.7c0-0.6,0-0.5,0.6-0.5c2.7,0,5.2,0,7.9,0c0.1,0,0.4,0,0.5,0
		s0.2-0.1,0.2-0.2c0-0.1,0-0.4,0-0.5c0-1.6,0-3,0-4.6c0-1,0.1-0.8-0.8-0.8c-2.7,0-5.2,0-7.9,0c-0.4,0-0.4,0-0.4-0.4
		c0-0.1,0-0.2,0-0.5c0-2.7,0-5.3,0-8c0-0.2,0-0.4,0-0.6c0-0.1-0.1-0.1-0.1-0.1c-0.1,0-0.1,0-0.2,0c-2.1,0-4.2,0-6.3,0
		c-0.1,0-0.1,0-0.2,0s-0.2,0.1-0.2,0.2c0,0.2,0,0.4,0,0.6c0,2.7,0,5.3,0,8.1c0,0.2,0,0.4,0,0.6c0,0.1-0.1,0.2-0.2,0.2s-0.4,0-0.5,0
		c-1,0-1.9,0-2.9,0c-0.1,0-0.2,0-0.5,0c-0.1,0-0.2,0.1-0.2,0.2c0,0.1,0,0.1,0,0.2c0,1.7,0,3.5,0,5.2c0,0.1,0,0.1,0,0.2
		c0,0.2,0,0.2,0.2,0.2c0.1,0,0.2,0,0.5,0c1,0,1.9,0,2.9,0c0.6,0,0.6,0,0.6,0.6C358.5,255.7,358.5,258.8,358.5,261.8z M436.6,278.6
		c0.1-0.2,0-0.4,0-0.6c0-1.5-0.1-3-0.1-4.5c0-0.1,0-0.2,0-0.4c0-0.2-0.1-0.2-0.2-0.2c-1.5,0.1-2.9,0.2-4.4,0.4c-1.7,0.1-3.3,0.2-5,0
		c-0.8-0.1-1.6-0.2-2.4-0.5c-1.6-0.5-2.7-1.6-3.3-3c-0.4-0.7-0.5-1.5-0.6-2.3c-0.2-1.1-0.2-2.2-0.2-3.1c-0.1-2.1-0.1-4.2,0.2-6.3
		c0.1-1,0.4-1.9,0.7-2.9c0.6-1.3,1.6-2.3,2.9-2.8c0.2-0.1,0.5-0.2,0.7-0.2c1.5-0.4,2.9-0.5,4.4-0.5c2.1,0.1,4.1,0.2,6.1,0.4
		c0.2,0,0.6,0,0.8,0.1c0.2,0,0.2,0,0.2-0.2c0,0,0,0,0-0.1c0.1-1.6,0.1-3.1,0.2-4.7c0-0.8,0.1-0.6-0.6-0.7c-1.8-0.4-3.5-0.6-5.3-0.8
		c-1.9-0.2-4-0.4-5.9-0.2c-1.2,0.1-2.4,0.2-3.6,0.6c-3,1-5.2,2.8-6.4,5.7c-0.5,1.2-0.8,2.3-1.1,3.6c-0.4,1.6-0.5,3.3-0.6,4.8
		c-0.1,2.9,0,5.9,0.5,8.8c0.2,1.3,0.5,2.7,1,3.9c0.2,0.5,0.5,1.1,0.7,1.6c1.3,2.4,3.3,4,5.8,4.7c1.7,0.5,3.5,0.7,5.3,0.7
		c1.7,0,3.4-0.1,5.1-0.4c1.6-0.2,3.3-0.5,4.8-0.7C436.4,278.7,436.5,278.7,436.6,278.6z M304.9,262.5c0,5.2,0,10.5,0,15.7
		c0,0.2,0,0.4,0,0.6c0,0.1,0.1,0.2,0.2,0.2s0.2,0,0.4,0c1.9,0,4,0,5.9,0c0.7,0,0.6,0,0.6-0.6c0-10.7,0-21.2,0-31.8
		c0-0.1,0-0.2,0-0.5c0-0.1-0.1-0.2-0.2-0.2s-0.4,0-0.5,0c-1.9,0-3.9,0-5.8,0c-0.8,0-0.7-0.1-0.7,0.7
		C304.9,252,304.9,257.3,304.9,262.5z M479.4,274.3c0,1.3,0,2.8,0,4.1c0,0.1,0,0.2,0,0.5c0,0.2,0,0.2,0.2,0.4c0.1,0,0.1,0,0.2,0
		c2.3,0,4.5,0,6.8,0c0.1,0,0.2,0,0.4,0c0.1,0,0.1-0.1,0.2-0.2c0-0.1,0-0.2,0-0.4c0-2.8,0-5.7,0-8.5c0-0.1,0-0.2,0-0.4
		c0-0.1-0.1-0.2-0.2-0.2c-0.1,0-0.1,0-0.2,0c-2.3,0-4.6,0-6.9,0c-0.1,0-0.1,0-0.2,0c-0.1,0-0.1,0.1-0.1,0.1c0,0.1,0,0.4,0,0.5
		C479.4,271.6,479.4,272.9,479.4,274.3z M304.9,236.5c0,1.1,0,2.1,0,3.1c0,0.1,0,0.2,0,0.5c0,0.2,0,0.2,0.2,0.2h0.1
		c2.2,0,4.2,0,6.4,0c0.1,0,0.1,0,0.2,0s0.2-0.1,0.2-0.2c0-0.1,0-0.2,0-0.4c0-2.2,0-4.4,0-6.5c0-0.1,0-0.2,0-0.4c0-0.2,0-0.2-0.2-0.2
		h-0.1c-2.2,0-4.2,0-6.4,0c-0.1,0-0.1,0-0.2,0s-0.2,0.1-0.2,0.2c0,0.1,0,0.2,0,0.5C304.9,234.4,304.9,235.4,304.9,236.5z"/>
	<path class="st1" d="M0.1,294c0.1,0,0.4,0,0.4-0.1c0.4,0,0.6,0,1,0c64.5,0,128.9,0,193.4,0c28.6,0,57.1,0,85.7,0
		c0.1,0.1,0.4,0.1,0.6,0.1s0.4,0,0.6,0c76.4,0,152.7,0,229.1,0c0.2,0,0.5,0,0.7,0s0.2-0.1,0.4-0.4c0-0.2,0-0.5,0-0.7
		c0-24.8,0-49.6,0-74.3c0-0.2,0-0.5,0-0.7h0.1c0,0.2,0,0.4,0,0.6c0,9.6,0,19.2,0,28.8c0,15.6,0,31.2,0,46.8c-0.2,0-0.4,0-0.6,0
		c-170.2,0-340.5,0-510.6,0C0.4,294.1,0.2,294.1,0.1,294C-0.1,294.1,0.1,294,0.1,294z"/>
	<path class="st2" d="M280.4,293.9c-28.6,0-57.1,0-85.7,0c-64.5,0-128.9,0-193.4,0c-0.4,0-0.6,0-1,0c0-0.2,0-0.5,0-0.7
		c0-24.7,0-49.4,0-73.9c0-1.1-0.1-1,0.8-1c92.7,0,185.4,0,278.2,0c0.2,0,0.6-0.1,0.8,0.1c0.1,0.2,0.1,0.5,0.1,0.8
		c0,24.7,0,49.4,0,73.9C280.4,293.3,280.4,293.6,280.4,293.9z M133.4,267.2c-0.2,0-0.5,0-0.6,0c-1.8,0-3.6,0-5.4,0c-1,0-2.1,0-3,0
		c-0.5,0-0.5,0-0.6,0.5c-0.1,0.6-0.1,1.2-0.1,1.8c0,2.2,0.8,4,2.5,5.3c1.1,0.8,2.3,1.5,3.6,1.9c2.5,0.7,5.2,1.2,7.9,1.3
		c3,0.1,6.1-0.2,9-1.1c1.6-0.5,3.1-1.1,4.7-1.8c2.7-1.5,4.5-3.6,5.6-6.4c0.5-1.1,0.7-2.3,0.7-3.5c0-1.5-0.6-2.8-1.7-3.8
		c-0.6-0.6-1.3-1-2.2-1.3c-0.8-0.4-1.7-0.7-2.7-1c-2.4-0.7-4.8-1.2-7.3-1.8c-1.5-0.2-2.9-0.6-4.2-1c-0.6-0.1-1.1-0.5-1.5-1
		c-0.4-0.4-0.4-0.7-0.2-1.2c0.1-0.2,0.1-0.5,0.2-0.6c0.1-0.4,0.4-0.6,0.6-0.8c0.5-0.6,1.1-1,1.8-1.1c0.4-0.1,0.8-0.1,1.2-0.2
		c1.5-0.2,3-0.4,4.5-0.1c1.6,0.1,2.7,0.8,3.3,2.4c0.1,0.4,0.2,0.8,0.4,1.2c0.1,0.2,0.1,0.2,0.4,0.2c0.1,0,0.1,0,0.2,0
		c2.7,0,5.3,0,8,0c0.1,0,0.4,0,0.5,0c0-0.2,0.1-0.5,0.1-0.6c0.1-0.6,0.1-1.2,0.1-1.8c0-1.8-0.7-3.4-1.9-4.7c-1-1-2.1-1.6-3.4-2.1
		c-2.3-0.7-4.6-1.2-7-1.3c-1.2,0-2.3,0-3.5,0.1c-1.7,0.1-3.4,0.4-5,0.8c-2.9,0.7-5.4,2.1-7.6,4.2c-0.4,0.4-0.6,0.7-1,1.1
		c-0.1,0.1-0.1,0.2-0.2,0.1c0-0.1,0-0.2,0-0.4c0.2-1.1,0.5-2.2,0.7-3.1c0.2-0.7,0.4-1.6,0.6-2.3c0.1-0.4,0.1-0.5-0.4-0.5
		c-0.8,0-1.6,0-2.4,0.1c-2.2,0.1-4.2,0.7-6.1,1.9c-1,0.6-1.8,1.3-2.8,2.2c-0.5,0.5-1,0.8-1.5,1.3c-0.1,0.1-0.1,0.2-0.4,0.1
		c0.1-0.7,0.4-1.6,0.5-2.3c0.1-0.7,0.4-1.6,0.5-2.3c-0.2-0.1-0.5,0-0.7,0c-2.3,0-4.7,0-7,0c-0.1,0-0.2,0-0.5,0c-0.5,0-1,0.2-1.1,0.8
		c-0.1,0.1-0.1,0.4-0.1,0.6c-0.7,2.8-1.3,5.6-2.1,8.4c-1.3,5.6-2.8,11-4.1,16.6c-0.4,1.5-0.8,3-1.1,4.5c0,0.2-0.2,0.5-0.1,0.7
		c0.1,0.2,0.5,0.1,0.7,0.1c2.4,0,4.8,0,7.3,0c0.2,0,0.5,0,0.7,0c0.5,0,0.7-0.2,1-0.6c0.1-0.2,0.1-0.5,0.2-0.6
		c1.1-4.5,2.1-8.8,3.3-13.3c0.2-1.1,0.6-2.2,1-3.3c0.4-0.8,0.7-1.6,1.2-2.3c1.1-1.5,2.4-2.4,4.1-3c2.1-0.7,4.1-1,6.3-0.6
		c0.8,0.1,0.7,0.1,0.5,0.8c-0.2,0.7-0.5,1.6-0.6,2.3c-0.2,1.7,0.1,3.3,1.5,4.5c0.4,0.4,0.7,0.6,1.1,0.8c1.2,0.8,2.5,1.5,4,1.8
		c0.6,0.1,1.2,0.2,1.9,0.4c2.3,0.5,4.6,1,6.8,1.5c1.1,0.2,2.1,0.5,3,1c0.4,0.1,0.7,0.2,1,0.6c0.4,0.5,0.6,1,0.4,1.5
		c-0.1,0.2-0.2,0.6-0.5,0.8c-0.4,0.4-0.7,0.7-1.2,1.1c-0.6,0.5-1.3,0.7-2.2,0.8c-0.7,0.1-1.3,0.1-2.1,0.2c-1.6,0.1-3.1,0.1-4.6-0.1
		c-0.5,0-0.8-0.1-1.3-0.4c-0.7-0.2-1.2-0.8-1.6-1.6c-0.2-0.5-0.4-1-0.4-1.6C133.4,267.7,133.4,267.5,133.4,267.2z M181.4,277.2
		c0.1,0.1,0.2,0.1,0.5,0.1c2.3,0,4.5,0,6.8,0c0.5,0,1,0,1.5,0c0.2,0,0.5-0.1,0.6-0.4c0.2-0.2,0.2-0.6,0.4-0.8
		c1.7-6.7,3.4-13.2,4.8-19.8c0.2-1.1,0.6-2.1,0.6-3.1c0.1-1.9-0.5-3.8-1.8-5.2c-0.6-0.7-1.5-1.2-2.3-1.7c-1.5-0.7-2.9-1.1-4.5-1.2
		c-1.5-0.1-3-0.1-4.5,0.1c-3.4,0.5-6.4,1.7-9,4c-0.1,0-0.1,0.1-0.2,0.1c0-0.1,0-0.1,0-0.2c1-3.8,1.9-7.6,2.8-11.4
		c0.2-0.8,0.4-1.6,0.6-2.4c0-0.2,0-0.2-0.2-0.2c-0.7,0-1.5,0-2.2,0c-1.8,0-3.8,0-5.6,0c-0.4,0-0.7,0-1,0c-0.4,0-0.6,0.2-0.7,0.5
		c-0.1,0.2-0.1,0.5-0.2,0.7c-0.5,2.2-1.1,4.2-1.6,6.4c-1.3,5.2-2.5,10.5-3.9,15.7c-1.3,5.6-2.8,11.1-4.1,16.6
		c-0.2,0.8-0.4,1.7-0.5,2.5c0.2,0.1,0.4,0.1,0.6,0.1c2.5,0,5.1,0,7.7,0c0.1,0,0.2,0,0.5,0c0.5,0,0.7-0.2,1-0.7
		c0.1-0.2,0.1-0.5,0.2-0.7c1.1-4.4,2.2-8.7,3.1-13.1c0.4-1.3,0.6-2.7,1-4c1.5-5,6.3-7.9,11.5-6.7c0.5,0.1,1,0.2,1.3,0.6
		c0.6,0.4,1.1,1,1.3,1.7c0.1,0.5,0.2,1,0.1,1.5c-0.1,0.6-0.1,1.2-0.2,1.8c-1.3,5.7-2.8,11.3-4.1,16.9
		C181.6,275.5,181.4,276.3,181.4,277.2z M216.9,273.7c0,1,0,1.9,0,2.9c0,0.1,0,0.4,0,0.5s0,0.1,0.1,0.1s0.2,0,0.4,0
		c2.9,0,5.8,0,8.6,0c0.2,0,0.6,0,0.8,0c0.4,0,0.6-0.4,0.6-0.7c0-0.1-0.1-0.4-0.1-0.5c-0.2-0.6-0.5-1.1-0.6-1.7
		c-0.2-0.7-0.4-1.5-0.1-2.2c0.4-1.3,0.6-2.5,1-3.9c1.1-4.6,2.3-9.3,3.4-13.9c0.2-0.8,0.4-1.8,0.2-2.8c-0.1-1.7-0.8-3.1-2.2-4.1
		c-0.6-0.5-1.3-0.8-2.2-1.1c-2.1-0.7-4.2-1.2-6.5-1.3c-2.1-0.1-4.2-0.1-6.3,0.1c-2.1,0.2-4.1,0.7-6.1,1.6c-1.7,0.7-3.3,1.7-4.6,3
		c-1.7,1.7-2.8,3.6-3.6,5.9c0,0,0,0.1,0,0.2s0,0.1,0.1,0.1s0.4,0,0.5,0c1.8,0,3.8,0,5.6,0c0.7,0,1.3,0,2.1,0c0.5,0,0.7-0.1,1.1-0.5
		c0.5-0.5,0.8-1.1,1.3-1.6c0.6-0.7,1.3-1.3,2.2-1.6c0.4-0.1,0.7-0.2,1.1-0.4c1.3-0.4,2.8-0.5,4.2-0.2c0.7,0.1,1.5,0.4,2.2,0.6
		c0.8,0.2,1.3,0.8,1.5,1.7c0.2,1.1,0,1.9-0.8,2.7c-0.4,0.2-0.6,0.5-1,0.6c-0.6,0.2-1.1,0.4-1.7,0.5c-1.5,0.2-2.9,0.5-4.5,0.6
		c-2.2,0.2-4.2,0.5-6.4,0.8c-1.3,0.2-2.8,0.6-4.1,1.1c-2.2,0.8-4,2.2-5.4,4c-1,1.3-1.7,2.8-2.2,4.5c-0.2,1-0.5,2.1-0.4,3
		c0.1,1.9,1,3.5,2.7,4.7c0.6,0.5,1.3,0.7,2.1,1c2.3,0.7,4.7,0.8,7.1,0.6c2.2-0.2,4.2-1,6.2-1.9c1.1-0.6,2.2-1.2,3.3-1.9
		C216.5,274,216.6,273.8,216.9,273.7z M87.8,273.8c0,0.5,0,0.8,0,1.2s0,0.7,0,1.1c0.1,0.6,0.5,1.1,1.2,1.1c0.1,0,0.1,0,0.2,0
		c2.8,0,5.7,0,8.5,0c0.1,0,0.2,0,0.4,0s0.2,0,0.2-0.1c0.2-0.1,0.2-0.2,0.1-0.5c-0.2-0.6-0.6-1.2-0.8-1.8c-0.2-0.5-0.2-0.8-0.2-1.3
		c0-1,0.2-1.9,0.5-2.9c1.2-5,2.4-10,3.6-15c0.2-1,0.5-1.8,0.6-2.8c0.2-1.9-0.2-3.8-1.8-5.1c-0.4-0.4-0.7-0.6-1.2-0.8
		c-0.8-0.5-1.7-0.8-2.5-1.1c-2.1-0.6-4.2-0.8-6.4-1c-3-0.1-6.2,0.2-9.1,1c-2.4,0.6-4.6,1.8-6.4,3.5c-1.7,1.7-3,3.6-3.9,5.9
		c0,0.1-0.1,0.4-0.1,0.6c0.2,0,0.5,0,0.7,0c2.4,0,4.8,0,7.1,0c0.7,0,1.2-0.2,1.7-0.8c0.7-1.1,1.7-2.1,2.9-2.7
		c2.4-1.3,4.8-1.3,7.3-0.4c0.8,0.4,1.5,1,1.7,1.8c0.2,0.6,0.2,1.1-0.1,1.7c-0.2,0.5-0.6,0.8-1,1.1c-1,0.6-1.9,0.8-2.9,1
		c-2.7,0.4-5.4,0.7-8.1,1c-1.2,0.1-2.4,0.4-3.6,0.6c-2.1,0.5-4,1.3-5.7,2.7c-1.9,1.5-3.3,3.1-4.1,5.4c-0.5,1.5-0.8,2.9-0.7,4.5
		c0.1,1.3,0.6,2.5,1.6,3.6c0.8,0.8,1.8,1.5,3,1.8c0.8,0.2,1.7,0.5,2.7,0.6c1.7,0.2,3.5,0.2,5.2-0.1c2.3-0.4,4.5-1.1,6.4-2.3
		c0.8-0.5,1.7-1.1,2.5-1.6C87.4,273.9,87.6,273.8,87.8,273.8z M13.9,277.2c0.2,0.1,0.5,0,0.7,0c2.4,0,5,0,7.4,0c0.2,0,0.4,0,0.6,0
		c0.5,0,0.8-0.4,1.1-0.7c0.1-0.2,0.2-0.6,0.2-0.8c0.8-3.3,1.6-6.7,2.4-9.9c1.7-7,3.5-14,5.2-21.2c0.1-0.7,0.4-1.5,0.6-2.2
		c0-0.1,0.1-0.1,0.2-0.1s0.2,0.1,0.2,0.2c0,0.2,0,0.4,0,0.6c0,11,0,22.1,0,33.2c0,0.2,0,0.4,0,0.6c0,0.4,0,0.4,0.4,0.4
		c0.1,0,0.1,0,0.2,0c2.2,0,4.4,0,6.5,0c0.6,0,0.6,0,0.6-0.6c-0.1-2.5-0.1-5.2-0.2-7.7c-0.1-4-0.1-7.9-0.2-11.9
		c-0.1-4-0.1-8.1-0.2-12.1c-0.1-3.3-0.1-6.4-0.2-9.7c0-0.5,0-0.5-0.5-0.5c-0.1,0-0.2,0-0.4,0c-3.1,0-6.2,0-9.3,0c-0.8,0-1.8,0-2.7,0
		c-0.4,0-0.7,0-1.1,0c-0.6,0.1-1.1,0.4-1.3,1c-0.1,0.4-0.2,0.6-0.2,1c-0.7,2.9-1.3,5.7-2.1,8.6c-1.3,5.6-2.8,11.1-4.1,16.6
		c-1.2,4.7-2.3,9.4-3.5,14.3C14,276.4,13.9,276.8,13.9,277.2z M71.9,234.8c-0.1-0.1-0.2-0.1-0.2-0.1c-0.4,0-0.7,0-1,0
		c-3.8,0-7.5,0-11.3,0c-0.4,0-0.8,0-1.2,0c-0.7,0-1.2,0.4-1.5,0.8c-0.1,0.1-0.1,0.2-0.2,0.5c-0.4,0.6-0.6,1.2-1,1.8
		c-3.3,6.5-6.7,13.1-9.9,19.6c-0.5,1-1.1,1.9-1.5,3c-0.7,1.7-1.1,3.5-1,5.3c0,0.6,0.1,1.2,0.1,1.8c0,1.9,0,3.8,0,5.7
		c0,0.6,0,1.1,0,1.7c0,0.1,0,0.2,0.1,0.2s0.2,0,0.4-0.1c0.1-0.1,0.1-0.2,0.2-0.4c0.8-1.6,1.6-3.1,2.4-4.7c2.8-5.4,5.4-10.8,8.2-16.2
		c1.8-3.6,3.8-7.4,5.6-11c0.1-0.1,0.1-0.2,0.2-0.4h0.1c0,0,0.1,0,0.1,0.1s0,0.4-0.1,0.5c-0.6,2.4-1.2,4.8-1.8,7.3
		c-1.7,6.8-3.4,13.6-5,20.3c-0.5,2.1-1,4.1-1.6,6.2c0,0.1-0.1,0.4,0,0.6c0.2,0,0.4,0,0.6,0c2.5,0,5.2,0,7.7,0c0.1,0,0.4,0,0.5,0
		c0.4,0,0.7-0.2,0.8-0.6c0.1-0.2,0.1-0.4,0.2-0.6c1-3.9,1.9-7.7,2.9-11.6c1.6-6.7,3.3-13.2,4.8-19.8c0.7-3.1,1.6-6.2,2.3-9.3
		C71.9,235.1,72.1,234.9,71.9,234.8z M245,277.2c0.2,0.1,0.5,0,0.7,0c2.5,0,5.1,0,7.5,0c0.1,0,0.2,0,0.5,0c0.5,0,0.8-0.2,1-0.7
		c0.1-0.2,0.2-0.6,0.2-0.8c0.4-1.5,0.7-2.9,1.1-4.4c1.6-6.4,3.1-12.9,4.7-19.4c0.8-3.5,1.7-7,2.7-10.5c0.5-1.9,1-3.9,1.6-5.8
		c0-0.2,0.1-0.5,0.1-0.7c0-0.1-0.1-0.2-0.2-0.2c-0.4,0-0.7,0-1,0c-2.3,0-4.5,0.1-6.8,0c-0.2,0-0.5,0-0.8,0c-0.5,0.1-0.8,0.4-1.1,0.8
		c-0.1,0.2-0.2,0.5-0.2,0.7c-0.5,1.8-1,3.8-1.3,5.6c-1.6,6.7-3.3,13.2-4.8,19.8c-1.2,4.8-2.4,9.7-3.5,14.5
		C245.1,276.6,245,276.8,245,277.2z M230,277.2c0.2,0.1,0.4,0,0.6,0c2.2,0,4.4,0,6.5,0c0.5,0,1,0,1.5,0c0.6,0,1-0.2,1.1-0.8
		c0.1-0.2,0.1-0.4,0.1-0.6c1-4.2,2.1-8.4,3-12.6c1.3-5.4,2.7-10.8,4-16.2c1-3.9,1.9-7.7,2.9-11.6c0-0.2,0.1-0.4,0.1-0.6
		c-0.1-0.1-0.4,0-0.5,0c-2.8,0-5.7,0-8.5,0c-0.1,0-0.2,0-0.4,0s-0.2,0.1-0.2,0.2c-0.1,0.5-0.2,0.8-0.4,1.3
		c-1.3,5.2-2.5,10.4-3.9,15.6c-1.1,4.6-2.3,9.1-3.4,13.7c-1,3.8-1.8,7.4-2.8,11.1C230.1,276.8,230,276.9,230,277.2z"/>
	<path class="st2" d="M450.8,279.1c-0.1,0-0.4,0-0.5,0c-2.1,0-4,0-6.1,0c-0.1,0-0.2,0-0.4,0c-0.2,0-0.2,0-0.2-0.4c0-0.1,0-0.4,0-0.5
		c0-15.1,0-30.3,0-45.3c0-0.8-0.1-0.7,0.7-0.7c1.9,0,3.9,0,5.8,0c0.1,0,0.4,0,0.5,0s0.1,0.1,0.1,0.1c0,0.2,0,0.4,0,0.6
		c0,4.6,0,9.2,0,13.8c0,0.2-0.1,0.5,0.1,0.7c0.2,0,0.5-0.1,0.7-0.2c1.8-0.7,3.6-1.5,5.6-1.8c1.3-0.2,2.7-0.4,4-0.2
		c1.1,0.1,2.2,0.2,3.3,0.5c2.4,0.7,4.1,2.2,5.2,4.5c0.6,1.2,0.8,2.4,1.1,3.6c0.4,2.1,0.5,4.1,0.5,6.3c0,6.1,0,12.1,0,18.2v0.1
		c0,0.6,0,0.6-0.6,0.6c-2.1,0-4.1,0-6.2,0c-0.1,0-0.2,0-0.4,0c-0.1,0-0.2-0.1-0.2-0.2c0-0.2,0-0.4,0-0.6c0-5.8,0-11.6,0-17.4
		c0-1.3-0.1-2.7-0.2-4c-0.1-0.7-0.2-1.5-0.5-2.1c-0.6-1.8-1.9-2.8-3.9-3c-1.1-0.1-2.1-0.1-3.1,0c-1.7,0.2-3.3,0.6-4.8,1.1
		c-0.1,0-0.2,0.1-0.4,0.1c-0.2,0-0.4,0.2-0.2,0.4c0,0.2,0,0.4,0,0.6c0,8.1,0,16.2,0,24.3C450.9,278.6,450.9,278.9,450.8,279.1z"/>
	<path class="st2" d="M406.9,265.5c-0.2,0.1-0.5,0-0.7,0c-6.3,0-12.6,0-18.9,0c-1,0-0.8-0.1-0.7,0.8c0,0.8,0.1,1.8,0.5,2.7
		c0.1,0.2,0.2,0.6,0.4,0.8c0.6,1.5,1.6,2.4,3,2.9c0.7,0.2,1.5,0.5,2.3,0.5c1.1,0.1,2.2,0.1,3.3,0c1.5,0,2.9-0.1,4.4-0.1
		c1.8-0.1,3.5-0.2,5.3-0.4c0.8-0.1,0.7-0.1,0.7,0.7c0,1.3,0.1,2.7,0.1,4c0,0.1,0,0.2,0,0.4c0,0.2,0,0.2-0.2,0.2
		c-0.7,0.1-1.3,0.2-2.1,0.4c-1.7,0.2-3.4,0.5-5.2,0.7c-2.1,0.2-4.1,0.4-6.2,0.4c-1.6,0-3.1-0.1-4.6-0.6c-3.6-1-6.1-3.1-7.4-6.5
		c-0.6-1.5-1-3-1.2-4.6c-0.2-1.6-0.4-3.3-0.4-4.8c0-2.7,0.1-5.2,0.8-7.9c0.4-1.5,0.8-2.8,1.6-4c1.7-3,4.4-5,7.7-5.7
		c1.8-0.5,3.6-0.6,5.6-0.5c1.5,0.1,2.8,0.2,4.1,0.7c2.1,0.6,3.9,1.7,5.3,3.4c1,1.2,1.7,2.5,2.1,3.9c0.5,1.5,0.7,3,0.8,4.6
		c0,0.5,0.1,1,0.1,1.5c0.1,0.8-0.1,1.8-0.1,2.7c-0.1,0.8-0.1,1.8-0.2,2.7C407.1,265.1,406.9,265.3,406.9,265.5z M386.4,260
		c0.2,0.1,0.4,0.1,0.6,0.1c4.2,0,8.5,0,12.7,0c0.1,0,0.2,0,0.5,0c0.1,0,0.1-0.1,0.1-0.1c0-0.1,0-0.2,0-0.4c0-1,0-1.9-0.2-2.8
		c-0.1-0.7-0.4-1.6-0.6-2.3c-0.6-1.6-1.8-2.5-3.4-2.9c-1.7-0.4-3.5-0.4-5.2,0c-1.2,0.2-2.2,0.8-2.9,1.9c-0.5,0.6-0.7,1.2-1,1.9
		c-0.4,1.2-0.6,2.5-0.6,3.8C386.4,259.4,386.4,259.6,386.4,260z"/>
	<path class="st2" d="M328,248c0.4-0.1,0.5-0.2,0.7-0.4c1.8-1,3.8-1.7,5.8-2.1c1.2-0.2,2.5-0.4,3.8-0.2c1.1,0.1,2.3,0.2,3.4,0.5
		c2.4,0.7,4.2,2.3,5.3,4.6c0.5,1.1,0.8,2.3,1.1,3.5c0.4,1.9,0.5,3.9,0.5,5.9c0,6.3,0,12.5,0,18.8c0,0.6,0,0.6-0.6,0.6
		c-2.1,0-4,0-6.1,0c-0.1,0-0.2,0-0.4,0c-0.1,0-0.1-0.1-0.1-0.1c0-0.2,0-0.4,0-0.6c0-5.7,0-11.4,0-17.2c0-1.3,0-2.5-0.2-3.9
		c-0.1-1-0.2-1.8-0.6-2.8c-0.5-1.2-1.2-2.1-2.4-2.5c-0.5-0.1-0.8-0.2-1.3-0.4c-1-0.1-2.1-0.1-3,0c-1.7,0.2-3.4,0.7-5.1,1.3
		c-0.1,0-0.2,0.1-0.4,0.1c-0.2,0.1-0.2,0.2-0.2,0.5s0,0.4,0,0.6c0,8,0,16,0,24c0,1,0.1,0.8-0.8,0.8c-1.9,0-3.9,0-5.7,0
		c-0.1,0-0.4,0-0.5,0s-0.2-0.1-0.2-0.2c0-0.1,0-0.2,0-0.5c0-10.7,0-21.2,0-31.8c0-0.1,0-0.2,0-0.4c0-0.4,0-0.4,0.4-0.4
		c0.1,0,0.1,0,0.2,0c2.1,0,4,0,6.1,0c0.1,0,0.2,0,0.4,0c0.1,0,0.2,0.1,0.2,0.2c0,0.4,0,0.6,0,1C328,247.4,328,247.6,328,248z"/>
	<path class="st2" d="M358.5,261.8c0-3,0-6.1,0-9.1c0-0.6,0-0.6-0.6-0.6c-1,0-1.9,0-2.9,0c-0.1,0-0.2,0-0.5,0
		c-0.2,0-0.2-0.1-0.2-0.2c0-0.1,0-0.1,0-0.2c0-1.7,0-3.5,0-5.2c0-0.1,0-0.1,0-0.2c0-0.1,0.1-0.2,0.2-0.2s0.2,0,0.5,0
		c1,0,1.9,0,2.9,0c0.1,0,0.4,0,0.5,0s0.2-0.1,0.2-0.2c0-0.2,0-0.4,0-0.6c0-2.7,0-5.3,0-8.1c0-0.2,0-0.4,0-0.6c0-0.1,0.1-0.2,0.2-0.2
		s0.1,0,0.2,0c2.1,0,4.2,0,6.3,0c0.1,0,0.1,0,0.2,0s0.1,0.1,0.1,0.1c0,0.2,0,0.4,0,0.6c0,2.7,0,5.3,0,8c0,0.1,0,0.2,0,0.5
		c0,0.4,0,0.4,0.4,0.4c2.7,0,5.2,0,7.9,0c1,0,0.8-0.1,0.8,0.8c0,1.6,0,3,0,4.6c0,0.1,0,0.4,0,0.5c0,0.1-0.1,0.2-0.2,0.2
		s-0.4,0-0.5,0c-2.7,0-5.2,0-7.9,0c-0.6,0-0.6,0-0.6,0.5c0,5.2,0,10.4,0,15.7c0,0.8,0,1.8,0.2,2.7c0,0.1,0.1,0.2,0.1,0.5
		c0.4,1.2,1.1,1.7,2.3,1.9c0.7,0.1,1.3,0.1,2.1,0c1.3,0,2.5-0.1,3.9-0.1c0.1,0,0.2,0,0.4,0c0.1,0,0.1,0,0.1,0.1v0.1
		c0.1,1.7,0.2,3.4,0.2,5.2c0,0.1,0,0.1,0,0.2s-0.1,0.1-0.1,0.1c-0.4,0.1-0.7,0.1-1.2,0.2c-1.6,0.2-3.1,0.5-4.7,0.6
		c-1.7,0.1-3.4,0-5-0.5c-0.4-0.1-0.7-0.2-1.1-0.4c-1.3-0.6-2.4-1.6-3-2.9c-0.5-1-0.8-2.1-1-3.3c-0.2-1.8-0.4-3.6-0.4-5.4
		C358.5,265.5,358.5,263.7,358.5,261.8z"/>
	<path class="st2" d="M436.6,278.6c-0.1,0.1-0.4,0.1-0.5,0.1c-1.6,0.2-3.3,0.5-4.8,0.7c-1.7,0.2-3.4,0.4-5.1,0.4
		c-1.8,0-3.5-0.2-5.3-0.7c-2.5-0.8-4.6-2.3-5.8-4.7c-0.2-0.5-0.5-1-0.7-1.6c-0.5-1.2-0.8-2.5-1-3.9c-0.5-2.9-0.5-5.8-0.5-8.8
		c0.1-1.7,0.2-3.3,0.6-4.8c0.2-1.2,0.6-2.4,1.1-3.6c1.3-2.9,3.4-4.7,6.4-5.7c1.2-0.4,2.4-0.6,3.6-0.6c2.1-0.1,4,0,5.9,0.2
		c1.8,0.2,3.6,0.5,5.3,0.8c0.7,0.1,0.7,0,0.6,0.7c-0.1,1.6-0.1,3.1-0.2,4.7c0,0,0,0,0,0.1c0,0.2,0,0.2-0.2,0.2s-0.6,0-0.8-0.1
		c-2.1-0.2-4.1-0.4-6.1-0.4c-1.5,0-2.9,0-4.4,0.5c-0.2,0.1-0.5,0.1-0.7,0.2c-1.3,0.5-2.3,1.5-2.9,2.8c-0.4,1-0.6,1.8-0.7,2.9
		c-0.2,2.1-0.2,4.2-0.2,6.3c0,1.1,0.1,2.2,0.2,3.1c0.1,0.8,0.4,1.6,0.6,2.3c0.6,1.5,1.7,2.5,3.3,3c0.7,0.2,1.6,0.4,2.4,0.5
		c1.7,0.1,3.3,0.1,5,0c1.5-0.1,2.9-0.2,4.4-0.4c0.2,0,0.2,0,0.2,0.2c0,0.1,0,0.2,0,0.4c0,1.5,0.1,3,0.1,4.5
		C436.7,278.1,436.7,278.4,436.6,278.6z"/>
	<path class="st2" d="M304.9,262.5c0-5.3,0-10.5,0-15.9c0-0.8-0.1-0.7,0.7-0.7c1.9,0,3.9,0,5.8,0c0.1,0,0.4,0,0.5,0s0.2,0.1,0.2,0.2
		c0,0.1,0,0.2,0,0.5c0,10.7,0,21.2,0,31.8c0,0.7,0,0.6-0.6,0.6c-1.9,0-4,0-5.9,0c-0.1,0-0.2,0-0.4,0c-0.1,0-0.2-0.1-0.2-0.2
		c0-0.2,0-0.4,0-0.6C304.9,273.1,304.9,267.8,304.9,262.5z"/>
	<path class="st2" d="M479.4,274.3c0-1.3,0-2.7,0-4c0-0.1,0-0.4,0-0.5s0-0.1,0.1-0.1s0.1,0,0.2,0c2.3,0,4.6,0,6.9,0
		c0.1,0,0.1,0,0.2,0s0.1,0.1,0.2,0.2c0,0.1,0,0.2,0,0.4c0,2.8,0,5.7,0,8.5c0,0.1,0,0.2,0,0.4c0,0.1-0.1,0.2-0.2,0.2s-0.2,0-0.4,0
		c-2.3,0-4.5,0-6.8,0c-0.1,0-0.1,0-0.2,0c-0.2,0-0.2,0-0.2-0.4c0-0.1,0-0.2,0-0.5C479.4,277,479.4,275.6,479.4,274.3z"/>
	<path class="st2" d="M304.9,236.5c0-1.1,0-2.1,0-3.1c0-0.1,0-0.2,0-0.5c0-0.1,0.1-0.1,0.2-0.2c0.1,0,0.1,0,0.2,0c2.2,0,4.2,0,6.4,0
		h0.1c0.2,0,0.2,0,0.2,0.2c0,0.1,0,0.2,0,0.4c0,2.2,0,4.4,0,6.5c0,0.1,0,0.2,0,0.4c0,0.1-0.1,0.2-0.2,0.2s-0.1,0-0.2,0
		c-2.2,0-4.2,0-6.4,0h-0.1c-0.2,0-0.2,0-0.2-0.2c0-0.1,0-0.2,0-0.5C304.9,238.6,304.9,237.6,304.9,236.5z"/>
	<path class="st1" d="M133.4,267.2c0,0.2,0.1,0.5,0.1,0.7c0.1,0.5,0.2,1.1,0.4,1.6c0.4,0.7,0.8,1.2,1.6,1.6c0.5,0.1,0.8,0.2,1.3,0.4
		c1.6,0.2,3.1,0.2,4.6,0.1c0.7,0,1.3-0.1,2.1-0.2c0.8-0.1,1.6-0.4,2.2-0.8c0.5-0.4,0.8-0.6,1.2-1.1c0.2-0.2,0.4-0.5,0.5-0.8
		c0.2-0.6,0.1-1.1-0.4-1.5c-0.2-0.2-0.6-0.5-1-0.6c-1-0.4-2.1-0.6-3-1c-2.3-0.6-4.6-1-6.8-1.5c-0.6-0.1-1.3-0.2-1.9-0.4
		c-1.5-0.4-2.8-1-4-1.8c-0.4-0.2-0.7-0.6-1.1-0.8c-1.2-1.2-1.7-2.8-1.5-4.5c0.1-0.8,0.4-1.6,0.6-2.3c0.2-0.7,0.4-0.7-0.5-0.8
		c-2.2-0.2-4.2-0.1-6.3,0.6c-1.7,0.6-3,1.6-4.1,3c-0.5,0.7-0.8,1.5-1.2,2.3c-0.4,1.1-0.7,2.2-1,3.3c-1.1,4.4-2.2,8.8-3.3,13.3
		c0,0.2-0.1,0.5-0.2,0.6c-0.1,0.4-0.5,0.6-1,0.6c-0.2,0-0.5,0-0.7,0c-2.4,0-4.8,0-7.3,0c-0.2,0-0.6,0.1-0.7-0.1
		c-0.1-0.1,0-0.5,0.1-0.7c0.2-1.6,0.7-3,1.1-4.5c1.3-5.6,2.8-11,4.1-16.6c0.7-2.8,1.3-5.6,2.1-8.4c0-0.2,0.1-0.4,0.1-0.6
		c0.2-0.5,0.6-0.7,1.1-0.8c0.1,0,0.2,0,0.5,0c2.3,0,4.7,0,7,0c0.2,0,0.5,0,0.7,0c-0.1,0.7-0.4,1.6-0.5,2.3c-0.1,0.7-0.4,1.6-0.5,2.3
		c0.1,0.1,0.2,0,0.4-0.1c0.5-0.5,1-0.8,1.5-1.3c0.8-0.7,1.7-1.5,2.8-2.2c1.8-1.2,3.9-1.8,6.1-1.9c0.8,0,1.6,0,2.4-0.1
		c0.4,0,0.4,0,0.4,0.5c-0.1,0.7-0.4,1.6-0.6,2.3c-0.2,1.1-0.5,2.2-0.7,3.1c0,0.1-0.1,0.2,0,0.4c0.1,0,0.1,0,0.2-0.1
		c0.4-0.4,0.6-0.7,1-1.1c2.1-2.2,4.6-3.5,7.6-4.2c1.6-0.4,3.3-0.6,5-0.8c1.2-0.1,2.3-0.1,3.5-0.1c2.4,0.1,4.7,0.5,7,1.3
		c1.2,0.5,2.4,1.1,3.4,2.1c1.3,1.3,1.9,2.9,1.9,4.7c0,0.6,0,1.2-0.1,1.8c0,0.2-0.1,0.4-0.1,0.6c-0.2,0-0.4,0-0.5,0c-2.7,0-5.3,0-8,0
		c-0.1,0-0.1,0-0.2,0c-0.2,0-0.4,0-0.4-0.2c-0.1-0.4-0.2-0.8-0.4-1.2c-0.5-1.6-1.6-2.3-3.3-2.4c-1.6-0.1-3,0-4.5,0.1
		c-0.4,0-0.8,0.1-1.2,0.2c-0.7,0.1-1.5,0.5-1.8,1.1c-0.2,0.2-0.4,0.6-0.6,0.8c-0.1,0.2-0.2,0.4-0.2,0.6c-0.1,0.5-0.1,0.8,0.2,1.2
		c0.4,0.4,0.8,0.7,1.5,1c1.5,0.4,2.9,0.7,4.2,1c2.4,0.5,4.8,1.1,7.3,1.8c0.8,0.2,1.8,0.6,2.7,1c0.7,0.4,1.5,0.7,2.2,1.3
		c1.1,1,1.7,2.3,1.7,3.8c0,1.2-0.2,2.4-0.7,3.5c-1.1,2.8-2.9,5-5.6,6.4c-1.5,0.8-3,1.3-4.7,1.8c-2.9,0.8-5.9,1.2-9,1.1
		c-2.7-0.1-5.3-0.5-7.9-1.3c-1.3-0.4-2.5-1.1-3.6-1.9c-1.7-1.3-2.5-3.1-2.5-5.3c0-0.6,0-1.2,0.1-1.8c0.1-0.5,0.1-0.5,0.6-0.5
		c1,0,2.1,0,3,0c1.8,0,3.6,0,5.4,0C132.9,267.2,133.2,267.2,133.4,267.2z"/>
	<path class="st1" d="M181.4,277.2c0.1-0.8,0.4-1.7,0.5-2.5c1.3-5.7,2.8-11.3,4.1-16.9c0.1-0.6,0.2-1.2,0.2-1.8c0-0.5,0-1-0.1-1.5
		c-0.2-0.7-0.6-1.3-1.3-1.7c-0.4-0.2-0.8-0.5-1.3-0.6c-5.2-1.2-10,1.6-11.5,6.7c-0.4,1.3-0.7,2.7-1,4c-1.1,4.4-2.2,8.7-3.1,13.1
		c0,0.2-0.1,0.5-0.2,0.7c-0.1,0.4-0.5,0.6-1,0.7c-0.1,0-0.2,0-0.5,0c-2.5-0.1-5.1,0-7.7,0c-0.2,0-0.4,0-0.6-0.1
		c0.1-0.8,0.2-1.7,0.5-2.5c1.3-5.6,2.8-11.1,4.1-16.6c1.3-5.2,2.5-10.5,3.9-15.7c0.5-2.2,1.1-4.2,1.6-6.4c0-0.2,0.1-0.5,0.2-0.7
		c0.1-0.4,0.4-0.5,0.7-0.5c0.4,0,0.7,0,1,0c1.8,0,3.8,0,5.6,0c0.7,0,1.5,0,2.2,0c0.2,0,0.2,0,0.2,0.2c-0.2,0.8-0.4,1.6-0.6,2.4
		c-1,3.8-1.9,7.6-2.8,11.4c0,0.1,0,0.1,0,0.2c0.1,0.1,0.2,0,0.2-0.1c2.5-2.3,5.6-3.5,9-4c1.5-0.2,3-0.2,4.5-0.1
		c1.6,0.2,3,0.6,4.5,1.2c0.8,0.4,1.6,1,2.3,1.7c1.3,1.5,1.9,3.3,1.8,5.2c-0.1,1.1-0.4,2.1-0.6,3.1c-1.6,6.7-3.3,13.2-4.8,19.8
		c-0.1,0.4-0.1,0.6-0.4,0.8c-0.1,0.2-0.4,0.4-0.6,0.4c-0.5,0-1,0-1.5,0c-2.3,0-4.5,0-6.8,0C181.6,277.2,181.5,277.3,181.4,277.2z"/>
	<path class="st1" d="M216.9,273.7c-0.4,0.1-0.5,0.2-0.7,0.4c-1.1,0.7-2.1,1.3-3.3,1.9c-1.9,1-4,1.7-6.2,1.9
		c-2.4,0.2-4.7,0.1-7.1-0.6c-0.7-0.2-1.5-0.5-2.1-1c-1.7-1.1-2.5-2.7-2.7-4.7c-0.1-1.1,0.1-2.1,0.4-3c0.5-1.6,1.1-3.1,2.2-4.5
		c1.5-1.8,3.3-3.1,5.4-4c1.3-0.5,2.7-0.8,4.1-1.1c2.2-0.4,4.2-0.6,6.4-0.8c1.5-0.1,2.9-0.4,4.5-0.6c0.6-0.1,1.2-0.2,1.7-0.5
		c0.4-0.1,0.7-0.4,1-0.6c0.8-0.7,1.1-1.6,0.8-2.7c-0.2-0.8-0.7-1.3-1.5-1.7c-0.7-0.2-1.5-0.5-2.2-0.6c-1.5-0.2-2.8-0.2-4.2,0.2
		c-0.4,0.1-0.7,0.2-1.1,0.4c-0.8,0.4-1.6,0.8-2.2,1.6c-0.4,0.6-0.8,1.1-1.3,1.6c-0.2,0.4-0.6,0.5-1.1,0.5c-0.7,0-1.3,0-2.1,0
		c-1.8,0-3.8,0-5.6,0c-0.1,0-0.4,0-0.5,0c-0.1,0-0.1-0.1-0.1-0.1c0-0.1,0-0.1,0-0.2c0.8-2.2,1.9-4.2,3.6-5.9c1.3-1.3,2.9-2.3,4.6-3
		c1.9-0.8,4-1.3,6.1-1.6s4.2-0.2,6.3-0.1c2.2,0.1,4.4,0.6,6.5,1.3c0.7,0.2,1.5,0.6,2.2,1.1c1.5,1.1,2.2,2.4,2.2,4.1
		c0,1-0.1,1.8-0.2,2.8c-1.1,4.6-2.3,9.3-3.4,13.9c-0.4,1.3-0.6,2.5-1,3.9c-0.2,0.7-0.1,1.5,0.1,2.2c0.2,0.6,0.5,1.1,0.6,1.7
		c0,0.1,0.1,0.4,0.1,0.5c0.1,0.4-0.1,0.7-0.6,0.7c-0.2,0-0.6,0-0.8,0c-2.9,0-5.8,0-8.6,0c-0.1,0-0.2,0-0.4,0s-0.1-0.1-0.1-0.1
		c0-0.1,0-0.4,0-0.5C216.9,275.6,216.9,274.7,216.9,273.7z M219.4,262.3c-0.2,0-0.5,0.1-0.7,0.1c-1.3,0.4-2.5,0.7-3.9,0.8
		c-1.6,0.2-3,0.5-4.5,0.8c-0.7,0.1-1.5,0.4-2.1,0.6c-1.8,0.7-2.8,2.2-3.1,4.1c-0.2,1.5,0.6,2.7,1.9,3c0.4,0.1,0.6,0.1,1,0.1
		c1.7,0,3.3-0.1,5-0.6c2.4-0.8,4.4-2.3,5.4-4.7c0.6-1.2,1-2.5,1.1-4C219.4,262.5,219.4,262.4,219.4,262.3z"/>
	<path class="st1" d="M87.8,273.8c-0.2,0-0.4,0.1-0.5,0.2c-0.8,0.5-1.7,1.1-2.5,1.6c-2.1,1.1-4.1,1.9-6.4,2.3
		c-1.7,0.2-3.5,0.2-5.2,0.1c-0.8-0.1-1.8-0.2-2.7-0.6c-1.1-0.4-2.2-1-3-1.8c-1-1-1.5-2.2-1.6-3.6c-0.1-1.6,0.2-3,0.7-4.5
		c0.8-2.2,2.2-4,4.1-5.4c1.7-1.2,3.6-2.1,5.7-2.7c1.2-0.4,2.4-0.5,3.6-0.6c2.7-0.4,5.4-0.7,8.1-1c1.1-0.1,2.1-0.5,2.9-1
		c0.5-0.2,0.8-0.6,1-1.1c0.2-0.6,0.4-1.1,0.1-1.7c-0.4-0.8-0.8-1.5-1.7-1.8c-2.4-1-5-1-7.3,0.4c-1.2,0.6-2.2,1.6-2.9,2.7
		c-0.4,0.6-1,0.8-1.7,0.8c-2.4,0-4.8,0-7.1,0c-0.2,0-0.5,0-0.7,0c-0.1-0.2,0-0.4,0.1-0.6c0.8-2.3,2.1-4.2,3.9-5.9
		c1.8-1.7,4-2.9,6.4-3.5c3-0.7,6.1-1.1,9.1-1c2.2,0.1,4.4,0.4,6.4,1c1,0.2,1.8,0.6,2.5,1.1c0.4,0.2,0.8,0.5,1.2,0.8
		c1.6,1.3,2.1,3,1.8,5.1c-0.1,1-0.4,1.8-0.6,2.8c-1.2,5-2.4,10-3.6,15c-0.2,1-0.5,1.9-0.5,2.9c0,0.5,0,1,0.2,1.3
		c0.2,0.6,0.6,1.2,0.8,1.8c0.1,0.2,0.1,0.4-0.1,0.5c-0.1,0-0.2,0.1-0.2,0.1c-0.1,0-0.2,0-0.4,0c-2.8,0-5.7,0-8.5,0
		c-0.1,0-0.1,0-0.2,0c-0.6,0-1.1-0.5-1.2-1.1c0-0.4,0-0.7,0-1.1C87.8,274.6,87.8,274.1,87.8,273.8z M90.2,262.4
		c-0.4,0.1-0.7,0.1-1.1,0.2c-2.3,0.4-4.6,0.8-6.9,1.3c-1.2,0.2-2.4,0.6-3.5,1.1c-1.7,0.7-2.9,2.5-2.8,4.4c0,1.1,0.6,2.1,1.7,2.4
		c0.5,0.1,1,0.2,1.5,0.2c2.7,0.1,5.1-0.6,7.3-1.9c1.6-1,2.7-2.3,3.3-4c0.4-1.1,0.6-2.2,0.7-3.4C90.2,262.6,90.2,262.5,90.2,262.4z"
		/>
	<path class="st1" d="M13.9,277.2c0-0.4,0.1-0.7,0.2-1.1c1.2-4.7,2.3-9.4,3.5-14.3c1.3-5.6,2.8-11.1,4.1-16.6
		c0.7-2.9,1.3-5.7,2.1-8.6c0.1-0.4,0.1-0.6,0.2-1c0.2-0.6,0.6-0.8,1.3-1c0.4,0,0.7,0,1.1,0c0.8,0,1.8,0,2.7,0c3.1,0,6.2,0,9.3,0
		c0.1,0,0.2,0,0.4,0c0.5,0,0.5,0,0.5,0.5c0.1,3.3,0.1,6.4,0.2,9.7c0.1,4,0.1,8.1,0.2,12.1s0.1,7.9,0.2,11.9c0,2.5,0.1,5.2,0.2,7.7
		c0,0.6,0,0.6-0.6,0.6c-2.2,0-4.4,0-6.5,0c-0.1,0-0.1,0-0.2,0c-0.4,0-0.4,0-0.4-0.4c0-0.2,0-0.4,0-0.6c0-11,0-22.1,0-33.2
		c0-0.2,0-0.4,0-0.6c0-0.1-0.1-0.2-0.2-0.2c-0.1,0-0.2,0-0.2,0.1c-0.2,0.7-0.4,1.5-0.6,2.2c-1.7,7-3.5,14-5.2,21.2
		c-0.8,3.3-1.6,6.7-2.4,9.9c-0.1,0.2-0.1,0.6-0.2,0.8c-0.2,0.5-0.6,0.7-1.1,0.7c-0.2,0-0.4,0-0.6,0c-2.4-0.1-5,0-7.4,0
		C14.2,277.3,14,277.3,13.9,277.2z"/>
	<path class="st1" d="M71.9,234.8c0,0.1,0,0.2,0,0.4c-0.7,3.1-1.5,6.3-2.3,9.3c-1.6,6.7-3.3,13.2-4.8,19.8c-1,3.9-1.9,7.7-2.9,11.6
		c0,0.2-0.1,0.4-0.2,0.6c-0.1,0.4-0.5,0.6-0.8,0.6c-0.1,0-0.4,0-0.5,0c-2.5,0-5.2,0-7.7,0c-0.2,0-0.4,0-0.6,0c-0.1-0.2,0-0.4,0-0.6
		c0.5-2.1,1-4.1,1.6-6.2c1.7-6.8,3.4-13.6,5-20.3c0.6-2.4,1.2-4.8,1.8-7.3c0-0.1,0.1-0.4,0.1-0.5c0,0,0-0.1-0.1-0.1h-0.1
		c-0.1,0.1-0.1,0.2-0.2,0.4c-1.8,3.6-3.8,7.4-5.6,11c-2.8,5.4-5.4,10.8-8.2,16.2c-0.8,1.6-1.6,3.1-2.4,4.7c-0.1,0.1-0.1,0.2-0.2,0.4
		c-0.1,0.1-0.2,0.1-0.4,0.1c-0.1,0-0.1-0.1-0.1-0.2c0-0.6,0-1.1,0-1.7c0-1.9,0-3.8,0-5.7c0-0.6,0-1.2-0.1-1.8
		c-0.1-1.8,0.2-3.6,1-5.3c0.5-1,1-2.1,1.5-3c3.4-6.5,6.7-13.1,9.9-19.6c0.2-0.6,0.6-1.2,1-1.8c0.1-0.1,0.1-0.2,0.2-0.5
		c0.4-0.6,0.8-0.8,1.5-0.8c0.4,0,0.8,0,1.2,0c3.8,0.1,7.5,0,11.3,0c0.4,0,0.7,0,1,0C71.7,234.7,71.8,234.7,71.9,234.8z"/>
	<path class="st1" d="M245,277.2c0-0.4,0.1-0.6,0.1-1c1.2-4.8,2.3-9.7,3.5-14.5c1.6-6.7,3.3-13.2,4.8-19.8c0.5-1.8,0.8-3.8,1.3-5.6
		c0.1-0.2,0.1-0.5,0.2-0.7c0.2-0.5,0.6-0.7,1.1-0.8c0.2,0,0.5-0.1,0.8,0c2.3,0.1,4.5,0.1,6.8,0c0.4,0,0.7,0,1,0
		c0.1,0,0.1,0.1,0.2,0.2c0,0.2,0,0.5-0.1,0.7c-0.5,1.9-1,3.9-1.6,5.8c-0.8,3.5-1.8,7-2.7,10.5c-1.6,6.4-3.1,12.9-4.7,19.4
		c-0.4,1.5-0.7,2.9-1.1,4.4c-0.1,0.2-0.1,0.6-0.2,0.8c-0.1,0.5-0.5,0.7-1,0.7c-0.1,0-0.2,0-0.5,0c-2.5-0.1-5.1,0-7.5,0
		C245.5,277.3,245.3,277.3,245,277.2z"/>
	<path class="st1" d="M230,277.2c0-0.2,0-0.4,0.1-0.6c1-3.8,1.8-7.4,2.8-11.1c1.1-4.6,2.3-9.1,3.4-13.7c1.3-5.2,2.5-10.4,3.9-15.6
		c0.1-0.5,0.2-0.8,0.4-1.3c0-0.1,0.1-0.2,0.2-0.2c0.1,0,0.2,0,0.4,0c2.8,0,5.7,0,8.5,0c0.1,0,0.4,0,0.5,0c0,0.2,0,0.4-0.1,0.6
		c-1,3.9-1.9,7.7-2.9,11.6c-1.3,5.4-2.7,10.8-4,16.2c-1,4.1-2.1,8.4-3,12.6c0,0.2-0.1,0.4-0.1,0.6c-0.2,0.5-0.6,0.8-1.1,0.8
		s-1,0-1.5,0c-2.2,0-4.4,0-6.5,0C230.5,277.3,230.2,277.3,230,277.2z"/>
	<path class="st1" d="M386.4,260c-0.1-0.2,0-0.6,0-0.8c0-1.3,0.2-2.5,0.6-3.8c0.2-0.7,0.5-1.3,1-1.9c0.7-1,1.7-1.6,2.9-1.9
		c1.7-0.4,3.5-0.5,5.2,0c1.7,0.4,2.8,1.5,3.4,2.9c0.2,0.7,0.5,1.5,0.6,2.3c0.1,1,0.2,1.9,0.2,2.8c0,0.1,0,0.2,0,0.4
		c0,0.1-0.1,0.1-0.1,0.1c-0.1,0-0.2,0-0.5,0c-4.2,0-8.5,0-12.7,0C386.9,260,386.6,260.1,386.4,260z"/>
	<path class="st2" d="M219.4,262.3c0.1,0.1,0,0.4,0,0.5c-0.1,1.3-0.5,2.7-1.1,4c-1.1,2.4-3,3.9-5.4,4.7c-1.6,0.5-3.3,0.7-5,0.6
		c-0.4,0-0.7-0.1-1-0.1c-1.5-0.4-2.2-1.6-1.9-3c0.4-1.9,1.3-3.3,3.1-4.1c0.7-0.2,1.3-0.5,2.1-0.6c1.5-0.4,3-0.6,4.5-0.8
		c1.3-0.2,2.5-0.5,3.9-0.8C218.8,262.4,219,262.2,219.4,262.3z"/>
	<path class="st2" d="M90.2,262.4c0.1,0.1,0.1,0.2,0.1,0.4c-0.1,1.1-0.4,2.3-0.7,3.4c-0.6,1.7-1.7,3.1-3.3,4
		c-2.2,1.3-4.6,2.1-7.3,1.9c-0.5,0-1-0.1-1.5-0.2c-1.2-0.5-1.7-1.3-1.7-2.4c0-1.8,1.1-3.6,2.8-4.4c1.1-0.5,2.3-0.8,3.5-1.1
		c2.3-0.5,4.6-0.8,6.9-1.3C89.5,262.5,89.9,262.4,90.2,262.4z"/>
</g>
</svg>
