<?xml version="1.0" encoding="utf-8"?>
<!-- Generator: Adobe Illustrator 24.0.1, SVG Export Plug-In . SVG Version: 6.00 Build 0)  -->
<svg version="1.1" id="Layer_1" xmlns="http://www.w3.org/2000/svg" xmlns:xlink="http://www.w3.org/1999/xlink" x="0px" y="0px"
	 viewBox="0 0 512 512" style="enable-background:new 0 0 512 512;" xml:space="preserve">
<style type="text/css">
	.st0{fill:#F15022;}
	.st1{fill:#7EB900;}
	.st2{fill:#00A3EE;}
	.st3{fill:#FDB800;}
</style>
<path class="st0" d="M249.7,186.1c0,19.6-0.1,39.2,0.1,58.9c0,3.6-0.9,4.9-4.7,4.9c-39.4-0.2-78.7-0.2-118.1,0
	c-3.6,0-4.9-0.9-4.9-4.7c0.2-39.4,0.2-78.7,0-118.1c0-3.6,0.9-4.9,4.7-4.9c39.4,0.2,78.7,0.2,118.1,0c4.1,0,4.9,1.4,4.9,5.2
	C249.6,146.9,249.7,166.5,249.7,186.1z"/>
<path class="st1" d="M262.4,186.1c0-19.6,0.1-39.2-0.1-58.9c0-3.8,0.9-5.2,4.9-5.1c39.2,0.2,78.4,0.2,117.6,0c4,0,4.9,1.3,4.9,5.1
	c-0.2,39.2-0.2,78.4,0,117.6c0,3.6-0.8,4.9-4.6,4.9c-39.4-0.2-78.7-0.2-118.1,0c-3.8,0-4.8-1.2-4.7-4.9
	C262.5,225.3,262.4,205.7,262.4,186.1z"/>
<path class="st2" d="M185.7,389.8c-19.7,0-39.5-0.1-59.2,0.1c-3.2,0-4.3-0.7-4.3-4.1c0.2-39.7,0.2-79.3,0-118.9
	c0-3.6,1.1-4.4,4.6-4.4c39.5,0.1,79,0.1,118.5,0c3.3,0,4.6,0.8,4.6,4.4c-0.2,39.5-0.2,79,0,118.5c0,3.9-1.3,4.6-4.8,4.6
	C225.2,389.7,205.4,389.8,185.7,389.8z"/>
<path class="st3" d="M389.8,326c0,19.8-0.1,39.5,0.1,59.3c0,3.3-0.6,4.6-4.3,4.6c-39.5-0.2-79-0.2-118.5,0c-3.8,0-4.6-1.2-4.6-4.8
	c0.2-39.2,0.2-78.4,0-117.6c0-4.3,1.4-5.1,5.3-5c39.1,0.2,78.2,0.2,117.2,0c3.8,0,5,0.8,5,4.9C389.7,286.8,389.8,306.4,389.8,326z"
	/>
</svg>
