<?xml version="1.0" encoding="utf-8"?>
<!-- Generator: Adobe Illustrator 24.0.1, SVG Export Plug-In . SVG Version: 6.00 Build 0)  -->
<svg version="1.1" id="Layer_1" xmlns="http://www.w3.org/2000/svg" xmlns:xlink="http://www.w3.org/1999/xlink" x="0px" y="0px"
	 viewBox="0 0 512 512" style="enable-background:new 0 0 512 512;" xml:space="preserve">
<style type="text/css">
	.st0{fill:#3088F3;}
</style>
<path class="st0" d="M499.8,245.7c1.7-4.4,3.7-6,7.2-5.4c2.5,0.4,4.3,2.1,4.7,4.6c0.1,0.8,0.3,1.8,0.3,2.6c0,12.9,0,26,0,38.9
	c0,0.8,0,1.8-0.3,2.6c-0.4,2.5-2.5,4.3-5,4.6c-2.6,0.3-5-1-6.1-3.2c-0.3-0.7-0.6-1.4-0.8-2.1c-5.3,4.7-11.2,7.1-18.2,6.1
	c-8.5-1.2-14.7-6-18.2-13.6c-4.4-9.9-4.2-19.9,1.2-29.3c6.8-11.8,21.5-15,32.9-7.4C498.3,244.7,499,245.2,499.8,245.7z M500.5,267.6
	c0-1.8-0.1-3.5-0.6-5.1c-1.7-6.8-6.9-11.2-13.5-11.4c-6.5-0.1-11.8,4-13.7,10.7c-0.8,2.9-0.8,5.8-0.6,8.7
	c0.8,6.5,5.4,11.9,11.2,12.9c6.7,1.1,12.2-1.5,15.3-7.5C499.9,273.3,500.5,270.5,500.5,267.6z"/>
<path class="st0" d="M321.7,271.6c-4.9,0-9.7,0-14.7,0c-1.8,0-2.1,0.6-1.5,2.1c2.1,5.4,6,8.9,11.8,9.7c4.7,0.7,9.3,0.1,13.3-2.8
	c1.1-0.8,2.5-1.2,3.9-1.2c1.9,0,3.5,0.7,4.4,2.4c1.1,1.7,1,3.3,0,5.1c-0.6,1-1.2,1.7-2.1,2.4c-10.6,8.5-29,6.7-37.8-3.6
	c-11.2-13.2-7.1-40.1,13.7-45c13.7-3.2,28.2,7.1,30,21.4c0.1,0.6,0.1,1.1,0.3,1.7c0.6,5.3-1.7,7.8-7.1,7.9
	C331.4,271.8,326.5,271.6,321.7,271.6z M317.9,261.5c3.5,0,6.8,0,10.3,0c2.6,0,2.8-0.1,1.9-2.8c-1.5-4.6-6.8-7.8-12.4-7.6
	c-6.2,0.1-10.4,3.1-12.1,8.5c-0.6,1.8,0,2.1,1.7,2.1C310.7,261.5,314.3,261.5,317.9,261.5z"/>
<path class="st0" d="M171.9,263.1c4.6-4.3,8.6-8.2,12.6-12.1c2.9-2.8,5.7-5.6,8.6-8.3c1.8-1.7,4-2.2,6.4-1c2.2,1.1,3.5,2.9,3.3,5.6
	c-0.1,1.7-1.1,2.8-2.2,3.9c-4.3,4-8.6,8.1-12.9,11.9c-1.5,1.4-1.4,2.2,0,3.6c5.3,5.6,10.4,11.1,15.4,16.7c3.5,3.9,1.8,9.2-3.2,10.1
	c-2.2,0.4-4-0.4-5.4-1.9c-5.3-5.6-10.6-11.1-15.8-16.7c-1.2-1.4-1.9-1.5-3.5-0.3c-2.4,1.9-3.5,4-3.1,7.1c0.3,2.1,0.1,4.2,0,6.4
	c-0.1,3.3-2.6,5.7-5.8,5.7c-3.3,0-6-2.4-6-5.8c0-20.4,0-40.8,0-61.1c0-3.5,2.5-5.7,6-5.7s5.8,2.4,5.8,5.8c0,11,0,21.8,0,32.8
	C171.9,260.6,171.9,261.5,171.9,263.1z"/>
<path class="st0" d="M366.7,248.2c4-4.3,8.5-7.4,14.2-7.9c10.6-1,16.9,3.9,18.7,14.4c0.4,2.2,0.6,4.6,0.6,6.8c0,8.6,0,17.1,0,25.7
	c0,4-2.4,6.7-5.8,6.7c-3.6,0-6-2.5-6-6.5c0-7.8,0-15.5,0-23.2c0-0.7,0-1.5,0-2.2c-0.3-7.4-3.6-10.7-10.4-10.6
	c-6.9,0.1-11.5,4.6-11.5,11.2c0,8.3,0,16.7,0,25c0,4.7-3.9,7.5-8.1,6c-2.4-0.8-3.6-2.5-3.7-5c0-13.9,0-27.9,0-41.8
	c0-2.8,2.1-4.9,4.9-5.3c2.9-0.4,5.6,1,6.5,3.6C366.2,245.8,366.4,246.9,366.7,248.2z"/>
<path class="st0" d="M435.9,253c-5.7,0-11,0-16.2,0c-1,0-1.9,0-2.9,0c-3.2-0.3-5.1-2.6-5-5.8c0.1-2.9,2.1-5,5.1-5
	c4.7-0.1,9.4,0,14.2,0c5,0,10,0,14.9,0c2.6,0,5,0.4,6.1,3.1c1.1,2.6,0.6,5.1-1.1,7.4c-4.9,6.2-9.7,12.6-14.6,18.9
	c-2.8,3.6-5.6,7.2-8.3,10.8c0.8,0.8,1.7,0.6,2.5,0.6c5,0,10.1,0,15.1,0c1,0,1.9,0,2.9,0.1c3.1,0.4,4.9,2.4,4.9,5.4
	c0,2.9-2.1,5.4-5.1,5.4c-10.7,0.1-21.5,0.1-32.2,0c-4.6-0.1-6.7-5.1-3.9-9.4c2.1-3.2,4.4-6,6.8-9c5.1-6.7,10.3-13.3,15.4-19.9
	C434.8,254.7,435.2,254.1,435.9,253z"/>
<path class="st0" d="M127.7,294.7c-7.2-0.4-14.2-1.9-19.3-7.8c-2.5-2.9-2.8-5.7-0.4-8.1c2.4-2.4,5.4-2.2,8.2,0.6
	c4.3,4.3,9.3,6.2,15.3,5.4c1.1-0.1,2.1-0.4,3.1-1c3.6-1.9,3.7-6.7,0.3-8.7c-2.5-1.5-5.3-2.2-7.9-2.9c-3.2-0.8-6.4-1.9-9.4-3.2
	c-11.2-4.9-11.2-19-2.6-25c8.1-5.6,21.9-5,29.2,1.7c0.7,0.7,1.4,1.4,1.9,2.2c1.5,2.4,1.2,5.1-0.8,6.8c-2.1,1.8-5,1.7-7.1-0.4
	c-3.7-3.9-8.2-5-13.3-4.2c-2.2,0.4-4,1.4-4.4,3.9s0.4,4.4,2.8,5.7c2.4,1.4,5,1.9,7.6,2.6c2.9,0.8,6,1.7,8.7,3.1
	c10.6,4.7,12.1,17.9,2.9,24.8C137.7,293.5,132.9,294.7,127.7,294.7z"/>
<path class="st0" d="M281.8,245.8c0,13,0,26.2,0,39.3c0,2.2-0.3,4.4-1.7,6.2c-2.4,3.2-6.5,3.1-8.7-0.3c-1-1.5-1.4-3.2-1.4-5.1
	c0-26.9,0-53.9,0-80.8c0-0.1,0-0.1,0-0.3c0.1-4.2,2.6-7.4,5.8-7.5c3.2,0,5.8,3.1,5.8,7.4C282,218.4,281.8,232.2,281.8,245.8z"/>
<path class="st0" d="M242.1,251.5c0-11.5,0-22.9,0-34.4c0-0.8,0-1.7,0.1-2.5c0.4-2.9,2.8-5.3,5.4-5.4c2.8-0.1,5,1.5,5.8,4.6
	c0.4,1.1,0.4,2.2,0.4,3.3c0,22.9,0,45.8,0,68.7c0,1.1-0.1,2.1-0.3,3.2c-0.8,3.2-3.3,5.1-6.1,4.9c-2.8-0.3-5.3-2.8-5.3-6.1
	c-0.1-5,0-10,0-14.9C242.1,265.6,242.1,258.6,242.1,251.5z"/>
<path class="st0" d="M51.7,293.8c0.1,0.7-0.4,0.8-0.8,1.1c-6.5,4.7-6.5,4.7-10.6-2.2c-11.4-19.7-22.6-39.3-34-58.9
	c-1.1-1.9-1-2.8,1-3.6c1.2-0.6,2.5-1.2,3.6-2.1c1.7-1.2,2.5-1,3.5,0.8c12.1,21.1,24.3,42.3,36.5,63.4
	C51.1,292.9,51.4,293.4,51.7,293.8z"/>
<path class="st0" d="M63.5,286.9c0.1,0.4,0,0.7-0.3,0.8c-0.4,0.3-0.7,0.4-1.1,0.6c-2.1,1.1-4.2,3.5-6.1,3.1
	c-2.1-0.4-2.6-3.6-3.7-5.7c-11.4-19.7-22.8-39.3-34.2-59c-1-1.8-1-2.6,1-3.5c1.9-0.8,3.9-3.3,5.7-2.8c1.8,0.4,2.5,3.3,3.6,5.3
	c11.5,19.9,22.9,39.6,34.3,59.4C62.9,285.8,63.2,286.5,63.5,286.9z"/>
<path class="st0" d="M75.3,279.9c0.1,0.4,0,0.7-0.3,1c-0.1,0.1-0.4,0.3-0.6,0.4c-6.5,4.4-6.5,4.4-10.4-2.4
	c-11.4-19.7-22.6-39.3-34.2-59c-1-1.8-1-2.6,0.8-3.5c2.1-0.8,4-3.5,6-2.8c1.7,0.7,2.4,3.5,3.5,5.4C51.5,239,63,258.7,74.4,278.6
	C74.8,279.1,75.1,279.5,75.3,279.9z"/>
<path class="st0" d="M227.6,267.6c0,6.5,0,13,0,19.6c0,4-2.2,6.5-5.8,6.7c-3.5,0-6-2.6-6-6.5c0-13.2,0-26.4,0-39.6
	c0-4,2.4-6.5,6-6.5c3.6,0,5.8,2.5,5.8,6.7C227.6,254.4,227.6,260.9,227.6,267.6z"/>
<path class="st0" d="M0.3,317.8c-1.1-3.5,1.1-5.3,4.4-7.1c9.7-5.3,19.2-11,28.7-16.5c1.5-0.8,2.4-1.1,3.1,0.7
	c0.8,2.1,3.6,4.2,2.9,6.1c-0.6,1.7-3.6,2.5-5.6,3.6c-10.4,6.1-21,12.1-31.4,18.2c-1.9,1.1-2.4,0.7-2.2-1.4
	C0.4,320.5,0.3,319.5,0.3,317.8z"/>
<path class="st0" d="M80.3,188c0,3.5,0,6.5,0,9.6c0,1-0.4,1.4-1.1,1.9c-11,6.2-21.8,12.6-32.8,18.9c-1,0.6-1.4,0.3-1.9-0.6
	c-1.1-1.9-2.2-3.9-3.3-5.7c-0.4-0.7-0.6-1.2,0.4-1.8C54.3,203,67.1,195.7,80.3,188z"/>
<path class="st0" d="M0.3,301.9c-1.1-3.3,1-5.1,4.2-6.9c7.5-4,14.9-8.5,22.2-12.8c1.4-0.8,2.2-0.8,2.9,0.8c0.7,1.4,1.4,2.8,2.4,4
	c1.5,1.8,0.7,2.6-1.1,3.6C21.4,296,12,301.5,2.5,306.9c-2.2,1.2-2.2,1.2-2.4-1.2C0.3,304.7,0.3,303.5,0.3,301.9z"/>
<path class="st0" d="M80.3,204c0,3.5,0,6.5,0,9.7c0,1.1-0.7,1.4-1.4,1.8c-8.5,4.9-16.9,9.7-25.4,14.7c-1.2,0.7-1.8,0.4-2.5-0.7
	c-1.1-2.2-3.5-4.4-3.2-6.4c0.3-1.8,3.6-2.5,5.7-3.7c8.1-4.7,16.1-9.3,24-13.9C78.5,205,79.2,204.6,80.3,204z"/>
<path class="st0" d="M0.3,292.3c0-3.5,0-6.7,0-10c0-0.8,0.8-1.1,1.4-1.5c6.1-3.6,12.2-7.1,18.3-10.7c1.2-0.7,1.8-0.7,2.5,0.7
	c1.1,2.2,3.3,4.4,3.2,6.4c-0.3,1.9-3.6,2.6-5.6,3.7c-5.8,3.5-11.7,6.8-17.5,10.1C2,291.5,1.4,291.7,0.3,292.3z"/>
<path class="st0" d="M80.3,219.7c0,3.5,0,6.5,0,9.4c0,1-0.3,1.5-1.1,1.9c-6.2,3.6-12.5,7.2-18.7,10.8c-1,0.6-1.7,0.7-2.4-0.6
	c-1-1.9-2.1-3.6-3.2-5.4c-0.6-0.8-0.6-1.4,0.4-1.9C63.6,229.4,71.7,224.7,80.3,219.7z"/>
<path class="st0" d="M215.3,229c0-4.4,1.5-5.8,6.4-5.8c4.7,0,6.2,1.4,6.2,6c0,4.4-1.5,5.8-6.4,5.8C216.7,235,215.3,233.6,215.3,229z
	"/>
</svg>
