<?xml version="1.0" encoding="utf-8"?>
<!-- Generator: Adobe Illustrator 24.0.1, SVG Export Plug-In . SVG Version: 6.00 Build 0)  -->
<svg version="1.1" id="Layer_3" xmlns="http://www.w3.org/2000/svg" xmlns:xlink="http://www.w3.org/1999/xlink" x="0px" y="0px"
	 viewBox="0 0 512 512" style="enable-background:new 0 0 512 512;" xml:space="preserve">
<style type="text/css">
	.st0{fill:#3088F3;}
</style>
<g>
	<g>
		<path class="st0" d="M447.7,382.1c1.7-4.4,3.7-6,7.2-5.4c2.5,0.4,4.3,2.1,4.7,4.6c0.1,0.8,0.3,1.8,0.3,2.6c0,13,0,26.1,0,39.1
			c0,0.8,0,1.8-0.3,2.6c-0.4,2.5-2.5,4.3-5,4.6c-2.6,0.3-5-1-6.1-3.2c-0.3-0.7-0.6-1.4-0.8-2.1c-5.3,4.7-11.3,7.1-18.3,6.1
			c-8.5-1.2-14.8-6-18.3-13.7c-4.4-10-4.2-20,1.2-29.5c6.8-11.9,21.6-15.1,33.1-7.4C446.2,381.1,446.9,381.6,447.7,382.1z
			 M448.4,404.1c0-1.8-0.1-3.5-0.6-5.1c-1.7-6.8-6.9-11.3-13.6-11.5c-6.5-0.1-11.9,4-13.8,10.8c-0.8,2.9-0.8,5.8-0.6,8.7
			c0.8,6.5,5.4,12,11.3,13c6.7,1.1,12.3-1.5,15.4-7.5C447.8,409.9,448.4,407,448.4,404.1z"/>
		<path class="st0" d="M268.6,408.2c-4.9,0-9.8,0-14.8,0c-1.8,0-2.1,0.6-1.5,2.1c2.1,5.4,6,8.9,11.9,9.8c4.7,0.7,9.4,0.1,13.4-2.8
			c1.1-0.8,2.5-1.2,3.9-1.2c1.9,0,3.5,0.7,4.4,2.4c1.1,1.7,1,3.3,0,5.1c-0.6,1-1.2,1.7-2.1,2.4c-10.7,8.5-29.2,6.7-38-3.6
			c-11.3-13.3-7.1-40.3,13.8-45.3c13.8-3.2,28.4,7.1,30.2,21.5c0.1,0.6,0.1,1.1,0.3,1.7c0.6,5.3-1.7,7.8-7.1,7.9
			C278.3,408.4,273.4,408.2,268.6,408.2z M264.8,398c3.5,0,6.8,0,10.4,0c2.6,0,2.8-0.1,1.9-2.8c-1.5-4.6-6.8-7.8-12.5-7.6
			c-6.2,0.1-10.5,3.1-12.2,8.5c-0.6,1.8,0,2.1,1.7,2.1C257.5,398,261.2,398,264.8,398z"/>
		<path class="st0" d="M118,399.6c4.6-4.3,8.6-8.2,12.7-12.2c2.9-2.8,5.7-5.6,8.6-8.3c1.8-1.7,4-2.2,6.4-1c2.2,1.1,3.5,2.9,3.3,5.6
			c-0.1,1.7-1.1,2.8-2.2,3.9c-4.3,4-8.6,8.1-13,12c-1.5,1.4-1.4,2.2,0,3.6c5.3,5.6,10.5,11.2,15.5,16.8c3.5,3.9,1.8,9.3-3.2,10.2
			c-2.2,0.4-4-0.4-5.4-1.9c-5.3-5.6-10.7-11.2-15.9-16.8c-1.2-1.4-1.9-1.5-3.5-0.3c-2.4,1.9-3.5,4-3.1,7.1c0.3,2.1,0.1,4.2,0,6.4
			c-0.1,3.3-2.6,5.7-5.8,5.7c-3.3,0-6-2.4-6-5.8c0-20.5,0-41,0-61.4c0-3.5,2.5-5.7,6-5.7c3.5,0,5.8,2.4,5.8,5.8c0,11.1,0,21.9,0,33
			C118,397.1,118,398,118,399.6z"/>
		<path class="st0" d="M313.8,384.6c4-4.3,8.5-7.4,14.3-7.9c10.7-1,17,3.9,18.8,14.5c0.4,2.2,0.6,4.6,0.6,6.8c0,8.6,0,17.2,0,25.8
			c0,4-2.4,6.7-5.8,6.7c-3.6,0-6-2.5-6-6.5c0-7.8,0-15.6,0-23.3c0-0.7,0-1.5,0-2.2c-0.3-7.4-3.6-10.8-10.5-10.7
			c-6.9,0.1-11.6,4.6-11.6,11.3c0,8.3,0,16.8,0,25.1c0,4.7-3.9,7.5-8.1,6c-2.4-0.8-3.6-2.5-3.7-5c0-14,0-28.1,0-42
			c0-2.8,2.1-4.9,4.9-5.3c2.9-0.4,5.6,1,6.5,3.6C313.3,382.2,313.5,383.3,313.8,384.6z"/>
		<path class="st0" d="M383.4,389.5c-5.7,0-11.1,0-16.3,0c-1,0-1.9,0-2.9,0c-3.2-0.3-5.1-2.6-5-5.8c0.1-2.9,2.1-5,5.1-5
			c4.7-0.1,9.5,0,14.3,0c5,0,10.1,0,15,0c2.6,0,5,0.4,6.1,3.1c1.1,2.6,0.6,5.1-1.1,7.4c-4.9,6.2-9.8,12.7-14.7,19
			c-2.8,3.6-5.6,7.2-8.3,10.9c0.8,0.8,1.7,0.6,2.5,0.6c5,0,10.2,0,15.2,0c1,0,1.9,0,2.9,0.1c3.1,0.4,4.9,2.4,4.9,5.4
			c0,2.9-2.1,5.4-5.1,5.4c-10.8,0.1-21.6,0.1-32.4,0c-4.6-0.1-6.7-5.1-3.9-9.5c2.1-3.2,4.4-6,6.8-9.1c5.1-6.7,10.4-13.4,15.5-20
			C382.3,391.2,382.7,390.6,383.4,389.5z"/>
		<path class="st0" d="M73.5,431.4c-7.2-0.4-14.3-1.9-19.4-7.8c-2.5-2.9-2.8-5.7-0.4-8.1c2.4-2.4,5.4-2.2,8.2,0.6
			c4.3,4.3,9.4,6.2,15.4,5.4c1.1-0.1,2.1-0.4,3.1-1c3.6-1.9,3.7-6.7,0.3-8.7c-2.5-1.5-5.3-2.2-7.9-2.9c-3.2-0.8-6.4-1.9-9.5-3.2
			c-11.3-4.9-11.3-19.1-2.6-25.1c8.1-5.6,22-5,29.4,1.7c0.7,0.7,1.4,1.4,1.9,2.2c1.5,2.4,1.2,5.1-0.8,6.8c-2.1,1.8-5,1.7-7.1-0.4
			c-3.7-3.9-8.2-5-13.4-4.2c-2.2,0.4-4,1.4-4.4,3.9s0.4,4.4,2.8,5.7c2.4,1.4,5,1.9,7.6,2.6c2.9,0.8,6,1.7,8.7,3.1
			c10.7,4.7,12.2,18,2.9,24.9C83.6,430.2,78.7,431.4,73.5,431.4z"/>
		<path class="st0" d="M228.5,382.2c0,13.1,0,26.3,0,39.5c0,2.2-0.3,4.4-1.7,6.2c-2.4,3.2-6.5,3.1-8.7-0.3c-1-1.5-1.4-3.2-1.4-5.1
			c0-27.1,0-54.2,0-81.3c0-0.1,0-0.1,0-0.3c0.1-4.2,2.6-7.4,5.8-7.5c3.2,0,5.8,3.1,5.8,7.4C228.7,354.7,228.5,368.5,228.5,382.2z"/>
		<path class="st0" d="M188.5,387.9c0-11.6,0-23,0-34.6c0-0.8,0-1.7,0.1-2.5c0.4-2.9,2.8-5.3,5.4-5.4c2.8-0.1,5,1.5,5.8,4.6
			c0.4,1.1,0.4,2.2,0.4,3.3c0,23,0,46.1,0,69.1c0,1.1-0.1,2.1-0.3,3.2c-0.8,3.2-3.3,5.1-6.1,4.9c-2.8-0.3-5.3-2.8-5.3-6.1
			c-0.1-5,0-10.1,0-15C188.5,402.1,188.5,395.1,188.5,387.9z"/>
		<path class="st0" d="M174,404.1c0,6.5,0,13.1,0,19.7c0,4-2.2,6.5-5.8,6.7c-3.5,0-6-2.6-6-6.5c0-13.3,0-26.5,0-39.8
			c0-4,2.4-6.5,6-6.5c3.6,0,5.8,2.5,5.8,6.7C174,390.9,174,397.4,174,404.1z"/>
		<path class="st0" d="M161.6,365.3c0-4.4,1.5-5.8,6.4-5.8c4.7,0,6.2,1.4,6.2,6c0,4.4-1.5,5.8-6.4,5.8
			C163,371.4,161.6,369.9,161.6,365.3z"/>
	</g>
	<g>
		<path class="st0" d="M290.1,250c0.2,1.1-0.6,1.3-1.3,1.8c-10.4,7.5-10.4,7.5-17-3.5c-18.2-31.5-36.2-62.9-54.4-94.3
			c-1.8-3-1.6-4.5,1.6-5.8c1.9-1,4-1.9,5.8-3.4c2.7-1.9,4-1.6,5.6,1.3c19.4,33.8,38.9,67.7,58.4,101.5
			C289.1,248.5,289.6,249.3,290.1,250z"/>
		<path class="st0" d="M309,238.9c0.2,0.6,0,1.1-0.5,1.3c-0.6,0.5-1.1,0.6-1.8,1c-3.4,1.8-6.7,5.6-9.8,5c-3.4-0.6-4.2-5.8-5.9-9.1
			c-18.2-31.5-36.5-62.9-54.7-94.4c-1.6-2.9-1.6-4.2,1.6-5.6c3-1.3,6.2-5.3,9.1-4.5c2.9,0.6,4,5.3,5.8,8.5
			c18.4,31.9,36.7,63.4,54.9,95.1C308,237.2,308.5,238.3,309,238.9z"/>
		<path class="st0" d="M327.9,227.7c0.2,0.6,0,1.1-0.5,1.6c-0.2,0.2-0.6,0.5-1,0.6c-10.4,7-10.4,7-16.6-3.8
			c-18.2-31.5-36.2-62.9-54.7-94.4c-1.6-2.9-1.6-4.2,1.3-5.6c3.4-1.3,6.4-5.6,9.6-4.5c2.7,1.1,3.8,5.6,5.6,8.6
			c18.2,32,36.7,63.5,54.9,95.4C327.1,226.4,327.5,227.1,327.9,227.7z"/>
		<path class="st0" d="M207.8,288.4c-1.8-5.6,1.8-8.5,7-11.4c15.5-8.5,30.7-17.6,45.9-26.4c2.4-1.3,3.8-1.8,5,1.1
			c1.3,3.4,5.8,6.7,4.6,9.8c-1,2.7-5.8,4-9,5.8c-16.6,9.8-33.6,19.4-50.3,29.1c-3,1.8-3.8,1.1-3.5-2.2
			C208,292.7,207.8,291.1,207.8,288.4z"/>
		<path class="st0" d="M335.9,80.6c0,5.6,0,10.4,0,15.4c0,1.6-0.6,2.2-1.8,3c-17.6,9.9-34.9,20.2-52.5,30.3c-1.6,1-2.2,0.5-3-1
			c-1.8-3-3.5-6.2-5.3-9.1c-0.6-1.1-1-1.9,0.6-2.9C294.2,104.6,314.7,92.9,335.9,80.6z"/>
		<path class="st0" d="M207.8,262.9c-1.8-5.3,1.6-8.2,6.7-11c12-6.4,23.8-13.6,35.5-20.5c2.2-1.3,3.5-1.3,4.6,1.3
			c1.1,2.2,2.2,4.5,3.8,6.4c2.4,2.9,1.1,4.2-1.8,5.8c-15.2,8.6-30.3,17.4-45.5,26.1c-3.5,1.9-3.5,1.9-3.8-1.9
			C207.8,267.4,207.8,265.5,207.8,262.9z"/>
		<path class="st0" d="M335.9,106.2c0,5.6,0,10.4,0,15.5c0,1.8-1.1,2.2-2.2,2.9c-13.6,7.8-27.1,15.5-40.7,23.5
			c-1.9,1.1-2.9,0.6-4-1.1c-1.8-3.5-5.6-7-5.1-10.2c0.5-2.9,5.8-4,9.1-5.9c13-7.5,25.8-14.9,38.4-22.2
			C333,107.8,334.1,107.2,335.9,106.2z"/>
		<path class="st0" d="M207.8,247.6c0-5.6,0-10.7,0-16c0-1.3,1.3-1.8,2.2-2.4c9.8-5.8,19.5-11.4,29.3-17.1c1.9-1.1,2.9-1.1,4,1.1
			c1.8,3.5,5.3,7,5.1,10.2c-0.5,3-5.8,4.2-9,5.9c-9.3,5.6-18.7,10.9-28,16.2C210.5,246.3,209.6,246.6,207.8,247.6z"/>
		<path class="st0" d="M335.9,131.4c0,5.6,0,10.4,0,15c0,1.6-0.5,2.4-1.8,3c-9.9,5.8-20,11.5-29.9,17.3c-1.6,1-2.7,1.1-3.8-1
			c-1.6-3-3.4-5.8-5.1-8.6c-1-1.3-1-2.2,0.6-3C309.1,146.9,322.1,139.4,335.9,131.4z"/>
	</g>
</g>
</svg>
