<?xml version="1.0" encoding="utf-8"?>
<!-- Generator: Adobe Illustrator 24.0.1, SVG Export Plug-In . SVG Version: 6.00 Build 0)  -->
<svg version="1.1" id="Layer_2_1_" xmlns="http://www.w3.org/2000/svg" xmlns:xlink="http://www.w3.org/1999/xlink" x="0px" y="0px"
	 viewBox="0 0 512 512" style="enable-background:new 0 0 512 512;" xml:space="preserve">
<style type="text/css">
	.st0{fill:#0273BA;}
</style>
<path class="st0" d="M115.2,305.8c-6.4,0.1-12.3-0.6-17.8-3.2c-9.7-4.5-15.4-12-17.2-22.5c-1.5-8.6-0.1-16.9,2.7-25
	c3.9-11.6,9.7-22,18.3-30.6c9.5-9.5,20.7-15.6,34-17.5c7.2-1.2,14.3-0.9,21.4,0.7c12.5,2.9,21.5,13.1,23.2,25.8
	c1.2,8.8-0.3,17.1-3.4,25.3c-4.4,12.3-11.3,22.9-21.2,31.4c-9.6,8.4-20.8,13.6-33.5,15C119.5,305.8,117.2,305.9,115.2,305.8z
	 M139.9,230.3c-7.9,0-12.7,2.2-16.8,6.1c-6.6,6.4-10.9,14.1-12.9,22.9c-0.8,3.7-1.5,7.5-0.7,11.2c1.4,6.6,6.1,10.8,12.9,10.9
	c5.5,0.1,10.2-2.2,14.2-5.7c5-4.2,8.3-9.6,11-15.4c2.4-5.4,3.9-10.9,3.7-16.9C151,235.6,145.6,230.3,139.9,230.3z"/>
<path class="st0" d="M431.7,272.1c4.3,0,8.6,0,12.8,0c0.9,0,1.2,0.2,1.2,1.2c0,1.7,0.2,3.6,0.6,5.3c0.9,4.6,4,7.2,8.6,7.9
	c6,0.7,11.2-0.9,15.6-5.5c2.3-2.4,2.3-5.7,0.3-8.3c-1.3-1.7-2.9-2.9-4.9-3.6c-6-2.1-12-4.5-18.1-6.4c-7.1-2.2-11-7.1-13.3-13.9
	c-5.1-14.9,3.2-28.7,12.5-35.1c5.8-3.9,12.1-6.1,18.8-7.1c7.2-1.2,14.4-1.3,21.6,0c6.7,1.2,12.8,3.4,17.9,8.2
	c3.9,3.9,5.9,8.7,6.5,14.2c0.2,2.1,0.2,4.2,0,6.4c-0.1,0.8-0.2,1.3-1.3,1.3c-8.4,0-16.9,0-25.3,0c-0.7,0-0.9-0.2-0.9-0.9
	c-0.1-3.7-2.2-6.1-5-8.1c-5-3.4-11.3-2.4-15.1,2.3c-2.5,3.4-2.9,8,0.9,11.1c2.7,2.2,6,3.2,9.5,3.7c6.2,1.2,12.1,2.9,17.3,6.5
	c8.4,5.8,12,16,9,25.5c-1.6,5.1-4.6,9.6-8.3,13.5c-8.1,8.6-18.3,13.3-29.7,15.1c-6.2,1.2-12.6,1.3-18.8,0.5
	c-14-1.8-22.9-10.2-25.4-23.9c-0.5-2.8-0.7-5.8-0.6-8.6c0-0.8,0.2-1.2,1.2-1.2C423,272.1,427.4,272.1,431.7,272.1z"/>
<path class="st0" d="M31.9,262.7c4.7-7.9,9.6-15.7,14.3-23.5c6.2-10.3,12.5-20.5,18.6-30.7c0.2-0.5,0.6-0.7,1.3-0.7
	c9.5,0,18.7,0,28.2,0c0.1,0.5-0.2,0.8-0.3,1.2c-11.3,18-22.9,36-34.3,54C51,276.6,42.4,290,33.8,303.6c-0.3,0.6-0.7,0.8-1.5,0.7
	c-10.4,0-20.8,0-31.3,0c-0.8,0-1.2-0.2-0.9-1.2c0.7-9.6,1.4-19.1,2-28.7c0.6-8.4,1.2-16.8,1.7-25.2c0.6-9.6,1.4-19.1,2-28.7
	c0.2-3.9,0.5-7.9,0.7-11.8c0-0.8,0.2-1.2,1.3-1.2c8.8,0,17.7,0,26.5,0c0.9,0,1.3,0.2,1.2,1.3c-0.6,9-1.3,18.3-1.8,27.3
	c-0.5,7.7-0.9,15.4-1.5,23.1c-0.1,1.2-0.1,2.2-0.2,3.4C31.7,262.7,31.9,262.7,31.9,262.7z"/>
<path class="st0" d="M378.4,241c-2.3,3.5-4.5,6.5-6.6,9.7c-12,17.5-24.2,35-36.1,52.6c-0.2,0.5-0.6,0.8-1.3,0.8
	c-9.2,0-18.7,0-28.1,0c-0.1,0-0.2,0-0.5-0.1c1.5-2,2.9-3.9,4.3-5.9c19-25.7,37.9-51.4,57.1-77.1c3-4.2,6.2-8.4,9.2-12.6
	c0.3-0.6,0.8-0.8,1.6-0.8c8.6,0,17.1,0,25.7,0c0.9,0,1.2,0.3,1.2,1.3c0,10.9,0,21.8-0.1,32.8c0,15.6-0.1,31-0.1,46.5
	c0,5,0,10.1,0,15c0,0.8-0.2,1.2-1.2,1.2c-8.8,0-17.5,0-26.4,0c-1.3,0-1.4-0.3-1.4-1.5c0.3-9,0.7-18.1,1.2-27.2
	c0.5-11,0.8-22.2,1.3-33.2C378.5,242,378.5,241.6,378.4,241z"/>
<path class="st0" d="M287.4,232.5c-5.8,0-11.3,0-17,0c-2.9,0-5.9,0-8.8,0c-0.7,0-1.2,0-0.7-0.9c2.5-7.7,5.1-15.4,7.7-23
	c0.2-0.6,0.5-0.8,1.3-0.8c27.2,0,54.4,0,81.6,0c0.8,0,0.9,0.2,0.6,0.9c-2.9,7.7-5.9,15.3-8.8,23c-0.2,0.7-0.6,0.8-1.4,0.8
	c-7.9,0-15.7,0-23.6,0c-0.8,0-1.3,0.2-1.5,0.9c-6.9,19.8-14.1,39.3-21,59c-1.3,3.6-2.5,7.1-3.8,10.6c-0.2,0.8-0.7,1.2-1.6,1.2
	c-9.1,0-18.5,0-27.6,0c-1.4,0-1.4,0-0.9-1.4c4.9-13.3,9.7-26.6,14.6-39.9c3.6-9.8,7.1-19.5,10.8-29.4
	C287.2,233.3,287.3,232.9,287.4,232.5z"/>
<path class="st0" d="M215.1,279c0.6,0,1.2,0,1.6,0c12.4,0,24.7,0,37.1,0c1.4,0,1.4,0,0.8,1.3c-2.5,7.6-5.3,15.1-7.9,22.8
	c-0.2,0.8-0.7,1.2-1.6,1.2c-23,0-46,0-69,0c-1.4,0-1.4,0-0.8-1.3c8.3-23.5,16.6-47,25-70.5c2.8-8,5.7-16,8.4-23.7
	c0.2-0.7,0.6-0.9,1.5-0.9c9.5,0,18.8,0,28.3,0c1.4,0,1.4,0,0.8,1.4c-5.4,15.6-10.8,31.1-16.2,46.7c-2.5,7.6-5.3,15-7.9,22.7
	C215.2,278.3,215.2,278.7,215.1,279z"/>
</svg>
