<?xml version="1.0" encoding="utf-8"?>
<!-- Generator: Adobe Illustrator 23.0.5, SVG Export Plug-In . SVG Version: 6.00 Build 0)  -->
<svg version="1.1" id="Layer_1" xmlns="http://www.w3.org/2000/svg" xmlns:xlink="http://www.w3.org/1999/xlink" x="0px" y="0px"
	 viewBox="0 0 512 512" style="enable-background:new 0 0 512 512;" xml:space="preserve">
<g id="Capa_1">
	<g>
		<path d="M242.6,352.4C24.9,372.5,40.3,247.1,87.9,195.1v-11.3c-35,30.7-54,69.6-43.1,115.6c26.6,112.1,246.1,95.8,348.1,39.7v-32
			C355.7,329.3,294,347.6,242.6,352.4z"/>
		<path d="M462.7,183C442.9,86.2,255,80.1,133.9,153.8v8.1c121-62.2,292.6-61.8,308.2,27.3c5.2,29.5-11.4,60.2-41,77.9v23.1
			C436.8,277.2,473.4,234.9,462.7,183z"/>
	</g>
	<g>
		<path d="M392.4,307.4v17.2C288.1,381.8,52.1,400.4,42,267.2c-0.7,10.3,0.2,21,2.9,32.1c26.6,112.1,246.1,95.8,348.1,39.7v-32
			C392.8,307.1,392.6,307.3,392.4,307.4z"/>
		<path d="M401.1,267.2v23.1c3.6-1.3,7.2-2.9,10.7-4.8v-9.9c0-3.2,1.6-6.3,4.3-8.1c27-18,41.7-47.1,36.7-75.2
			c-5.8-33.3-33.4-54.2-72-64.1c32.9,10.9,56,30.8,61.3,61C447.4,218.8,430.8,249.5,401.1,267.2z"/>
	</g>
	<g>
		<path d="M385.1,168.9h-19.8c-0.6,0-1,0.5-1,1v96.5c0,11.2,5.3,20.9,20.7,22.8c0.6,0.1,1.2-0.4,1.2-1V170
			C386.2,169.4,385.7,168.9,385.1,168.9z"/>
		<path d="M124.3,204.6h-19.9c-0.6,0-1,0.5-1,1l0,62.7c0,11.2,5.3,20.9,20.8,22.8c0.6,0.1,1.2-0.4,1.2-1v-84.5
			C125.3,205,124.9,204.6,124.3,204.6z"/>
		<path d="M103.4,172.9v18.7c0,0.6,0.5,1,1,1h19.8c0.6,0,1-0.5,1-1v-18.7c0-0.6-0.5-1-1-1h-19.8
			C103.8,171.9,103.4,172.4,103.4,172.9z"/>
		<path d="M256.5,290.3c-17.7,0-25.2-12.3-25.2-24.5v-83.6c0-0.6,0.5-1,1-1H252c0.6,0,1,0.5,1,1v21.3c0,0.6,0.5,1,1,1h14.3
			c0.6,0,1,0.5,1,1V221c0,0.6-0.5,1-1,1H254c-0.6,0-1,0.5-1,1v41.3c0,5,2.4,7.7,7.5,7.7h7.8c0.6,0,1,0.5,1,1v16c0,0.6-0.5,1-1,1
			L256.5,290.3"/>
		<path d="M296.5,254.2c0,11.1,7,19.3,19.3,19.3c9.2,0,14-2.4,19.2-7.5c0.4-0.4,1-0.4,1.5,0l11.9,11.3c0.4,0.4,0.4,1.1,0,1.5
			c-8.4,8-17.3,12.9-32.7,12.9c-20.8,0-40.7-11.3-40.7-44.4c0-28.3,17.4-44.3,40.2-44.3c23.2,0,36.5,18.7,36.5,43.3v6.8
			c0,0.6-0.5,1-1,1L296.5,254.2 M298.6,230.1c-1.3,2.8-1.8,5-2,8.2c0,0.6,0.4,1.1,1,1.1h31.3c0.6,0,1.1-0.5,1-1.1
			C328.1,215.1,304.1,218.2,298.6,230.1z"/>
		<path d="M184.3,222.1c6.4,0,9,3.1,9,8.3v59c0,0.6,0.5,1,1,1H214c0.6,0,1-0.5,1-1v-59.1c0-12.2-6.5-25.6-25.6-25.6l-43.8,0
			c-0.6,0-1.1,0.5-1.1,1v83.7c0,0.6,0.5,1,1,1h19.6c0.6,0,1-0.5,1-1v-66.2c0-0.6,0.5-1,1-1H184.3L184.3,222.1z"/>
	</g>
	<g>
		<path d="M375.3,266.5V170c0-0.6,0.5-1,1-1h-11.1c-0.6,0-1,0.5-1,1v96.5c0,11.2,5.3,20.9,20.7,22.8c0.6,0.1,1.2-0.4,1.2-1v-1.9
			C378.3,282.4,375.3,274.8,375.3,266.5z"/>
		<path d="M114.4,268.3l0-62.7c0-0.6,0.5-1,1-1h-11.1c-0.6,0-1,0.5-1,1l0,62.7c0,11.2,5.3,20.9,20.8,22.8c0.6,0.1,1.2-0.4,1.2-1
			v-1.8C117.4,284.2,114.4,276.7,114.4,268.3z"/>
		<path d="M114.4,191.6v-18.7c0-0.6,0.5-1,1-1h-11.1c-0.6,0-1,0.5-1,1v18.7c0,0.6,0.5,1,1,1h11.1
			C114.9,192.7,114.4,192.2,114.4,191.6z"/>
		<path d="M242.4,265.8v-83.6c0-0.6,0.5-1,1-1h-11.1c-0.6,0-1,0.5-1,1v83.6c0,12.1,7.5,24.5,25.2,24.5h11.1
			C249.9,290.3,242.4,277.9,242.4,265.8z"/>
		<path d="M286,247.4c0-25.9,14.5-41.4,34.5-43.9c-1.7-0.2-3.5-0.4-5.3-0.4c-22.8,0-40.2,16-40.2,44.3c0,33.1,19.9,44.4,40.7,44.4
			c2,0,4-0.1,5.8-0.3C302.6,289.7,286,277.6,286,247.4z"/>
		<path d="M155.7,289.3v-83.7c0-0.6,0.4-1,1-1l-11,0c-0.6,0-1.1,0.5-1.1,1v83.7c0,0.6,0.5,1,1,1h11.1
			C156.1,290.4,155.7,289.9,155.7,289.3z"/>
	</g>
</g>
</svg>
