<?xml version="1.0" encoding="utf-8"?>
<!-- Generator: Adobe Illustrator 23.0.5, SVG Export Plug-In . SVG Version: 6.00 Build 0)  -->
<svg version="1.1" id="Layer_1" xmlns="http://www.w3.org/2000/svg" xmlns:xlink="http://www.w3.org/1999/xlink" x="0px" y="0px"
	 viewBox="0 0 512 512" style="enable-background:new 0 0 512 512;" xml:space="preserve">
<g>
	<path d="M51.4,283.6l12.4-14.8c6.8,5.9,15.5,9.9,23.4,9.9c9,0,13.4-3.5,13.4-9.2c0-6-5.4-7.9-13.7-11.3L74.4,253
		c-9.9-4-19.2-12.1-19.2-25.9c0-15.8,14.1-28.4,33.9-28.4c11,0,22.4,4.3,30.6,12.5l-10.9,13.6c-6.3-4.8-12.2-7.5-19.8-7.5
		c-7.4,0-12.1,3.1-12.1,8.5c0,5.8,6.2,8,14.5,11.3l12.1,4.9c11.6,4.7,18.9,12.4,18.9,25.9c0,15.8-13.2,29.5-35.8,29.5
		C74.2,297.3,61.1,292.6,51.4,283.6z"/>
	<path d="M138.7,200.4h59.6v18h-38.1v19.1h32.4v18h-32.4v21.9h39.6v18h-61.1L138.7,200.4L138.7,200.4z"/>
	<path d="M218.7,200.4h22l24.8,47.3l9.4,20.9h0.6c-1-10.1-2.7-23.4-2.7-34.6v-33.6h20.5v95.2h-22l-24.8-47.4l-9.4-20.8h-0.6
		c1,10.5,2.7,23.2,2.7,34.5v33.8h-20.5L218.7,200.4L218.7,200.4z"/>
	<path d="M309.6,283.6l12.4-14.8c6.8,5.9,15.5,9.9,23.4,9.9c9,0,13.4-3.5,13.4-9.2c0-6-5.4-7.9-13.7-11.3l-12.4-5.3
		c-9.9-4-19.2-12.1-19.2-25.9c0-15.8,14.1-28.4,33.9-28.4c11,0,22.4,4.3,30.6,12.5l-10.9,13.6c-6.3-4.8-12.2-7.5-19.8-7.5
		c-7.4,0-12.1,3.1-12.1,8.5c0,5.8,6.2,8,14.5,11.3l12.1,4.9c11.6,4.7,18.9,12.4,18.9,25.9c0,15.8-13.2,29.5-35.8,29.5
		C332.5,297.3,319.3,292.6,309.6,283.6z"/>
	<path d="M397,200.4h59.6v18h-38.1v19.1h32.4v18h-32.4v21.9H458v18h-61V200.4z"/>
</g>
</svg>
