<?xml version="1.0" encoding="utf-8"?>
<!-- Generator: Adobe Illustrator 23.0.5, SVG Export Plug-In . SVG Version: 6.00 Build 0)  -->
<svg version="1.1" id="Layer_1" xmlns="http://www.w3.org/2000/svg" xmlns:xlink="http://www.w3.org/1999/xlink" x="0px" y="0px"
	 viewBox="0 0 328.3 290.5" style="enable-background:new 0 0 328.3 290.5;" xml:space="preserve">
<style type="text/css">
	.st0{fill:#EE5F43;}
	.st1{fill:none;stroke:#363A69;stroke-width:1.2212;stroke-linecap:round;stroke-miterlimit:10;}
	.st2{fill:#3CA3A4;}
	.st3{fill:#F8AD26;}
	.st4{fill:none;stroke:#363A69;stroke-width:1.5407;stroke-linecap:round;stroke-miterlimit:10;}
	.st5{fill:#BEC6C4;}
	.st6{fill:#FEFEFE;}
	.st7{fill:none;stroke:#BACCC6;stroke-width:1.4277;stroke-linecap:round;stroke-linejoin:round;stroke-miterlimit:10;}
	.st8{fill:none;stroke:#BACCC6;stroke-width:2.0383;stroke-linecap:round;stroke-linejoin:round;stroke-miterlimit:10;}
	.st9{fill:#38AAE3;}
	.st10{fill:#0254A9;}
	.st11{fill:#FABB49;}
	.st12{fill:#D38309;}
	.st13{fill:#13B5A0;}
	.st14{fill:#148A77;}
	.st15{fill:#4385F4;}
	.st16{fill:#FAAE26;}
	.st17{fill:#BC6C56;}
	.st18{fill:#034C8A;}
	.st19{fill:#D08B73;}
	.st20{clip-path:url(#SVGID_2_);fill:#BC6C56;}
	.st21{clip-path:url(#SVGID_4_);fill:#C4422B;}
	.st22{fill:#282E5B;}
	.st23{fill:#4485F4;}
	.st24{clip-path:url(#SVGID_6_);fill:#282E5B;}
	.st25{clip-path:url(#SVGID_8_);fill:#282E5B;}
	.st26{clip-path:url(#SVGID_10_);fill:#282E5B;}
	.st27{clip-path:url(#SVGID_12_);fill:#282E5B;}
	.st28{clip-path:url(#SVGID_14_);fill:#282E5B;}
	.st29{opacity:0.5;clip-path:url(#SVGID_16_);fill:#BC6C56;enable-background:new    ;}
	.st30{opacity:0.5;fill:#BC6C56;enable-background:new    ;}
	.st31{opacity:0.5;clip-path:url(#SVGID_18_);fill:#BC6C56;enable-background:new    ;}
	.st32{opacity:0.5;clip-path:url(#SVGID_20_);fill:#BC6C56;enable-background:new    ;}
	.st33{fill:#363A68;}
	.st34{fill:#346EC1;}
	.st35{fill:none;stroke:#034C8A;stroke-width:3.4431;stroke-linecap:round;stroke-linejoin:round;stroke-miterlimit:10;}
	.st36{fill:#034C8A;stroke:#034C8A;stroke-width:0.9735;stroke-linecap:round;stroke-linejoin:round;stroke-miterlimit:10;}
	.st37{clip-path:url(#SVGID_22_);fill:#034C8A;}
	.st38{clip-path:url(#SVGID_24_);fill:#BC6C56;}
	.st39{clip-path:url(#SVGID_26_);fill:#D38309;}
	.st40{fill:#FF6B6B;}
	.st41{clip-path:url(#SVGID_28_);fill:#D38309;}
	.st42{fill:#12A189;}
	.st43{clip-path:url(#SVGID_30_);fill:#148A77;}
	.st44{clip-path:url(#SVGID_32_);fill:#BC6C56;}
	.st45{clip-path:url(#SVGID_34_);fill:#BC6C56;}
	.st46{fill:none;stroke:#034C8A;stroke-width:3.0534;stroke-linecap:round;stroke-linejoin:round;stroke-miterlimit:10;}
	.st47{fill:#034C8A;stroke:#034C8A;stroke-width:1.0331;stroke-linecap:round;stroke-linejoin:round;stroke-miterlimit:10;}
	.st48{fill:#434E84;}
	.st49{clip-path:url(#SVGID_36_);fill:#282E5B;}
	.st50{clip-path:url(#SVGID_38_);fill:#282E5B;}
	.st51{clip-path:url(#SVGID_40_);fill:#282E5B;}
	.st52{clip-path:url(#SVGID_42_);fill:#282E5B;}
	.st53{clip-path:url(#SVGID_44_);fill:#034C8A;}
	.st54{clip-path:url(#SVGID_46_);fill:#034C8A;}
	.st55{clip-path:url(#SVGID_48_);fill:none;stroke:#034C8A;stroke-width:0.9034;stroke-miterlimit:10;}
	.st56{clip-path:url(#SVGID_50_);fill:#BC6C56;}
	.st57{clip-path:url(#SVGID_52_);fill:#BC6C56;}
	.st58{opacity:0.5;clip-path:url(#SVGID_54_);fill:#BC6C56;enable-background:new    ;}
	.st59{fill:#C4422B;}
	.st60{opacity:0.5;fill:#C4422B;enable-background:new    ;}
	.st61{fill:none;stroke:#434E84;stroke-width:4.287;stroke-linecap:round;stroke-linejoin:round;stroke-miterlimit:10;}
</style>
<g>
	<g>
		<path class="st0" d="M293.7,179.9c-0.1,0-0.1,0.1-0.2,0.1c-2.2,1.1-3.4,0.9-5.5-0.1c-2-0.9-3.9-2-5.5-3.4c-2.1-1.8-3.7-4.3-4-7.1
			c-0.1-0.6-0.1-1.3,0.3-1.8c0.5-0.7,1.5-0.8,2.3-0.5c0.8,0.3,1.4,0.9,2,1.5c0.3,0.2,0.6,0.5,0.9,0.6c0.4,0.1,0.8,0,1-0.3
			c0.3-0.5-0.2-1.1-0.6-1.4c-1-0.9-2-1.4-3.1-2.1c-1.4-0.9-2.6-2.1-3.4-3.6c-0.7-1.5-0.9-3.3-0.1-4.8c0.2-0.4,0.6-0.9,1-1.1
			c0.8-0.5,1.7-0.4,2.6-0.3c0.9,0.2,1.7,0.5,2.6,0.6c2.1,0.2,2.9-1.3,2.9-3.2c0-1.3-0.5-2.6-0.5-3.9c-0.1-2.3,1-4.7,3.1-5.7
			c2.1-1,5,0,5.7,2.1c0.8,2.4-1,5,0.2,7.2c0.4,0.7,1.3,1.7,2,2.2c1.1,0.7,2.8-0.1,4.1-0.1c0.3,0,0.6,0.1,0.8,0.3
			c0.1,0.2,0.2,0.4,0.3,0.6c0.3,1.6-0.3,3.4-1.5,4.5c-1.4,1.3-3.8,1.9-4.4,3.9c-0.4,1.2-0.2,4.3,1.8,4c0.7-0.1,1.2-0.8,1.9-1.1
			c0.9-0.3,1.9,0.3,2.3,1.1s0.3,1.8-0.1,2.7c-0.5,1.4-1.6,2.4-2.6,3.5C297.8,176.5,296.4,178.6,293.7,179.9z"/>
		<line class="st1" x1="290.8" y1="151.3" x2="290.8" y2="231.2"/>
		<polyline class="st1" points="296.3,159.6 290.8,165.1 285.3,159.6 		"/>
		<polyline class="st1" points="296.3,170.7 290.8,176.3 285.3,170.7 		"/>
	</g>
	<g>
		<path class="st2" d="M304.4,213.6c-0.1,0-0.1,0.1-0.2,0.1c-2,0.9-3,0.8-4.9-0.1c-1.8-0.8-3.5-1.8-5-3.1c-1.9-1.6-3.3-3.9-3.6-6.3
			c-0.1-0.6-0.1-1.2,0.3-1.6c0.5-0.6,1.4-0.7,2.1-0.4s1.3,0.8,1.8,1.3c0.2,0.2,0.5,0.4,0.8,0.5s0.7,0,0.9-0.3c0.3-0.4-0.2-1-0.6-1.3
			c-0.9-0.8-1.8-1.2-2.8-1.9c-1.2-0.9-2.3-1.9-3-3.2c-0.7-1.3-0.8-3-0.1-4.3c0.2-0.4,0.5-0.8,0.9-1c0.7-0.4,1.5-0.4,2.3-0.2
			s1.5,0.5,2.3,0.6c1.9,0.2,2.6-1.1,2.6-2.9c0-1.2-0.4-2.3-0.5-3.4c-0.1-2,0.9-4.2,2.7-5.1c1.9-0.9,4.4,0,5.1,1.9
			c0.7,2.1-0.9,4.5,0.2,6.5c0.4,0.7,1.2,1.6,1.8,1.9c1,0.6,2.5-0.1,3.7-0.1c0.3,0,0.6,0.1,0.7,0.2c0.1,0.1,0.2,0.3,0.2,0.5
			c0.3,1.5-0.3,3.1-1.4,4.1c-1.2,1.1-3.4,1.7-3.9,3.5c-0.3,1.1-0.2,3.9,1.6,3.6c0.7-0.1,1.1-0.8,1.7-1c0.8-0.3,1.7,0.3,2,1
			c0.4,0.8,0.3,1.6-0.1,2.4c-0.5,1.2-1.4,2.2-2.3,3.1C308,210.6,306.8,212.4,304.4,213.6z"/>
		<line class="st1" x1="301.7" y1="188" x2="301.7" y2="230.7"/>
		<polyline class="st1" points="306.7,195.4 301.7,200.4 296.8,195.4 		"/>
		<polyline class="st1" points="306.7,205.4 301.7,210.4 296.8,205.4 		"/>
	</g>
	<g>
		<path class="st3" d="M32.8,222.3c-0.1,0-0.2,0.1-0.3,0.1c-2.6,1.3-4,1-6.6-0.1c-2.4-1.1-4.6-2.4-6.6-4.1c-2.5-2.2-4.4-5.1-4.8-8.4
			c-0.1-0.7-0.1-1.5,0.4-2.1c0.6-0.8,1.8-0.9,2.8-0.6c1,0.4,1.7,1.1,2.5,1.8c0.3,0.3,0.7,0.6,1.1,0.7s0.9,0,1.1-0.4
			c0.3-0.6-0.2-1.3-0.8-1.7c-1.2-1-2.4-1.6-3.7-2.5c-1.6-1.1-3.1-2.5-4-4.3s-1.1-3.9-0.2-5.7c0.3-0.5,0.7-1,1.2-1.3
			c0.9-0.6,2.1-0.5,3.1-0.3c1,0.2,2,0.6,3.1,0.7c2.5,0.3,3.5-1.5,3.4-3.8c0-1.5-0.5-3.1-0.6-4.6c-0.2-2.7,1.2-5.6,3.6-6.8
			s5.9-0.1,6.8,2.5c1,2.8-1.2,5.9,0.2,8.6c0.5,0.9,1.5,2.1,2.4,2.6c1.4,0.9,3.3-0.1,5-0.1c0.4,0,0.7,0.1,1,0.3
			c0.2,0.2,0.3,0.5,0.3,0.7c0.4,1.9-0.3,4.1-1.8,5.4c-1.7,1.5-4.5,2.3-5.2,4.6c-0.4,1.5-0.3,5.1,2.1,4.8c0.9-0.1,1.5-1,2.3-1.3
			c1-0.4,2.2,0.3,2.7,1.3s0.3,2.2-0.1,3.2c-0.6,1.6-1.9,2.9-3.1,4.1C37.7,218.3,36,220.7,32.8,222.3z"/>
		<line class="st4" x1="29.3" y1="188.3" x2="29.3" y2="231.3"/>
		<polyline class="st4" points="35.9,198.1 29.3,204.7 22.7,198.1 		"/>
		<polyline class="st4" points="35.9,211.4 29.3,218 22.7,211.4 		"/>
	</g>
	<g>
		<path class="st5" d="M263.3,137.3h-74.2c-4.6,0-8.3-3.7-8.3-8.3V80.3c0-4.6,3.7-8.3,8.3-8.3h74.2c4.6,0,8.3,3.7,8.3,8.3v48.8
			C271.6,133.6,267.9,137.3,263.3,137.3z"/>
		<path class="st6" d="M261.2,135.9h-70.1c-4.6,0-8.3-3.7-8.3-8.3V81.7c0-4.6,3.7-8.3,8.3-8.3h70.1c4.6,0,8.3,3.7,8.3,8.3v45.9
			C269.5,132.2,265.8,135.9,261.2,135.9z"/>
		<g>
			<line class="st7" x1="220.6" y1="119.6" x2="237.8" y2="119.6"/>
			<line class="st7" x1="220.6" y1="122.1" x2="237.8" y2="122.1"/>
			<line class="st7" x1="220.6" y1="124.6" x2="237.8" y2="124.6"/>
			<line class="st7" x1="220.6" y1="127.1" x2="237.8" y2="127.1"/>
			<line class="st7" x1="220.6" y1="129.6" x2="227.3" y2="129.6"/>
		</g>
		<g>
			<line class="st8" x1="206.3" y1="85.5" x2="230.8" y2="85.5"/>
			<line class="st8" x1="206.3" y1="89" x2="230.8" y2="89"/>
			<line class="st8" x1="206.3" y1="92.6" x2="230.8" y2="92.6"/>
			<line class="st8" x1="206.3" y1="96.2" x2="230.8" y2="96.2"/>
			<line class="st8" x1="206.3" y1="99.7" x2="215.8" y2="99.7"/>
		</g>
		<g>
			<path class="st9" d="M242.1,93.5h2.3c0.1-0.2,0.1-0.4,0.1-0.7v-5.1h-6V96h2.9c0.3,0,0.5,0,0.8-0.1L242.1,93.5L242.1,93.5z"/>
			<path class="st10" d="M242.1,95.9c1.1-0.3,2-1.2,2.3-2.4h-2.3V95.9z"/>
		</g>
		<g>
			<path class="st11" d="M252.6,117.1h4.9c0.1-0.5,0.2-0.9,0.2-1.4v-11h-12.9v17.7h6.1c0.6,0,1.1-0.1,1.7-0.2L252.6,117.1
				L252.6,117.1z"/>
			<path class="st12" d="M252.6,122.1c2.5-0.6,4.4-2.6,4.9-5.1h-4.9V122.1z"/>
		</g>
		<g>
			<path class="st11" d="M256.4,91.3h4.9c0.1-0.5,0.2-0.9,0.2-1.4v-11h-12.9v17.7h6.1c0.6,0,1.1-0.1,1.7-0.2L256.4,91.3L256.4,91.3z
				"/>
			<path class="st12" d="M256.4,96.4c2.5-0.6,4.4-2.6,4.9-5.1h-4.9V96.4z"/>
		</g>
	</g>
	<g>
		<g>
			<path class="st13" d="M312.4,99.8h-28.3l-7.6,6.1V80c0-5.2,3.9-9.4,8.7-9.4h27.1c4.8,0,8.7,4.2,8.7,9.4v10.4
				C321.1,95.6,317.2,99.8,312.4,99.8z"/>
			<path class="st14" d="M311.1,81H286c-0.7,0-1.3-0.6-1.3-1.3V79c0-0.7,0.6-1.3,1.3-1.3h25.1c0.7,0,1.3,0.6,1.3,1.3v0.6
				C312.4,80.4,311.8,81,311.1,81z"/>
			<path class="st14" d="M311.1,86.8H286c-0.7,0-1.3-0.6-1.3-1.3v-0.6c0-0.7,0.6-1.3,1.3-1.3h25.1c0.7,0,1.3,0.6,1.3,1.3v0.6
				C312.4,86.2,311.8,86.8,311.1,86.8z"/>
			<path class="st14" d="M300,92.6h-14.1c-0.7,0-1.3-0.6-1.3-1.3v-0.6c0-0.7,0.6-1.3,1.3-1.3H300c0.7,0,1.3,0.6,1.3,1.3v0.6
				C301.3,92,300.8,92.6,300,92.6z"/>
		</g>
		<g>
			<path class="st13" d="M26.3,100.7h16.4l8.9,6.4V79.8c0-5.5-4.6-9.9-10.3-9.9h-15c-5.7,0-10.3,4.4-10.3,9.9v10.9
				C16,96.3,20.6,100.7,26.3,100.7z"/>
			<path class="st6" d="M33.7,94.7c-1.3,0-2.2-1.1-2.2-2.6c0-1.5,0.9-2.6,2.3-2.6s2.2,1,2.3,2.6C36,93.6,35.2,94.7,33.7,94.7
				L33.7,94.7z M32.3,88.2l-0.6-12.7h4l-0.6,12.7H32.3z"/>
		</g>
		<g>
			<path class="st15" d="M133.5,102.8h18.6l10.2,6.9V80.5c0-5.9-5.2-10.6-11.7-10.6h-17.1c-6.5,0-11.7,4.8-11.7,10.6v11.7
				C121.8,98,127,102.8,133.5,102.8z"/>
			<path class="st6" d="M151.3,96.1c0-0.1,0-0.1,0-0.1c-0.6-1.2,0.4-1.7,0.9-2.4c0.1-0.1,0.2-0.1,0.4-0.1c0.2,0,0.4,0.1,0.5,0.1
				c0.7,0.1,0.7,0.1,1-0.6c0.2-0.5,0.4-1,0.5-1.5c0.1-0.3,0-0.4-0.2-0.6c-0.8-0.3-0.9-1-1-1.8c0-0.6,0.1-0.9,0.5-1.1
				c0.1-0.1,0.2-0.2,0.4-0.3c0.2-0.1,0.2-0.3,0.1-0.4c-0.2-0.7-0.5-1.3-0.9-2c-0.1-0.2-0.2-0.2-0.4-0.2c-0.9,0.4-1.4,0-2-0.6
				c-0.3-0.3-0.4-0.6-0.4-1c0.1-0.9,0.1-0.9-0.7-1.3c-0.4-0.2-0.9-0.3-1.3-0.4c-0.2-0.1-0.4,0-0.5,0.2c-0.3,0.7-0.8,1-1.6,1
				c-0.6,0-1-0.1-1.3-0.6c-0.4-0.6-0.4-0.5-1-0.3c-0.5,0.2-0.9,0.4-1.4,0.7c-0.3,0.2-0.4,0.3-0.3,0.7c0.3,0.7,0.1,1.2-0.4,1.8
				c-0.5,0.6-0.9,0.7-1.5,0.6c-0.4-0.1-0.5,0.1-0.7,0.4c-0.3,0.6-0.5,1.2-0.6,1.8c-0.1,0.2,0,0.4,0.2,0.5c0.9,0.3,1,1,1,1.9
				c0,0.5-0.1,0.8-0.5,1.1c-0.1,0.1-0.2,0.2-0.4,0.3c-0.2,0.1-0.2,0.3-0.1,0.5c0.2,0.7,0.5,1.3,0.9,1.9c0.1,0.2,0.3,0.3,0.5,0.2
				c0.8-0.3,1.3,0,1.9,0.5c0.5,0.5,0.5,1,0.4,1.5c-0.1,0.4,0.1,0.6,0.4,0.7c0.6,0.3,1.1,0.5,1.7,0.6c0.2,0.1,0.4,0,0.5-0.2
				c0.3-0.8,1-1,1.8-1c0.6,0,0.9,0.3,1.2,0.7c0.4,0.5,0.4,0.5,0.9,0.3c0.5-0.2,1.1-0.5,1.5-0.8C151.2,96.4,151.3,96.3,151.3,96.1z
				 M146.8,85.6c2.2,0,3.9,1.7,3.9,4c0,2.3-1.7,4-3.8,4c-2.2,0-3.9-1.7-3.9-4C143,87.3,144.6,85.6,146.8,85.6z"/>
			<path class="st6" d="M138.7,86.5C138.7,86.5,138.7,86.4,138.7,86.5c-0.4-0.9,0.3-1.4,0.7-1.9c0.1-0.1,0.2-0.1,0.3-0.1
				c0.1,0,0.3,0,0.4,0.1c0.5,0,0.5,0,0.7-0.4c0.2-0.4,0.3-0.8,0.4-1.2c0.1-0.2,0-0.3-0.1-0.4c-0.6-0.3-0.7-0.8-0.7-1.4
				c0-0.4,0.1-0.7,0.4-0.9c0.1-0.1,0.2-0.2,0.3-0.2c0.1-0.1,0.1-0.2,0.1-0.3c-0.2-0.5-0.4-1-0.7-1.5c-0.1-0.1-0.2-0.2-0.3-0.1
				c-0.6,0.3-1.1,0-1.5-0.5c-0.2-0.2-0.3-0.4-0.3-0.8c0.1-0.7,0.1-0.7-0.5-0.9c-0.3-0.1-0.6-0.3-1-0.3c-0.2-0.1-0.3,0-0.4,0.2
				c-0.2,0.5-0.6,0.8-1.2,0.8c-0.4,0-0.8-0.1-1-0.5c-0.3-0.4-0.3-0.4-0.8-0.2c-0.4,0.1-0.7,0.3-1,0.5c-0.2,0.1-0.3,0.3-0.2,0.5
				c0.2,0.5,0,0.9-0.3,1.3c-0.4,0.4-0.7,0.5-1.2,0.4c-0.3-0.1-0.4,0-0.5,0.3c-0.2,0.4-0.4,0.9-0.5,1.3c0,0.2,0,0.3,0.1,0.4
				c0.6,0.3,0.8,0.8,0.8,1.4c0,0.4-0.1,0.6-0.4,0.8c-0.1,0.1-0.2,0.2-0.3,0.2c-0.1,0.1-0.2,0.2-0.1,0.3c0.2,0.5,0.4,1,0.6,1.4
				c0.1,0.2,0.2,0.2,0.4,0.2c0.6-0.2,1,0,1.4,0.4c0.4,0.4,0.4,0.7,0.3,1.1c-0.1,0.3,0.1,0.4,0.3,0.5c0.4,0.2,0.8,0.4,1.3,0.5
				c0.2,0,0.3,0,0.4-0.2c0.3-0.6,0.7-0.7,1.4-0.8c0.5,0,0.6,0.2,0.9,0.5c0.3,0.4,0.3,0.4,0.7,0.2c0.4-0.2,0.8-0.3,1.2-0.6
				C138.6,86.7,138.7,86.7,138.7,86.5z M135.4,78.6c1.6,0,2.9,1.3,2.9,3c0,1.7-1.3,3-2.9,3c-1.6,0-2.9-1.3-2.9-3
				C132.5,79.9,133.7,78.6,135.4,78.6z"/>
		</g>
		<g>
			<path class="st15" d="M224.5,63.3H206l-10.1,6.9V41c0-5.9,5.2-10.6,11.6-10.6h17c6.4,0,11.6,4.8,11.6,10.6v11.7
				C236.2,58.5,231,63.3,224.5,63.3z"/>
			<polygon class="st16" points="216,36 219.1,42.5 226.1,43.6 221.1,48.8 222.3,56 216,52.6 209.8,56 211,48.8 205.9,43.6 
				212.9,42.5 			"/>
		</g>
	</g>
	<g>
		<g>
			<g>
				<path class="st17" d="M104.7,127c0.5-0.6,0.8-1.2,0.8-2c0-0.6-0.1-1.2-0.4-1.7c-0.3-0.6-0.8-1-1.4-1.3c-0.6-0.3-1.2-0.4-1.9-0.3
					c-0.9,0.1-1.9,0.5-2.6,1.1c-0.5,0.4-0.9,0.9-1.1,1.6c-0.3,0.9-0.4,2-0.2,2.9c0.1,0.5,0.3,0.9,0.5,1.4c0.3,0.6,0.6,1.2,0.9,1.9
					c0.6,1.2,1.3,2.4,2,3.5c0.3,0.5,0.6,1,0.8,1.6c0.2,0.5,0.3,1,0.6,1.4c0.2,0.3,0.4,0.5,0.7,0.7c0.5,0.3,1.1,0.5,1.6,0.8
					c1.1,0.7,2.2,1.4,3.4,2.1c1.2,0.6,2.2,1,3.4,1.4c1.4,0.4,2.7,0.7,3.7,0.9c0.8,0.1,1.5,0.3,2.5,0.4c1.2,0.1,2.3,0.1,3,0.1
					c1.7-0.8,3.3-1.6,5-2.4c0.1-0.8,0.2-1.5,0.3-2.3c-0.5-0.8-1.1-1.5-1.6-2.2c-0.4-0.1-0.8-0.2-1.2-0.3c-1.2,0.6-2.5,1.2-3.7,1.9
					c-0.3,0.5-0.7,1-1.1,1.4c-0.6,0-1.2,0.1-1.8,0.1c-1.5-0.8-2.6-1.6-3.3-2.1c-1.1-0.8-1.7-1.4-3.1-2.3c-1-0.6-1.5-0.9-1.5-0.9
					c-0.5-0.3-1.1-0.5-1.5-0.9c-0.7-0.5-0.9-1.2-1.2-1.9c-0.3-0.7-0.5-1.3-0.8-2c-0.2-0.6-0.5-1.2-0.8-1.8c-0.4-0.9-0.9-2.1-1.6-3.5
					L104.7,127z"/>
				<path class="st18" d="M114.5,227.9c-0.8-0.3-1.7-0.2-2.5-0.3c-1.1-0.1-2.2-0.4-3.2-0.9c-1.1-0.5-2-1.2-3-1.9
					c-0.5-0.4-0.9-0.7-1.3-1.1c-0.2-0.1-0.3-0.3-0.5-0.4c-0.1,0-0.2,0-0.2,0c0.3-0.2,0.1-0.6,0.1-0.9c-0.2-0.6-0.4-1.3-0.6-1.9
					c-0.1-0.5-0.1-0.9-0.2-1.4c-0.1-0.7-0.7-1.3-0.6-2.1c0-0.2,0.1-0.4,0-0.5c-0.1-0.2-0.2-0.3-0.3-0.5c-0.1-0.3,0-0.7,0-1
					c0-0.7-0.1-1.4-0.1-2.2c-0.1-1.3-0.1-2.6,0-3.9c0-1.2,0.1-2.4,0.3-3.7c0.2-1.5,0.3-2.9,0.4-4.4c0-0.6,0.1-1.2,0.2-1.7
					c0.1-0.6,0.1-1.1,0.1-1.7c0-0.4,0.1-0.8,0.2-1.2c0.2-0.6,0.3-1.1,0.5-1.7c0.1-0.4,0.4-0.8,0.6-1.2c0.2-0.5,0.4-1,0.5-1.6
					c0.3-1.3,0.2-2.6,0.3-3.9c0-1.2,0.3-2.5,0.6-3.6c0.3-1.4,0.7-2.9,1.1-4.3c0.3-1.2,0.6-2.4,0.9-3.5c0.3-1.2,0.5-2.5,0.7-3.7
					c0.2-1.4,0.4-2.9,0.5-4.3c0.1-0.7,0.1-1.3,0.1-2c0-0.6,0.2-1.1,0.2-1.6c0.1-0.5,0-1,0-1.6c0-0.6,0.2-1.3,0.4-1.8
					c0.1-0.3,0.3-0.6,0.4-0.9c0.2-0.3,0.4-0.6,0.4-0.9c0.2-0.6,0.3-1.3,0.4-1.9c0.1-0.6,0.1-1.2,0.1-1.8l-15.2-4.6
					c-0.4,0.5-0.8,1-1.2,1.5c-0.8,1.1-1.6,2.3-2.1,3.5c-0.5,1.2-0.7,2.6-0.6,3.9c0.1,1.4,0.5,2.9,0.9,4.3c0.2,0.7,0.4,1.4,0.7,2.1
					c0.2,0.5,0.3,1.1,0.6,1.6c0.1,0.2,0.3,0.4,0.5,0.6c0.1,0.2,0.1,0.3,0.1,0.5c0,0.9,0.5,1.7,0.6,2.6c0,0.3-0.1,0.6-0.1,0.9
					c-0.1,0.3,0.1,0.7,0.1,1c0.1,0.6,0.1,1.2,0.1,1.8c0,0.8,0,1.6,0,2.4c0,1.5,0,2.9,0.1,4.4c0,0.9,0.1,1.8,0.1,2.7
					c0,0.6,0,1.2-0.1,1.7c-0.1,0.5-0.2,0.9-0.2,1.4c0,0.4,0,0.8-0.1,1.1c-0.1,0.5-0.3,0.9-0.3,1.4c0,0.4,0.1,0.7,0.2,1
					c0.1,0.4,0,0.8,0,1.2c0,0.7,0,1.4-0.1,2.1c-0.1,1.4-0.4,2.9-0.5,4.3c-0.2,1.5-0.3,3-0.3,4.5c0,1.5,0.2,2.9,0.4,4.4
					c0.2,1.5,0.5,2.9,0.7,4.4c0.2,1.6,0.3,3.3,0.4,4.9c0.1,1.4,0.3,2.7,0.4,4.1c0.1,0.8,0.1,1.5,0.1,2.3c0,0.4,0,0.8,0.2,1.1
					c-0.3,0.1-0.4,0.4-0.5,0.6c-0.4,1.1-0.5,2.4-0.5,3.5c0,0.5-0.1,1.1,0,1.6c0,0.1,0,0.3,0.1,0.4c0.3,0.4,0.9,0.4,1.3,0.5
					c1,0.1,2,0.1,3,0.1c1.7,0,3.4,0,5.2,0c2.4,0,4.8,0.1,7.2-0.2c1.1-0.1,2.2-0.3,3.2-0.8c0.3-0.2,0.7-0.4,0.7-0.8
					C115.7,229.3,115.4,228.3,114.5,227.9z"/>
				<g>
					<g>
						<path id="XMLID_63_" class="st19" d="M108.2,101c0.1,0.3,0.1,0.6,0.2,1c0.1,0.7,0.2,1.4,0.1,2.1c0,0.6-0.2,1.3-0.1,1.9
							c0,0.4,0.2,0.7,0.4,1c0.3,0.5,0.6,1.1,0.8,1.6c0.1,0.3,0.1,0.7-0.2,0.8c-0.4,0.1-1-0.1-1.2,0.4c-0.1,0.3,0,0.5-0.1,0.8
							c-0.1,0.2-0.2,0.2-0.3,0.3c-0.1,0.1-0.2,0.3-0.2,0.4c0,0.3,0,0.6-0.1,0.9c-0.1,0.3-0.3,0.4-0.4,0.6c-0.1,0.2-0.1,0.4-0.1,0.6
							c0,0.6,0,1.4-0.8,1.5c-0.4,0.1-0.9,0-1.4-0.1c-0.6-0.1-1.2-0.2-1.7-0.1c-0.3,0-0.5,0.2-0.7,0.4c-0.3,0.4-0.6,0.8-0.8,1.3
							c0,0,0.4,2.6,0.9,3.6c0.5,1.1-1.6,1.5-1.6,1.5l-5.5-2.5l-1.9-3l1.3-3.3c0.2-0.5,0.3-1.1,0.4-1.7l0.3-10.9l7.3-2.6L108.2,101
							L108.2,101z"/>
					</g>
					<g>
						<defs>
							<path id="SVGID_1_" d="M108.2,101c0.1,0.3,0.1,0.6,0.2,1c0.1,0.7,0.2,1.4,0.1,2.1c0,0.6-0.2,1.3-0.1,1.9c0,0.4,0.2,0.7,0.4,1
								c0.3,0.5,0.6,1.1,0.8,1.6c0.1,0.3,0.1,0.7-0.2,0.8c-0.4,0.1-1-0.1-1.2,0.4c-0.1,0.3,0,0.5-0.1,0.8c-0.1,0.2-0.2,0.2-0.3,0.3
								c-0.1,0.1-0.2,0.3-0.2,0.4c0,0.3,0,0.6-0.1,0.9c-0.1,0.3-0.3,0.4-0.4,0.6c-0.1,0.2-0.1,0.4-0.1,0.6c0,0.6,0,1.4-0.8,1.5
								c-0.4,0.1-0.9,0-1.4-0.1c-0.6-0.1-1.2-0.2-1.7-0.1c-0.3,0-0.5,0.2-0.7,0.4c-0.3,0.4-0.6,0.8-0.8,1.3c0,0,0.4,2.6,0.9,3.6
								c0.5,1.1-1.6,1.5-1.6,1.5l-5.5-2.5l-1.9-3l1.3-3.3c0.2-0.5,0.3-1.1,0.4-1.7l0.3-10.9l7.3-2.6L108.2,101L108.2,101z"/>
						</defs>
						<clipPath id="SVGID_2_">
							<use xlink:href="#SVGID_1_"  style="overflow:visible;"/>
						</clipPath>
						<path class="st20" d="M103.6,115c0,0-3.2-1.4-4.1-4.3c0.1,2.3,2.8,6.1,2.8,6.1L103.6,115z"/>
					</g>
				</g>
				<path class="st9" d="M107.2,156c0,0.6,0,1.2-0.1,1.8c-0.1,0.6-0.2,1.3-0.4,1.9c-0.1,0.3-0.3,0.6-0.4,0.9
					c-0.2,0.3-0.3,0.6-0.4,0.9c-0.2,0.6-0.4,1.2-0.4,1.8c0,0.5,0.1,1,0,1.6c-0.1,0.6-0.2,1.1-0.2,1.6c-0.1,0.7-0.1,1.3-0.1,2
					c-0.1,1.4-0.3,2.9-0.5,4.3c-0.2,1.3-0.4,2.5-0.7,3.7c-0.3,1.2-0.6,2.4-0.9,3.5c-0.4,1.4-0.8,2.9-1.1,4.3
					c-0.3,1.2-0.6,2.4-0.6,3.6c0,1.3,0,2.6-0.3,3.9c-0.1,0.5-0.3,1.1-0.5,1.6c-0.2,0.4-0.4,0.8-0.6,1.2c-0.2,0.6-0.3,1.1-0.5,1.7
					c-0.1,0.4-0.2,0.8-0.2,1.2c0,0.6,0,1.1-0.1,1.7c-0.1,0.6-0.2,1.1-0.2,1.7c-0.1,1.5-0.2,2.9-0.4,4.4c-0.1,1.2-0.2,2.4-0.3,3.7
					c0,1.3,0,2.6,0,3.9c0,0.7,0.1,1.4,0.1,2.2c0,0.3-0.1,0.7,0,1c0.1,0.2,0.2,0.3,0.3,0.5c0.1,0.2,0,0.4,0,0.5
					c-0.1,0.7,0.4,1.4,0.6,2.1c0.1,0.5,0.1,0.9,0.2,1.4c0.2,0.6,0.4,1.3,0.6,1.9c0.1,0.3,0.3,0.7-0.1,0.9l-1.8,2.8
					c-1.2,0.6-5.9-0.8-5.9-0.8c-0.2-0.4-0.2-0.7-0.2-1.1c0-0.8,0-1.5-0.1-2.3c-0.1-1.4-0.3-2.7-0.4-4.1c-0.1-1.6-0.2-3.3-0.4-4.9
					c-0.2-1.5-0.4-2.9-0.7-4.4c-0.2-1.4-0.4-2.9-0.4-4.4c0-1.5,0.1-3,0.3-4.5c0.2-1.4,0.4-2.9,0.5-4.3c0.1-0.7,0-1.4,0.1-2.1
					c0-0.4,0.1-0.8,0-1.2c-0.1-0.4-0.2-0.7-0.2-1c0-0.5,0.1-0.9,0.3-1.4c0.1-0.4,0.1-0.7,0.1-1.1c0-0.5,0.1-0.9,0.2-1.4
					c0.1-0.6,0.1-1.2,0.1-1.7c0-0.9-0.1-1.8-0.1-2.7c-0.1-1.5-0.1-2.9-0.1-4.4c0-0.8,0-1.6,0-2.4c0-0.6,0-1.2-0.1-1.8
					c-0.1-0.3-0.2-0.7-0.1-1c0.1-0.3,0.1-0.6,0.1-0.9c-0.1-0.9-0.6-1.7-0.6-2.6c0-0.2,0-0.4-0.1-0.5c-0.1-0.2-0.3-0.4-0.5-0.6
					c-0.3-0.5-0.4-1.1-0.6-1.6c-0.2-0.7-0.5-1.4-0.7-2.1c-0.4-1.4-0.8-2.8-0.9-4.3c-0.1-1.3,0.2-2.7,0.6-3.9
					c0.5-1.3,1.3-2.4,2.1-3.5c0.4-0.5,0.8-1,1.2-1.5L107.2,156z"/>
				<g>
					<g>
						<path id="XMLID_64_" class="st0" d="M92.7,134.2c-0.9-2-1.5-4.2-1.7-6.4c-0.2-2.1,0-4.3,0.6-6.3c0.3-1,0.8-1.9,1.1-2.9
							l1.5-4.1c2.3,2.2,4.2,3.6,5.2,4.2c0.5,0.3,1.4,0.8,2.6,0.9c0.1,0,0.3,0,0.3,0l6.3,7.3c0.6,0.4,1.1,1,1.4,1.6
							c0.6,1.1,0.8,2.4,0.7,3.6c-0.1,0.8-0.2,1.5-0.3,2.3c0,0.7,0,1.3,0.1,2c0.3,1.5,0.5,3,0.7,4.5c0.2,1.6,0.9,11.1,1,11.9
							c0.1,0.8,0.2,1.5,0.3,2c-2,1.2-3.6,1.5-4.8,1.6c-2.5,0.2-5.4-0.6-6.8,0c-0.1,0.1-0.6,0.3-0.9,0.1c-0.2-0.1-0.2-0.5-0.2-0.7
							c-0.1-0.4-0.1-0.8-0.2-1.1c0-0.1,0-0.3-0.1-0.4c-0.1-0.1-0.1-0.1-0.2-0.1c-0.2,0.1-1.3,1.3-1.5,1.4c-0.5,0.4-2.1-0.3-6.8-4.4
							c0.6-0.3,1.3-0.7,1.8-1.3c0.4-0.4,0.5-0.6,0.6-0.8c0.2-0.4,0.3-0.6,0.7-0.8c0.3-0.2,0.5-0.4,0.7-0.6c0.2-0.2,0.2-0.5,0.3-0.8
							c0.1-0.2,0.4-0.2,0.5-0.4c0.2-0.1,0.4-0.4,0.5-0.6L92.7,134.2z"/>
					</g>
					<g>
						<defs>
							<path id="SVGID_3_" d="M92.7,134.2c-0.9-2-1.5-4.2-1.7-6.4c-0.2-2.1,0-4.3,0.6-6.3c0.3-1,0.8-1.9,1.1-2.9l1.5-4.1
								c2.3,2.2,4.2,3.6,5.2,4.2c0.5,0.3,1.4,0.8,2.6,0.9c0.1,0,0.3,0,0.3,0l6.3,7.3c0.6,0.4,1.1,1,1.4,1.6c0.6,1.1,0.8,2.4,0.7,3.6
								c-0.1,0.8-0.2,1.5-0.3,2.3c0,0.7,0,1.3,0.1,2c0.3,1.5,0.5,3,0.7,4.5c0.2,1.6,0.9,11.1,1,11.9c0.1,0.8,0.2,1.5,0.3,2
								c-2,1.2-3.6,1.5-4.8,1.6c-2.5,0.2-5.4-0.6-6.8,0c-0.1,0.1-0.6,0.3-0.9,0.1c-0.2-0.1-0.2-0.5-0.2-0.7
								c-0.1-0.4-0.1-0.8-0.2-1.1c0-0.1,0-0.3-0.1-0.4c-0.1-0.1-0.1-0.1-0.2-0.1c-0.2,0.1-1.3,1.3-1.5,1.4c-0.5,0.4-2.1-0.3-6.8-4.4
								c0.6-0.3,1.3-0.7,1.8-1.3c0.4-0.4,0.5-0.6,0.6-0.8c0.2-0.4,0.3-0.6,0.7-0.8c0.3-0.2,0.5-0.4,0.7-0.6c0.2-0.2,0.2-0.5,0.3-0.8
								c0.1-0.2,0.4-0.2,0.5-0.4c0.2-0.1,0.4-0.4,0.5-0.6L92.7,134.2z"/>
						</defs>
						<clipPath id="SVGID_4_">
							<use xlink:href="#SVGID_3_"  style="overflow:visible;"/>
						</clipPath>
						<path class="st21" d="M101.6,126.7c0,0-2.2,8.6-1.9,9.1c0.2,0.6,2.4,12.6,2.4,12.6l-6.9-14.2l4-7.7L101.6,126.7z"/>
					</g>
				</g>
				<path class="st22" d="M92.4,225.3c-0.3,0.1-0.4,0.4-0.5,0.6c-0.4,1.1-0.5,2.4-0.5,3.5c0,0.5-0.1,1.1,0,1.6c0,0.1,0,0.3,0.1,0.4
					c0.3,0.4,0.9,0.4,1.3,0.5c1,0.1,2,0.1,3,0.1c1.7,0,3.4,0,5.2,0c2.4,0,4.8,0.1,7.2-0.2c1.1-0.1,2.2-0.3,3.2-0.8
					c0.3-0.2,0.7-0.4,0.7-0.8c0.1-0.9-0.2-1.9-1.1-2.3c-0.8-0.3-1.7-0.2-2.5-0.3c-1.1-0.1-2.2-0.4-3.2-0.9c-1.1-0.5-2-1.2-3-1.9
					c-0.5-0.4-0.9-0.7-1.3-1.1c-0.2-0.1-0.3-0.3-0.5-0.4c-1.3-0.3-1.7,1.1-2.5,1.8c-0.5,0.4-1.1,0.6-1.7,0.7c-0.5,0.1-1.1,0-1.6-0.1
					c-0.6-0.1-1.1-0.3-1.6-0.4C92.7,225.3,92.6,225.3,92.4,225.3z"/>
				<path class="st19" d="M99.1,129.8c0.8-0.3,1.4-0.9,1.9-1.7c0.3-0.6,0.5-1.3,0.5-2c0-0.8-0.3-1.6-0.7-2.2
					c-0.4-0.7-1.1-1.2-1.8-1.4c-1-0.4-2.2-0.6-3.3-0.4c-0.8,0.1-1.4,0.5-2,1.1c-0.8,0.8-1.5,1.9-1.8,3.1c-0.2,0.6-0.2,1.2-0.2,1.8
					c0,0.8-0.1,1.7,0,2.5c0,1.7,0.1,3.4,0.2,5c0,0.7,0.1,1.5,0,2.2c0,0.6-0.2,1.3-0.1,1.9c0,0.4,0.2,0.8,0.4,1.1
					c0.4,0.6,0.8,1.2,1.2,1.8c0.8,1.4,1.5,2.9,2.4,4.2c0.8,1.3,1.8,2.4,2.8,3.5c1.1,1.2,2.2,2.5,3.4,3.7c1.2,1.1,2.4,2.1,3.7,3.1
					c0.5,0.4,1.6,0.9,3.1,1.3c2.1,0.5,4,0.2,5.2-0.2c0.3-0.4,1.3-1.6,1.5-3.6c0.1-1.2-0.2-2.2-0.4-2.7c-1.1-0.2-2.3-0.5-3.5-1.2
					c-0.2-0.1-0.3-0.2-0.4-0.3c0.7-0.5,1.3-0.7,1.8-0.8c0.6-0.2,1.1-0.2,1.2-0.5c0.2-0.3,0-0.8-0.2-1c-0.4-0.5-1.2-0.7-2-0.5
					c-1.9,1.2-3.9,2.3-5.8,3.5c-0.1-0.1-0.2-0.2-0.3-0.3c-1.2-1.2-1.6-2.5-2.4-4.2c-0.8-1.5-1.5-3-2.3-4.5c-0.3-0.6-0.7-1.3-1.1-1.9
					c-0.4-0.6-0.8-1.2-1.1-1.9c-0.4-0.9-0.3-1.8-0.2-2.8c0.1-0.9,0.2-1.7,0.3-2.6c0.1-0.8,0.1-1.6,0.2-2.4c0.1-1.6,0.2-3.2,0.2-4.8
					L99.1,129.8z"/>
				<path class="st18" d="M107.9,102.4c-2,1.7-3.2,1.9-4,1.7c-0.9-0.3-1.8-1.2-2.4-0.9c-0.2,0.1-0.3,0.4-0.4,0.6
					c0.1,0.3,0.4,0.8,0.3,1.5c0,0.7-0.3,1.6-0.7,1.6c-0.6,0-1-2.3-1.5-2.3c-0.4,0-0.4,1.8-0.9,3.9c-0.4,1.7-1.1,4.3-3.3,5.6
					c-0.3,0.2-2.4,1.4-4.3,0.4c-1.1-0.6-1.9-1.7-2.1-3.1c-0.1-1.5,0.7-2.6,0.9-2.8c-0.3-0.1-1.7-0.8-2.3-2.4
					c-0.1-0.2-0.8-2.2,0.2-3.6c0.7-1.1,1.7-0.9,2-1.8c0.3-0.9-0.7-1.4-0.8-2.8c-0.1-1.9,1.6-3.2,1.7-3.3c0.9-0.7,1.8-0.8,2.2-0.8
					c1.8-0.2,3.2,0.6,3.6,0.9c0.1-0.4,0.5-1.4,1.6-2.2c1.3-0.9,2.8-0.7,3.4-0.7c0.6,0.1,1.7,0.2,2.5,1.2c0.4,0.5,0.7,1,0.8,1.4
					c0.3-0.3,1.1-1.2,2.5-1.5c0.4-0.1,1.7-0.4,3,0.3c1.8,1,2,3.1,2.1,3.3c0.2,1.5-0.6,1.7-0.6,3.3c0.1,2.1,1.5,2.9,1,3.8
					c-0.4,0.7-1.7,1-2.8,0.6C108.2,103.9,107.9,102.5,107.9,102.4z"/>
				<path class="st19" d="M100.2,105.8c0-0.1-0.1-0.2-0.1-0.3c0,0-0.1-0.3-0.2-0.4c-0.3-0.4-0.7-0.9-1.2-1c-0.5-0.1-1,0.1-1.3,0.6
					c-0.4,0.7-0.1,1.8,0.3,2.4c0.3,0.6,0.9,1.5,1.6,1.6c0.1,0,0.7,0.1,1-0.3c0.2-0.2,0.1-0.5,0.1-0.6
					C100.3,107.1,100.3,106.4,100.2,105.8z"/>
				<path class="st17" d="M99.1,106.6c-0.1-0.5-0.6-0.2-0.7-0.7s0.5-0.4,0.5-0.7s-1.1-0.3-0.9,1C98.1,107.4,99.1,107,99.1,106.6z"/>
			</g>
			<g>
				<path class="st22" d="M216.3,223.6c0,0.9,1.8,6.5,1.8,6.5h8.6c0,0,0.7-1.9,0.5-2.6c-0.2-0.7-3-2.8-3.1-3.2
					c-0.2-0.4-2.3-5.8-2.3-5.8S216.3,222.6,216.3,223.6z"/>
				<path class="st22" d="M174.3,218.4c0,0-1.3,4.2-1.9,5.2c-0.6,1-4.2,3.6-4.4,3.9s-0.6,3.2-0.6,3.2h11.9c0,0,0.5-4.4,0.5-5.3
					s-0.4-3.5-0.4-3.5l-0.3-3L174.3,218.4z"/>
				<g>
					<g>
						<path id="XMLID_77_" class="st23" d="M183.6,153c0,0-3.1,10-3.3,12.7s-3.1,20.4-3.4,22c-1.7,8-3.6,25.6-3.6,25.6l1.3,1.6
							l-1.3,2.4v3.1c0,0,2-0.5,3-0.5c0.9,0,3.5,1.1,3.5,1.1s2.8-7.6,2.8-8.8s1.3-1.7,1.1-2.5c-0.1-0.8-0.4-3,0-3.9
							c0.4-0.9,2.2-9.2,2.4-11.4c0.2-2.2,2.6-9,2.6-9s3-8.7,3.4-10c0.5-1.3,1.2-7.8,4.1-7.8s7.6,9.3,8.4,12.8s5.8,20.2,6.5,21.5
							s3.7,5.4,3.7,5.4l-1.1,4.5l0.8,6.2c0,0,0.5,3.2,0.6,3.9s2.7,0,2.7,0s4.8-1,5.6-1.4c0.8-0.4,0.9-2.1,0.7-2.6s-0.6-1.6-0.6-2.2
							c0-0.5-3.4-22.7-3.7-24.4c-0.3-1.7-2.9-7.7-3.5-10.2c-0.6-2.6-1.1-8.4-1.1-10.2s-0.3-3.9-0.3-4.7s-4.4-14.5-4.4-14.5
							L183.6,153z"/>
					</g>
					<g>
						<defs>
							<path id="SVGID_5_" d="M183.6,153c0,0-3.1,10-3.3,12.7s-3.1,20.4-3.4,22c-1.7,8-3.6,25.6-3.6,25.6l1.3,1.6l-1.3,2.4v3.1
								c0,0,2-0.5,3-0.5c0.9,0,3.5,1.1,3.5,1.1s2.8-7.6,2.8-8.8s1.3-1.7,1.1-2.5c-0.1-0.8-0.4-3,0-3.9c0.4-0.9,2.2-9.2,2.4-11.4
								c0.2-2.2,2.6-9,2.6-9s3-8.7,3.4-10c0.5-1.3,1.2-7.8,4.1-7.8s7.6,9.3,8.4,12.8s5.8,20.2,6.5,21.5s3.7,5.4,3.7,5.4l-1.1,4.5
								l0.8,6.2c0,0,0.5,3.2,0.6,3.9s2.7,0,2.7,0s4.8-1,5.6-1.4c0.8-0.4,0.9-2.1,0.7-2.6s-0.6-1.6-0.6-2.2c0-0.5-3.4-22.7-3.7-24.4
								c-0.3-1.7-2.9-7.7-3.5-10.2c-0.6-2.6-1.1-8.4-1.1-10.2s-0.3-3.9-0.3-4.7s-4.4-14.5-4.4-14.5L183.6,153z"/>
						</defs>
						<clipPath id="SVGID_6_">
							<use xlink:href="#SVGID_5_"  style="overflow:visible;"/>
						</clipPath>
						<path class="st24" d="M191,165.9c1.7,1.1,3.9,1.5,6.1,1.9C193.9,172.5,193,168.2,191,165.9z"/>
					</g>
					<g>
						<defs>
							<path id="SVGID_7_" d="M183.6,153c0,0-3.1,10-3.3,12.7s-3.1,20.4-3.4,22c-1.7,8-3.6,25.6-3.6,25.6l1.3,1.6l-1.3,2.4v3.1
								c0,0,2-0.5,3-0.5c0.9,0,3.5,1.1,3.5,1.1s2.8-7.6,2.8-8.8s1.3-1.7,1.1-2.5c-0.1-0.8-0.4-3,0-3.9c0.4-0.9,2.2-9.2,2.4-11.4
								c0.2-2.2,2.6-9,2.6-9s3-8.7,3.4-10c0.5-1.3,1.2-7.8,4.1-7.8s7.6,9.3,8.4,12.8s5.8,20.2,6.5,21.5s3.7,5.4,3.7,5.4l-1.1,4.5
								l0.8,6.2c0,0,0.5,3.2,0.6,3.9s2.7,0,2.7,0s4.8-1,5.6-1.4c0.8-0.4,0.9-2.1,0.7-2.6s-0.6-1.6-0.6-2.2c0-0.5-3.4-22.7-3.7-24.4
								c-0.3-1.7-2.9-7.7-3.5-10.2c-0.6-2.6-1.1-8.4-1.1-10.2s-0.3-3.9-0.3-4.7s-4.4-14.5-4.4-14.5L183.6,153z"/>
						</defs>
						<clipPath id="SVGID_8_">
							<use xlink:href="#SVGID_7_"  style="overflow:visible;"/>
						</clipPath>
						<polygon class="st25" points="184.8,210.8 180.6,211.6 183.2,214.2 						"/>
					</g>
					<g>
						<defs>
							<path id="SVGID_9_" d="M183.6,153c0,0-3.1,10-3.3,12.7s-3.1,20.4-3.4,22c-1.7,8-3.6,25.6-3.6,25.6l1.3,1.6l-1.3,2.4v3.1
								c0,0,2-0.5,3-0.5c0.9,0,3.5,1.1,3.5,1.1s2.8-7.6,2.8-8.8s1.3-1.7,1.1-2.5c-0.1-0.8-0.4-3,0-3.9c0.4-0.9,2.2-9.2,2.4-11.4
								c0.2-2.2,2.6-9,2.6-9s3-8.7,3.4-10c0.5-1.3,1.2-7.8,4.1-7.8s7.6,9.3,8.4,12.8s5.8,20.2,6.5,21.5s3.7,5.4,3.7,5.4l-1.1,4.5
								l0.8,6.2c0,0,0.5,3.2,0.6,3.9s2.7,0,2.7,0s4.8-1,5.6-1.4c0.8-0.4,0.9-2.1,0.7-2.6s-0.6-1.6-0.6-2.2c0-0.5-3.4-22.7-3.7-24.4
								c-0.3-1.7-2.9-7.7-3.5-10.2c-0.6-2.6-1.1-8.4-1.1-10.2s-0.3-3.9-0.3-4.7s-4.4-14.5-4.4-14.5L183.6,153z"/>
						</defs>
						<clipPath id="SVGID_10_">
							<use xlink:href="#SVGID_9_"  style="overflow:visible;"/>
						</clipPath>
						<polygon class="st26" points="211.8,204.8 216.6,208.2 212.5,207.2 						"/>
					</g>
				</g>
				<g>
					<g>
						<path id="XMLID_75_" class="st18" d="M186.5,107.7c-0.9,0.5-1.1,0.4-4,1.5c-1.9,0.7-2.9,1.1-3,1.2c-1.7,1.5-0.6,3.9-1.4,7.8
							c-0.4,2-2,3.9-1.9,4.8c0.1,0.8,2.7,0.8,4.8,0.7c2.3,0,2.6-0.6,3.2-0.2c2.4,1.4-2.2,10.4-1.9,19.8c0,0.9,0.2,3.7,0,7.6
							c-0.1,1.8-0.2,3.2-0.3,4.2c5.9,1.6,10.9,2.2,14.6,2.5c6.1,0.4,8.9-0.1,11.4-1.4c2-1.1,3.4-2.4,4.2-3.4c-0.7-1.6-0.9-3-0.9-3.9
							c0-1.3,0.2-1.8,0.2-3.4c0-0.6-0.1-1.3-0.5-3c-0.5-2.4-0.8-3.2-1.1-4.4c-0.3-1.4-1.5-6.6,1.1-10.3c0.3-0.4,0.6-0.7,0.8-0.9
							c0.4,0.3,0.8,1.1,1.4,0.8s1.2-5.7,1.9-7.3c0.5-1.2,1.1-2.4,1.3-4.3c0.1-0.8,0.1-2.6-0.9-4.2c-0.2-0.2-0.5-0.8-1.6-1.6
							c-0.4-0.3-1.2-0.9-4.7-2.5c-1.2-0.5-1.8-0.8-2.3-1c-1.5-0.5-2.8-0.8-3.9-0.9c-5.5-0.7-6.8,0.8-10.8,0
							c-0.6-0.1-1.6-0.4-2.8-0.1C188.1,106.4,188,106.9,186.5,107.7z"/>
					</g>
					<g>
						<defs>
							<path id="SVGID_11_" d="M186.5,107.7c-0.9,0.5-1.1,0.4-4,1.5c-1.9,0.7-2.9,1.1-3,1.2c-1.7,1.5-0.6,3.9-1.4,7.8
								c-0.4,2-2,3.9-1.9,4.8c0.1,0.8,2.7,0.8,4.8,0.7c2.3,0,2.6-0.6,3.2-0.2c2.4,1.4-2.2,10.4-1.9,19.8c0,0.9,0.2,3.7,0,7.6
								c-0.1,1.8-0.2,3.2-0.3,4.2c5.9,1.6,10.9,2.2,14.6,2.5c6.1,0.4,8.9-0.1,11.4-1.4c2-1.1,3.4-2.4,4.2-3.4
								c-0.7-1.6-0.9-3-0.9-3.9c0-1.3,0.2-1.8,0.2-3.4c0-0.6-0.1-1.3-0.5-3c-0.5-2.4-0.8-3.2-1.1-4.4c-0.3-1.4-1.5-6.6,1.1-10.3
								c0.3-0.4,0.6-0.7,0.8-0.9c0.4,0.3,0.8,1.1,1.4,0.8s1.2-5.7,1.9-7.3c0.5-1.2,1.1-2.4,1.3-4.3c0.1-0.8,0.1-2.6-0.9-4.2
								c-0.2-0.2-0.5-0.8-1.6-1.6c-0.4-0.3-1.2-0.9-4.7-2.5c-1.2-0.5-1.8-0.8-2.3-1c-1.5-0.5-2.8-0.8-3.9-0.9
								c-5.5-0.7-6.8,0.8-10.8,0c-0.6-0.1-1.6-0.4-2.8-0.1C188.1,106.4,188,106.9,186.5,107.7z"/>
						</defs>
						<clipPath id="SVGID_12_">
							<use xlink:href="#SVGID_11_"  style="overflow:visible;"/>
						</clipPath>
						<path class="st27" d="M185.1,115.9c0,0,0.4,4.2,0.4,7.1c0,1.1-1.1,0.1-1.2,0.6c-0.3,1.8-0.7,2.9-1.5,3.6
							C185.3,128.7,188.9,122.9,185.1,115.9z"/>
					</g>
					<g>
						<defs>
							<path id="SVGID_13_" d="M186.5,107.7c-0.9,0.5-1.1,0.4-4,1.5c-1.9,0.7-2.9,1.1-3,1.2c-1.7,1.5-0.6,3.9-1.4,7.8
								c-0.4,2-2,3.9-1.9,4.8c0.1,0.8,2.7,0.8,4.8,0.7c2.3,0,2.6-0.6,3.2-0.2c2.4,1.4-2.2,10.4-1.9,19.8c0,0.9,0.2,3.7,0,7.6
								c-0.1,1.8-0.2,3.2-0.3,4.2c5.9,1.6,10.9,2.2,14.6,2.5c6.1,0.4,8.9-0.1,11.4-1.4c2-1.1,3.4-2.4,4.2-3.4
								c-0.7-1.6-0.9-3-0.9-3.9c0-1.3,0.2-1.8,0.2-3.4c0-0.6-0.1-1.3-0.5-3c-0.5-2.4-0.8-3.2-1.1-4.4c-0.3-1.4-1.5-6.6,1.1-10.3
								c0.3-0.4,0.6-0.7,0.8-0.9c0.4,0.3,0.8,1.1,1.4,0.8s1.2-5.7,1.9-7.3c0.5-1.2,1.1-2.4,1.3-4.3c0.1-0.8,0.1-2.6-0.9-4.2
								c-0.2-0.2-0.5-0.8-1.6-1.6c-0.4-0.3-1.2-0.9-4.7-2.5c-1.2-0.5-1.8-0.8-2.3-1c-1.5-0.5-2.8-0.8-3.9-0.9
								c-5.5-0.7-6.8,0.8-10.8,0c-0.6-0.1-1.6-0.4-2.8-0.1C188.1,106.4,188,106.9,186.5,107.7z"/>
						</defs>
						<clipPath id="SVGID_14_">
							<use xlink:href="#SVGID_13_"  style="overflow:visible;"/>
						</clipPath>
						<path class="st28" d="M205.9,122.5c0,0,2.6-6,2.9-6.9c0.3-0.9-5.1,6.1-5.1,6.1L205.9,122.5z"/>
					</g>
				</g>
				<g>
					<g>
						<path id="XMLID_76_" class="st17" d="M196.2,98.2c-0.4,2.9-0.9,5.8-1.4,8.7c2.6,0,5.2,0,7.8,0c-0.4-3-0.8-5.9-1.3-8.9
							C199.6,98.1,197.9,98.2,196.2,98.2z"/>
					</g>
					<g>
						<defs>
							<path id="SVGID_15_" d="M196.2,98.2c-0.4,2.9-0.9,5.8-1.4,8.7c2.6,0,5.2,0,7.8,0c-0.4-3-0.8-5.9-1.3-8.9
								C199.6,98.1,197.9,98.2,196.2,98.2z"/>
						</defs>
						<clipPath id="SVGID_16_">
							<use xlink:href="#SVGID_15_"  style="overflow:visible;"/>
						</clipPath>
						<path class="st29" d="M193.6,101.1l10.8,0.8c0,0-1.3,4-5.4,4s-5.4-4.4-5.4-4.4"/>
					</g>
				</g>
				<path class="st17" d="M189.3,106.1c0.9,4.1,4.4,7.1,8.6,7.2c4,0.1,7.6-2.4,8.9-6.3c-1.9-0.8-4.8-1.7-8.4-1.9
					C194.4,104.8,191.3,105.5,189.3,106.1z"/>
				<path class="st22" d="M193.5,95.8c-0.1-2.3-0.3-4.6-0.4-6.8c1.3-2.6,4-4.2,6.9-4c2.6,0.2,4.8,1.8,5.9,4.2
					c-0.2,2.4-0.3,4.7-0.5,7.1C201.4,96.1,197.4,95.9,193.5,95.8z"/>
				<polygon class="st30" points="192.4,105.4 192.3,108.3 194.8,110.4 195.8,113 198,120.3 196.2,109.6 193.7,107.6 192.6,104.1 
									"/>
				<g>
					<g>
						<path id="XMLID_74_" class="st17" d="M176.9,123c-0.3,2.1,0.4,7.6,0.6,11.5c0,0.7,0.1,1.9,0.8,2.9c0.4,0.4,1.1,1.1,2.6,1.6
							c2.5,0.7,9.9,1.3,19.8,1.7c2.3-1.1,4.6-2.2,6.9-3.3c2.2-2.3,3.3-4.9,2.5-6.2c-1-1.6-5.1-0.9-7.7,0.7c-2.2,1.3-3.3,3.3-3.8,4.4
							c-2.3-0.5-4.8-1.1-7.5-1.9c-2.3-0.7-4.4-1.4-6.4-2.2c0.2-1.3,0.4-2.9,0.3-4.7c-0.1-1.8-0.2-2.7-0.5-4
							C182,122.7,178.5,122.5,176.9,123z"/>
					</g>
					<g>
						<defs>
							<path id="SVGID_17_" d="M176.9,123c-0.3,2.1,0.4,7.6,0.6,11.5c0,0.7,0.1,1.9,0.8,2.9c0.4,0.4,1.1,1.1,2.6,1.6
								c2.5,0.7,9.9,1.3,19.8,1.7c2.3-1.1,4.6-2.2,6.9-3.3c2.2-2.3,3.3-4.9,2.5-6.2c-1-1.6-5.1-0.9-7.7,0.7
								c-2.2,1.3-3.3,3.3-3.8,4.4c-2.3-0.5-4.8-1.1-7.5-1.9c-2.3-0.7-4.4-1.4-6.4-2.2c0.2-1.3,0.4-2.9,0.3-4.7
								c-0.1-1.8-0.2-2.7-0.5-4C182,122.7,178.5,122.5,176.9,123z"/>
						</defs>
						<clipPath id="SVGID_18_">
							<use xlink:href="#SVGID_17_"  style="overflow:visible;"/>
						</clipPath>
						<rect x="175.8" y="121" class="st31" width="10.2" height="3.6"/>
					</g>
					<g>
						<defs>
							<path id="SVGID_19_" d="M176.9,123c-0.3,2.1,0.4,7.6,0.6,11.5c0,0.7,0.1,1.9,0.8,2.9c0.4,0.4,1.1,1.1,2.6,1.6
								c2.5,0.7,9.9,1.3,19.8,1.7c2.3-1.1,4.6-2.2,6.9-3.3c2.2-2.3,3.3-4.9,2.5-6.2c-1-1.6-5.1-0.9-7.7,0.7
								c-2.2,1.3-3.3,3.3-3.8,4.4c-2.3-0.5-4.8-1.1-7.5-1.9c-2.3-0.7-4.4-1.4-6.4-2.2c0.2-1.3,0.4-2.9,0.3-4.7
								c-0.1-1.8-0.2-2.7-0.5-4C182,122.7,178.5,122.5,176.9,123z"/>
						</defs>
						<clipPath id="SVGID_20_">
							<use xlink:href="#SVGID_19_"  style="overflow:visible;"/>
						</clipPath>
						<path class="st32" d="M199.7,132.7c0,0,2.5,2.7,5.3,2.4c2.8-0.3,6.7-4.5,6.7-4.5l-4.2-0.8L199.7,132.7z"/>
					</g>
				</g>
				<path class="st17" d="M204.4,90.3c0.1,1.5,0.1,2.9,0.2,4.4c0.3-0.1,0.7-0.1,1,0.1c0.6,0.4,0.4,1.2,0.4,1.7
					c-0.1,0.4-0.1,0.8-0.4,1.1c-0.3,0.3-0.7,0.3-0.9,0.3c-0.1,0.9-0.5,2.5-1.7,4.1c-0.7,0.9-2.1,2.7-4,2.7c-1.7-0.1-2.8-1.7-3.7-2.9
					c-1.1-1.6-1.5-3.2-1.6-4.1c-0.2,0-0.5,0-0.7-0.2c-0.1-0.1-0.2-0.3-0.2-1.3c0.1-1.3,0.2-1.5,0.3-1.6c0.3-0.3,0.6-0.3,0.8-0.3
					c0.3-1.6,0.5-3.2,0.8-4.8c0.5-0.4,2-1.5,4.1-1.6C202.2,87.8,204.2,89.9,204.4,90.3z"/>
				<path class="st30" d="M196.7,109.9c0.3,1.8,0.5,2.1,0.8,3.7c1.4-0.7,2.9-0.3,4.4-1.1c-0.9-2.1-1.1-2.4-1.3-3.1
					c0.1-1.4,0.3-2.4,0.5-3.2s0.2-1.2,0.4-1.9c0.2-1.1,0.2-2,0.3-2.6c-0.3,0.1-0.6,0.1-0.9,0.2c-0.4,0.5-0.7,1.1-1.1,1.6
					c-0.5-0.6-1.1-1.2-1.7-1.9c-0.6-0.6-1.2-1.2-1.8-1.7c-1.1,1.1,0,0-1.1,1.1c0.1,1.1,1.9,2.6,2.1,3.7
					C198.3,105.8,195.6,108.8,196.7,109.9z"/>
				<path class="st17" d="M207.2,123.2c1,0.7,1.8,0.8,3.3,1.8c0.8,0.5,1.4,1,1.8,1.3c-0.6,3.6-2.9,6.5-5.9,7.3
					c-1.7,0.5-3.3,0.2-4.2-0.1c-0.3-0.1-0.7-0.3-1.1-0.6c-1.3-1-1.7-2.4-1.9-3.3c-0.5-2.2-1.8-9.1-3.1-18.5
					c-1.1-1.1-2.3-2.3-3.4-3.4c-0.1-1.1-0.3-2.2-0.4-3.3c1.1-1.1,2.2-2.2,3.3-3.3c0.6,0.5,1.2,1,1.8,1.7c0.6,0.6,1.2,1.3,1.7,1.9
					c0.4-0.5,0.7-1.1,1.1-1.6c0.3-0.1,0.6-0.1,0.9-0.2c0,0.6-0.1,1.5-0.3,2.6c-0.1,0.8-0.2,1.2-0.4,1.9c-0.1,0.8-0.3,1.8-0.5,3.2
					c0.5,1.4,2.2,6.3,4.6,9.9C205.4,121.7,206,122.5,207.2,123.2z"/>
			</g>
			<g>
				<g>
					<path class="st33" d="M249.4,195.4c0.1,0,0.2,0,0.3,0l-0.3,0.1L249.4,195.4C249.4,195.4,249.4,195.4,249.4,195.4z"/>
					<path class="st33" d="M244.6,230.7c0,0,0.1-0.1,0.1-0.1c0.1-0.1,0.3-0.2,0.4-0.3c0.9-0.6,1.5-1.4,2.3-2.1
						c0.1-0.1,0.2-0.1,0.4-0.3c0.1-0.1,0.2-0.3,0.2-0.4c0-0.1,0.1-0.3,0.1-0.4c0.1-0.8,0-1.6-0.1-2.4c-0.1-1.4-0.6-5.1-0.6-5.6
						c0-0.1,0-0.3,0-0.4s0-0.3,0-0.5l0-0.1c0.2,0,0.5,0,0.7,0c1.2,0,2.4-0.3,3.5-0.6c0.5-0.1,1-0.3,1.5-0.5c0.1-0.1,0.4-0.2,0.4-0.3
						c0-0.2-0.1-0.4-0.2-0.6c0.1,0.1,0.2,0.1,0.3,0.2c0.3,0.1,0.5,0.2,0.7,0.3c0.3,0.1,0.5,0.3,0.7,0.5c0.3,0.3,0.5,0.6,0.7,1
						c0.1,0.3,0.2,0.5,0.3,0.8c0.3,1.4,0.1,2.8,0.2,4.3c0.1,1.2,0.3,2.4,0.5,3.6c0.1,0.3,0.2,1,0.2,1c0,0.1,0.1,0.4,0.2,0.6
						c0,0.1,0,0.1,0,0.1v0c0,0,0,0,0,0c-0.1,0-0.2,0.1-0.3,0.1c-0.1,0-0.1,0-0.2,0h0l0,0c0-0.1,0-0.2,0-0.3c0-0.1,0-0.2,0-0.2
						c-0.3-1.4-1-4.1-1-4.1c0-0.1-0.1-0.4-0.1-0.7c0-0.1-0.1-0.2-0.1-0.3c-0.1-0.1-0.1-0.2-0.2-0.3c-0.1,0-0.2-0.1-0.3,0
						c-0.3,0.1-0.5,0.3-0.7,0.5c-0.2,0.2-0.4,0.5-0.5,0.6c-0.3,0.4-0.4,0.8-0.6,1.2c-0.3,1.1-0.3,2.2-0.5,3.3
						c-0.1,0.4-0.1,0.9-0.4,1.1c-0.3,0.4-0.9,0.5-1.4,0.7c-0.4,0.1-0.8,0.2-1.1,0.3c-0.9,0.2-1.7,0.4-2.6,0.6l0,0
						c-0.2,0-0.4,0.1-0.7,0.2c-0.3,0.1-0.5,0.1-0.8,0.1s-0.5,0-0.6-0.1c-0.1-0.1-0.1-0.1-0.2-0.2l0,0
						C244.6,230.8,244.6,230.8,244.6,230.7z"/>
					<path class="st33" d="M246.4,215.9c-0.2-2.4-0.3-4.8-1.1-7.2c-0.9-2.6-1.8-5.3-2.5-8c-0.4-1.4-0.7-2.7-1-4.1
						c-0.3-1.2-0.6-2.4-0.8-3.6c-0.1-1.1,0-2.3,0.8-3.2c1.1-1.4,3.1-1.9,4.7-2.3c0.6-0.2,1.2-0.3,1.8-0.4l0,0.2c0,0,0,0,0,0
						c0.1,0,0.1-0.1,0.1-0.1c0-0.1,0-0.1,0-0.1c0,0,0.1,0,0.1,0c6.6-2.1,13.2-4.4,19.7-6.7c0.7-0.3,1.1-0.8,1.2-1.4
						c2.9,0.9,5.7,2.4,8.3,4c0,0.2,0,0.4,0,0.6c0,0.1,0,0.3-0.1,0.5c0,0.1,0,0.3,0,0.4l0.1-0.1c0.4,1.3,0.8,3.3,0,4.5
						c-0.9,1.4-2.8,1.8-4.2,2.3c-2.6,0.8-5.2,1.4-7.8,1.9c-2.8,0.6-5.5,1.2-8.3,1.7c-1.3,0.2-2.6,0.4-3.9,0.6
						c-1.2,0.1-2.5,0.3-3.7,0.3c-1.7-0.1,0.2-1,1.5,7c0.4,2.6,0.5,5.4,0.7,8c0.1,1.2,0.2,2.4,0.4,3.5c0.1,0.5,0.3,1,0.5,1.5
						c0,0.1,0.1,0.2,0.2,0.4c0.1,0.2,0.2,0.5,0.2,0.6c0,0.2-0.3,0.3-0.4,0.3c-0.5,0.2-1,0.4-1.5,0.5c-1.1,0.3-2.3,0.6-3.5,0.6
						c-0.2,0-0.4,0-0.7,0c-0.2,0-0.4-0.1-0.5-0.3C246.4,217.4,246.4,216.4,246.4,215.9z"/>
				</g>
				<path class="st34" d="M252.1,196.3h23.7c1.1,0,2-0.9,2-2V193c0-1.1-0.9-2-2-2h-23.7c-1.1,0-2,0.9-2,2v1.2
					C250.1,195.4,251,196.3,252.1,196.3z"/>
				<path class="st34" d="M284.5,174.2c0-4.5-0.1-9,0.1-13.4c0.1-3,0.1-6-0.3-8.9c-0.2-1.3-1.1-7.2-3.6-6.1
					c-0.5,0.2-0.7,0.9-0.8,1.3c0.1,9.1,0.2,18.1,0.3,27.2c0,1.2,0.8,2.1,1.8,2.1h0.8C283.7,176.3,284.5,175.4,284.5,174.2z"/>
				<path class="st35" d="M284.6,158.9v28.5c0,2.3-0.9,4.5-2.5,6.1c-1.6,1.6-3.8,2.5-6.1,2.5h-21.3"/>
				<rect x="264.6" y="196.3" class="st36" width="2.2" height="30.9"/>
				<rect x="262.9" y="210.4" class="st36" width="5.6" height="10.6"/>
				<path class="st36" d="M246.8,228.2c2.5-1.7,9.5-5.8,19.3-5.7c9.3,0.1,16,4,18.5,5.7c0-0.6,0-1.2,0-1.8
					c-2.7-1.7-9.3-5.4-18.5-5.5c-9.7-0.1-16.6,3.8-19.3,5.5C246.8,227.1,246.8,227.6,246.8,228.2z"/>
				<path class="st36" d="M282.2,228.2c0-1.3,1.1-2.4,2.4-2.4c1.3,0,2.4,1.1,2.4,2.4c0,1.3-1.1,2.4-2.4,2.4
					C283.2,230.6,282.2,229.6,282.2,228.2z"/>
				<path class="st36" d="M244.4,228.2c0-1.3,1.1-2.4,2.4-2.4c1.3,0,2.4,1.1,2.4,2.4c0,1.3-1.1,2.4-2.4,2.4
					C245.5,230.6,244.4,229.6,244.4,228.2z"/>
				<path class="st36" d="M263.4,228.2c0-1.3,1-2.3,2.3-2.3s2.3,1,2.3,2.3s-1,2.3-2.3,2.3C264.4,230.5,263.4,229.5,263.4,228.2z"/>
				<g>
					<path class="st33" d="M257.5,230.9L257.5,230.9L257.5,230.9z"/>
					<g>
						<path class="st19" d="M227.6,229.4c0,0,0.1-0.1,0.2-0.1c0.2-0.1,0.4-0.2,0.5-0.2c1.2-0.5,2.2-1.2,3.2-1.8
							c0.1-0.1,0.3-0.1,0.5-0.2c0.2-0.1,0.3-0.3,0.4-0.4s0.2-0.3,0.2-0.4c0.4-0.9,0.5-1.8,0.6-2.7c0.2-1.6,0.7-5.9,0.8-6.4
							c0-0.1,0.1-0.3,0.1-0.5c0-0.2,0.1-0.4,0.1-0.6l0-0.1c0.3,0.1,0.5,0.1,0.8,0.2c1.4,0.3,2.8,0.4,4.2,0.3c0.6,0,1.3-0.1,1.9-0.2
							c0.2,0,0.5-0.1,0.6-0.3c0.1-0.2,0.1-0.5,0-0.8c0.1,0.1,0.2,0.2,0.3,0.3c0.3,0.2,0.5,0.4,0.7,0.6c0.3,0.2,0.5,0.5,0.7,0.8
							c0.3,0.4,0.4,0.8,0.5,1.3c0.1,0.3,0.1,0.7,0.1,1c0,1.6-0.7,3.2-0.9,4.9c-0.2,1.4-0.3,2.8-0.4,4.2c0,0.4-0.1,1.1-0.1,1.1
							c0,0.1,0,0.5,0,0.7c0,0.1,0,0.1,0,0.2v0c0,0,0,0-0.1,0c-0.1,0-0.2,0-0.4,0c-0.1,0-0.1,0-0.2,0h0v0c0-0.1,0-0.2,0-0.3
							c0-0.1,0-0.2,0-0.3c0-1.6,0-4.9,0-4.9c0-0.1,0.1-0.5,0.1-0.8c0-0.1,0-0.3,0-0.4s-0.1-0.3-0.2-0.4c-0.1-0.1-0.2-0.1-0.3-0.1
							c-0.3,0-0.6,0.2-0.9,0.4c-0.3,0.2-0.6,0.4-0.8,0.6c-0.4,0.3-0.7,0.7-1,1.2c-0.7,1.1-1,2.4-1.5,3.6c-0.2,0.5-0.4,0.9-0.8,1.1
							c-0.5,0.3-1.2,0.3-1.8,0.4c-0.5,0-0.9,0-1.4,0c-1.1,0-2.1,0-3.1-0.1h0c-0.2,0-0.5,0-0.9,0c-0.3,0-0.6,0-0.9-0.1
							c-0.3-0.1-0.5-0.1-0.7-0.3c-0.1-0.1-0.1-0.2-0.2-0.3v0C227.5,229.5,227.5,229.4,227.6,229.4z"/>
						<g>
							<g>
								<path id="XMLID_62_" class="st9" d="M233.8,213.1c0.4-2.8,1-5.5,0.7-8.4c-0.3-3.2-0.5-6.4-0.6-9.7c0-1.6,0-3.2,0-4.9
									c0-1.4-0.1-2.9,0.1-4.3c0.2-1.3,0.7-2.6,1.8-3.4c1.7-1.3,4.1-1.3,6.1-1.3c0.8,0,1.5,0,2.3,0l0,0.2c0,0,0,0,0,0
									c0.1,0,0.1,0,0.2-0.1s0-0.1,0-0.2c0.1,0,0.1,0,0.1,0c8.3-0.6,16.5-1.3,24.8-2.1c0.9-0.1,1.5-0.6,1.8-1.2
									c3.1,1.8,5.9,4.3,8.5,6.8c0,0.2-0.1,0.4-0.2,0.7c0,0.2-0.1,0.4-0.2,0.6c0,0.1-0.1,0.3-0.1,0.4l0.2,0c0.1,1.6,0,3.9-1.3,5.1
									c-1.4,1.3-3.8,1.3-5.5,1.4c-3.2,0.2-6.4,0.1-9.6,0c-3.4-0.1-6.7-0.2-10.1-0.4c-1.6-0.1-3.1-0.2-4.6-0.4
									c-1.5-0.2-3-0.3-4.4-0.7c-0.2-0.1-0.7-0.2-0.7-0.2c0.5,2.8,0.7,5.6,0.4,8.5c-0.2,3.1-0.9,6.1-1.5,9.2
									c-0.3,1.4-0.5,2.7-0.5,4.1c0,0.6,0.1,1.2,0.1,1.8c0,0.1,0.1,0.3,0.1,0.5c0.1,0.3,0.1,0.6,0,0.8c-0.1,0.2-0.4,0.2-0.6,0.3
									c-0.6,0.1-1.3,0.2-1.9,0.2c-1.4,0.1-2.9,0-4.2-0.3c-0.2-0.1-0.5-0.1-0.8-0.2c-0.2-0.1-0.4-0.2-0.5-0.4
									C233.4,214.9,233.7,213.8,233.8,213.1z"/>
							</g>
							<g>
								<defs>
									<path id="SVGID_21_" d="M233.8,213.1c0.4-2.8,1-5.5,0.7-8.4c-0.3-3.2-0.5-6.4-0.6-9.7c0-1.6,0-3.2,0-4.9
										c0-1.4-0.1-2.9,0.1-4.3c0.2-1.3,0.7-2.6,1.8-3.4c1.7-1.3,4.1-1.3,6.1-1.3c0.8,0,1.5,0,2.3,0l0,0.2c0,0,0,0,0,0
										c0.1,0,0.1,0,0.2-0.1s0-0.1,0-0.2c0.1,0,0.1,0,0.1,0c8.3-0.6,16.5-1.3,24.8-2.1c0.9-0.1,1.5-0.6,1.8-1.2
										c3.1,1.8,5.9,4.3,8.5,6.8c0,0.2-0.1,0.4-0.2,0.7c0,0.2-0.1,0.4-0.2,0.6c0,0.1-0.1,0.3-0.1,0.4l0.2,0c0.1,1.6,0,3.9-1.3,5.1
										c-1.4,1.3-3.8,1.3-5.5,1.4c-3.2,0.2-6.4,0.1-9.6,0c-3.4-0.1-6.7-0.2-10.1-0.4c-1.6-0.1-3.1-0.2-4.6-0.4
										c-1.5-0.2-3-0.3-4.4-0.7c-0.2-0.1-0.7-0.2-0.7-0.2c0.5,2.8,0.7,5.6,0.4,8.5c-0.2,3.1-0.9,6.1-1.5,9.2
										c-0.3,1.4-0.5,2.7-0.5,4.1c0,0.6,0.1,1.2,0.1,1.8c0,0.1,0.1,0.3,0.1,0.5c0.1,0.3,0.1,0.6,0,0.8c-0.1,0.2-0.4,0.2-0.6,0.3
										c-0.6,0.1-1.3,0.2-1.9,0.2c-1.4,0.1-2.9,0-4.2-0.3c-0.2-0.1-0.5-0.1-0.8-0.2c-0.2-0.1-0.4-0.2-0.5-0.4
										C233.4,214.9,233.7,213.8,233.8,213.1z"/>
								</defs>
								<clipPath id="SVGID_22_">
									<use xlink:href="#SVGID_21_"  style="overflow:visible;"/>
								</clipPath>
								<path class="st37" d="M239.6,188.7l5.1,3.7v2.8C244.7,195.2,240,191.5,239.6,188.7z"/>
							</g>
						</g>
					</g>
					<g>
						<g>
							<path id="XMLID_11_" class="st19" d="M271.1,146.8c-2.2,1.1-4.3,2.6-6.4,3.9v0c0-0.1,0-0.1,0-0.2s-0.1-0.1-0.1-0.1
								c0,0,0-0.1,0-0.1c0-0.1,0-0.3,0.1-0.4c0.2-1,0.5-1.9,0.7-2.9c0.1-0.5,0.3-0.9,0.5-1.3c0.1-0.1,0.2-0.3,0.4-0.4
								c0.1-0.1,0.2-0.1,0.3-0.2c0.1-0.1,0.2-0.2,0.2-0.4v-0.1l0,0c0-0.2-0.1-0.6-0.5-1c-0.1-0.1-0.5-0.6-1.1-0.5
								c-0.3,0-0.3,0.1-0.7,0.3c-0.3,0.1-0.7,0.2-1.1,0.1c-0.2-0.1-0.4-0.3-0.5-0.4c-0.1-0.1-0.1-0.2-0.2-0.3
								c-0.2-0.4-0.3-0.7-0.3-0.8c0-0.3-0.4-1.3-1.5-3.6c-0.2-0.3-0.4-0.3-0.6-0.3c0,0-0.3,0-0.5-0.1c-0.1,0-0.1-0.1-0.2-0.1
								c0-0.1,0-0.1,0-0.2c0-0.1,0-0.3,0.1-0.4c0.2-0.4,0.6-0.7,0.8-1.2c0.2-0.5,0.1-1,0.1-1.4c0-0.8,0.3-1.7,0.4-2.6
								c0.1-1,0.2-1.9,0.5-2.9c0.1-0.4,0.2-0.7,0.4-1.1l0-0.1c0-0.2,0-0.4,0-0.5c0-0.3,0-0.5,0.2-0.6c3.1-2.2,18.7-3.6,12.3,12.3
								c-0.1,0.2-0.1,0.5-0.1,0.7c0,0.2-0.1,0.4-0.2,0.5l0,0c-0.1,0-0.1,0-0.2,0c0,0-0.1,0.1-0.1,0.2c0,0.3,0,0.6,0,0.9
								c0,0,0,0.1,0,0.3c0,0.1,0,0.2,0.1,0.3c0,0.1,0.1,0.1,0.1,0.1c0.1,0,0.1,0.1,0.2,0.1c0.1,0,0.1,0,0.1,0h0c0.2,0,0.3,0,0.4,0.2
								c0.2,0.2,0.3,0.5,0.4,0.9c0.1,0.4,0.1,0.8,0.1,1.1c0,0.1,0,0.1,0,0.2c0,0.1,0,0.2,0,0.3c0,0.1,0,0.1,0,0.1c0,0,0,0.1,0,0.1
								c-0.6,0.2-1.3,0.4-1.9,0.7C272.6,146.1,271.8,146.4,271.1,146.8z"/>
						</g>
						<g>
							<defs>
								<path id="SVGID_23_" d="M271.1,146.8c-2.2,1.1-4.3,2.6-6.4,3.9v0c0-0.1,0-0.1,0-0.2s-0.1-0.1-0.1-0.1c0,0,0-0.1,0-0.1
									c0-0.1,0-0.3,0.1-0.4c0.2-1,0.5-1.9,0.7-2.9c0.1-0.5,0.3-0.9,0.5-1.3c0.1-0.1,0.2-0.3,0.4-0.4c0.1-0.1,0.2-0.1,0.3-0.2
									c0.1-0.1,0.2-0.2,0.2-0.4v-0.1l0,0c0-0.2-0.1-0.6-0.5-1c-0.1-0.1-0.5-0.6-1.1-0.5c-0.3,0-0.3,0.1-0.7,0.3
									c-0.3,0.1-0.7,0.2-1.1,0.1c-0.2-0.1-0.4-0.3-0.5-0.4c-0.1-0.1-0.1-0.2-0.2-0.3c-0.2-0.4-0.3-0.7-0.3-0.8
									c0-0.3-0.4-1.3-1.5-3.6c-0.2-0.3-0.4-0.3-0.6-0.3c0,0-0.3,0-0.5-0.1c-0.1,0-0.1-0.1-0.2-0.1c0-0.1,0-0.1,0-0.2
									c0-0.1,0-0.3,0.1-0.4c0.2-0.4,0.6-0.7,0.8-1.2c0.2-0.5,0.1-1,0.1-1.4c0-0.8,0.3-1.7,0.4-2.6c0.1-1,0.2-1.9,0.5-2.9
									c0.1-0.4,0.2-0.7,0.4-1.1l0-0.1c0-0.2,0-0.4,0-0.5c0-0.3,0-0.5,0.2-0.6c3.1-2.2,18.7-3.6,12.3,12.3
									c-0.1,0.2-0.1,0.5-0.1,0.7c0,0.2-0.1,0.4-0.2,0.5l0,0c-0.1,0-0.1,0-0.2,0c0,0-0.1,0.1-0.1,0.2c0,0.3,0,0.6,0,0.9
									c0,0,0,0.1,0,0.3c0,0.1,0,0.2,0.1,0.3c0,0.1,0.1,0.1,0.1,0.1c0.1,0,0.1,0.1,0.2,0.1c0.1,0,0.1,0,0.1,0h0
									c0.2,0,0.3,0,0.4,0.2c0.2,0.2,0.3,0.5,0.4,0.9c0.1,0.4,0.1,0.8,0.1,1.1c0,0.1,0,0.1,0,0.2c0,0.1,0,0.2,0,0.3
									c0,0.1,0,0.1,0,0.1c0,0,0,0.1,0,0.1c-0.6,0.2-1.3,0.4-1.9,0.7C272.6,146.1,271.8,146.4,271.1,146.8z"/>
							</defs>
							<clipPath id="SVGID_24_">
								<use xlink:href="#SVGID_23_"  style="overflow:visible;"/>
							</clipPath>
							<path class="st38" d="M264.9,143.3c0,0,2.7-1.6,3.7-3.1s1-1.6,1-1.6l-3.4,5.8L264.9,143.3z"/>
						</g>
					</g>
					<path class="st19" d="M271.9,156.6c0,0,0.1,0.1,0.1,0.2C272,156.7,271.9,156.6,271.9,156.6
						C271.9,156.6,271.9,156.6,271.9,156.6z"/>
					<g>
						<g>
							<path id="XMLID_60_" class="st16" d="M279.5,184.7c0.1-0.4,0.2-0.9,0.2-1.3v-0.1c0-0.9-0.5-1.7-0.7-2.8
								c-0.4-1.9,0.9,2.5-0.1-13.8v0c0-3.1,2.8-5.4-0.2-14.1c-0.6-1.7-1.3-3.3-2.1-4.9c-0.4-0.8-0.8-1.5-1.3-2.3
								c-0.1-0.1,0-0.4,0-0.5c0-0.1-0.1,0.1-0.1,0c-0.6,0.2-1.7-0.4-2.3,0c-0.8,0.3-1.7,0.5-2.4,0.8c-2.2,1.1-3.7,3.5-5.8,4.9
								c-0.9,2.7-4,4.8-2.8,11.2c0.4,2.2,0.9,4.3,1.1,6.5c0,0.6,0.1,1.2,0.1,1.8c0,0.3,0,0.6,0,0.9c-0.1,0.7-0.3,1.3-0.4,1.9
								c-0.1,0.5-0.2,0.9-0.2,1.4c0,0.2-0.2,2.1-0.3,2.2c1,0.2,2.2-1.4,3.1-1.1C270.8,176.9,275.5,180.8,279.5,184.7z M271.9,156.6
								C271.9,156.6,271.9,156.6,271.9,156.6c0,0,0.1,0.1,0.1,0.2C272,156.7,271.9,156.6,271.9,156.6z"/>
						</g>
						<g>
							<defs>
								<path id="SVGID_25_" d="M279.5,184.7c0.1-0.4,0.2-0.9,0.2-1.3v-0.1c0-0.9-0.5-1.7-0.7-2.8c-0.4-1.9,0.9,2.5-0.1-13.8v0
									c0-3.1,2.8-5.4-0.2-14.1c-0.6-1.7-1.3-3.3-2.1-4.9c-0.4-0.8-0.8-1.5-1.3-2.3c-0.1-0.1,0-0.4,0-0.5c0-0.1-0.1,0.1-0.1,0
									c-0.6,0.2-1.7-0.4-2.3,0c-0.8,0.3-1.7,0.5-2.4,0.8c-2.2,1.1-3.7,3.5-5.8,4.9c-0.9,2.7-4,4.8-2.8,11.2
									c0.4,2.2,0.9,4.3,1.1,6.5c0,0.6,0.1,1.2,0.1,1.8c0,0.3,0,0.6,0,0.9c-0.1,0.7-0.3,1.3-0.4,1.9c-0.1,0.5-0.2,0.9-0.2,1.4
									c0,0.2-0.2,2.1-0.3,2.2c1,0.2,2.2-1.4,3.1-1.1C270.8,176.9,275.5,180.8,279.5,184.7z M271.9,156.6
									C271.9,156.6,271.9,156.6,271.9,156.6c0,0,0.1,0.1,0.1,0.2C272,156.7,271.9,156.6,271.9,156.6z"/>
							</defs>
							<clipPath id="SVGID_26_">
								<use xlink:href="#SVGID_25_"  style="overflow:visible;"/>
							</clipPath>
							<path class="st39" d="M269.5,156.7c0,0-3.1,8.6-3.6,13s-0.3,5.4-0.3,5.4l4.9-2.3L269.5,156.7z"/>
						</g>
					</g>
					<path class="st40" d="M242.9,230.6L242.9,230.6L242.9,230.6z"/>
					<path class="st40" d="M266.6,144.7L266.6,144.7L266.6,144.7z"/>
					<g>
						<g>
							<path id="XMLID_61_" class="st16" d="M275.3,145c2,3.4,2.4,4.4,3.3,6.7c0.9,2.4,1.6,4.9,1.7,7.4c0,1.1-0.1,2.1-0.3,3.2
								c-0.2,1.2-0.7,2.3-0.9,3.4c-0.2,1,0,2.1,0,3.1c0.1,1.3,0.2,2.5,0.3,3.8c0.1,1.3,0.1,2.6,0.1,3.9c0,1-0.1,2-0.4,2.9
								c-0.4,1.3,0.5,2.4,0.6,3.7c0,0.9-0.2,1.8-0.5,2.7c-0.9,2.8-3.1-1.4-9.9-1.4c-4.9,0-3.8-3.7-6.1-3.6l7-6.2L275.3,145z"/>
						</g>
						<g>
							<defs>
								<path id="SVGID_27_" d="M275.3,145c2,3.4,2.4,4.4,3.3,6.7c0.9,2.4,1.6,4.9,1.7,7.4c0,1.1-0.1,2.1-0.3,3.2
									c-0.2,1.2-0.7,2.3-0.9,3.4c-0.2,1,0,2.1,0,3.1c0.1,1.3,0.2,2.5,0.3,3.8c0.1,1.3,0.1,2.6,0.1,3.9c0,1-0.1,2-0.4,2.9
									c-0.4,1.3,0.5,2.4,0.6,3.7c0,0.9-0.2,1.8-0.5,2.7c-0.9,2.8-3.1-1.4-9.9-1.4c-4.9,0-3.8-3.7-6.1-3.6l7-6.2L275.3,145z"/>
							</defs>
							<clipPath id="SVGID_28_">
								<use xlink:href="#SVGID_27_"  style="overflow:visible;"/>
							</clipPath>
							<path class="st41" d="M277,158.1c0,0-0.4,18-0.8,19.3s-12.6,3.5-12.6,3.5l10.5-7.5L277,158.1z"/>
						</g>
					</g>
					<path class="st22" d="M241.2,216.2c-0.1,0.5-0.3,1-0.5,1.5c-0.6,1.4-1.6,2.6-2.4,3.9c-0.9,1.4-1.7,2.8-2.6,4.1
						c-0.5,0.7-1,1.2-1.8,1.3c-0.4,0.1-0.8,0-1.2,0c-0.2,0-0.5-0.2-0.7-0.2c-0.2,0-0.4,0.1-0.6,0.2c-0.6,0.4-1.2,0.8-1.9,1.1
						c-0.6,0.3-1.2,0.5-1.7,0.8c-0.2,0.1-0.4,0.2-0.5,0.4c-0.1,0.3,0.2,0.6,0.5,0.8c0.7,0.4,1.8,0.2,2.6,0.2c1.7,0,3.4,0.2,5.1,0
						c0.6-0.1,1.1-0.2,1.5-0.6c0.7-0.8,0.9-2.1,1.3-3.1c0.3-0.8,0.7-1.7,1.4-2.3c0.5-0.5,1.1-0.8,1.6-1c0.2-0.1,0.3-0.1,0.4,0.1
						c0.2,0.4,0,1,0,1.4c0,0.8,0,4.8,0,5.1c0,0.1-0.1,0.4,0,0.5c0.1,0.1,0,0.1,0.2,0.1c0.1,0,0.6,0.1,0.7,0c0.1-0.1,0.1-0.9,0.1-1.1
						c0-0.8,0.1-1.6,0.1-2.4c0.1-1.5,0.2-3.1,0.6-4.5c0.3-1.2,0.7-2.2,0.6-3.5c0-0.7-0.1-1.4-0.5-2c-0.5-0.9-1.4-1.5-2.1-2.1
						L241.2,216.2z"/>
					<path class="st12" d="M273.2,142.2c-1.6,0.4-3.2,0.9-4.7,1.6c-0.9,0.4-2,0.9-2.7,1.7c-0.7,0.8-0.7,2-1,3
						c-0.1,0.3-0.8,2-0.2,2.1c0.5,0.1,1.3-0.8,1.6-1.1c1.2-1.2,2.5-2.3,4-3.1c1.1-0.6,2.3-1.1,3.6-1.1c0.5,0,1.4,0.1,1.6-0.5
						c0.2-0.6,0-1.6-0.3-2.1c-0.2-0.6-0.5-0.8-1.1-0.8C273.7,142.1,273.5,142.1,273.2,142.2z"/>
					<path class="st22" d="M270.8,136.5c0.2,0.6,0.4,1.6,0.6,2.8c0.5,3.7-0.6,4.8,0.3,6.3c1.1,2,3.5,1.1,4.6,3.3
						c0.8,1.5-0.3,2.4,0.5,4.2c0.8,1.7,2.8,3.3,4.7,2.9c2.4-0.4,4-4.1,3.4-6.6c-0.8-2.8-3.9-2.8-4.6-6c-0.4-1.8,0.6-2.1,0.1-4.2
						c-0.6-2.4-2.1-2.6-2.6-5c-0.4-1.7,0.4-1.8,0.2-4.1c-0.1-1.1-0.3-4.2-2.7-5.8c-0.5-0.3-1.8-1.1-4-0.9c-0.4-0.2-2.9-1.7-5.7-0.6
						c-2.5,0.9-3.4,3.1-3.7,3.8c-0.3,0.8-0.8,2.3-0.4,2.6c0.1,0.1,0.2,0,0.4,0c0.7,0.1,1,1.1,1.5,1.9c0,0,0.6,0.9,2,1.6
						c1.6,0.8,3.5,0.2,4.2-0.1L270.8,136.5z"/>
					<path class="st19" d="M268.6,136.5c0.1,0.6,0.7,0.9,1.2,0.8c0.7-0.1,1.1-0.9,1.4-1.5c0.4-0.7,0.7-1.6,0.5-2.4
						c-0.1-1.1-1.3-1.7-2.2-0.9L268.6,136.5z"/>
					<path class="st17" d="M269.9,133.4c-0.1,0.5,0.6,0.5,0.5,0.9c-0.1,0.5-0.6,0.2-0.8,0.6c-0.1,0.4,1,0.7,1.3-0.7
						C271.2,132.9,270,132.9,269.9,133.4z"/>
					<path class="st16" d="M269.1,156.5c-0.2,0.6-0.4,1.6-0.6,2.6c-0.1,0.8-0.4,2.7-0.5,6.1c-0.1,1.9,0,4.3,0.1,7.2
						c-1.9,1.1-3.5,2-4.8,2.6c-2.6,1.2-3.9,1.7-4.6,2c-1.5,0.6-3.1,0.9-4.7,1.2c-0.5,0.1-0.6,0.4-0.5,0.9c0.2,1.1,0.8,2.1,0.9,3.3
						c0,0.5,0,1,0.6,1.1c1.1,0.1,2.3-0.5,3.3-0.8c1.8-0.6,3.5-1.1,5.2-1.8c1.6-0.6,3.3-1.2,4.9-1.8c1.6-0.6,3.3-1.2,4.8-2
						c1.7-0.8,2.1-2.6,2.5-4.3c0.3-1.4,0.4-2.8,0.5-4.2c0.2-2.5,0.5-4.9,0.7-7.4c0.1-1.4,0.3-2.8,0.3-4.2c0-1.8-0.2-3.5-0.6-5.2
						L269.1,156.5z"/>
					<path class="st19" d="M253.5,178.6c-5-0.3-1.9-2.8-7.9,0.8c-0.2,0.1-2.9,2.3-0.6,1.9c3.9-0.7,4.6,0.4,7,0.9
						c0.8,0.1,1.5,0.1,2.3-0.1L253.5,178.6z"/>
				</g>
			</g>
			<g>
				<g>
					<path class="st22" d="M79.1,227.6c-0.1-0.9-0.7-1.5-1.2-2.1c-0.9-1.3-1.6-2.5-1.9-4c-0.3-1.2-0.5-2.3-0.5-3.5
						c0-0.7,0.1-1.4,0.1-2.1c0-0.2,0-0.5-0.1-0.6s-0.4-0.1-0.4-0.2c-0.1-0.1,0,0,0,0c0.6-0.6,1.1-1.3,1.7-1.9
						c0.3,0.1,0.5,0.2,0.7,0.3c0.6,0.2,1.2,0.5,1.9,0.5c1.2-0.1,2.1-1.4,2.7-2.1c3.5-4,6.4-8.1,8.6-12.9c1.2-2.5,1.6-4.9,2.3-7.5
						c0.3-1.2,0.6-2.3,1-3.4c0.2-0.6,0.3-1.2,0.3-1.8c0-0.8-0.2-1.5-0.5-2.3c-8.6-6.3-17.3-10.7-27.8-13.3
						c-4.4,0.2-11.7,1.6-14.8,3.7s-2.8,4-3.3,6.4c-0.5,2.4,0,3.6,0.5,5.5c0.4,1.5,1.3,2.7,2.4,3.7c0.9,0.8,2.1,0.9,3.3,0.9
						c2.2,0.1,4.4-0.4,6.5-0.8c4.6-0.9,9.2-1.8,13.9-2.1c1.1-0.1,2.1,0,3.2,0s1.9-0.2,2.9-0.3c0.8-0.1,1.5-0.2,2.2,0.2
						c0.3,0.1,0.5,0.3,0.5,0.6c0.1,0.2,0,0.3,0,0.4c-0.1,0.5-0.3,0.9-0.5,1.4c-0.4,1-0.7,1.9-1.2,2.9c-0.9,1.9-2,3.7-3.4,5.4
						c-1.4,1.7-2.7,3.4-4.4,4.9c-1.5,1.3-3.3,2.8-4.5,4.4c-0.3,0.4,0,0.9-0.2,1.3c0,0,0,0,0,0c-0.4,0.4-0.8,0.8-1.2,1.2
						c0-0.1-0.1-0.1-0.1-0.2c-0.3-0.4-0.5-0.5-1-0.4c-1.1,0.2-2,0.7-3,1.3c-1,0.6-2.2,1.1-2.9,2.1c-0.3,0.4-0.4,0.8-0.2,1.2
						c0.3,0.8,1,1.4,1.6,1.9c1.5,1.5,2.9,2.9,4.4,4.4c2.2,2.3,4.4,4.6,6.9,6.8c0.9,0.8,2,1.6,3.1,2.1c0.5,0.2,1.1,0.4,1.6,0.3
						C78.7,229.3,79.2,228.5,79.1,227.6z"/>
					<path class="st17" d="M51.7,155.5c0.3,1.5,1,3,1.7,4.3c0.4,0.7,0.8,1.3,1.4,1.8c1,0.8,2.3,1.3,3.5,1.7c1.8,0.6,3.6,1.1,5.4,1.7
						c2.9,0.9,4.4,1.2,4.8,1.3c1.8,0.4,4.5,0.6,8,0.2c0.4,0.5,1,1.2,2,1.8c1.2,0.7,2.3,0.9,2.7,1c0.6,0.1,1.2,0.1,2.1,0.1
						c0.6,0,1.2-0.1,1.8-0.1c0.9,0.1,1.8,0.5,2.7,0.7c0.8,0.1,1.7-0.2,1.8-1.1c0-0.2,0-0.3-0.6-1.1c-0.4-0.6-0.8-1-1.1-1.3
						c-1.2-0.3-2.1-0.5-2.7-0.7c-3.3-0.9-5.2-1.5-8.4-2.2l0,0c-0.2,0-0.5-0.1-0.9-0.2c-3.8-0.9-5.1-2.2-9.9-4.7
						c-3.2-1.6-4.6-2.1-6.2-3.9c-0.6-0.7-1-1.3-1.2-1.7L51.7,155.5z"/>
					<path class="st22" d="M52.2,139.4c-0.5,0-0.4-0.1-1.9-0.6c-1.4-0.4-2.1-0.7-2.3-0.9c-0.2-0.2-0.5-0.6-0.7-1.3
						c-0.2,0-1.7,0.1-2.7-1.1c-0.9-1.1-0.9-2.7-0.1-4c-0.2-0.4-1-2.1-0.4-4.1c0.7-2.4,2.6-3.4,3-3.6c0-0.1-0.3-2.4,1.4-3.8
						c1.2-1.1,3-1.3,4.5-0.6c0.9-1.4,2.5-2.2,4-2c1.9,0.3,2.8,2,2.9,2.2c0.5,0.2,2.1,0.8,2.8,2.3c1,2,0.4,4.8-1.7,6.8
						c-0.4,0.9-0.9,2.1-1.7,3.4c-1.3,2.3-2.5,3.6-2.7,3.9C55,138.1,53.7,139.6,52.2,139.4z"/>
					<path class="st19" d="M93.7,220.4c-0.2-0.8-0.3-1.6-0.5-2.5l-6-1.1l-2.6,3.2l0.6,4.6l9.6-0.1L93.7,220.4z"/>
					<path class="st10" d="M42.7,181.2c-0.3,1.9-0.3,3.5,0.4,5.3c0.5,1.3,1.3,2.8,2.4,3.7c1,0.8,2.2,1,3.4,1.2
						c2.2,0.4,4.5,0.4,6.8,0.4c4.9,0,9.8-0.4,14.8-0.1c1.2,0.1,2.3,0.2,3.5,0.1c1.1-0.1,2.2-0.3,3.3-0.4c0.8-0.1,1.7-0.2,2.5,0
						c0.3,0.1,0.6,0.1,0.8,0.4c0.1,0.1,0.1,0.3,0.1,0.5c0.1,0.6,0.1,1.2,0.2,1.8c0.1,1.3,0.3,2.6,0.4,3.9c0.3,2.5,0.6,5,1,7.4
						c0.3,2.4,0.7,4.8,0.9,7.3c0.2,2.1,0.1,4.4,0.7,6.5c0.2,0.6,0.4,1.1,1.1,1.1c0.8,0,1.6-0.4,2.3-0.5c1.3-0.3,2.5-0.6,3.8-0.9
						c1.1-0.3,2.1-0.6,3.1-0.9c0.5-0.2,1.2-0.4,1.6-0.9c0.8-0.8,0.3-2.3,0.2-3.2c-0.7-5-1.3-9.9-2.1-14.8c-0.4-2.6-0.9-5.2-1.3-7.9
						c-0.2-1.2-0.2-2.4-0.3-3.6c0-0.6-0.1-1.2-0.4-1.8c-0.3-0.8-0.8-1.5-1.3-2.1l-29.2-10.5c0,0-12,0-15.1,2.2
						C43.1,177.4,42.7,181.2,42.7,181.2z"/>
					<path class="st22" d="M84.6,221.8c-0.5-0.1-0.8,0-1,0.4c-0.6,0.9-0.7,2.1-0.9,3.1c-0.2,1.2-0.4,2.5-0.2,3.7
						c0.1,0.5,0.2,0.9,0.7,1.1c0.8,0.3,1.7,0.2,2.6,0.2c2.1,0,4.2,0,6.3,0c3.2,0,6.4,0.2,9.6-0.1c1.2-0.1,2.5-0.3,3.6-0.7
						c0.5-0.2,1.1-0.5,1.3-1c0.4-0.7,0.2-1.8-0.4-2.4c-0.6-0.6-1.5-0.6-2.3-0.7c-1.5-0.2-2.9-0.7-4.3-1.3c-1.1-0.5-2.2-1.1-3.2-1.9
						c-0.6-0.5-1.1-1-1.6-1.5c-0.2-0.1-0.4-0.3-0.6-0.4c-0.6-0.2-0.8,0.7-1.1,1.1c-0.3,0.5-0.7,0.8-1.1,1.1c-1.8,0.9-3.5,0.6-5.3,0
						C86,222.2,85.3,221.9,84.6,221.8z"/>
					<g>
						<g>
							<path id="XMLID_65_" class="st42" d="M48.3,140.3c-0.5,0.7-0.9,1.6-1.2,2.5c-0.4,1.1-0.8,2.1-1.2,3.2
								c-0.7,2.2-1.4,4.4-1.8,6.7c-0.9,4.9-1.1,9.8-1.4,14.7c-0.1,2.3-0.3,4.6-0.5,6.9c-0.1,1.8,0,3.6,0.7,5.2
								c0.2,0.5,0.7,1.4,1.4,1.1c0.4-0.1,0.7-0.5,0.9-0.7c0.6-0.7,1.2-1.4,1.9-1.9c1.7-1.2,3.8-1.7,5.8-2.2c2.3-0.6,4.6-0.9,6.8-1.5
								c0.5-0.1,1-0.3,1.4-0.4c0.4-3.8,0.8-7.5,1.3-11.2c0.5-3.8,0.4-7.8-0.7-11.5c-0.6-1.9-1.4-3.8-2.5-5.4c-1.1-1.8-2.7-3.3-4-5
								l-6.2-1.3L48.3,140.3z"/>
						</g>
						<g>
							<defs>
								<path id="SVGID_29_" d="M48.3,140.3c-0.5,0.7-0.9,1.6-1.2,2.5c-0.4,1.1-0.8,2.1-1.2,3.2c-0.7,2.2-1.4,4.4-1.8,6.7
									c-0.9,4.9-1.1,9.8-1.4,14.7c-0.1,2.3-0.3,4.6-0.5,6.9c-0.1,1.8,0,3.6,0.7,5.2c0.2,0.5,0.7,1.4,1.4,1.1
									c0.4-0.1,0.7-0.5,0.9-0.7c0.6-0.7,1.2-1.4,1.9-1.9c1.7-1.2,3.8-1.7,5.8-2.2c2.3-0.6,4.6-0.9,6.8-1.5c0.5-0.1,1-0.3,1.4-0.4
									c0.4-3.8,0.8-7.5,1.3-11.2c0.5-3.8,0.4-7.8-0.7-11.5c-0.6-1.9-1.4-3.8-2.5-5.4c-1.1-1.8-2.7-3.3-4-5l-6.2-1.3L48.3,140.3z"
									/>
							</defs>
							<clipPath id="SVGID_30_">
								<use xlink:href="#SVGID_29_"  style="overflow:visible;"/>
							</clipPath>
							<path class="st43" d="M47.7,151c0,2.3,0.1,2.3,0.2,4.6c0.1,2.4,0,5,0.7,7.3c0.6,2.2,2.1,4.8,4.7,4.8c0.6,0,3.1-0.3,3.2-0.9
								c0-0.2-0.3-0.8-0.4-1c-0.5-1.2-3.5-8.1-4.5-10.4c-0.1-0.1-0.1-0.3-0.2-0.4L47.7,151z"/>
						</g>
					</g>
					<g>
						<g>
							<path id="XMLID_66_" class="st19" d="M54.1,166.2c0.2,1.5,0.7,3.1,1.3,4.5c0.3,0.7,0.7,1.4,1.3,1.9c0.9,0.9,2.2,1.5,3.3,2
								c4.1,1.8,2.6,1.3,5.3,2.2c5.2,1.7,11.4,3,13.1,3.4c1.9,2,3.4,2.4,4,2.5c0.3,0.1,1.1,0.2,2.1,0.3c0.6,0,1.2,0,1.8,0.1
								c0.9,0.2,1.7,0.7,2.6,0.9c0.8,0.2,1.7,0,1.9-1c0.1-0.4-0.2-0.8-0.5-1.1c-1.4-1.4-3.1-2.1-3.3-2.2c-2.1-0.7-4.5-1.5-7.2-2.2
								c-4.9-3.3-8.4-5.2-11.2-6.5c-1.4-0.6-4.3-1.8-6.2-4.8c-0.4-0.6-0.8-1.2-1-1.8L54.1,166.2z"/>
						</g>
						<g>
							<defs>
								<path id="SVGID_31_" d="M54.1,166.2c0.2,1.5,0.7,3.1,1.3,4.5c0.3,0.7,0.7,1.4,1.3,1.9c0.9,0.9,2.2,1.5,3.3,2
									c4.1,1.8,2.6,1.3,5.3,2.2c5.2,1.7,11.4,3,13.1,3.4c1.9,2,3.4,2.4,4,2.5c0.3,0.1,1.1,0.2,2.1,0.3c0.6,0,1.2,0,1.8,0.1
									c0.9,0.2,1.7,0.7,2.6,0.9c0.8,0.2,1.7,0,1.9-1c0.1-0.4-0.2-0.8-0.5-1.1c-1.4-1.4-3.1-2.1-3.3-2.2c-2.1-0.7-4.5-1.5-7.2-2.2
									c-4.9-3.3-8.4-5.2-11.2-6.5c-1.4-0.6-4.3-1.8-6.2-4.8c-0.4-0.6-0.8-1.2-1-1.8L54.1,166.2z"/>
							</defs>
							<clipPath id="SVGID_32_">
								<use xlink:href="#SVGID_31_"  style="overflow:visible;"/>
							</clipPath>
							<path class="st44" d="M53.2,168.1c0,0,3.6-1.7,4.8-1.8s5.7-0.5,5.7-0.5l-2.3-3.2l-8,2.7L53.2,168.1z"/>
						</g>
					</g>
					<g>
						<g>
							<path id="XMLID_67_" class="st19" d="M57.1,141.6c0.3-0.6,0.7-1.3,1.2-1.7c0.7-0.6,1.6-0.8,2.4-1c0.6-0.2,1.1-0.3,1.1-1
								c0-0.1,0.8-4.3,0.8-4.4c0.2-0.3,0.7-0.2,1-0.3c1.6-0.6-0.5-2.9-0.9-3.5c-0.3-0.5-0.1-0.9-0.1-1.4c0-0.4-0.2-0.7-0.3-1
								c-0.2-0.4-0.2-0.8-0.2-1.2c0-0.3,0-0.5-0.1-0.8c-0.5,0.2-0.3-0.1-0.8-0.1c-0.6,0-0.7,0.5-0.9,1c-0.3,0.8-0.5,1.4-1.2,2.1
								c-0.5,0.5-1,0.9-1.2,1.7c0,0.3,0.2,3-0.8,2.3c-0.5-0.3-0.5-1.5-0.5-2c-0.1-0.7-0.5-1-0.9-1.5c-0.6-0.6-0.7-1.7-1.8-1.4
								c-1.5,0.4-0.8,2.2-0.5,3.1c0.2,0.6,0.4,1.4,0.9,1.8c0.4,0.3,0.8,0.2,1.2,0.1c0,0,0,0.1-0.1,0.1c-0.3,0.5,0,1.1,0.1,1.5
								c0,0.8-0.8,1.4-1.2,1.7c-1,0.8-2.2,0.7-2.5,0.6c-0.2,0.2-0.5,0.6-1.1,1c-0.7,0.4-1.3,0.4-1.6,0.4L57.1,141.6z"/>
						</g>
						<g>
							<defs>
								<path id="SVGID_33_" d="M57.1,141.6c0.3-0.6,0.7-1.3,1.2-1.7c0.7-0.6,1.6-0.8,2.4-1c0.6-0.2,1.1-0.3,1.1-1
									c0-0.1,0.8-4.3,0.8-4.4c0.2-0.3,0.7-0.2,1-0.3c1.6-0.6-0.5-2.9-0.9-3.5c-0.3-0.5-0.1-0.9-0.1-1.4c0-0.4-0.2-0.7-0.3-1
									c-0.2-0.4-0.2-0.8-0.2-1.2c0-0.3,0-0.5-0.1-0.8c-0.5,0.2-0.3-0.1-0.8-0.1c-0.6,0-0.7,0.5-0.9,1c-0.3,0.8-0.5,1.4-1.2,2.1
									c-0.5,0.5-1,0.9-1.2,1.7c0,0.3,0.2,3-0.8,2.3c-0.5-0.3-0.5-1.5-0.5-2c-0.1-0.7-0.5-1-0.9-1.5c-0.6-0.6-0.7-1.7-1.8-1.4
									c-1.5,0.4-0.8,2.2-0.5,3.1c0.2,0.6,0.4,1.4,0.9,1.8c0.4,0.3,0.8,0.2,1.2,0.1c0,0,0,0.1-0.1,0.1c-0.3,0.5,0,1.1,0.1,1.5
									c0,0.8-0.8,1.4-1.2,1.7c-1,0.8-2.2,0.7-2.5,0.6c-0.2,0.2-0.5,0.6-1.1,1c-0.7,0.4-1.3,0.4-1.6,0.4L57.1,141.6z"/>
							</defs>
							<clipPath id="SVGID_34_">
								<use xlink:href="#SVGID_33_"  style="overflow:visible;"/>
							</clipPath>
							<path class="st45" d="M61.3,138.7c0.2,0.3-3.9,0.3-5.7-2.2c0.7,1.8,4.1,4.9,4.1,4.9L61.3,138.7z"/>
						</g>
					</g>
					<path class="st14" d="M47,140.8c-0.6-0.2,0.5-1.7,0.7-1.9c0.5-0.6,1-1.1,1.8-1.1c1-0.1,2,0.2,2.9,0.6c1.6,0.7,3,1.9,4.4,2.9
						c1.1,0.8,2.3,1.7,3,2.9c0.2,0.3,0.3,0.6,0.4,0.9c0.1,0.2,0.1,0.4,0.1,0.7c0,0.3,0.2,0.7,0.1,1c-0.1,0.3-0.2,0.1-0.4-0.1
						c-0.6-0.6-1.1-1.4-1.6-2.1c-1-1.3-2.2-2.3-3.6-3.1c-1-0.6-2.2-1.1-3.4-1.2c-1.4-0.1-2.6,0.4-4,0.5
						C47.2,140.8,47.1,140.8,47,140.8z"/>
					<path class="st42" d="M47.7,150.3c1,3.7,1.9,7.5,3,11.3c0.4,1.3,0.8,2.6,1.6,3.7c0.5,0.7,1.4,0.9,1.4,0.9
						c0.3,0.1,0.5,0.2,0.7,0.3c0.7,0.1,1.2-0.2,2-0.6c1.4-0.6,1.5-0.2,3.1-0.9c0.8-0.4,1-0.6,1.7-0.7c0.4-0.1,0.7-0.1,0.8-0.3
						c0.2-0.3-0.1-0.8-0.1-0.9c-0.1-0.2,0.2,0.1-0.8-4.9c-0.8-3.7-1.3-7.5-2.6-11.1c-0.2-0.4-0.3-0.9-0.5-1.3L47.7,150.3z"/>
					<path class="st17" d="M55.1,130.5c-0.1-0.6-0.7-0.3-0.8-0.8c-0.1-0.6,0.4-0.5,0.3-1c-0.1-0.5-1.1-0.4-0.7,1.3
						C54.3,131.6,55.2,131.1,55.1,130.5z"/>
				</g>
				<g>
					<path class="st34" d="M70.2,196.3H46.5c-1.1,0-2-0.9-2-2V193c0-1.1,0.9-2,2-2h23.7c1.1,0,2,0.9,2,2v1.2
						C72.2,195.4,71.3,196.3,70.2,196.3z"/>
					<path class="st34" d="M37.8,174.2c0-4.5,0.1-9-0.1-13.4c-0.1-3-0.1-6,0.3-8.9c0.2-1.3,1.1-7.2,3.6-6.1c0.5,0.2,0.7,0.9,0.8,1.3
						c-0.1,9.1-0.2,18.1-0.3,27.2c0,1.2-0.8,2.1-1.8,2.1h-0.8C38.6,176.3,37.8,175.4,37.8,174.2z"/>
					<path class="st35" d="M37.7,158.9v28.5c0,2.3,0.9,4.5,2.5,6.1c1.6,1.6,3.8,2.5,6.1,2.5h21.3"/>
					<rect x="55.5" y="196.3" class="st36" width="2.2" height="30.9"/>
					<rect x="53.8" y="210.4" class="st36" width="5.6" height="10.6"/>
					<path class="st36" d="M75.5,228.2c-2.5-1.7-9.5-5.8-19.3-5.7c-9.3,0.1-16,4-18.5,5.7c0-0.6,0-1.2,0-1.8
						c2.7-1.7,9.3-5.4,18.5-5.5c9.7-0.1,16.6,3.8,19.3,5.5C75.5,227.1,75.5,227.6,75.5,228.2z"/>
					<path class="st36" d="M40.1,228.2c0-1.3-1.1-2.4-2.4-2.4c-1.3,0-2.4,1.1-2.4,2.4c0,1.3,1.1,2.4,2.4,2.4
						C39,230.6,40.1,229.6,40.1,228.2z"/>
					<path class="st36" d="M77.9,228.2c0-1.3-1.1-2.4-2.4-2.4c-1.3,0-2.4,1.1-2.4,2.4c0,1.3,1.1,2.4,2.4,2.4
						C76.8,230.6,77.9,229.6,77.9,228.2z"/>
					<path class="st36" d="M58.9,228.2c0-1.3-1-2.3-2.3-2.3s-2.3,1-2.3,2.3s1,2.3,2.3,2.3S58.9,229.5,58.9,228.2z"/>
				</g>
			</g>
			<g>
				<g>
					<path class="st34" d="M126.6,192.4h23.7c1.1,0,2-0.9,2-2v-1.2c0-1.1-0.9-2-2-2h-23.7c-1.1,0-2,0.9-2,2v1.2
						C124.6,191.4,125.5,192.4,126.6,192.4z"/>
					<path class="st46" d="M152.3,192c-9.3,0-18.5,0-27.8,0"/>
					<rect x="137.4" y="192.4" class="st47" width="2.2" height="34.8"/>
					<rect x="135.6" y="210.4" class="st36" width="5.6" height="10.6"/>
					<path class="st36" d="M119.6,228.2c2.5-1.7,9.5-5.8,19.3-5.7c9.3,0.1,15.9,4,18.5,5.7c0-0.6,0-1.2,0-1.8
						c-2.7-1.7-9.3-5.4-18.5-5.5c-9.7-0.1-16.6,3.8-19.3,5.5C119.6,227.1,119.6,227.6,119.6,228.2z"/>
					<path class="st36" d="M154.9,228.2c0-1.3,1.1-2.4,2.4-2.4c1.3,0,2.4,1.1,2.4,2.4c0,1.3-1.1,2.4-2.4,2.4
						C156,230.6,154.9,229.6,154.9,228.2z"/>
					<path class="st36" d="M117.1,228.2c0-1.3,1.1-2.4,2.4-2.4c1.3,0,2.4,1.1,2.4,2.4c0,1.3-1.1,2.4-2.4,2.4
						C118.2,230.6,117.1,229.6,117.1,228.2z"/>
					<path class="st36" d="M136.2,228.2c0-1.3,1-2.3,2.3-2.3s2.3,1,2.3,2.3s-1,2.3-2.3,2.3S136.2,229.5,136.2,228.2z"/>
				</g>
				<g>
					<path class="st22" d="M153.9,217.4c0,0-2.3,6.5-2.6,9.4c-0.3,2.9,0.4,4.3,1.3,4.3s9.3-0.7,9.3-0.7s1.4-2.3,1.4-2.7
						s-1.7-4.6-1.7-5.9s-1.2-4.4-1.2-4.4H153.9z"/>
					<path class="st22" d="M116.7,217.4v5.2c0,0-4.6,4.3-4.6,5.7c0,1.4,1.9,2.6,3.2,2.4s8.1,0.2,8.7-0.4c0.6-0.6,0.8-8.1,0.8-8.1
						l-1-4.8L116.7,217.4L116.7,217.4z"/>
					<g>
						<g>
							<path id="XMLID_33_" class="st48" d="M127.4,171.4c0,0-6.1,2.9-8.4,6c-2.3,3.2-3.1,2.9-4.1,4.2c-1,1.3-1.2,2.4-0.5,4
								c0.7,1.6,1.1,30,1.1,30v3.9c0,0,2.4-0.7,3.5-0.6c1.1,0.1,4.2,0.6,5.3,0.8c1.1,0.2,0.7-3.5,0.7-3.5l0.9-3
								c0,0,0.8-19.3,1.4-20.9s5.7-4.5,5.7-4.5s0-0.8,5.5,0s10.8-1.8,12.1-0.4c1.2,1.4,1.4,8.6,1.4,12.5s0.4,6.5,0,8.8
								c-0.4,2.3,0.8,8.2,1,9s0.1,1.8,0.1,1.8s1.1-0.8,3.1-0.8c2,0,5.5-0.2,5.5-0.2s-1.4-4.7,0-7.8s2-14.5,2-17.8s1.4-9.6,0-12.1
								s-15.1-9.5-15.1-9.5L127.4,171.4L127.4,171.4z"/>
						</g>
						<g>
							<defs>
								<path id="SVGID_35_" d="M127.4,171.4c0,0-6.1,2.9-8.4,6c-2.3,3.2-3.1,2.9-4.1,4.2c-1,1.3-1.2,2.4-0.5,4
									c0.7,1.6,1.1,30,1.1,30v3.9c0,0,2.4-0.7,3.5-0.6c1.1,0.1,4.2,0.6,5.3,0.8c1.1,0.2,0.7-3.5,0.7-3.5l0.9-3
									c0,0,0.8-19.3,1.4-20.9s5.7-4.5,5.7-4.5s0-0.8,5.5,0s10.8-1.8,12.1-0.4c1.2,1.4,1.4,8.6,1.4,12.5s0.4,6.5,0,8.8
									c-0.4,2.3,0.8,8.2,1,9s0.1,1.8,0.1,1.8s1.1-0.8,3.1-0.8c2,0,5.5-0.2,5.5-0.2s-1.4-4.7,0-7.8s2-14.5,2-17.8s1.4-9.6,0-12.1
									s-15.1-9.5-15.1-9.5L127.4,171.4L127.4,171.4z"/>
							</defs>
							<clipPath id="SVGID_36_">
								<use xlink:href="#SVGID_35_"  style="overflow:visible;"/>
							</clipPath>
							<path class="st49" d="M133.1,187.9c0,0-6.9,4.2-9.1,4.2c-2.1,0,2.4,0.5,2.8,4.7C127.1,199.1,133.1,187.9,133.1,187.9z"/>
						</g>
						<g>
							<defs>
								<path id="SVGID_37_" d="M127.4,171.4c0,0-6.1,2.9-8.4,6c-2.3,3.2-3.1,2.9-4.1,4.2c-1,1.3-1.2,2.4-0.5,4
									c0.7,1.6,1.1,30,1.1,30v3.9c0,0,2.4-0.7,3.5-0.6c1.1,0.1,4.2,0.6,5.3,0.8c1.1,0.2,0.7-3.5,0.7-3.5l0.9-3
									c0,0,0.8-19.3,1.4-20.9s5.7-4.5,5.7-4.5s0-0.8,5.5,0s10.8-1.8,12.1-0.4c1.2,1.4,1.4,8.6,1.4,12.5s0.4,6.5,0,8.8
									c-0.4,2.3,0.8,8.2,1,9s0.1,1.8,0.1,1.8s1.1-0.8,3.1-0.8c2,0,5.5-0.2,5.5-0.2s-1.4-4.7,0-7.8s2-14.5,2-17.8s1.4-9.6,0-12.1
									s-15.1-9.5-15.1-9.5L127.4,171.4L127.4,171.4z"/>
							</defs>
							<clipPath id="SVGID_38_">
								<use xlink:href="#SVGID_37_"  style="overflow:visible;"/>
							</clipPath>
							<path class="st50" d="M131.9,214.1c0,0-6.9,1.6-9.1,1.6s2.4,0.2,2.8,1.8C125.9,218.3,131.9,214.1,131.9,214.1z"/>
						</g>
						<g>
							<defs>
								<path id="SVGID_39_" d="M127.4,171.4c0,0-6.1,2.9-8.4,6c-2.3,3.2-3.1,2.9-4.1,4.2c-1,1.3-1.2,2.4-0.5,4
									c0.7,1.6,1.1,30,1.1,30v3.9c0,0,2.4-0.7,3.5-0.6c1.1,0.1,4.2,0.6,5.3,0.8c1.1,0.2,0.7-3.5,0.7-3.5l0.9-3
									c0,0,0.8-19.3,1.4-20.9s5.7-4.5,5.7-4.5s0-0.8,5.5,0s10.8-1.8,12.1-0.4c1.2,1.4,1.4,8.6,1.4,12.5s0.4,6.5,0,8.8
									c-0.4,2.3,0.8,8.2,1,9s0.1,1.8,0.1,1.8s1.1-0.8,3.1-0.8c2,0,5.5-0.2,5.5-0.2s-1.4-4.7,0-7.8s2-14.5,2-17.8s1.4-9.6,0-12.1
									s-15.1-9.5-15.1-9.5L127.4,171.4L127.4,171.4z"/>
							</defs>
							<clipPath id="SVGID_40_">
								<use xlink:href="#SVGID_39_"  style="overflow:visible;"/>
							</clipPath>
							<path class="st51" d="M149.8,187.1c0,0,4.1,2.4,6.2,2.4s-4.1,1.4-4.1,3.8S149.8,187.1,149.8,187.1z"/>
						</g>
						<g>
							<defs>
								<path id="SVGID_41_" d="M127.4,171.4c0,0-6.1,2.9-8.4,6c-2.3,3.2-3.1,2.9-4.1,4.2c-1,1.3-1.2,2.4-0.5,4
									c0.7,1.6,1.1,30,1.1,30v3.9c0,0,2.4-0.7,3.5-0.6c1.1,0.1,4.2,0.6,5.3,0.8c1.1,0.2,0.7-3.5,0.7-3.5l0.9-3
									c0,0,0.8-19.3,1.4-20.9s5.7-4.5,5.7-4.5s0-0.8,5.5,0s10.8-1.8,12.1-0.4c1.2,1.4,1.4,8.6,1.4,12.5s0.4,6.5,0,8.8
									c-0.4,2.3,0.8,8.2,1,9s0.1,1.8,0.1,1.8s1.1-0.8,3.1-0.8c2,0,5.5-0.2,5.5-0.2s-1.4-4.7,0-7.8s2-14.5,2-17.8s1.4-9.6,0-12.1
									s-15.1-9.5-15.1-9.5L127.4,171.4L127.4,171.4z"/>
							</defs>
							<clipPath id="SVGID_42_">
								<use xlink:href="#SVGID_41_"  style="overflow:visible;"/>
							</clipPath>
							<path class="st52" d="M149.8,210.7c0,0,4.1,2.4,6.2,2.4s-4.1,1.4-4.1,3.8C151.9,219.3,149.8,210.7,149.8,210.7z"/>
						</g>
					</g>
					<g>
						<g>
							<path id="XMLID_4_" class="st23" d="M133.2,135.4c-6.1,2.5-13.5,4.2-15.3,11.3c-0.4,1.7-0.7,3.5-1.1,5.2
								c-0.3,1.2-1.6,3.1-1,4.3c0.8,1.7,4.9,2.2,6.5,2.3l10.9,17.7l14.1-3.4l8.2-15.5l2.6-0.8c0,0,1.5,0.1,1.5-0.7
								c0-2-0.9-4.2-1.3-6.2c-0.7-2.8-0.9-6.4-2.2-9c-1.5-3-5.3-3.1-8.2-3.8c-2.2-0.5-4.3-1-6.5-1.5L133.2,135.4L133.2,135.4z"/>
						</g>
						<g>
							<defs>
								<path id="SVGID_43_" d="M133.2,135.4c-6.1,2.5-13.5,4.2-15.3,11.3c-0.4,1.7-0.7,3.5-1.1,5.2c-0.3,1.2-1.6,3.1-1,4.3
									c0.8,1.7,4.9,2.2,6.5,2.3l10.9,17.7l14.1-3.4l8.2-15.5l2.6-0.8c0,0,1.5,0.1,1.5-0.7c0-2-0.9-4.2-1.3-6.2
									c-0.7-2.8-0.9-6.4-2.2-9c-1.5-3-5.3-3.1-8.2-3.8c-2.2-0.5-4.3-1-6.5-1.5L133.2,135.4L133.2,135.4z"/>
							</defs>
							<clipPath id="SVGID_44_">
								<use xlink:href="#SVGID_43_"  style="overflow:visible;"/>
							</clipPath>
							<path class="st53" d="M126,158c0,0,0.7,0.3,0.9-0.6c0.6-2.3,1.2-7.3,1.1-8.6c-0.1-1.7,0.7,7.4,0,10.2
								c-0.7,2.8-2.3,4.4-2.3,4.4L126,158z"/>
						</g>
						<g>
							<defs>
								<path id="SVGID_45_" d="M133.2,135.4c-6.1,2.5-13.5,4.2-15.3,11.3c-0.4,1.7-0.7,3.5-1.1,5.2c-0.3,1.2-1.6,3.1-1,4.3
									c0.8,1.7,4.9,2.2,6.5,2.3l10.9,17.7l14.1-3.4l8.2-15.5l2.6-0.8c0,0,1.5,0.1,1.5-0.7c0-2-0.9-4.2-1.3-6.2
									c-0.7-2.8-0.9-6.4-2.2-9c-1.5-3-5.3-3.1-8.2-3.8c-2.2-0.5-4.3-1-6.5-1.5L133.2,135.4L133.2,135.4z"/>
							</defs>
							<clipPath id="SVGID_46_">
								<use xlink:href="#SVGID_45_"  style="overflow:visible;"/>
							</clipPath>
							<path class="st54" d="M149.9,158.1c-0.3-0.1-0.5-0.3-0.5-0.6c-0.3-1.7-1.3-7.5-1.2-9c0.1-1.7-0.7,7.4,0,10.2
								c0.7,2.8,2.4,4.4,2.4,4.4l-0.2-4.9L149.9,158.1z"/>
						</g>
						<g>
							<defs>
								<path id="SVGID_47_" d="M133.2,135.4c-6.1,2.5-13.5,4.2-15.3,11.3c-0.4,1.7-0.7,3.5-1.1,5.2c-0.3,1.2-1.6,3.1-1,4.3
									c0.8,1.7,4.9,2.2,6.5,2.3l10.9,17.7l14.1-3.4l8.2-15.5l2.6-0.8c0,0,1.5,0.1,1.5-0.7c0-2-0.9-4.2-1.3-6.2
									c-0.7-2.8-0.9-6.4-2.2-9c-1.5-3-5.3-3.1-8.2-3.8c-2.2-0.5-4.3-1-6.5-1.5L133.2,135.4L133.2,135.4z"/>
							</defs>
							<clipPath id="SVGID_48_">
								<use xlink:href="#SVGID_47_"  style="overflow:visible;"/>
							</clipPath>
							<ellipse class="st55" cx="137.5" cy="138.6" rx="7.6" ry="6.7"/>
						</g>
					</g>
					<g>
						<g>
							<path id="XMLID_47_" class="st19" d="M132.2,135.7c-0.1,0,0,3.9,0,4.2c0,0.6-0.1,1.1,0.2,1.6c0.7,1.3,1.9,2.2,3.3,2.4
								c2.4,0.3,4.6-0.4,6.5-1.7c0.2-0.1,1.4-1.6,1.4-1.8v-7.4C143.6,132.9,132.2,135.7,132.2,135.7z"/>
						</g>
						<g>
							<defs>
								<path id="SVGID_49_" d="M132.2,135.7c-0.1,0,0,3.9,0,4.2c0,0.6-0.1,1.1,0.2,1.6c0.7,1.3,1.9,2.2,3.3,2.4
									c2.4,0.3,4.6-0.4,6.5-1.7c0.2-0.1,1.4-1.6,1.4-1.8v-7.4C143.6,132.9,132.2,135.7,132.2,135.7z"/>
							</defs>
							<clipPath id="SVGID_50_">
								<use xlink:href="#SVGID_49_"  style="overflow:visible;"/>
							</clipPath>
							<path class="st56" d="M131.2,139.3c2.3,1.5,4.2,2.1,6.7,1.9s7.2-4.9,7.2-4.9l-0.9-3.4l-12.9,1.8V139.3z"/>
						</g>
					</g>
					<path class="st33" d="M129.3,120.9c0,0-0.2,9.3,0,12s3.3,5.9,5.2,6.2s4.2,1.3,5.3,0s4-3.1,4.5-5.3c0.5-2.3-0.2-8.6,0-9.3
						s-0.5-5.9-1.6-6.9c-1.1-1-4.4-1.3-5.8-1.3S130.3,117,129.3,120.9z"/>
					<path class="st19" d="M131.5,123.8c0,0-1,4.5-0.9,5.9s0.1,4.2,1.3,4.1c1.2-0.1,2.6-3.1,4.9-3.1s3.4,2.4,4.9,2.4
						c1.5-0.1,1.8-1.8,1.9-4.7s-2.3-7.6-3.7-7.6s-0.9,1.4-2.9,1.4s-2-1.4-3.4-1.4C132.4,120.9,131.5,123.8,131.5,123.8z"/>
					<g>
						<g>
							<path id="XMLID_24_" class="st19" d="M150.4,158.2c0,0,1.5-2.3,3.3-2.4c1.8-0.1,5.1,0.2,5.1,0.2l-1.9,12.2
								c0,0,0.6,1.4,0.1,2.1s-2.8,1.5-2.8,1.5l-12.5,7.3h-1.1l-0.6-1.5l-1.7-0.3l-1.3,1.8h-1.5v-4.4l2.4-1.5l1.8,1.1
								c0,0,8.3-5.1,9.3-6.5c1.1-1.4,1.1-1.4,1.1-1.4L150.4,158.2z"/>
						</g>
						<g>
							<defs>
								<path id="SVGID_51_" d="M150.4,158.2c0,0,1.5-2.3,3.3-2.4c1.8-0.1,5.1,0.2,5.1,0.2l-1.9,12.2c0,0,0.6,1.4,0.1,2.1
									s-2.8,1.5-2.8,1.5l-12.5,7.3h-1.1l-0.6-1.5l-1.7-0.3l-1.3,1.8h-1.5v-4.4l2.4-1.5l1.8,1.1c0,0,8.3-5.1,9.3-6.5
									c1.1-1.4,1.1-1.4,1.1-1.4L150.4,158.2z"/>
							</defs>
							<clipPath id="SVGID_52_">
								<use xlink:href="#SVGID_51_"  style="overflow:visible;"/>
							</clipPath>
							<path class="st57" d="M148.4,161.2c0,0,2.6-3,5.3-3.2c2.6-0.2,6.8-0.1,6.8-0.1l0.4-3.2l-8.5-1l-5.4,5L148.4,161.2z"/>
						</g>
					</g>
					<g>
						<g>
							<path id="XMLID_16_" class="st17" d="M126,158l0.3,8.2l9.2,8.4v4.4h1.5l1.3-1.8l1.7,0.3l0.6,1.5c0,0,1.9,0.5,2.1,1
								c0.1,0.5-1.1,4.4-1.7,4.6c-0.6,0.1-4.9-0.4-4.9-0.4l-3.8-2.5c0,0,0.1-4.6,0-5.3c-0.1-0.7-10.6-5-11.6-6.2
								c-0.4-0.5-0.6-1.5-1.2-3.4c-1.1-3.9-2-8.1-2.3-10.3c0.8-0.2,2.2,0,3.3,0C123,156.4,124.7,157.5,126,158z"/>
						</g>
						<g>
							<defs>
								<path id="SVGID_53_" d="M126,158l0.3,8.2l9.2,8.4v4.4h1.5l1.3-1.8l1.7,0.3l0.6,1.5c0,0,1.9,0.5,2.1,1
									c0.1,0.5-1.1,4.4-1.7,4.6c-0.6,0.1-4.9-0.4-4.9-0.4l-3.8-2.5c0,0,0.1-4.6,0-5.3c-0.1-0.7-10.6-5-11.6-6.2
									c-0.4-0.5-0.6-1.5-1.2-3.4c-1.1-3.9-2-8.1-2.3-10.3c0.8-0.2,2.2,0,3.3,0C123,156.4,124.7,157.5,126,158z"/>
							</defs>
							<clipPath id="SVGID_54_">
								<use xlink:href="#SVGID_53_"  style="overflow:visible;"/>
							</clipPath>
							<path class="st58" d="M117.1,156.1v2.3c0,0,3.9-0.5,4.8-0.4c0.9,0.1,4.7,1.4,4.7,1.4l0.9-2
								C127.5,157.4,118.1,155.8,117.1,156.1z"/>
						</g>
					</g>
				</g>
			</g>
			<g>
				<path class="st59" d="M247.5,169.4H80.8c-1.3,0-2.3,1-2.3,2.3v1.5c0,1.3,1,2.3,2.3,2.3h166.7c1.3,0,2.3-1,2.3-2.3v-1.5
					C249.7,170.4,248.7,169.4,247.5,169.4z"/>
				<path class="st60" d="M247.5,174.1H80.8c-1.3,0-2.3-1-2.3-2.3v1.3c0,1.3,1,2.3,2.3,2.3h166.7c1.3,0,2.3-1,2.3-2.3v-1.3
					C249.7,173,248.7,174.1,247.5,174.1z"/>
				<path class="st48" d="M220.8,175.4l0.7,1.2c0.7,1.2,2.1,2,3.5,2h7.9l-0.3-3.2H220.8z"/>
				<polygon class="st22" points="232.8,178.6 238.1,230.7 240.4,230.7 240.4,175.4 232.5,175.4 				"/>
				<path class="st48" d="M95.4,178.6h7.9c1.4,0,2.8-0.8,3.5-2l0.7-1.2H95.7L95.4,178.6z"/>
				<polygon class="st22" points="87.8,175.4 87.8,230.7 90.1,230.7 95.7,175.4 				"/>
			</g>
			<g>
				<polygon class="st48" points="124,167.7 105.6,167.7 112.4,145.5 130.8,145.5 				"/>
				<polygon class="st22" points="125.5,167.7 107.1,167.7 113.9,145.5 132.3,145.5 				"/>
				<rect x="87.8" y="167" class="st48" width="33.8" height="2.3"/>
				<rect x="104.7" y="167" class="st22" width="19.4" height="2.3"/>
				<path class="st5" d="M121.8,157c0.3-1.2-0.1-2.4-0.8-2.6c-0.7-0.2-1.5,0.6-1.8,1.8c-0.3,1.2,0.1,2.4,0.8,2.6
					C120.7,159.1,121.5,158.3,121.8,157z"/>
			</g>
			<g>
				<rect x="147" y="145.5" class="st48" width="28" height="22.2"/>
				<rect x="147.9" y="145.5" class="st22" width="29.5" height="22.2"/>
				<rect x="148" y="167.7" class="st22" width="28.4" height="1.7"/>
				<path class="st5" d="M164.5,156.6c0-1.2-1-2.2-2.2-2.2c-1.2,0-2.2,1-2.2,2.2c0,1.2,1,2.2,2.2,2.2
					C163.5,158.8,164.5,157.8,164.5,156.6z"/>
			</g>
			<g>
				<polygon class="st48" points="210.2,167.7 228.6,167.7 221.8,145.5 203.4,145.5 				"/>
				<polygon class="st22" points="208.6,167.7 227,167.7 220.2,145.5 201.8,145.5 				"/>
				<rect x="212.6" y="167" class="st48" width="33.8" height="2.3"/>
				<rect x="210" y="167" class="st22" width="19.4" height="2.3"/>
				<path class="st5" d="M212.4,157c-0.3-1.2,0.1-2.4,0.8-2.6s1.5,0.6,1.8,1.8c0.3,1.2-0.1,2.4-0.8,2.6S212.6,158.3,212.4,157z"/>
			</g>
		</g>
		<line class="st61" x1="13" y1="231.3" x2="314.1" y2="231.3"/>
	</g>
</g>
</svg>
