<?xml version="1.0" encoding="utf-8"?>
<!-- Generator: Adobe Illustrator 24.0.1, SVG Export Plug-In . SVG Version: 6.00 Build 0)  -->
<svg version="1.1" id="Object" xmlns="http://www.w3.org/2000/svg" xmlns:xlink="http://www.w3.org/1999/xlink" x="0px" y="0px"
	 viewBox="0 0 756 800" style="enable-background:new 0 0 756 800;" xml:space="preserve">
<style type="text/css">
	.st0{fill:#D1D1D1;}
	.st1{fill:#FFFFFF;}
	.st2{fill:#767676;}
	.st3{opacity:0.1;}
	.st4{fill:#3F3F3F;}
	.st5{fill:#2D2D2D;}
	.st6{fill:#444444;}
	.st7{fill:#797979;}
	.st8{fill:#CACACA;}
	.st9{fill:#585858;}
	.st10{fill:#505050;}
	.st11{fill:#ACACAC;}
	.st12{fill:#C3C3C3;}
	.st13{fill:#B6B6B6;}
	.st14{fill:#F2F2F2;}
	.st15{font-family:'Algerian';}
	.st16{font-size:127px;}
	.st17{letter-spacing:42;}
</style>
<g>
	<g>
		<g>
			<g>
				<g>
					<g>
						<path class="st0" d="M398,88.1c0.2,3.4-1.5,6.6-3.4,9.3c-12.5,18-41.3,37.1-60.4,24.6c2.2-0.4,7.9-0.3,12.4-1.2
							c10.7-2.3,17.8-13.7,23.7-24c3.6-6.3,4.6-24.4,11.5-26.8C388.5,67.8,397.6,81.2,398,88.1z"/>
					</g>
				</g>
				<g>
					<g>
						<path class="st1" d="M337.5,97.5c4.9-10.6,9.8-17.4,16.3-24.9c6.5-7.6,15.3-13.2,24.7-13.2c1.1,0,2.3,0.1,3.3,0.7
							c1.1,0.6,2,1.8,2.8,3c4.3,6.3,12.7,14.8,13.3,23.6c-16.3-1.7-33.5,4.1-46.9,14.4c-10,7.8-16,22.1-17.1,22
							C323.9,122.8,335.2,102.5,337.5,97.5z"/>
					</g>
				</g>
			</g>
			<g>
				<g>
					<g>
						<path class="st0" d="M265.4,101.2c0.3,3.4,2.5,6.3,4.8,8.7c15,15.8,46.3,30,63.3,14.6c-2.2,0-7.9,1-12.5,0.8
							c-10.9-0.5-19.6-10.6-27-19.8c-4.5-5.6-8.2-23.4-15.4-24.6C271.8,79.7,264.8,94.4,265.4,101.2z"/>
					</g>
				</g>
				<g>
					<g>
						<path class="st1" d="M326.6,100.8c-6.4-9.7-12.3-15.6-19.9-22c-7.5-6.4-17.1-10.6-26.4-9.1c-1.1,0.2-2.2,0.5-3.1,1.2
							c-1,0.8-1.7,2.1-2.3,3.4c-3.3,6.9-10.3,16.7-9.6,25.5c15.9-4.3,33.7-1.4,48.5,6.7c11,6,19.1,19.2,20.2,19
							C343.8,123.6,329.6,105.3,326.6,100.8z"/>
					</g>
				</g>
			</g>
		</g>
		<g>
			<g>
				<g>
					<polygon class="st2" points="444.1,287 252.5,302.5 239.8,131.8 431.3,116.3 					"/>
				</g>
			</g>
			<g>
				<g>
					<polygon class="st2" points="447.6,158.3 229.9,176 226.7,132.9 444.4,115.2 					"/>
				</g>
			</g>
		</g>
		<g class="st3">
			<g>
				<g>
					<polygon points="251.2,174.3 434.5,159.4 435.7,174.7 					"/>
				</g>
			</g>
		</g>
		<g>
			<g>
				<path class="st1" d="M358.5,293.9l-23.7,1.9L321.9,123c-0.1-1.8,1.1-3.3,2.7-3.4l17.9-1.4c1.6-0.1,3,1.2,3.1,2.9L358.5,293.9z"
					/>
			</g>
		</g>
	</g>
	<g>
		<g>
			<polygon class="st2" points="609.6,365.2 674.2,435.3 625.1,477 617.8,468.3 637,428.3 599.4,395 			"/>
		</g>
		<g>
			<g>
				<g>
					<polygon class="st4" points="625.6,539.9 628.6,607.5 620,722.6 607.2,723.5 591.7,619 570.2,530.6 					"/>
				</g>
				<g>
					<polygon class="st5" points="607.7,728.9 622,734.9 628.4,727.4 621,721 607.2,722 					"/>
				</g>
			</g>
			<g>
				<g>
					<polygon class="st4" points="535,515.9 532.2,567.1 540.6,719.2 553.4,719.8 572.6,620.1 589.5,510.7 					"/>
				</g>
				<g>
					<polygon class="st5" points="553,725.2 538.8,731.5 532.3,724.2 539.5,717.6 553.4,718.3 					"/>
				</g>
			</g>
			<g>
				<g>
					<path class="st6" d="M609.6,365.2l-40-4.3c0,0-22.3,2.4-37.3,55.2c-8.4,29.4-11,75.7-11.6,111c0.9,5,6.4,27.1,29.6,23.3
						c39.8-6.4,61-12.8,78.4-9.6c14.8,3.2,13.5-17.1,11.9-32.7l-5.9-48L609.6,365.2z"/>
				</g>
			</g>
			<g>
				<g>
					<path class="st7" d="M601.8,315.5c-10.1-2.2-20.5-4.2-30.5-2.2c-2.2,0.4-4.6,1.2-5.8,3.1c-0.5,0.7-0.7,1.6-0.9,2.4
						c-2.5,9.5-5.8,23.5,0.5,32.2c1.2,1.7,2.8,3,4.5,4c2.3,1.4,4.8,2.4,7.5,2.9c-0.5,2.4-1.3,4.7-2.3,6.9c2.3,3.5,13.1,3.9,15.1,0.6
						c0.1-2.9,0.2-5.8,0.3-8.7c1.3-0.5,2.6-1.2,3.8-2c4.6-3,7.6-7.6,9.4-12.8c1.9-5.6,4.6-10.9,6.4-16.6c0.6-2.1,1.1-4.5,0-6.3
						c-1.2-2-3.7-2.7-5.9-3.2C603.1,315.7,602.5,315.6,601.8,315.5z"/>
				</g>
				<g>
					<path class="st6" d="M568.3,320.9c5-3.2,12.5-4.6,17.1-4.2c14.2,1,19.3,11.4,20.1,24.5c3.9-5,11.2-11.2,11.7-17.6
						c0.4-5.2-0.4-12.4-3.3-16.9c-2.7-4.2-9.7-6.5-13.9-9c-3.9-2.3-7.8-4.6-11.8-6.9c-0.8-0.5-1.7-1-2.6-1.1
						c-1.1-0.2-2.2,0.1-3.3,0.4c-9.3,2.4-18.5,4.8-27.8,7.2c-1.8,0.5-3.8,1.1-4.5,2.9c-0.4,1-0.2,2.2,0.1,3.3
						c1,4.8,3.1,9.7,3.6,14.6c0.6,2.8,2.3,17.4,7.3,15.7c1.5-2.4,1.7-5.4,2.8-8C564.7,323.8,566.3,322.2,568.3,320.9z"/>
				</g>
			</g>
			<g>
				<polygon class="st6" points="569.6,360.9 554.8,365.4 500.8,422 497.6,440.6 523.4,483.2 530.4,467.6 519.5,436.1 536.8,423.9 
					559.9,371.9 				"/>
			</g>
		</g>
	</g>
	<g>
		<g>
			<g>
				<polygon class="st8" points="450.5,289.9 453.2,273.5 446.3,272 441.9,282.8 439,280.6 438.4,295 445.4,297.4 				"/>
			</g>
			<g>
				<polygon class="st9" points="363.4,384.6 409.6,345.8 438.4,295 447.9,297.5 433.5,360.6 384.7,419.5 				"/>
			</g>
		</g>
		<g id="XMLID_174_">
			<g id="XMLID_176_">
				<g>
					<polygon class="st5" points="356.6,727.5 357.3,734.5 371.6,740.6 377.7,733.1 370.2,726.5 355.9,720.4 					"/>
				</g>
			</g>
			<g id="XMLID_175_">
				<g>
					<polygon class="st10" points="344.7,584.4 355.7,725.2 369.4,727.1 380.8,607.1 390.3,569 					"/>
				</g>
			</g>
		</g>
		<g id="XMLID_171_">
			<g id="XMLID_173_">
				<g>
					<polygon class="st10" points="311.7,547.4 303.5,714.8 316,717.2 342.2,590.5 356.6,553.8 					"/>
				</g>
			</g>
			<g id="XMLID_172_">
				<g>
					<polygon class="st5" points="314.9,722.7 300,727.3 294.5,718.9 302.7,713 316.3,715.6 					"/>
				</g>
			</g>
		</g>
		<g id="XMLID_170_">
			<g>
				<path class="st9" d="M329.5,366.7c10.2-8.4,34.7-3.6,47.6-3.6c-1.2,0,40.1,162.7,43.1,172c4.9,15.4,4.9,33.6,3.5,49.5
					c-13.9,3.8-26.8,10.9-41.1,12.8c-11.7,1.5-23.5-0.6-35.3-1.7c-13.9-1.2-27.9-0.9-41.9-2c-13.9-1.1-28-3.6-40.3-10.2
					c5.5-10.7,9.8-21.9,13.3-33.4c3.5-11.4,8-24,9.3-35.9c1.2-10.7,1.4-21.6,2.9-32.5c1.8-12.6,4-25.3,7-37.7
					c3.5-14.2,8-28.1,13.6-41.6c4.3-10.3,9.4-27.1,17.4-35C328.9,367.1,329.2,366.9,329.5,366.7z"/>
			</g>
		</g>
		<g id="XMLID_166_">
			<g id="XMLID_169_">
				<g>
					<path class="st6" d="M351.1,327.7c-6.4,1.2-14.4,6.7-15.9,13.5c-0.8,3.3,0.3,6.3-0.6,9.8c-1.8,6.9,6.5,17-1.7,21.7
						c-4.2,2.5-9.5,1.6-14.3,0.8c-0.6-0.1-1.2-0.2-1.6-0.6c-0.8-0.6-0.9-1.8-0.6-2.7s0.9-1.7,1.4-2.5c5.6-8.5,4.3-20.6,6.5-30.3
						c2.2-9.6,7.4-19.2,16.9-23.2c4.8,3.1,8.2,8.1,9.4,13.6L351.1,327.7z"/>
				</g>
			</g>
			<g id="XMLID_168_">
				<g>
					<path class="st8" d="M343,369.2c-6.2-2.6-10.3-9-11.7-15.6c-1.4-6.6-0.3-13.5,1.5-20c6.1-21.6,33.2-15.4,39.5,3.1
						C377.9,352.8,361,376.9,343,369.2z"/>
				</g>
			</g>
			<g id="XMLID_167_">
				<g>
					<path class="st6" d="M374.6,381.1c-3-1.9-6-3.9-7.8-7.4c-2.9-5.7-1.6-14.6-2-20.8c-0.4-6.5-1-13.6-5.4-18.4
						c-2.9-3.1-6.5-4-10.6-4.4c-2.8-0.3-3,0.8-5.2-0.9c-1.7-1.3-3-4.9-3.2-6.9c-0.4-3.4,1.2-6.9,3.7-9.3c3.8-3.8,8-5.4,13.2-5.1
						c18.2,1.1,30.9,13.1,34.5,31.3c1.7,8.7-0.9,18.1,1,26.5c1.2,5.2,4.1,8.9,5,14.4c2.2,14.3,8.4,32.8,6.6,47.3
						c-0.1,0.5-0.2,1.1-0.6,1.4c-0.9,0.6-2-0.3-2.7-1.2c-3.7-5.2-7.5-10.4-11.2-15.6c-1.5-2-3-4.1-3.8-6.5
						c-2.1-5.9-0.1-13.1-3.8-18.2C380.3,384.5,377.4,382.8,374.6,381.1z"/>
				</g>
			</g>
		</g>
		<g>
			<g>
				<polygon class="st8" points="244.4,304.1 239.9,288.1 246.7,285.9 252.2,296.2 254.9,293.7 257.1,307.8 250.4,311.1 				"/>
			</g>
			<g>
				<polygon class="st9" points="341.7,388.5 291.4,355.1 257.1,307.8 247.9,311.4 269.3,372.5 324.4,425.5 				"/>
			</g>
		</g>
	</g>
	<g>
		<g>
			<polygon class="st8" points="58.8,284.3 70.3,267.2 80,271.4 75.4,284.7 81,285 68.8,298.6 58.2,295.3 			"/>
		</g>
		<g>
			<polygon class="st11" points="132.1,377.4 148.2,382.9 174.2,422 207.6,399.7 218.2,412.3 201.4,437.2 171.1,458.9 132.1,418 			
				"/>
		</g>
		<g>
			<g>
				<g>
					<g>
						<polygon class="st12" points="169.9,489.8 171.1,589 160.5,716.6 146.1,716.6 128.9,598.9 109.3,480.9 						"/>
					</g>
					<g>
						<polygon class="st5" points="146.2,722.7 161.8,730.5 169.5,722.7 161.8,714.9 146.2,714.9 						"/>
					</g>
				</g>
				<g>
					<g>
						<polygon class="st12" points="71.4,489.8 71.1,547.2 80.8,716.6 95.2,716.6 119.2,604.2 132.1,480.9 						"/>
					</g>
					<g>
						<polygon class="st5" points="95.1,722.7 79.6,730.5 71.8,722.7 79.6,714.9 95.1,714.9 						"/>
					</g>
				</g>
			</g>
			<g>
				<path class="st13" d="M56.5,524.4c-0.3,9.1-0.1,21.3,3.7,21.7c0.7,0.1,1.4-0.2,2-0.5c6.7-3.2,11.4-7.8,18-10.9
					c6.9-3.3,14.7-5,22.4-6.2c11.4-1.8,23-2.9,34.5-3c9.9-0.1,20.1,4.4,29.4,6.9c3.6,1,6.5,3.6,9.5,5.6c4.4,3,6.3,4.2,5.7-2
					c-1-10.1-2-20.2-3.2-30.3c-2.5-20.1-5.9-40.1-11.6-59.6c-2.2-7.4-4.7-14.8-7.2-22.1c-3.1-8.9-6.1-17.8-9.2-26.8
					c-3.8-11.1-10.2-18.9-21.5-22.8c-9.7-3.4-21.8-4.3-31.3,0.4c-10.5,5.2-15.5,23-20.6,32.5c-4.5,8.3-10.1,31-11.8,40
					c-2,10.8-3.9,21.5-5.3,32.3c-1.6,11.9-2.8,23.7-3.1,35.5C56.9,516.4,56.6,520,56.5,524.4z"/>
			</g>
			<g>
				<g>
					<path class="st8" d="M120.2,376.8c-0.2,0.2-0.5,0.4-0.8,0.5c-0.6,0.2-1.3,0.1-1.9,0c-2.6-0.3-5.1-0.6-7.7-0.9
						c0.8-7.9-3.8-9.6-8.2-14.7c-4.5-5.1-3.1-12-2.9-18.3c0.1-1.8,0.2-3.5,0.9-5.1c1.3-2.8,4.3-4.3,7.3-5.2c7.5-2.3,16-1.8,22.6,2.5
						c1.8,1.1,3.4,2.5,4.3,4.4c1.5,2.9,1.1,6.3,0.7,9.5c-0.6,4.9-2.1,9.7-4.9,13.9c-2.6,3.9-7.5,5.7-8.1,10.3
						C121.4,374.7,121,376.1,120.2,376.8z"/>
				</g>
				<g>
					<g>
						<path class="st6" d="M134.2,343.7c-0.4,2-1.4,4-0.9,5.9c3.1-1.1,5.2-4.3,6.3-7.5c0.5-1.5,0.9-3,0.7-4.6c-0.1-1.6-0.8-3.1-2-4
							c-1.7-1.2-4.8-0.8-5.3,1.5C132.6,337.2,134.9,340.7,134.2,343.7z"/>
					</g>
					<g>
						<path class="st6" d="M150.9,326.3c-0.1-2.4-1-4.5-3.1-5.9c-1.8-1.2-3.9-2.3-5-4.2c-0.9-1.5-1-3.4-1.8-4.9
							c-1.5-2.8-4.9-3.6-7.8-4.5c-7.3-2.3-11.2-5-18.9-2c-5.5,2.1-12.6,2.4-17.7,5.5c-2.1,1.3-3.9,3.4-5.4,5.7
							c-5.2,8-6.4,19.4-3,27.8c0.8,1.9,1.7,3.6,2.7,5.3c2,3.3,4.2,7.4,7.8,9c0.2-1.6,1.4-2.4,1.8-4c0.3-1.1,0.2-2.3,0.1-3.4
							c-0.2-4.4-1.6-11.4,2.8-13.6c5.6-2.8,16-0.3,21.4,2.1c4.7,2.1,12.8,4.8,17.8,2.5C147.3,339.6,151.1,331.4,150.9,326.3z"/>
					</g>
				</g>
			</g>
		</g>
		<g>
			<polygon class="st13" points="102.2,373.9 52.9,359.3 71.1,297.7 56.1,286.9 19.8,358.3 29.8,383 76.9,407.3 			"/>
		</g>
	</g>
	<g>
		<polygon class="st7" points="536.1,420.5 540,428.9 526,435 513.1,426.1 519.9,414.4 		"/>
	</g>
	<g>
		<g>
			
				<rect x="26.1" y="414.2" transform="matrix(0.998 -6.260483e-02 6.260483e-02 0.998 -31.7756 19.447)" class="st14" width="536.7" height="205.2"/>
		</g>
		<g>
			<path class="st1" d="M46.5,621.9L35.3,443.6l507.3-31.8l11.2,178.3L46.5,621.9z M38.7,446.6l10.8,171.9l500.9-31.4l-10.8-171.9
				L38.7,446.6z"/>
		</g>
	</g>
	<g>
		<g>
			<g>
				<g>
					<g>
						<polygon class="st2" points="560.1,650.3 616.6,550.6 589.5,535.3 562.5,519.9 506,619.6 543.8,615.9 						"/>
					</g>
				</g>
			</g>
			<g>
				<g>
					<g>
						<polygon class="st2" points="636.5,661.2 610.2,549.7 640.5,542.6 670.7,535.4 697,647 661.7,632.8 						"/>
					</g>
				</g>
			</g>
			<g>
				<g>
					<g>
						<g>
							<g>
								<polygon class="st13" points="719.4,492.5 735.8,482 723.1,467.2 736.2,452.9 720.1,441.9 729,424.6 710.7,418.2 
									714.8,399.2 695.4,397.8 694.5,378.4 675.4,382 669.5,363.5 652,371.9 641.5,355.6 626.8,368.3 612.4,355.2 601.5,371.3 
									584.2,362.3 577.8,380.7 558.8,376.5 557.3,395.9 537.9,396.8 541.6,415.9 523,421.8 531.5,439.4 515.1,449.8 527.8,464.6 
									514.7,479 530.8,489.9 521.9,507.2 540.2,513.6 536.1,532.6 555.5,534 556.4,553.4 575.5,549.8 581.4,568.3 598.9,559.9 
									609.4,576.3 624.1,563.5 638.5,576.6 649.4,560.6 666.7,569.5 673.1,551.1 692.1,555.3 693.5,535.9 713,535 709.3,515.9 
									727.9,510 								"/>
							</g>
						</g>
					</g>
				</g>
				<g>
					<g>
						<g>
							
								<ellipse transform="matrix(0.7071 -0.7071 0.7071 0.7071 -146.236 578.7153)" class="st1" cx="625.5" cy="465.9" rx="68.4" ry="68.4"/>
						</g>
					</g>
				</g>
			</g>
		</g>
		<g>
			<g>
				<g>
					<g>
						<g>
							<g>
								<path class="st13" d="M633.3,419.9l9.9,28.5c0.2,0.5,0.5,0.8,1,1l29,7.9c1.2,0.3,1.5,1.9,0.5,2.6l-23.9,18.3
									c-0.4,0.3-0.6,0.8-0.6,1.3l1.4,30.1c0.1,1.3-1.3,2-2.4,1.3l-24.7-17.2c-0.4-0.3-0.9-0.4-1.4-0.2L594,504.2
									c-1.2,0.4-2.3-0.6-2-1.8l8.7-28.9c0.1-0.5,0-1-0.3-1.4l-18.8-23.5c-0.8-1-0.1-2.4,1.1-2.5l30-0.7c0.5,0,1-0.3,1.2-0.7
									l16.5-25.2C631.3,418.5,632.9,418.7,633.3,419.9z"/>
							</g>
						</g>
					</g>
					<g>
						<g>
							<path class="st0" d="M591.4,507.6L591.4,507.6L591.4,507.6z"/>
						</g>
					</g>
				</g>
			</g>
		</g>
	</g>
	<g>
		<polygon class="st7" points="717.4,395.5 719.6,404.5 704.8,407.8 693.8,396.6 702.7,386.4 		"/>
	</g>
	<g>
		<polygon class="st8" points="208.6,396.9 225,403.1 229.1,420.5 219.6,422.7 211.9,412.1 205.5,411.7 199.5,402.1 		"/>
	</g>
	<text transform="matrix(0.9972 -7.510000e-02 7.510000e-02 0.9972 140.9525 566.7776)" class="st13 st15 st16 st17">$$$</text>
</g>
</svg>
