<?xml version="1.0" encoding="utf-8"?>
<!-- Generator: Adobe Illustrator 23.0.5, SVG Export Plug-In . SVG Version: 6.00 Build 0)  -->
<svg version="1.1" id="Object" xmlns="http://www.w3.org/2000/svg" xmlns:xlink="http://www.w3.org/1999/xlink" x="0px" y="0px"
	 viewBox="0 0 756 800" style="enable-background:new 0 0 756 800;" xml:space="preserve">
<style type="text/css">
	.st0{fill:#CCD2D9;}
	.st1{fill:#FFFFFF;}
	.st2{fill:#D34E4E;}
	.st3{opacity:0.1;}
	.st4{fill:#3A404A;}
	.st5{fill:#292E35;}
	.st6{fill:#3B455A;}
	.st7{fill:#AA6755;}
	.st8{fill:#EAC1A4;}
	.st9{fill:#474EBB;}
	.st10{fill:#4B505B;}
	.st11{fill:#7FC5A3;}
	.st12{fill:#C2C3C4;}
	.st13{fill:#EBB044;}
	.st14{fill:#F2F2F2;}
	.st15{font-family:'Algerian';}
	.st16{font-size:127px;}
	.st17{letter-spacing:44;}
</style>
<g>
	<g>
		<g>
			<g>
				<g>
					<path class="st0" d="M399.93,91.47c0.24,3.45-1.54,6.61-3.42,9.32c-12.5,18.04-41.26,37.14-60.36,24.63
						c2.21-0.4,7.92-0.25,12.43-1.21c10.71-2.26,17.83-13.68,23.69-23.95c3.59-6.29,4.62-24.4,11.52-26.77
						C390.37,71.22,399.45,84.6,399.93,91.47z"/>
				</g>
			</g>
			<g>
				<g>
					<path class="st1" d="M339.4,100.88c4.88-10.6,9.84-17.36,16.34-24.93c6.5-7.56,15.31-13.24,24.73-13.21
						c1.12,0,2.28,0.1,3.28,0.66c1.15,0.65,1.97,1.83,2.75,2.98c4.32,6.33,12.66,14.83,13.32,23.63
						c-16.32-1.73-33.5,4.05-46.9,14.42c-10,7.75-16.05,22.05-17.11,22.03C325.76,126.23,337.11,105.87,339.4,100.88z"/>
				</g>
			</g>
		</g>
		<g>
			<g>
				<g>
					<path class="st0" d="M267.26,104.62c0.27,3.44,2.51,6.28,4.77,8.65c15.03,15.8,46.28,30.04,63.29,14.59
						c-2.24-0.04-7.87,1.03-12.46,0.81c-10.92-0.51-19.65-10.64-26.97-19.83c-4.49-5.64-8.19-23.36-15.36-24.59
						C273.7,83.08,266.71,97.76,267.26,104.62z"/>
				</g>
			</g>
			<g>
				<g>
					<path class="st1" d="M328.46,104.15c-6.39-9.69-12.3-15.57-19.85-21.99c-7.55-6.42-17.09-10.61-26.39-9.05
						c-1.11,0.18-2.23,0.46-3.14,1.19c-1.04,0.82-1.68,2.13-2.28,3.39c-3.33,6.95-10.3,16.69-9.64,25.49
						c15.86-4.34,33.7-1.41,48.48,6.68c11.04,6.04,19.14,19.2,20.18,19C345.7,126.98,331.46,108.71,328.46,104.15z"/>
				</g>
			</g>
		</g>
	</g>
	<g>
		<g>
			<g>
				<polygon class="st2" points="445.99,290.37 254.44,305.93 241.67,135.2 433.22,119.64 				"/>
			</g>
		</g>
		<g>
			<g>
				<polygon class="st2" points="449.54,161.69 231.8,179.37 228.58,136.26 446.31,118.58 				"/>
			</g>
		</g>
	</g>
	<g class="st3">
		<g>
			<g>
				<polygon points="253.05,177.65 436.44,162.76 437.59,178.13 				"/>
			</g>
		</g>
	</g>
	<g>
		<g>
			<path class="st1" d="M360.42,297.32l-23.71,1.92l-12.93-172.87c-0.13-1.75,1.06-3.28,2.66-3.41l17.92-1.45
				c1.6-0.13,3,1.19,3.13,2.94L360.42,297.32z"/>
		</g>
	</g>
</g>
<g>
	<g>
		<polygon class="st2" points="611.45,368.61 676.1,438.69 626.96,480.41 619.7,471.65 638.94,431.66 601.25,398.43 		"/>
	</g>
	<g>
		<g>
			<g>
				<polygon class="st4" points="627.54,543.26 630.46,610.93 621.91,726 609.11,726.91 593.56,622.4 572.05,533.96 				"/>
			</g>
			<g>
				<polygon class="st5" points="609.56,732.3 623.9,738.24 630.33,730.83 622.91,724.4 609.07,725.38 				"/>
			</g>
		</g>
		<g>
			<g>
				<polygon class="st4" points="536.94,519.31 534.13,570.46 542.47,722.57 555.28,723.21 574.49,623.45 591.43,514.05 				"/>
			</g>
			<g>
				<polygon class="st5" points="554.94,728.61 540.73,734.84 534.15,727.57 541.42,720.98 555.28,721.68 				"/>
			</g>
		</g>
		<g>
			<g>
				<path class="st6" d="M611.45,368.61l-39.99-4.28c0,0-22.25,2.38-37.34,55.21c-8.4,29.39-10.95,75.7-11.57,111.01
					c0.94,5.04,6.43,27.1,29.63,23.35c39.84-6.43,61.05-12.85,78.4-9.64c14.78,3.21,13.53-17.14,11.91-32.67l-5.89-48.05
					L611.45,368.61z"/>
			</g>
		</g>
		<g>
			<g>
				<path class="st7" d="M603.73,318.84c-10.08-2.22-20.45-4.21-30.54-2.21c-2.21,0.44-4.58,1.21-5.78,3.11
					c-0.46,0.74-0.71,1.59-0.94,2.43c-2.55,9.46-5.78,23.5,0.45,32.22c1.19,1.66,2.78,2.98,4.5,4.05c2.29,1.43,4.83,2.41,7.46,2.93
					c-0.54,2.35-1.3,4.66-2.26,6.87c2.31,3.48,13.07,3.9,15.06,0.56c0.11-2.89,0.22-5.77,0.33-8.66c1.31-0.53,2.58-1.17,3.76-1.96
					c4.6-3.03,7.63-7.63,9.39-12.77c1.92-5.6,4.61-10.93,6.37-16.63c0.64-2.08,1.14-4.45,0.05-6.33c-1.16-2-3.68-2.68-5.94-3.19
					C605.01,319.12,604.37,318.98,603.73,318.84z"/>
			</g>
			<g>
				<path class="st6" d="M570.18,324.25c4.98-3.2,12.46-4.58,17.14-4.24c14.16,1.03,19.35,11.43,20.11,24.45
					c3.9-4.96,11.22-11.2,11.67-17.58c0.36-5.22-0.36-12.35-3.29-16.86c-2.74-4.22-9.74-6.54-13.9-8.98
					c-3.92-2.31-7.85-4.61-11.77-6.92c-0.82-0.48-1.66-0.97-2.59-1.13c-1.1-0.19-2.23,0.09-3.31,0.37
					c-9.28,2.4-18.55,4.79-27.83,7.19c-1.78,0.46-3.81,1.13-4.47,2.85c-0.4,1.05-0.16,2.21,0.07,3.31
					c1.05,4.82,3.08,9.74,3.58,14.62c0.57,2.83,2.26,17.36,7.27,15.68c1.47-2.41,1.69-5.38,2.84-7.96
					C566.55,327.15,568.16,325.55,570.18,324.25z"/>
			</g>
		</g>
		<g>
			<polygon class="st6" points="571.46,364.33 556.68,368.83 502.7,425.38 499.49,444.01 525.29,486.62 532.26,471.01 
				521.34,439.52 538.69,427.31 561.82,375.25 			"/>
		</g>
	</g>
</g>
<g>
	<g>
		<g>
			<polygon class="st8" points="452.44,293.25 455.11,276.84 448.15,275.39 443.83,286.23 440.85,284.02 440.28,298.34 
				447.32,300.82 			"/>
		</g>
		<g>
			<polygon class="st9" points="365.28,388.02 411.48,349.15 440.28,298.34 449.83,300.89 435.43,363.97 386.61,422.86 			"/>
		</g>
	</g>
	<g id="XMLID_174_">
		<g id="XMLID_176_">
			<g>
				<polygon class="st5" points="358.48,730.85 359.16,737.91 373.45,744.03 379.58,736.5 372.1,729.91 357.81,723.79 				"/>
			</g>
		</g>
		<g id="XMLID_175_">
			<g>
				<polygon class="st10" points="346.55,587.77 357.55,728.63 371.32,730.5 382.72,610.45 392.15,572.36 				"/>
			</g>
		</g>
	</g>
	<g id="XMLID_171_">
		<g id="XMLID_173_">
			<g>
				<polygon class="st10" points="313.61,550.81 305.36,718.18 317.92,720.55 344.09,593.9 358.49,557.23 				"/>
			</g>
		</g>
		<g id="XMLID_172_">
			<g>
				<polygon class="st5" points="316.8,726.09 301.88,730.65 296.43,722.25 304.56,716.41 318.14,718.96 				"/>
			</g>
		</g>
	</g>
	<g id="XMLID_170_">
		<g>
			<path class="st9" d="M331.38,370.04c10.17-8.42,34.69-3.58,47.6-3.58c-1.24,0,40.15,162.71,43.08,172.01
				c4.86,15.42,4.85,33.58,3.48,49.54c-13.85,3.81-26.82,10.93-41.06,12.78c-11.72,1.52-23.55-0.64-35.32-1.68
				c-13.92-1.23-27.93-0.9-41.86-1.97c-13.93-1.07-28.01-3.63-40.34-10.2c5.51-10.67,9.76-21.94,13.29-33.41
				c3.51-11.38,8.02-24.03,9.3-35.9c1.16-10.72,1.35-21.64,2.91-32.51c1.82-12.65,4-25.26,7.03-37.68
				c3.46-14.2,8.04-28.14,13.65-41.63c4.27-10.28,9.37-27.11,17.4-35.02C330.81,370.53,331.09,370.28,331.38,370.04z"/>
		</g>
	</g>
	<g id="XMLID_166_">
		<g id="XMLID_169_">
			<g>
				<path class="st6" d="M352.99,331.1c-6.44,1.17-14.39,6.68-15.94,13.48c-0.75,3.27,0.32,6.29-0.62,9.76
					c-1.83,6.85,6.46,16.95-1.74,21.71c-4.22,2.45-9.49,1.65-14.29,0.79c-0.58-0.11-1.19-0.22-1.65-0.59
					c-0.76-0.61-0.89-1.75-0.6-2.68c0.29-0.93,0.9-1.72,1.44-2.53c5.64-8.48,4.27-20.64,6.47-30.3c2.19-9.64,7.37-19.24,16.92-23.19
					c4.76,3.08,8.22,8.11,9.41,13.65L352.99,331.1z"/>
			</g>
		</g>
		<g id="XMLID_168_">
			<g>
				<path class="st8" d="M344.9,372.6c-6.2-2.65-10.31-8.96-11.66-15.57c-1.35-6.61-0.28-13.48,1.55-19.97
					c6.07-21.6,33.18-15.41,39.5,3.06C379.8,356.21,362.93,380.31,344.9,372.6z"/>
			</g>
		</g>
		<g id="XMLID_167_">
			<g>
				<path class="st6" d="M376.46,384.48c-3.04-1.89-6.03-3.87-7.79-7.41c-2.85-5.71-1.65-14.58-1.99-20.78
					c-0.36-6.53-0.95-13.65-5.43-18.41c-2.92-3.11-6.52-3.97-10.58-4.38c-2.78-0.28-2.98,0.76-5.21-0.94
					c-1.71-1.3-2.96-4.85-3.2-6.89c-0.42-3.44,1.24-6.88,3.7-9.32c3.78-3.75,8.02-5.42,13.2-5.09c18.19,1.15,30.89,13.07,34.5,31.25
					c1.73,8.73-0.9,18.07,1.03,26.5c1.19,5.2,4.15,8.85,5,14.36c2.22,14.29,8.42,32.84,6.6,47.27c-0.07,0.53-0.18,1.12-0.61,1.44
					c-0.88,0.65-2.03-0.33-2.67-1.22c-3.74-5.19-7.49-10.37-11.23-15.56c-1.47-2.04-2.96-4.11-3.81-6.47
					c-2.12-5.88-0.15-13.09-3.81-18.16C382.15,387.91,379.28,386.23,376.46,384.48z"/>
			</g>
		</g>
	</g>
	<g>
		<g>
			<polygon class="st8" points="246.34,307.52 241.84,291.51 248.6,289.29 254.11,299.57 256.82,297.04 258.99,311.21 
				252.28,314.47 			"/>
		</g>
		<g>
			<polygon class="st9" points="343.58,391.91 293.31,358.47 258.99,311.21 249.78,314.82 271.17,375.88 326.29,428.93 			"/>
		</g>
	</g>
</g>
<g>
	<g>
		<polygon class="st8" points="60.74,287.73 72.24,270.59 81.85,274.75 77.32,288.08 82.85,288.4 70.72,301.97 60.09,298.7 		"/>
	</g>
	<g>
		<polygon class="st11" points="133.95,380.79 150.06,386.31 176.12,425.38 209.5,403.05 220.11,415.64 203.27,440.61 
			172.96,462.26 133.95,421.43 		"/>
	</g>
	<g>
		<g>
			<g>
				<g>
					<polygon class="st12" points="171.82,493.2 172.96,592.36 162.4,720.01 148.03,720.01 130.84,602.24 111.17,484.27 					"/>
				</g>
				<g>
					<polygon class="st5" points="148.11,726.07 163.65,733.84 171.42,726.07 163.65,718.3 148.11,718.3 					"/>
				</g>
			</g>
			<g>
				<g>
					<polygon class="st12" points="73.31,493.2 73.02,550.56 82.71,720.01 97.08,720.01 121.12,607.57 133.95,484.27 					"/>
				</g>
				<g>
					<polygon class="st5" points="97,726.07 81.46,733.84 73.69,726.07 81.46,718.3 97,718.3 					"/>
				</g>
			</g>
		</g>
		<g>
			<path class="st13" d="M58.36,527.74c-0.31,9.1-0.11,21.28,3.72,21.73c0.72,0.09,1.41-0.23,2.04-0.54
				c6.66-3.24,11.41-7.81,17.98-10.94c6.88-3.28,14.71-4.99,22.36-6.18c11.41-1.82,23-2.92,34.48-3.02
				c9.87-0.09,20.13,4.41,29.45,6.89c3.59,0.95,6.51,3.57,9.49,5.62c4.4,3.03,6.34,4.23,5.74-1.96c-0.98-10.1-2-20.21-3.24-30.28
				c-2.48-20.1-5.85-40.14-11.56-59.6c-2.18-7.43-4.7-14.76-7.21-22.09c-3.06-8.92-6.13-17.84-9.19-26.76
				c-3.81-11.09-10.23-18.9-21.48-22.78c-9.72-3.35-21.8-4.27-31.26,0.42c-10.51,5.22-15.51,22.98-20.62,32.48
				c-4.48,8.32-10.12,31.01-11.79,39.99c-2.02,10.8-3.88,21.54-5.35,32.26c-1.62,11.87-2.77,23.71-3.1,35.47
				C58.77,519.76,58.51,523.39,58.36,527.74z"/>
		</g>
		<g>
			<g>
				<path class="st8" d="M122.07,380.21c-0.23,0.2-0.49,0.35-0.79,0.45c-0.6,0.2-1.26,0.13-1.89,0.05c-2.57-0.3-5.14-0.61-7.71-0.91
					c0.85-7.87-3.75-9.64-8.23-14.7c-4.54-5.13-3.14-12.04-2.89-18.32c0.07-1.75,0.16-3.55,0.9-5.13c1.3-2.78,4.32-4.32,7.25-5.23
					c7.48-2.32,16.04-1.75,22.62,2.49c1.75,1.13,3.39,2.55,4.34,4.4c1.46,2.86,1.09,6.28,0.68,9.47c-0.63,4.9-2.08,9.71-4.85,13.85
					c-2.58,3.85-7.5,5.69-8.07,10.31C123.29,378.12,122.93,379.46,122.07,380.21z"/>
			</g>
			<g>
				<g>
					<path class="st6" d="M136.14,347.07c-0.44,1.98-1.36,3.98-0.88,5.94c3.14-1.07,5.19-4.28,6.3-7.54
						c0.5-1.48,0.87-3.05,0.74-4.61c-0.13-1.57-0.81-3.14-2.04-4.02c-1.72-1.23-4.82-0.75-5.31,1.49
						C134.46,340.58,136.8,344.1,136.14,347.07z"/>
				</g>
				<g>
					<path class="st6" d="M152.81,329.71c-0.07-2.37-0.98-4.48-3.09-5.91c-1.82-1.23-3.93-2.25-5.04-4.21
						c-0.86-1.52-0.99-3.4-1.84-4.93c-1.54-2.76-4.89-3.57-7.81-4.51c-7.29-2.34-11.22-5.04-18.94-2.05
						c-5.49,2.13-12.58,2.42-17.68,5.53c-2.13,1.3-3.94,3.38-5.42,5.71c-5.15,8.05-6.38,19.37-3.03,27.76
						c0.75,1.88,1.7,3.61,2.72,5.26c2.04,3.31,4.22,7.38,7.83,9c0.23-1.56,1.39-2.42,1.75-3.95c0.26-1.1,0.17-2.26,0.12-3.39
						c-0.22-4.41-1.58-11.39,2.83-13.58c5.57-2.77,16.03-0.27,21.4,2.07c4.75,2.07,12.77,4.77,17.83,2.55
						C149.15,342.99,152.97,334.77,152.81,329.71z"/>
				</g>
			</g>
		</g>
	</g>
	<g>
		<polygon class="st13" points="104.07,377.25 54.78,362.73 73.02,301.1 57.99,290.32 21.7,361.66 31.73,386.36 78.83,410.67 		"/>
	</g>
</g>
<g>
	<polygon class="st7" points="538.01,423.87 541.84,432.31 527.92,438.36 515.03,429.45 521.82,417.76 	"/>
</g>
<g>
	<g>
		
			<rect x="28.04" y="417.63" transform="matrix(0.998 -0.0626 0.0626 0.998 -31.9984 19.5862)" class="st14" width="536.77" height="205.16"/>
	</g>
	<g>
		<path class="st1" d="M48.37,625.28l-11.19-178.3l507.3-31.83l11.19,178.3L48.37,625.28z M40.59,449.98l10.79,171.89l500.88-31.43
			l-10.79-171.89L40.59,449.98z"/>
	</g>
</g>
<g>
	<g>
		<g>
			<g>
				<g>
					<polygon class="st2" points="561.96,653.65 618.46,553.98 591.42,538.66 564.39,523.33 507.89,623 545.71,619.29 					"/>
				</g>
			</g>
		</g>
		<g>
			<g>
				<g>
					<polygon class="st2" points="638.35,664.59 612.09,553.07 642.34,545.95 672.59,538.83 698.84,650.35 663.58,636.18 					"/>
				</g>
			</g>
		</g>
		<g>
			<g>
				<g>
					<g>
						<g>
							<polygon class="st13" points="721.3,495.84 737.69,485.34 724.97,470.62 738.08,456.24 721.99,445.3 730.93,428.02 
								712.55,421.62 716.72,402.61 697.31,401.19 696.42,381.75 677.3,385.4 671.41,366.86 653.89,375.33 643.39,358.94 
								628.67,371.66 614.29,358.55 603.35,374.64 586.07,365.7 579.67,384.08 560.66,379.91 559.24,399.32 539.8,400.21 
								543.45,419.33 524.91,425.22 533.38,442.74 516.99,453.23 529.71,467.96 516.6,482.34 532.69,493.28 523.75,510.56 
								542.13,516.96 537.96,535.97 557.37,537.39 558.26,556.83 577.38,553.18 583.27,571.72 600.79,563.25 611.28,579.64 
								626.01,566.92 640.39,580.03 651.33,563.94 668.61,572.88 675.01,554.5 694.02,558.67 695.44,539.26 714.88,538.37 
								711.23,519.25 729.77,513.36 							"/>
						</g>
					</g>
				</g>
			</g>
			<g>
				<g>
					<g>
						
							<ellipse transform="matrix(0.1964 -0.9805 0.9805 0.1964 43.9967 992.2603)" class="st1" cx="627.34" cy="469.29" rx="68.36" ry="68.36"/>
					</g>
				</g>
			</g>
		</g>
	</g>
	<g>
		<g>
			<g>
				<g>
					<g>
						<g>
							<path class="st13" d="M635.19,423.26l9.91,28.46c0.16,0.47,0.55,0.83,1.02,0.96l29,7.93c1.2,0.33,1.5,1.9,0.51,2.65
								l-23.93,18.27c-0.39,0.3-0.62,0.78-0.59,1.27l1.42,30.12c0.06,1.25-1.33,2.02-2.36,1.31l-24.7-17.17
								c-0.41-0.28-0.93-0.35-1.39-0.17l-28.12,10.68c-1.17,0.44-2.33-0.65-1.97-1.84l8.67-28.88c0.14-0.48,0.04-0.99-0.27-1.38
								l-18.8-23.52c-0.78-0.97-0.1-2.42,1.14-2.45l30.05-0.68c0.49-0.01,0.95-0.27,1.22-0.68l16.5-25.22
								C633.2,421.88,634.78,422.08,635.19,423.26z"/>
						</g>
					</g>
				</g>
				<g>
					<g>
						<polygon class="st0" points="593.29,510.97 593.29,510.97 593.29,510.97 						"/>
					</g>
				</g>
			</g>
		</g>
	</g>
</g>
<g>
	<polygon class="st7" points="719.33,398.84 721.48,407.85 706.66,411.15 695.71,399.94 704.59,389.76 	"/>
</g>
<g>
	<polygon class="st8" points="210.49,400.29 226.94,406.46 231.03,423.92 221.48,426.09 213.75,415.51 207.39,415.12 201.43,405.48 
			"/>
</g>
<text transform="matrix(0.9972 -0.0751 0.0751 0.9972 142.8425 570.1626)" class="st13 st15 st16 st17">$$$</text>
</svg>
