<?xml version="1.0" encoding="utf-8"?>
<!-- Generator: Adobe Illustrator 23.0.5, SVG Export Plug-In . SVG Version: 6.00 Build 0)  -->
<svg version="1.1" xmlns="http://www.w3.org/2000/svg" xmlns:xlink="http://www.w3.org/1999/xlink" x="0px" y="0px"
	 viewBox="0 0 200 40" style="enable-background:new 0 0 200 40;" xml:space="preserve">
<style type="text/css">
	.st0{fill:#FFFFFF;}
	.st1{display:none;}
</style>
<g id="Layer_2_xA0_Image_1_">
	<g id="Panda">
		<g>
			<path class="st0" d="M7.7,31.4c0.7-0.3,0.9-0.9,1.1-1.6c0.4-1.5,0.7-3,1.3-4.4c1.2-3.1,3.6-4.6,6.8-4.7c1.1,0,2.2,0,3.2,0.3
				c2.2,0.4,3.7,1.8,4.7,3.7c0.9,1.7,1.3,3.5,1.7,5.3c0.1,0.6,0.4,1.1,1,1.4C22.7,36.2,13.9,37.1,7.7,31.4z M18.8,27.8
				c1-0.4,1.7-1.1,1.9-2.2c0.3-1.4-0.6-2.2-1.9-1.8c-0.9,0.3-1.6,0.3-2.5,0c-1.4-0.4-2.5,0.6-2.1,2.1c0.2,0.8,0.7,1.3,1.4,1.6
				C15.9,27.7,18.6,27.8,18.8,27.8z"/>
			<path class="st0" d="M3.1,16.6c1.4-6.4,7.5-11.8,15.1-11.5c7.3,0.2,13.1,5.6,14.4,11.9c-0.3-0.4-0.5-0.6-0.7-0.9
				c-0.7-1.1-1.4-2.2-2-3.3c-1-1.7-2.6-2.2-4.3-1.3c-1.6,0.9-3.3,1.8-5.2,2.1C17.1,14,14,13.7,11,12.1c-0.5-0.2-0.9-0.5-1.4-0.7
				c-1.6-0.8-3.2-0.3-4.1,1.2c-0.6,1.1-1.2,2.1-1.9,3.1C3.5,16.1,3.3,16.3,3.1,16.6z M26.3,9.5c0-0.1,0-0.1,0-0.2
				c-0.6,0-1.2-0.1-1.8,0c-1.2,0.2-2.1,0.9-2.9,1.8c-0.8,0.8-1.6,1.6-2.7,2c0.2,0.1,0.4,0.1,0.6,0.1c1-0.1,1.8-0.7,2.5-1.3
				C23.2,10.7,24.5,9.6,26.3,9.5z M8.8,9.4c2.4,0.6,2.5,0.7,4.3,2.3c0.6,0.5,1.2,0.9,1.8,1.2c0.4,0.2,1,0.2,1.4,0.3
				c0-0.1,0-0.1,0-0.2c-1-0.3-1.7-1-2.5-1.7c-0.5-0.5-1-1-1.6-1.4C11.3,9.2,10.2,9,8.8,9.4z"/>
			<path class="st0" d="M30.8,10.3c1-0.5,1.5-1.2,1.4-2c-0.1-0.8-0.6-1.4-1.3-1.6c-0.9-0.2-1.6,0.1-2.3,1.1
				c-0.8-0.5-0.8-0.5-0.5-1.3c0.7-2,2.7-2.7,4.4-1.4c1,0.8,1.7,1.8,1.7,3.1c0.1,1.1-0.4,1.8-1.4,2.3c-0.4,0.2-0.8,0.2-1.2,0.3
				C31.1,10.9,30.9,10.8,30.8,10.3z"/>
			<path class="st0" d="M4.4,10.3c-0.2,0.5-0.5,0.6-0.9,0.5c-0.4-0.1-0.7-0.2-1.1-0.4C1.5,10,1.1,9.3,1.1,8.2c0.1-2,1.9-3.8,3.8-3.7
				c1.2,0.1,2.5,1.4,2.4,2.6c0,0.2-0.4,0.5-0.6,0.8c-0.6-1-1.4-1.4-2.5-1.1C3.6,7,3.2,7.6,3.2,8.3C3.1,9.3,3.6,9.9,4.4,10.3z"/>
			<path class="st0" d="M6,27.2c-0.7-1.2-1.4-2.5-2.1-3.7C3.6,23,3.2,22.5,2.8,22C2.2,21,2,19.8,3,18.7c1.3-1.3,2.3-2.8,3.1-4.5
				c0.8-1.6,1.6-1.9,3.3-1.4c1.5,0.5,3.1,1.2,4.6,1.6c3.5,0.9,7,0.6,10.3-0.8c0.8-0.3,1.6-0.6,2.4-0.9c0,0.1,0.1,0.1,0.1,0.2
				C24.9,13.6,23,14.5,21,15c-3.3,0.9-6.6,0.4-9.7-0.8c-0.9-0.4-1.8-0.7-2.7-1c-0.9-0.3-1.4,0-1.8,0.8c-1,2-2.3,3.8-3.8,5.5
				c-0.3,0.3-0.4,0.8-0.3,1.2C2.8,21.1,3,21.6,3.3,22C4.5,23.6,5.3,25.4,6,27.2z"/>
			<path class="st0" d="M16.1,19.7c-3.7,0.5-5.8,2.8-7.1,6.2C9.3,22.5,12.8,19.4,16.1,19.7z"/>
			<path d="M32.2,3.7c-2.1-0.9-4.3,0-5.1,2.2c-0.1,0.2-0.2,0.4-0.2,0.6C20.7,2.7,14.5,2.7,8.4,6.4C8.3,6.1,8.2,5.9,8.1,5.6
				C7.3,3.9,5.8,3.1,4,3.5c-1.8,0.4-3.5,2-3.9,3.9c-0.4,2,0.5,3.7,2.5,4.3c0.2,0.1,0.5,0.1,0.6,0.2c-0.5,1.6-1,3.1-1.5,4.6
				c-0.2,0.7-0.2,1.5-0.4,2.2c-0.5,1.2-0.4,2.4,0.3,3.5C1.8,22.6,2,23,2.1,23.4c0.6,2.5,1.6,4.9,3.2,7c4.1,5.5,11,7.8,17.2,5.5
				c5.7-2.1,9.1-6.4,10.6-12.2c0.2-0.6,0.4-1.1,0.7-1.7c0.6-1.1,0.6-2.2,0.1-3.4c-0.1-0.3-0.2-0.6-0.3-0.9c-0.1-0.6-0.2-1.2-0.3-1.8
				c-0.4-1.3-0.9-2.6-1.4-4c0.2,0,0.3-0.1,0.5-0.1c1.4-0.4,2.5-1.2,2.9-2.7C35.6,7.1,34.2,4.6,32.2,3.7z M2.4,10.4
				C1.5,10,1.1,9.3,1.1,8.2c0.1-2,1.9-3.8,3.8-3.7c1.2,0.1,2.5,1.4,2.4,2.6c0,0.2-0.4,0.5-0.6,0.8c-0.6-1-1.4-1.4-2.5-1.1
				C3.6,7,3.2,7.6,3.2,8.3c-0.1,1,0.4,1.6,1.3,2c-0.2,0.5-0.5,0.6-0.9,0.5C3.2,10.7,2.8,10.6,2.4,10.4z M6.8,14
				c-1,2-2.3,3.8-3.8,5.5c-0.3,0.3-0.4,0.8-0.3,1.2C2.8,21.1,3,21.6,3.3,22c1.1,1.6,1.9,3.4,2.7,5.2c-0.7-1.2-1.4-2.5-2.1-3.7
				C3.6,23,3.2,22.5,2.8,22C2.2,21,2,19.8,3,18.7c1.3-1.3,2.3-2.8,3.1-4.5c0.8-1.6,1.6-1.9,3.3-1.4c1.5,0.5,3.1,1.2,4.6,1.6
				c3.5,0.9,7,0.6,10.3-0.8c0.8-0.3,1.6-0.6,2.4-0.9c0,0.1,0.1,0.1,0.1,0.2C24.9,13.6,23,14.5,21,15c-3.3,0.9-6.6,0.4-9.7-0.8
				c-0.9-0.4-1.8-0.7-2.7-1C7.8,12.9,7.2,13.2,6.8,14z M27.4,28.9c-0.4-3.1-1.6-5.8-4.2-7.8C25.4,21.9,27.6,26.1,27.4,28.9z
				 M16.1,19.7c-3.7,0.5-5.8,2.8-7.1,6.2C9.3,22.5,12.8,19.4,16.1,19.7z M7.7,31.4c0.7-0.3,0.9-0.9,1.1-1.6c0.4-1.5,0.7-3,1.3-4.4
				c1.2-3.1,3.6-4.6,6.8-4.7c1.1,0,2.2,0,3.2,0.3c2.2,0.4,3.7,1.8,4.7,3.7c0.9,1.7,1.3,3.5,1.7,5.3c0.1,0.6,0.4,1.1,1,1.4
				C22.7,36.2,13.9,37.1,7.7,31.4z M32.5,21.9c-0.5,0.9-1.1,1.9-1.6,2.8c-0.3,0.4-0.5,0.9-0.7,1.4c0,0-0.1,0-0.1,0
				c0.2-0.4,0.4-0.9,0.6-1.3c0.5-1,1.1-2,1.7-3c0.7-1.3,0.6-2.3-0.4-3.3c-0.3-0.3-0.5-0.6-0.7-1c0.4,0.5,1,0.9,1.3,1.5
				C33.2,19.9,33,20.9,32.5,21.9z M31.8,16.1c-0.7-1.1-1.4-2.2-2-3.3c-1-1.7-2.6-2.2-4.3-1.3c-1.6,0.9-3.3,1.8-5.2,2.1
				C17.1,14,14,13.7,11,12.1c-0.5-0.2-0.9-0.5-1.4-0.7c-1.6-0.8-3.2-0.3-4.1,1.2c-0.6,1.1-1.2,2.1-1.9,3.1c-0.2,0.3-0.4,0.5-0.6,0.8
				c1.4-6.4,7.5-11.8,15.1-11.5c7.3,0.2,13.1,5.6,14.4,11.9C32.3,16.6,32,16.4,31.8,16.1z M31.8,11.9C31.8,11.9,31.8,11.9,31.8,11.9
				L31.8,11.9z M32.7,10.5c-0.4,0.2-0.8,0.2-1.2,0.3c-0.4,0.1-0.7-0.1-0.8-0.5c1-0.5,1.5-1.2,1.4-2c-0.1-0.8-0.6-1.4-1.3-1.6
				c-0.9-0.2-1.6,0.1-2.3,1.1c-0.8-0.5-0.8-0.5-0.5-1.3c0.7-2,2.7-2.7,4.4-1.4c1,0.8,1.7,1.8,1.7,3.1C34.2,9.3,33.7,10.1,32.7,10.5z
				"/>
			<path class="st0" d="M30,26.1c0.2-0.4,0.4-0.9,0.6-1.3c0.5-1,1.1-2,1.7-3c0.7-1.3,0.6-2.3-0.4-3.3c-0.3-0.3-0.5-0.6-0.7-1
				c0.4,0.5,1,0.9,1.3,1.5c0.7,1,0.5,2,0,3c-0.5,0.9-1.1,1.9-1.6,2.8c-0.3,0.4-0.5,0.9-0.7,1.4C30.1,26.1,30,26.1,30,26.1z"/>
			<path class="st0" d="M27.4,28.9c-0.4-3.1-1.6-5.8-4.2-7.8C25.4,21.9,27.6,26.1,27.4,28.9z"/>
			<path d="M18.8,27.8c1-0.4,1.7-1.1,1.9-2.2c0.3-1.4-0.6-2.2-1.9-1.8c-0.9,0.3-1.6,0.3-2.5,0c-1.4-0.4-2.5,0.6-2.1,2.1
				c0.2,0.8,0.7,1.3,1.4,1.6C17.3,28.2,18.6,27.8,18.8,27.8z M15.3,25.3c-0.2-0.2-0.5-0.5-0.5-0.6c0-0.2,0.4-0.5,0.5-0.5
				c0.3,0.1,0.5,0.3,0.8,0.5C15.9,24.8,15.7,25,15.3,25.3z"/>
			<path d="M26.3,9.5c-1.8,0.1-3.1,1.2-4.3,2.3c-0.7,0.7-1.5,1.2-2.5,1.3c-0.2,0-0.4,0-0.6-0.1c1.1-0.4,1.9-1.2,2.7-2
				c0.8-0.8,1.7-1.6,2.9-1.8c0.6-0.1,1.2,0,1.8,0C26.3,9.3,26.3,9.4,26.3,9.5z"/>
			<path d="M8.8,9.4c1.3-0.3,2.5-0.2,3.5,0.6c0.6,0.4,1.1,0.9,1.6,1.4c0.7,0.7,1.5,1.4,2.5,1.7c0,0.1,0,0.1,0,0.2
				c-0.5-0.1-1-0.1-1.4-0.3c-0.7-0.3-1.3-0.8-1.8-1.2C11.4,10.1,11.2,10,8.8,9.4z"/>
			<path class="st0" d="M15.3,25.3c-0.2-0.2-0.5-0.5-0.5-0.6c0-0.2,0.4-0.5,0.5-0.5c0.3,0.1,0.5,0.3,0.8,0.5
				C15.9,24.8,15.7,25,15.3,25.3z"/>
		</g>
		<g>
			<path class="st0" d="M26.6,16.5c-0.1,0.2-0.1,0.5-0.2,0.8c-0.1,0.6-0.3,1.3-0.4,1.9c0,0.1-0.1,0.2-0.1,0.3
				c-0.1,0.2-0.3,0.2-0.5,0.1c-0.2-0.1-0.3-0.3-0.2-0.4c0.1-0.5,0.2-1.1,0.3-1.6c0.1-0.4,0.2-0.8,0.3-1.2c0-0.1,0-0.2,0.1-0.2
				c0.1-0.2,0.3-0.2,0.4-0.2C26.5,16.1,26.6,16.3,26.6,16.5z"/>
			<path class="st0" d="M23.9,17.7c0.2,0.2,0.4,0.4,0.6,0.6c0,0,0.1,0.1,0.1,0.1c0.1,0.1,0.1,0.4,0,0.5c-0.1,0.1-0.3,0.2-0.5,0.1
				c-0.1,0-0.1-0.1-0.2-0.1c-0.3-0.3-0.6-0.6-0.9-0.9c-0.2-0.2-0.2-0.5,0-0.7c0.3-0.3,0.6-0.6,0.9-0.9c0.1-0.1,0.2-0.1,0.3-0.2
				c0.2,0,0.3,0,0.4,0.2c0.1,0.1,0.1,0.3-0.1,0.5c-0.2,0.2-0.4,0.4-0.5,0.5C24,17.6,23.9,17.7,23.9,17.7z"/>
			<path class="st0" d="M27.8,17.8c-0.2-0.2-0.4-0.5-0.6-0.7C27.1,17,27,17,27,16.9c-0.1-0.1,0-0.3,0.1-0.4c0.1-0.1,0.3-0.1,0.4-0.1
				c0.1,0,0.2,0.1,0.2,0.1c0.3,0.3,0.6,0.6,0.9,0.9c0.2,0.2,0.2,0.5,0,0.7c-0.3,0.3-0.6,0.6-0.9,0.9c0,0-0.1,0.1-0.1,0.1
				c-0.2,0.1-0.4,0.1-0.5-0.1c-0.1-0.1-0.1-0.4,0-0.5c0.2-0.2,0.4-0.4,0.6-0.6C27.7,17.9,27.8,17.8,27.8,17.8z"/>
		</g>
		<g>
			<path class="st0" d="M11.8,19.5C11.5,19.5,12.1,19.5,11.8,19.5c-0.7,0-1.3,0-2,0c-0.1,0-0.2,0-0.3-0.1c-0.2-0.1-0.3-0.3-0.2-0.4
				c0-0.2,0.2-0.3,0.4-0.3c0.5,0,1.1,0,1.6,0c0.4,0,0,0,0.4,0c0.1,0,0.2,0,0.2,0c0.2,0.1,0.3,0.2,0.3,0.4
				C12.2,19.3,12,19.5,11.8,19.5z"/>
			<path class="st0" d="M8.5,17.7c-0.3-0.3-0.5-0.6-0.8-0.8c-0.1-0.1-0.2-0.2-0.2-0.3c-0.1-0.2,0-0.4,0.1-0.5
				C7.8,15.9,8,15.9,8.1,16c0.1,0,0.2,0.1,0.3,0.2c0.4,0.4,0.7,0.7,1.1,1.1c0.3,0.3,0.3,0.6,0,0.9c-0.4,0.4-0.7,0.7-1.1,1.1
				c-0.1,0.1-0.1,0.1-0.2,0.1c-0.2,0.1-0.5,0.1-0.6-0.1c-0.2-0.2-0.2-0.5,0-0.7c0.2-0.3,0.5-0.5,0.7-0.7C8.4,17.8,8.5,17.7,8.5,17.7
				z"/>
		</g>
		<path d="M21.6,28.3c0,0-1.7,2.7-7.7,1.3c0,0,4.4,4,6.4,0.9L21.6,28.3z"/>
	</g>
	<g id="Letters">
		<path d="M51.7,24.5h-2v6.2h-4.3V11.8h7.5c3.6,0,6.5,2.9,6.5,6.5c0,2.3-1.4,4.4-3.5,5.5l4,6.9h-4.6L51.7,24.5z M49.6,20.7h3.2
			c1.2,0,2.2-1,2.2-2.4s-1-2.4-2.2-2.4h-3.2V20.7z"/>
		<path d="M84.4,26.5v4.1H72.6V11.8h11.7V16h-7.4v3.1h6.7v4.1h-6.7v3.3L84.4,26.5L84.4,26.5z"/>
		<path d="M111.6,25.1c0,3.3-2.7,5.5-6.1,5.5h-7.9V11.8h7.4c3.3,0,5.9,2.1,5.9,5.4c0,1.6-0.6,2.8-1.6,3.7
			C110.7,21.8,111.6,23.2,111.6,25.1z M101.9,15.8v3.3h3.1c1,0,1.6-0.7,1.6-1.7s-0.6-1.7-1.6-1.7C105,15.8,101.9,15.8,101.9,15.8z
			 M107.3,24.8c0-1-0.7-1.8-1.8-1.8h-3.6v3.6h3.6C106.6,26.6,107.3,25.9,107.3,24.8z"/>
		<path d="M133.5,15.6c3.1,0,5.5,2.2,5.5,5.6c0,0.9-0.2,1.7-0.5,2.5c-0.1,0.2-0.1,0.3-0.1,0.5v1.3c0,0.7,0.5,1.2,1.2,1.2h1.4
			c0.4,0,0.8-0.2,1-0.6c0.8-1.4,1.2-3,1.2-4.8c0-5.5-4.4-9.8-9.8-9.8s-9.8,4.3-9.8,9.8c0,4.9,3.5,8.8,8,9.6c0.7,0.1,1.4-0.4,1.4-1.2
			v-1.8c0-0.6-0.4-1-0.9-1.2c-2.4-0.5-4.2-2.6-4.2-5.5C128,17.9,130.4,15.6,133.5,15.6z"/>
		<path d="M200,16h-4.8v14.7h-4.3V16H186v-4.1h14V16z"/>
		<path d="M141.6,27.6l-3.4,0.4c-0.3,0-0.6-0.2-0.6-0.5l-0.4-3.3c-0.1-0.5,0.5-0.8,0.9-0.5l3.8,3C142.3,26.9,142.1,27.6,141.6,27.6z
			"/>
		<path d="M166.2,26.4c-2.9,1-5.9-0.3-7-3.5c-0.3-0.9-0.4-1.7-0.3-2.5c0-0.2,0-0.3-0.1-0.5l-0.4-1.2c-0.2-0.6-0.9-1-1.5-0.7
			l-1.4,0.5c-0.4,0.1-0.7,0.5-0.8,0.9c-0.3,1.6-0.2,3.3,0.4,4.9c1.8,5.2,7.3,7.8,12.4,6.1c5.1-1.8,7.9-7.2,6.1-12.4
			c-1.6-4.7-6.1-7.2-10.7-6.5c-0.7,0.1-1.2,0.9-0.9,1.6l0.6,1.7c0.2,0.5,0.7,0.9,1.2,0.8c2.5-0.3,4.8,1.1,5.8,3.8
			C170.6,22.5,169.1,25.4,166.2,26.4z"/>
		<path d="M154.6,17.7l3.1-1.4c0.3-0.1,0.6,0,0.8,0.3l1.4,3c0.2,0.4-0.2,0.9-0.7,0.8l-4.5-1.6C154.2,18.6,154.1,17.9,154.6,17.7z"/>
	</g>
</g>
<g id="Layer_2" class="st1">
	<image style="display:inline;overflow:visible;" width="200" height="40" id="Layer_2_xA0_Image" xlink:href="DDDBC7E5.png" >
	</image>
</g>
</svg>
