<?xml version="1.0" encoding="utf-8"?>
<!-- Generator: Adobe Illustrator 23.0.5, SVG Export Plug-In . SVG Version: 6.00 Build 0)  -->
<svg version="1.1" id="Layer_1" xmlns="http://www.w3.org/2000/svg" xmlns:xlink="http://www.w3.org/1999/xlink" x="0px" y="0px"
	 viewBox="0 0 1745.28 792" style="enable-background:new 0 0 1745.28 792;" xml:space="preserve">
<style type="text/css">
	.st0{fill:#404040;}
	.st1{fill:#3F3F3F;}
</style>
<g>
	<path class="st0" d="M322.34,225.85c3.05-3.98,7.2-6.37,10.93-9.17c43.61-32.77,90.46-60.1,140.29-82.2
		c37.08-16.45,75.45-29.29,115.23-37.34c16.14-3.27,32.46-5.86,49.1-6.45c10-0.36,20.04-2.17,30.1-1.71
		c34.19,1.54,67.52,6.75,97.48,24.89c35.85,21.71,55.93,53.7,61.43,95.01c4.79,36.01-1.99,70.56-14.1,104.27
		c-12.7,35.36-30.84,67.89-52.6,98.42c-16.36,22.95-34.31,44.59-53.64,65.14c-18.23,19.38-37.37,37.8-57.48,55.14
		c-23.52,20.28-48.76,38.43-73.49,57.2c-14.42,10.95-28.96,21.76-43.27,32.85c-3.41,2.64-4.64,1.7-6.42-1.63
		c-8.61-16.18-17.35-32.3-26.26-48.31c-1.89-3.39-0.71-5.89,0.83-8.7c8.8-16.05,17.59-32.1,26.33-48.18
		c15.62-28.71,31.14-57.47,46.8-86.16c21.72-39.79,43.56-79.52,65.29-119.31c11.68-21.37,23.28-42.79,34.81-64.24
		c1.76-3.27,3.77-4.81,7.74-4.7c11.16,0.31,22.33,0.2,33.49,0.06c3.34-0.04,4.63,1.02,4.97,4.48c1.48,15.15,3.28,30.26,4.94,45.39
		c2.31,21.05,4.6,42.09,6.86,63.14c0.21,1.98-0.03,4.02,0.21,5.99c0.68,5.45,4.01,7.03,8.78,4.27c4.09-2.37,7.33-5.78,10.32-9.3
		c26.98-31.76,43.46-68.23,48.81-109.63c3.09-23.9,0.16-46.79-11.95-67.96c-13.76-24.03-35.38-36.96-61.76-43.06
		c-15.86-3.66-31.98-3.85-47.97-2.59c-24.81,1.96-48.88,7.95-72.38,16.16c-43.58,15.23-84.19,36.34-122.7,61.64
		c-8.86,5.82-17.73,11.62-26.4,17.71c-3.68,2.58-6.91,2.93-11.07,1.05c-15.21-6.87-31.11-10.82-47.88-12.1
		c-24.49-1.87-47.95,2.39-71.13,9.57c-0.95,0.29-1.91,0.57-2.88,0.78C323.43,226.33,323.1,226.1,322.34,225.85z"/>
	<path class="st1" d="M503.74,675.09c-11.76,3.31-21.96-3.43-32.66-12.3c-37.98-31.48-76.72-62.06-115.18-92.96
		c-27.32-21.96-54.65-43.9-82.01-65.81c-2.92-2.34-4.41-5.1-4.3-8.92c0.17-6.16,0.15-12.33,0-18.49c-0.08-3.22,1.32-4.6,4.36-5.36
		c33.55-8.4,62.59-25.29,88.57-47.69c21.37-18.42,38.41-40.21,49.47-66.33c6.45-15.22,9.49-31.06,6.38-47.57
		c-4.52-24.05-25.64-41.97-51.68-44.82c-25.5-2.8-49.43,2.72-72.74,12.39c-8.74,3.63-17.52,7.14-26.29,10.69
		c-0.62,0.25-1.25,0.48-1.9,0.63c-2.63,0.59-6.02,1.27-7.28-1.15c-0.94-1.81,2.42-3.04,4.03-4.32
		c27.35-21.62,57.52-37.62,91.88-44.65c32.26-6.6,63.51-4.2,92.07,13.77c20.47,12.88,33.76,31.63,41.28,54.44
		c6.74,20.43,8.54,41.35,6.47,62.84c-2.08,21.56-7.78,41.74-18.55,60.56c-11.88,20.75-28.63,36.56-48.77,49.02
		c-6.04,3.73-6.16,3.65-2.68,9.63c24.25,41.6,48.51,83.19,72.78,124.77c10.42,17.85,20.87,35.69,31.29,53.55
		c2.54,4.35,0.67,7.89-4.45,8.06C518.02,675.24,512.18,675.09,503.74,675.09z"/>
	<path class="st0" d="M296.06,666.01c38.17,0.25,71.75-5.07,104.87-13.81c3.5-0.92,7.11-1.41,10.58-2.42
		c3.91-1.13,6.29,1.5,8.81,3.4c5.27,3.99,10.25,8.37,15.44,12.48c2.42,1.92,2.23,2.53-0.74,3.65
		c-28.31,10.77-57.28,19.15-87.05,24.75c-17.01,3.2-34.15,5.14-51.43,6.31c-9.14,0.62-18.25,0.97-27.33,0.59
		c-33.39-1.4-65.88-6.98-95.6-23.38c-34.99-19.31-57.1-48.27-65.17-87.69c-2.46-12-4.01-24.15-3.61-36.31
		c1.01-30.55,7.88-59.95,19.3-88.3c15.39-38.22,37.75-71.97,65.04-102.7c17.34-19.52,36.94-36.24,59.59-49.11
		c19.82-11.26,41-19.01,63.87-21.75c18.89-2.26,37.2-1.61,54.1,8.44c4.75,2.82,8.67,6.62,12.38,10.65c1.99,2.16,1.77,3.62-0.98,5.34
		c-23.04,14.39-45.57,29.54-66.85,46.45c-24.25,19.28-47.43,39.72-68.58,62.44c-16.46,17.67-31.7,36.26-44.9,56.47
		c-15.39,23.56-27.77,48.59-31.58,76.72c-4.65,34.39,6.01,66.15,39.35,86.42c17.97,10.93,37.62,16.12,58.07,19.24
		C275.65,665.76,287.74,666.22,296.06,666.01z"/>
	<path class="st0" d="M741.95,675.07c-4.83-0.01-9.66-0.03-14.49,0c-3.12,0.02-5.14-1.22-6.64-4.16
		c-15.98-31.25-32.1-62.42-48.14-93.63c-3.47-6.76-6.63-13.69-10.15-20.42c-1.79-3.43-1.08-5.81,1.81-8.15
		c24.31-19.65,45.52-42.5,66.9-65.17c2.49-2.64,4.82-5.42,7.23-8.13c0.91-1.02,1.93-2.02,3.42-1.5c1.44,0.5,1.74,1.87,1.87,3.23
		c1.01,10.81,1.97,21.62,3.03,32.42c1.61,16.39,3.36,32.77,4.93,49.17c1.13,11.78,1.95,23.59,3.09,35.37
		c1.56,16.06,3.38,32.09,4.91,48.15c0.86,9.02,1.34,18.08,2.08,27.12c0.36,4.38-1.62,5.96-5.87,5.76
		C751.28,674.91,746.61,675.08,741.95,675.07z"/>
	<path class="st1" d="M982.68,329.02c9.37,11.19,14.3,24.05,19.6,36.73c0.87,2.08,0.25,2.71-1.78,2.7c-5-0.02-10-0.09-14.99,0.05
		c-2.18,0.06-2.6-1.15-3.26-2.84c-3.13-7.98-6.2-16.01-9.78-23.8c-5.04-10.96-11.99-14.17-23.82-12.07
		c-2.88,0.51-2.18,2.76-2.49,4.16c-2.3,10.13-4.42,20.31-6.36,30.52c-0.56,2.93-1.51,4.37-4.78,4.1c-3.64-0.29-7.33-0.22-10.98,0
		c-3.47,0.22-3.75-1.34-3.15-4.19c5.98-28.57,11.86-57.16,17.86-85.73c0.4-1.89,0.75-3.93,3.98-3.81
		c16.29,0.59,32.62-0.76,48.91,1.02c10.29,1.12,18.12,8.75,19.12,18.99c1.83,18.85-7.08,30.29-25.92,33.35
		C984.21,328.3,983.63,328.65,982.68,329.02z M949.92,316c1.82,0,3.3,0.01,4.78,0c6.32-0.04,12.67,0.23,18.96-0.21
		c10.51-0.73,16.21-5.21,18.28-13.64c1.37-5.58-1.83-10.19-7.42-11.15c-8.76-1.5-17.58-0.57-26.36-0.9
		c-2.23-0.08-3.12,0.62-3.54,2.97C953.3,300.51,951.62,307.89,949.92,316z"/>
	<path class="st1" d="M1583.98,338.85c0.87-0.87,1.59-1.56,2.27-2.28c2.26-2.37,3.39-7.58,6.1-7.21c3.93,0.54,7.47,3.9,11.2,6.02
		c1.97,1.12,0.5,2.39-0.05,3.24c-1.99,3.06-3.94,6.22-6.42,8.85c-2.41,2.56-2.3,4.18,0.44,6.22c2.12,1.58,3.92,3.59,6.63,6.12
		c-3.43,3.19-6.87,6.19-10.06,9.45c-1.63,1.66-2.99,1.3-4.11-0.1c-5.63-7.07-11.38-5.72-18.86-2.19
		c-11.23,5.3-23.54,5.34-34.55-0.85c-16.45-9.25-17.5-30.94-2.79-44.31c2.97-2.7,6.19-5.19,9.8-6.77c3.89-1.71,3.9-3.59,2.33-7.1
		c-2.38-5.34-3.28-11.04-1.58-16.89c3.11-10.67,9.46-14.77,20.78-16.38c3.86-0.55,8.73-0.99,12.69,0.17
		c11.66,3.41,16.59,14.81,10.94,25.52c-3.62,6.86-9.24,11.68-16,15.08c-3.14,1.58-3.12,2.98-1.36,5.54
		C1575.5,326.97,1579.06,333.37,1583.98,338.85z M1555.39,355.9c4.71,0.41,8.61-1.41,12.51-3.25c2.61-1.24,3.25-2.48,1.17-5.16
		c-4.04-5.2-7.79-10.67-11.34-16.22c-4.4-6.88-4.3-7.01-10.36-1.64c-1.47,1.3-2.86,2.81-3.88,4.48c-2.96,4.84-3.59,10.07-0.69,15.05
		C1545.55,353.88,1549.78,356.62,1555.39,355.9z M1559.71,296.26c0.46,1.56,1.24,4.07,1.91,6.6c0.5,1.93,1.45,2.45,3.23,1.41
		c3.45-2.02,6.99-4.05,9.23-7.43c2.1-3.17,3.07-6.86-0.08-9.96c-3.09-3.04-6.75-2.32-10.07-0.23
		C1560.85,288.58,1559.77,291.69,1559.71,296.26z"/>
	<path class="st1" d="M1298.81,499.04c3.22-14.94,6.59-29.84,9.53-44.83c0.64-3.29,1.93-7.48-2.2-9.93
		c-4.15-2.45-8.03-0.92-11.62,1.4c-7.59,4.91-9.6,13.11-11.57,21.03c-2.46,9.88-4.3,19.92-6.13,29.94c-0.46,2.5-1.28,3.46-3.78,3.37
		c-3.83-0.13-7.66-0.15-11.49,0.02c-2.95,0.13-3.06-0.84-2.47-3.51c3.27-14.6,6.32-29.25,9.3-43.91c1.35-6.64-3.62-10.75-10.18-8.75
		c-7.69,2.34-11.59,8.22-13.4,15.33c-3.04,11.94-5.4,24.04-8.07,36.07c-0.28,1.28-0.75,2.51-1.14,3.77c-5.64,0-11.29,0-16.93,0.01
		c1.77-9.02,3.47-18.05,5.33-27.04c2.47-11.9,5.2-23.75,7.5-35.69c0.57-2.94,1.5-4.09,4.46-3.75c1.97,0.23,3.99,0.05,5.99,0.06
		c6.82,0.02,6.82,0.02,5.95,6.56c2.04,0.22,3.12-1.31,4.5-2.32c6.83-4.99,14.19-7.12,22.75-5.17c5.91,1.35,8.81,5.29,11.25,10.98
		c5.15-5.97,11.32-9.7,18.85-11.31c9.24-1.98,17.7,1.46,20.72,9.1c1.58,3.99,1.13,8.19,0.31,12.22
		c-3.14,15.46-6.47,30.88-9.72,46.31C1310.64,499.01,1304.73,499.02,1298.81,499.04z"/>
	<path class="st1" d="M984.76,499.07c-2.14-5.45-1.76-11.34-2.95-16.97c-0.45-2.14-0.68-3.14-3.18-3.11
		c-10.81,0.14-21.62,0.14-32.43,0.01c-2.27-0.03-3.21,1.1-4.13,2.8c-3.12,5.78-6.32,11.52-9.49,17.27
		c-1.95-0.01-3.93,0.18-5.85-0.05c-4.09-0.51-8.41,1.41-12.29-1.16c5.9-10.64,11.76-21.31,17.72-31.92
		c10.42-18.54,20.98-36.99,31.29-55.59c1.69-3.05,3.6-4.21,7.01-4c4.48,0.27,8.99,0.15,13.48,0.02c2.51-0.07,3.44,0.95,3.83,3.41
		c4.24,26.69,8.6,53.36,12.89,80.04c0.26,1.63,0.18,3.32,0.26,4.98c0.21,3.06-0.93,4.52-4.27,4.32
		C992.7,498.87,988.72,499.06,984.76,499.07z M973.57,427.28c-0.38-0.15-0.76-0.3-1.15-0.45c-6.66,12.16-13.32,24.32-20.32,37.09
		c8.44,0,15.9-0.12,23.36,0.06c2.76,0.07,3.51-0.92,3.12-3.44C976.89,449.45,975.23,438.36,973.57,427.28z"/>
	<path class="st1" d="M1131.34,274.95c-2.16,10.49-4.21,20.48-6.34,30.82c1.69,0.26,2.71-1.02,3.83-1.66
		c18.24-10.53,35.52-3.12,38.42,17.43c2.08,14.77-1.27,28.75-12.31,39.77c-13.21,13.19-30.57,11.93-41.93-2.82
		c-0.24,0.18-0.61,0.32-0.71,0.57c-1.16,2.99-0.04,7.95-2.78,8.88c-4.04,1.37-8.86,0.62-13.34,0.41c-2.82-0.13-1.57-2.49-1.3-3.83
		c2.6-12.93,5.31-25.84,8.01-38.75c3.24-15.49,6.6-30.96,9.67-46.48c0.68-3.44,1.99-4.69,5.51-4.41
		C1122.19,275.2,1126.36,274.95,1131.34,274.95z M1150.57,329.94c0.17-9.39-3.1-14.8-9.73-17.14c-5.76-2.04-11.76,0.46-16.47,7.07
		c-5.7,8-7.09,17.06-5.5,26.48c0.85,5.01,4.12,8.93,9.15,10.27c4.68,1.24,9.12,0.18,12.93-3.33
		C1148.14,346.67,1149.38,337.82,1150.57,329.94z"/>
	<path class="st1" d="M1131.76,237.12c6.35-30.48,12.64-60.53,18.8-90.62c0.46-2.25,1.5-2.61,3.36-2.61
		c20.66,0.02,41.31,0.05,61.97-0.04c2.58-0.01,3.11,0.84,2.67,3.2c-1.29,7-1.23,7.01-8.41,7.01c-14.83,0-29.65,0.17-44.47-0.12
		c-3.82-0.07-5.13,1.29-5.76,4.69c-1.51,8.25-3.25,16.47-4.99,25.15c18.24,0,36.32,0,54.48,0c-2.05,10.27-2.05,10.27-12.17,10.27
		c-13.66,0-27.32,0.05-40.98-0.05c-2.5-0.02-3.93,0.44-4.44,3.25c-1.59,8.76-3.09,17.56-5.34,26.15c-1.03,3.96,0.61,3.58,3.19,3.57
		c16.99-0.05,33.98-0.07,50.97,0.04c1.4,0.01,4.56-1.28,3.94,1.66c-0.61,2.88,1.36,8.22-3.69,8.29
		C1177.94,237.31,1154.98,237.12,1131.76,237.12z"/>
	<path class="st1" d="M1215.74,299.78c26.48-0.87,37.92,21.51,29.4,45.2c-7.92,22.02-27.65,29.29-48.23,23.45
		c-10.92-3.1-17.07-10.98-18.73-22.16c-2.64-17.7,4.45-36.65,22.32-43.91C1205.48,300.34,1210.68,299.54,1215.74,299.78z
		 M1229.88,329.7c0.15-4.03-0.04-7.97-2.62-11.4c-5.39-7.18-16.78-7.33-23.54-0.01c-5.91,6.4-8.03,14.31-7.97,22.88
		c0.05,7.7,3.45,12.84,9.92,15.03c5.9,1.99,12.83-0.48,17.11-6.2C1227.28,343.99,1229.75,337.25,1229.88,329.7z"/>
	<path class="st1" d="M991.89,237.13c-10.66,0-21.31,0.02-31.97-0.02c-1.66-0.01-3.61,0.79-2.87-2.67
		c6.26-29.03,12.35-58.1,18.29-87.2c0.55-2.71,1.33-3.41,3.99-3.39c20.31,0.11,40.63,0.09,60.94,0.03c2.74-0.01,3.44,0.23,2.94,3.56
		c-0.78,5.24-2.54,6.98-8.1,6.81c-15.14-0.48-30.3-0.04-45.45-0.26c-3.25-0.05-4.3,1.18-4.81,4.01c-1.3,7.14-2.28,14.39-4.33,21.31
		c-1.46,4.94,0.76,4.66,4.13,4.64c14.49-0.09,28.98-0.15,43.46,0.1c1.76,0.03,5.51-2.52,5.58,2.14c0.1,6.49-1.13,7.87-6.34,7.88
		c-15.15,0.01-30.31,0.09-45.46-0.06c-3.32-0.03-4.81,0.43-5.37,4.36c-1.18,8.3-3.03,16.55-5.23,24.65c-1.08,3.98,0.41,4,3.42,3.99
		c16.65-0.08,33.3-0.05,49.95-0.01c2,0.01,4.69-0.79,4.96,2.5c0.39,4.73-1.65,7.62-5.26,7.63
		C1013.54,237.15,1002.72,237.13,991.89,237.13z"/>
	<path class="st1" d="M1491.48,470.49c0.49-16.16,6.33-29.42,21.79-36.39c13.91-6.27,35.87-4.7,44.22,10.78
		c10.7,19.85-0.85,53.53-28.95,56.29c-5.34,0.53-10.57,0.55-15.77-0.75C1498.81,496.93,1490.71,485.41,1491.48,470.49z
		 M1543.61,459.71c0.47-6.18-1.65-11.7-7.82-14.39c-6.28-2.73-12.39-1.53-17.39,3.44c-7.44,7.39-9.85,16.53-8.77,26.7
		c0.66,6.22,4.2,10.4,10.21,12c6.14,1.63,11.6-0.25,15.65-5C1540.94,476.09,1543.7,468.56,1543.61,459.71z"/>
	<path class="st1" d="M1117.48,227.18c-2.02,9.96-2.02,9.95-11.73,9.95c-18.99,0-37.99-0.1-56.98,0.08
		c-3.94,0.04-4.64-0.94-3.81-4.77c6.01-27.75,11.84-55.53,17.55-83.34c0.78-3.79,1.88-5.41,6.28-5.33
		c19.15,0.32,38.32,0.09,57.47,0.23c1.54,0.01,5.31-1.76,4.34,2.21c-0.68,2.8,1.69,7.93-4.56,7.89c-15.66-0.09-31.32,0.08-46.98-0.1
		c-4.01-0.05-6.19,0.43-6.74,5.28c-0.76,6.7-2.71,13.26-4.26,19.86c-0.77,3.3-0.63,4.98,3.77,4.89c14.99-0.32,29.99-0.19,44.98-0.01
		c1.49,0.02,4.42-1.88,4.69,1.51c0.42,5.38-1.72,8.52-5.39,8.52c-14.33,0.03-28.66,0.02-42.98,0.01c-7.82,0-7.84-0.01-9.55,7.59
		c-1.6,7.1-3.11,14.21-4.71,21.31c-0.72,3.21,0.36,4.11,3.7,4.08c17.49-0.18,34.99-0.08,52.48-0.07
		C1115.85,226.97,1116.66,227.1,1117.48,227.18z"/>
	<path class="st1" d="M1086.93,330.61c0.72,18.06-11.92,34.01-25.3,37.77c-8.66,2.43-17.32,2.71-25.94-0.13
		c-9.24-3.04-14.88-9.37-17.36-18.79c-4.17-15.83,1.58-34.23,14.53-43.1c12.59-8.63,26.46-9.29,40.03-2.75
		C1083.8,308.88,1087.33,318.95,1086.93,330.61z M1069.53,330.27c0.06-9.42-3.29-14.82-9.44-16.77c-6.35-2.02-14.33,0.69-18.53,6.47
		c-4.53,6.23-6.48,13.46-6.52,20.95c-0.04,6.59,2.43,12.43,9.32,14.99c6.56,2.44,11.9,0.22,16.57-4.6
		C1067.07,344.99,1068.75,337.04,1069.53,330.27z"/>
	<path class="st1" d="M1173.54,501.37c-21.39,0.54-33.34-12.77-32.3-33.5c0.88-17.56,12.68-32.22,26.57-35.42
		c11.69-2.69,22.95-2.58,33.03,5.11c11.76,8.96,12.4,26.76,7.29,39.54C1201.84,492.86,1190.2,501.55,1173.54,501.37z
		 M1193.49,460.91c0.06-8.31-3.14-13.76-8.71-15.86c-6.3-2.37-14.01-0.3-18.39,5.24c-5.23,6.62-7.6,14.33-7.46,22.69
		c0.12,7.2,4.05,12.43,10.19,14.42c5.94,1.92,12.72-0.63,17.07-6.23C1191.07,474.89,1193.17,467.71,1193.49,460.91z"/>
	<path class="st1" d="M1376.79,499.06c-0.55-2-1.1-4-1.76-6.42c-5.44,4.51-10.9,8.21-18.04,8.71c-9.61,0.67-18.28-4.7-20.3-13.09
		c-2.83-11.74,2.12-21.84,12.23-25.53c7.57-2.76,15.53-2.65,23.31-3.88c4.04-0.64,9.33,0.33,10.3-5.93
		c0.78-5.03-2.19-9.05-7.65-9.66c-5.4-0.6-10.33,0.49-13.21,5.8c-0.7,1.3-1.43,2.2-3.04,1.81c-3.76-0.92-7.6-0.91-11.43-0.81
		c-3.11,0.08-3.79-0.99-2.38-3.76c3.54-7,9.04-11.52,16.6-13.63c8.67-2.42,17.29-2.58,25.89,0.24c9.12,3,13.59,11.2,12.06,20.56
		c-2.37,14.43-7.89,28.41-6.51,43.4c-0.34,2.27-2.04,2.19-3.73,2.18C1385.01,499.04,1380.9,499.06,1376.79,499.06z M1361.55,488.07
		c9.72-0.08,17.26-8.23,17.01-17.98c-0.03-1.03,0.01-1.9-1.62-1.6c-6.13,1.11-12.4,1.61-18.25,3.95c-4.44,1.77-6.95,5.8-5.81,9.73
		C1354.15,486.56,1357.31,488.57,1361.55,488.07z"/>
	<path class="st1" d="M1570.41,495.68c3.17-15.7,6.33-31.39,9.51-47.09c0.88-4.36,2-8.69,2.64-13.08c0.37-2.52,1.34-3.45,3.85-3.28
		c2.82,0.18,5.69,0.32,8.48-0.02c4.86-0.58,5.98,1.29,4.24,5.57c-0.24,0.58-0.21,1.28-0.32,2.01c2.11,0.62,3.1-0.97,4.29-1.88
		c4.4-3.38,9.3-5.56,14.72-6.65c15.64-3.15,25.88,6.96,22.69,22.65c-2.85,14.05-6.04,28.04-9,42.07c-0.61,2.88-1.61,4.49-5.1,4.16
		c-4.44-0.41-8.95-0.1-13.64-0.1c3.18-14.77,6.37-29.22,9.37-43.71c0.79-3.82,1.96-7.97-1.85-11.06c-4-3.26-8.12-2-12.11,0.03
		c-7.46,3.8-11.51,10.26-13.32,18.13c-2.55,11.08-4.79,22.24-7.2,33.36c-0.17,0.78-0.63,1.5-0.95,2.25
		c-4.24,0.01-8.49-0.09-12.73,0.07C1571.44,499.2,1570.45,498.04,1570.41,495.68z"/>
	<path class="st1" d="M1056.38,498.85c0.31-2.26,0.62-4.51,0.96-7.02c-3.78,2.43-7.2,5.02-10.96,6.96
		c-7.68,3.97-18.93,3.5-23.65-1.93c-4.68-5.39-5-11.61-3.8-17.77c2.87-14.65,6.49-29.15,9.58-43.77c0.44-2.06,0.9-2.85,3-2.81
		c4.96,0.1,9.93,0.03,15.29,0.03c-3.21,14.41-6.44,28.47-9.42,42.58c-0.93,4.4-2.8,9.5,2.23,12.65c4.9,3.07,9.05,0.48,12.96-2.82
		c6.22-5.25,8.2-12.58,9.99-19.93c2.25-9.25,4.1-18.6,6.1-27.91c0.64-2.99,1.32-5.29,5.53-4.65c4.22,0.64,8.62,0.14,13.16,0.14
		c-4.92,22.06-9.86,44.25-14.81,66.44C1067.17,498.99,1061.78,498.92,1056.38,498.85z"/>
	<path class="st1" d="M960.04,632.26c-10.1,0.07-18.76-1.25-26.45-6.63c-7.77-5.42-9.27-13.54-9.94-22.08
		c-0.09-1.15-0.11-2.38,1.59-2.54c2.64-0.24,5.37-0.49,7.92-0.41c3.61,0.11,1.67,3.94,2.11,5.81c2.97,12.76,9.7,14.84,21.14,16.33
		c8.14,1.06,16.15-0.22,22.6-6.46c7.21-6.98,4.79-17.27-2.67-21.27c-6.83-3.66-13.86-6.83-20.92-9.98
		c-7.65-3.41-15.02-7.53-18.53-15.6c-4.5-10.35-0.06-23.29,10.1-28.17c14.87-7.16,29.97-7.35,44.43,1.49
		c6.34,3.88,9.08,10.23,10.31,17.3c0.49,2.8-0.22,4.53-3.6,4.06c-1.47-0.21-3.01-0.11-4.49,0.11c-1.91,0.28-2.72-0.06-3.37-2.24
		c-3.72-12.51-15.57-18.8-28.76-15.53c-2.86,0.71-5.74,1.33-8.35,2.82c-8.13,4.65-8.95,15.13-1.31,20.6
		c8.11,5.81,17.7,8.77,26.6,13.06c7.69,3.7,14.29,8.27,16.29,17.21c3.33,14.88-7,24.82-16.33,28.87
		C972.24,631.67,965.7,632.52,960.04,632.26z"/>
	<path class="st1" d="M1438.55,370.19c-9.83-0.06-19.22-1.43-26.42-9.14c-0.23-0.24-0.49-0.46-0.69-0.72
		c-2.21-2.89-5.52-6.14-4.5-9.43c0.66-2.1,5.64-1.21,8.51-2.11c5.3-1.66,8.48-0.37,11.75,4.46c4.03,5.97,16.73,6.2,22.33,1.39
		c3.63-3.12,3.19-7.65-1.22-9.5c-6.68-2.81-13.53-5.22-20.29-7.84c-6.25-2.42-10.7-6.35-11.5-13.5c-0.93-8.32,2.22-14.89,9.26-18.89
		c12.26-6.95,25.25-7.15,38.21-1.96c4.95,1.98,8.14,6.05,10.1,11.09c0.79,2.03,0.87,2.91-1.69,3.19c-3.27,0.36-6.48,1.31-9.75,1.8
		c-2.38,0.35-4.32,0.42-6.17-2.32c-3.41-5.05-14.9-6.58-20.15-3.37c-1.95,1.19-3.43,2.89-3.31,5.21c0.12,2.33,1.69,3.96,3.87,4.74
		c4.35,1.54,8.73,2.97,13.11,4.43c1.25,0.42,2.53,0.75,3.77,1.19c12.16,4.26,16.98,9.99,16.37,19.44
		c-0.62,9.66-8.73,18.32-19.22,20.73C1446.83,370.02,1442.73,370.29,1438.55,370.19z"/>
	<path class="st1" d="M1375.82,299.8c16.45-0.77,26.05,9.55,27.29,19.67c0.23,1.85,0.4,2.66-1.81,2.72
		c-2.15,0.06-4.28,0.59-6.42,0.85c-4.65,0.57-8.42,1.18-10.54-5.31c-2.12-6.5-12.67-6.65-18.84-1.08c-7.04,6.37-8.68,15-9.71,23.84
		c-0.15,1.32-0.04,2.66-0.03,4c0.06,4.81,1.63,8.82,6.2,11.04c4.85,2.36,9.04,0.59,12.9-2.41c1.17-0.91,2.64-1.94,3.07-3.22
		c2.15-6.35,6.49-6.01,11.97-5.07c9.75,1.67,9.93,1.61,4.45,10.36c-10.44,16.68-36.01,20.52-48.97,7.38
		c-4.66-4.72-6.71-10.52-7.26-17c-1.62-19.37,7.6-40.33,30.09-45.16C1371.04,299.81,1373.84,300.03,1375.82,299.8z"/>
	<path class="st1" d="M1212.89,600.05c-7.16,0-14.32-0.03-21.48,0.03c-1.21,0.01-3.26-0.74-3.47,0.9
		c-0.76,6.05-0.14,12.09,3.68,17.05c3.42,4.44,8.35,6.67,14,5.69c7.56-1.31,13.16-5.74,17.13-12.26c1.58-2.59,9.73-3.61,11.35-1.22
		c0.84,1.24-0.39,2.74-1.1,3.93c-7.18,11.97-17.15,18.89-31.76,18.07c-11.66-0.65-20.04-6.84-23.13-18.11
		c-3.76-13.7-0.4-26.14,7.33-37.59c6.61-9.79,16.24-14.43,27.81-14.52c14.74-0.11,25.13,10.43,25.52,25.18
		c0.34,12.85,0.34,12.85-12.4,12.85C1221.88,600.05,1217.38,600.05,1212.89,600.05z M1190.24,591.82c12.02,0,23.96,0,35.91,0
		c1.18,0,2.1,0,2.51-1.64c2.06-8.19-4.61-18.21-12.96-19.23C1203.53,569.46,1192.66,578.22,1190.24,591.82z"/>
	<path class="st1" d="M1294.06,277.82c-1.31,6.65-2.08,12.54-3.7,18.18c-1.17,4.09-0.45,5.49,3.82,4.98
		c1.96-0.23,3.97-0.04,6.23-0.04c-0.23,1.14-0.44,2.02-0.59,2.91c-1.56,9.2-1.55,9.36-10.65,10.08c-2.65,0.21-2.92,1.9-3.27,3.49
		c-2.4,10.95-4.71,21.93-6.93,32.92c-0.85,4.2,1.5,6.73,6.49,6.41c4.13-0.27,5.88-0.08,4.51,5c-2.23,8.27-1.82,8.38-10.44,8.42
		c-1.33,0.01-2.66,0.02-3.99-0.03c-11.39-0.41-16.85-7.31-14.54-18.57c2.29-11.14,4.59-22.29,7.18-33.36
		c0.8-3.44,0.09-4.76-3.39-4.17c-4.05,0.69-5-1.15-4.1-4.71c0.36-1.45,0.78-2.9,0.91-4.38c0.26-3,1.53-4.71,4.76-4.01
		c4.27,0.94,6.07-1.15,6.21-5.07c0.15-4.25,2.32-6.8,5.97-8.77C1283.58,284.4,1288.39,281.25,1294.06,277.82z"/>
	<path class="st1" d="M1133.04,410.41c-1.15,5.99-1.89,12.1-3.6,17.93c-1.15,3.93,0.36,4.18,3.38,4.27c7.05,0.19,6.61,0.2,5.55,7.27
		c-0.69,4.59-2.71,6-6.76,5.16c-4.8-1-6.13,1.56-6.9,5.62c-1.75,9.21-4.08,18.31-5.67,27.54c-1.17,6.81-1,10.82,7.52,9.73
		c3.12-0.4,3.61,0.97,3.11,3.66c-1.86,9.97-2.37,10.46-12.61,9.87c-6.5-0.38-13.32-0.73-15.9-8.25c-2.05-5.99-0.42-12.1,0.85-18.07
		c1.78-8.34,3.74-16.64,5.52-24.98c0.7-3.28,0.4-5.92-4.2-5.1c-3.55,0.63-4.47-0.86-3.04-4.15c0.51-1.17,0.54-2.58,0.63-3.9
		c0.25-3.62,1.94-5.1,5.67-4.45c5.68,0.99,5.48-3.89,5.77-6.97c0.31-3.37,1.82-5.04,4.43-6.5c5.32-2.97,10.58-6.06,15.86-9.11
		C1132.79,410.12,1132.91,410.26,1133.04,410.41z"/>
	<path class="st1" d="M1447.25,409.34c-1.48,7.37-2.37,13.38-3.98,19.18c-0.92,3.3-0.3,4.24,2.95,4.05c2.41-0.14,4.84-0.03,7.2-0.03
		c0.45,1.21-0.29,2.04-0.5,2.98c-1.99,8.89-1.96,9.01-10.48,9.49c-2.19,0.12-2.82,1.05-3.19,2.83c-2.39,11.4-4.89,22.78-7.18,34.2
		c-0.78,3.92,1.5,6.15,6.41,5.82c4.79-0.32,5.88,0.74,4.49,5.67c-2.05,7.28-1.6,7.48-9,7.82c-4.3,0.2-8.65,0.21-12.7-1.55
		c-5.41-2.36-8.33-7.98-7.45-13.77c1.83-12.05,4.79-23.85,7.53-35.71c0.93-4.04,0.27-5.98-4.22-5.23c-3.29,0.55-4.12-0.92-3.3-3.89
		c0.35-1.27,0.7-2.57,0.76-3.87c0.18-3.44,1.35-5.48,5.32-4.81c3.46,0.59,5.71-0.41,5.79-4.59c0.1-5.08,2.93-8.25,7.57-10.42
		C1437.71,415.45,1441.77,412.6,1447.25,409.34z"/>
	<path class="st1" d="M1072.03,591.55c-0.27,18.67-9.24,33.05-24.15,38.71c-12.1,4.6-25.66,1.87-33.37-6.85
		c-5.7-6.44-6.52-14.32-5.84-22.39c1.19-14.15,6.27-26.48,18.86-34.17c8.47-5.17,17.88-6.65,27.52-3.05
		C1067.13,568.31,1072.24,576.76,1072.03,591.55z M1036.03,624.03c5.6-0.07,10.1-2.03,14.17-5.97c7.72-7.46,10.7-17.03,11.17-27.26
		c0.36-7.89-1.86-15.17-10.06-18.88c-6.62-2.99-15.32-1.24-21.38,4.95c-9.86,10.08-12.21,22.45-9.22,35.78
		C1022.42,620.25,1028.37,624.13,1036.03,624.03z"/>
	<path class="st1" d="M1279.63,647.42c10.79,1.83,13.17-0.11,19.32-8.82c5.26-7.45,2.27-14.54,1.24-21.66
		c-2.44-16.8-5.56-33.5-8.46-50.22c-0.39-2.23,0.34-2.96,2.56-2.9c7.72,0.21,7.92-0.94,8.7,6.17c1.71,15.57,4.54,31.02,7.02,47.23
		c4.98-5.15,7.16-11.44,10.41-16.98c5.74-9.78,11.43-19.65,16.24-29.9c3.3-7.05,8.36-7.23,15.02-6.08
		c-4.92,8.75-9.72,17.33-14.57,25.9c-10.78,19.07-21.52,38.17-32.43,57.16c-3.3,5.75-8.1,9.81-14.84,11.38
		c-3.11,0.73-5.86-0.16-8.77-0.63c-1.78-0.29-1.41-1.55-1.43-2.63C1279.6,652.78,1279.63,650.13,1279.63,647.42z"/>
	<path class="st1" d="M1136.74,608.05c-5.41,18.45-21.63,28.12-38.07,23.17c-9.48-2.86-14.69-9.79-15.83-18.94
		c-1.71-13.82,1.07-26.96,9.68-38.39c9.3-12.33,28.68-15.58,40.81-6.93c5.27,3.76,7,9.28,8.07,15.24c0.26,1.45-0.38,1.75-1.49,1.85
		c-0.83,0.07-1.74-0.11-2.48,0.16c-4.54,1.69-6.59,0.63-8.01-4.54c-2.63-9.57-16.07-11.82-24.19-4.74
		c-8.09,7.06-10.48,16.58-11.38,26.54c-0.47,5.17-1.03,10.59,1.62,15.6c5.13,9.68,17.22,8.93,24.88,0.54c1.32-1.45,2.68-3.18,3.17-5
		c1.59-5.93,5.23-6.68,10.31-4.75C1134.59,608.14,1135.48,607.98,1136.74,608.05z"/>
	<path class="st1" d="M1277.93,539.39c-1.57,7.67-2.72,14.28-4.33,20.77c-0.73,2.95-0.23,4.06,2.84,3.7
		c0.82-0.1,1.75-0.24,2.48,0.03c1.64,0.61,4.89-1.85,4.75,2.09c-0.11,3.04-0.51,5.96-5,6.07c-7.41,0.18-7.4,0.44-9,7.96
		c-2.56,12.05-5.13,24.1-7.68,36.15c-0.95,4.49,0.73,6.65,5.23,6.77c1.95,0.05,3.91,0.01,6.02,0.01c-0.19,1.6-0.35,3.47-0.64,5.33
		c-0.32,2.01-1.61,3.32-3.55,3.56c-4.63,0.57-9.28,0.6-13.59-1.56c-4.75-2.38-5.92-6.55-4.39-13.74
		c3.13-14.71,6.12-29.46,9.21-44.38c-1.34-0.07-2.6,0.16-3.61-0.24c-1.67-0.68-5.07,1.38-4.85-2.11c0.18-2.81-0.07-7.09,5.27-5.97
		c3.71,0.78,5.92-0.32,5.9-4.73c-0.01-2.39,1.41-4.76,1.55-7.18c0.22-3.72,1.89-6.02,5.19-7.59
		C1272.23,543.12,1274.52,541.46,1277.93,539.39z"/>
	<path class="st1" d="M1307.9,368.48c-8.59,0.02-8.9-0.04-7.21-8.49c3.8-19.07,7.99-38.06,11.86-57.12
		c0.39-1.94,1.28-1.93,2.65-1.93c4.33,0.01,8.66,0.09,12.98-0.03c2.35-0.07,2.71,0.68,2.22,2.93c-4.31,20.17-8.52,40.35-12.69,60.55
		c-0.57,2.75-1.46,4.66-4.82,4.14C1311.26,368.27,1309.56,368.48,1307.9,368.48z"/>
	<path class="st1" d="M1452.78,499c0.85-9,3.54-17.64,5.26-26.47c2.36-12.07,5.16-24.06,7.46-36.14c0.54-2.85,1.41-4.08,4.36-3.84
		c2.48,0.2,4.98,0.02,7.48-0.01c6.48-0.07,6.66-0.03,5.33,6.42c-4,19.45-8.16,38.86-12.28,58.28c-0.13,0.64-0.52,1.22-0.79,1.83
		C1464,499.05,1458.39,499.02,1452.78,499z"/>
	<path class="st1" d="M928.88,237.13c-6.89-0.01-6.8,0.01-5.4-6.61c5.73-27.11,11.41-54.22,17.07-81.34
		c0.33-1.59,0.07-3.85,2.03-4.05c3.26-0.34,6.62-0.17,9.89,0.19c0.86,0.09,0.32,1.81,0.14,2.68c-4.32,20.96-8.67,41.92-13.07,62.87
		c-1.45,6.93-3.49,13.78-4.41,20.77C934.49,236.45,932.67,238.14,928.88,237.13z"/>
	<path class="st0" d="M823.54,617.86c17.88-0.5,31.3,14.73,30.87,31.09c-0.47,17.95-13.04,30.95-31.68,30.9
		c-17.6-0.04-30.63-13.41-30.75-31.36C791.88,631.58,806.29,616.81,823.54,617.86z M823.12,673.94
		c11.98,1.62,25.74-10.04,25.59-25.2c-0.14-14.43-11.07-25.61-25.38-25.65c-14.55-0.04-25.5,10.87-25.85,25.19
		C797.13,662.93,810.37,675.55,823.12,673.94z"/>
	<path class="st1" d="M1145.02,631.06c4.33-21.17,8.55-42.05,13.02-62.87c0.29-1.34-0.55-4.15,2.23-4.26
		c2.96-0.12,5.97-0.08,8.89,0.33c1.03,0.14,0.37,1.65,0.17,2.59c-4.21,19.88-8.56,39.73-12.46,59.67c-0.76,3.9-2.26,4.96-5.8,4.58
		C1149.11,630.89,1147.11,631.06,1145.02,631.06z"/>
	<path class="st1" d="M1324.25,291.06c-9.54,0.02-9.54,0.02-7.43-9.02c1.66-7.1,1.66-7.1,9.26-7.1c10.37,0,9.56-0.1,8.31,9.97
		C1333.44,292.63,1328.81,291.01,1324.25,291.06z"/>
	<path class="st1" d="M1489.41,406.46c-0.92,4.51-1.89,8.84-2.66,13.2c-0.33,1.84-1.24,2.52-3.02,2.49
		c-4.15-0.05-8.3-0.1-12.45,0.01c-2.75,0.07-2.92-1.02-2.22-3.35c1.17-3.89,0.77-9.42,3.29-11.43c2.6-2.07,7.9-0.78,12.01-0.92
		C1485.85,406.41,1487.34,406.46,1489.41,406.46z"/>
	<path class="st1" d="M1162.14,550.07c0.31-1.99,0.47-3.73,0.86-5.41c1.68-7.34,1.92-7.49,9.37-6.76c0.64,0.06,1.69-0.03,1.86,0.31
		c1.61,3.1-0.79,5.94-0.8,9c-0.01,1.47-0.75,3.13-3.12,2.92C1167.7,549.88,1165.05,550.07,1162.14,550.07z"/>
	<path class="st0" d="M827.32,650.9c4.5,3.73,6.7,8.69,9.42,13.41c-6.56,1.62-6.48,1.58-9.61-4.13c-2.03-3.7-3.55-7.9-8.78-8.62
		c-2.41-0.33-3.47-0.06-3.39,2.54c0.09,2.66-0.12,5.33,0.07,7.98c0.17,2.37-0.59,3.13-3.02,3.13c-2.48-0.01-3.51-0.51-3.45-3.28
		c0.17-8.82,0.18-17.64,0-26.46c-0.06-2.82,1.03-3.2,3.45-3.05c4.64,0.28,9.31,0.22,13.96,0.38c5.71,0.19,8.72,2.57,9.63,7.48
		c0.72,3.91-1.95,7.81-6.71,9.79C828.49,650.23,828.12,650.47,827.32,650.9z M819.75,646.85c1.38,0,2.39,0.12,3.37-0.02
		c2.95-0.42,5.61-1.32,5.61-5c0.01-3.52-2.66-4.2-5.35-4.69c-0.97-0.18-1.99-0.02-2.98-0.13c-3.41-0.39-5.62,0.02-5.27,4.53
		C815.41,645.09,815.27,648.04,819.75,646.85z"/>
</g>
</svg>
