<?xml version="1.0" encoding="utf-8"?>
<!-- Generator: Adobe Illustrator 24.0.1, SVG Export Plug-In . SVG Version: 6.00 Build 0)  -->
<svg version="1.1" id="Layer_1" xmlns="http://www.w3.org/2000/svg" xmlns:xlink="http://www.w3.org/1999/xlink" x="0px" y="0px"
	 viewBox="0 0 1745.3 792" style="enable-background:new 0 0 1745.3 792;" xml:space="preserve">
<style type="text/css">
	.st0{fill:#E2E2E2;}
</style>
<g>
	<path class="st0" d="M322.3,225.9c3-4,7.2-6.4,10.9-9.2c43.6-32.8,90.5-60.1,140.3-82.2c37.1-16.4,75.5-29.3,115.2-37.3
		c16.1-3.3,32.5-5.9,49.1-6.4c10-0.4,20-2.2,30.1-1.7c34.2,1.5,67.5,6.8,97.5,24.9c35.8,21.7,55.9,53.7,61.4,95
		c4.8,36-2,70.6-14.1,104.3c-12.7,35.4-30.8,67.9-52.6,98.4c-16.4,23-34.3,44.6-53.6,65.1c-18.2,19.4-37.4,37.8-57.5,55.1
		c-23.5,20.3-48.8,38.4-73.5,57.2c-14.4,11-29,21.8-43.3,32.8c-3.4,2.6-4.6,1.7-6.4-1.6c-8.6-16.2-17.4-32.3-26.3-48.3
		c-1.9-3.4-0.7-5.9,0.8-8.7c8.8-16,17.6-32.1,26.3-48.2c15.6-28.7,31.1-57.5,46.8-86.2c21.7-39.8,43.6-79.5,65.3-119.3
		c11.7-21.4,23.3-42.8,34.8-64.2c1.8-3.3,3.8-4.8,7.7-4.7c11.2,0.3,22.3,0.2,33.5,0.1c3.3,0,4.6,1,5,4.5c1.5,15.1,3.3,30.3,4.9,45.4
		c2.3,21,4.6,42.1,6.9,63.1c0.2,2,0,4,0.2,6c0.7,5.5,4,7,8.8,4.3c4.1-2.4,7.3-5.8,10.3-9.3c27-31.8,43.5-68.2,48.8-109.6
		c3.1-23.9,0.2-46.8-12-68c-13.8-24-35.4-37-61.8-43.1c-15.9-3.7-32-3.9-48-2.6c-24.8,2-48.9,7.9-72.4,16.2
		c-43.6,15.2-84.2,36.3-122.7,61.6c-8.9,5.8-17.7,11.6-26.4,17.7c-3.7,2.6-6.9,2.9-11.1,1.1c-15.2-6.9-31.1-10.8-47.9-12.1
		c-24.5-1.9-48,2.4-71.1,9.6c-1,0.3-1.9,0.6-2.9,0.8C323.4,226.3,323.1,226.1,322.3,225.9z"/>
	<path class="st0" d="M503.7,675.1c-11.8,3.3-22-3.4-32.7-12.3c-38-31.5-76.7-62.1-115.2-93c-27.3-22-54.6-43.9-82-65.8
		c-2.9-2.3-4.4-5.1-4.3-8.9c0.2-6.2,0.1-12.3,0-18.5c-0.1-3.2,1.3-4.6,4.4-5.4c33.5-8.4,62.6-25.3,88.6-47.7
		c21.4-18.4,38.4-40.2,49.5-66.3c6.5-15.2,9.5-31.1,6.4-47.6c-4.5-24-25.6-42-51.7-44.8c-25.5-2.8-49.4,2.7-72.7,12.4
		c-8.7,3.6-17.5,7.1-26.3,10.7c-0.6,0.3-1.3,0.5-1.9,0.6c-2.6,0.6-6,1.3-7.3-1.1c-0.9-1.8,2.4-3,4-4.3
		c27.4-21.6,57.5-37.6,91.9-44.6c32.3-6.6,63.5-4.2,92.1,13.8c20.5,12.9,33.8,31.6,41.3,54.4c6.7,20.4,8.5,41.4,6.5,62.8
		c-2.1,21.6-7.8,41.7-18.5,60.6c-11.9,20.8-28.6,36.6-48.8,49c-6,3.7-6.2,3.6-2.7,9.6c24.3,41.6,48.5,83.2,72.8,124.8
		c10.4,17.8,20.9,35.7,31.3,53.5c2.5,4.3,0.7,7.9-4.5,8.1C518,675.2,512.2,675.1,503.7,675.1z"/>
	<path class="st0" d="M296.1,666c38.2,0.3,71.8-5.1,104.9-13.8c3.5-0.9,7.1-1.4,10.6-2.4c3.9-1.1,6.3,1.5,8.8,3.4
		c5.3,4,10.3,8.4,15.4,12.5c2.4,1.9,2.2,2.5-0.7,3.7c-28.3,10.8-57.3,19.2-87.1,24.8c-17,3.2-34.1,5.1-51.4,6.3
		c-9.1,0.6-18.3,1-27.3,0.6c-33.4-1.4-65.9-7-95.6-23.4c-35-19.3-57.1-48.3-65.2-87.7c-2.5-12-4-24.2-3.6-36.3
		c1-30.5,7.9-60,19.3-88.3c15.4-38.2,37.8-72,65-102.7c17.3-19.5,36.9-36.2,59.6-49.1c19.8-11.3,41-19,63.9-21.8
		c18.9-2.3,37.2-1.6,54.1,8.4c4.8,2.8,8.7,6.6,12.4,10.6c2,2.2,1.8,3.6-1,5.3c-23,14.4-45.6,29.5-66.9,46.5
		c-24.3,19.3-47.4,39.7-68.6,62.4c-16.5,17.7-31.7,36.3-44.9,56.5c-15.4,23.6-27.8,48.6-31.6,76.7c-4.6,34.4,6,66.2,39.3,86.4
		c18,10.9,37.6,16.1,58.1,19.2C275.6,665.8,287.7,666.2,296.1,666z"/>
	<path class="st0" d="M742,675.1c-4.8,0-9.7,0-14.5,0c-3.1,0-5.1-1.2-6.6-4.2c-16-31.3-32.1-62.4-48.1-93.6
		c-3.5-6.8-6.6-13.7-10.2-20.4c-1.8-3.4-1.1-5.8,1.8-8.2c24.3-19.7,45.5-42.5,66.9-65.2c2.5-2.6,4.8-5.4,7.2-8.1
		c0.9-1,1.9-2,3.4-1.5c1.4,0.5,1.7,1.9,1.9,3.2c1,10.8,2,21.6,3,32.4c1.6,16.4,3.4,32.8,4.9,49.2c1.1,11.8,2,23.6,3.1,35.4
		c1.6,16.1,3.4,32.1,4.9,48.2c0.9,9,1.3,18.1,2.1,27.1c0.4,4.4-1.6,6-5.9,5.8C751.3,674.9,746.6,675.1,742,675.1z"/>
	<path class="st0" d="M982.7,329c9.4,11.2,14.3,24,19.6,36.7c0.9,2.1,0.3,2.7-1.8,2.7c-5,0-10-0.1-15,0c-2.2,0.1-2.6-1.1-3.3-2.8
		c-3.1-8-6.2-16-9.8-23.8c-5-11-12-14.2-23.8-12.1c-2.9,0.5-2.2,2.8-2.5,4.2c-2.3,10.1-4.4,20.3-6.4,30.5c-0.6,2.9-1.5,4.4-4.8,4.1
		c-3.6-0.3-7.3-0.2-11,0c-3.5,0.2-3.8-1.3-3.2-4.2c6-28.6,11.9-57.2,17.9-85.7c0.4-1.9,0.8-3.9,4-3.8c16.3,0.6,32.6-0.8,48.9,1
		c10.3,1.1,18.1,8.8,19.1,19c1.8,18.9-7.1,30.3-25.9,33.4C984.2,328.3,983.6,328.6,982.7,329z M949.9,316c1.8,0,3.3,0,4.8,0
		c6.3,0,12.7,0.2,19-0.2c10.5-0.7,16.2-5.2,18.3-13.6c1.4-5.6-1.8-10.2-7.4-11.1c-8.8-1.5-17.6-0.6-26.4-0.9c-2.2-0.1-3.1,0.6-3.5,3
		C953.3,300.5,951.6,307.9,949.9,316z"/>
	<path class="st0" d="M1584,338.9c0.9-0.9,1.6-1.6,2.3-2.3c2.3-2.4,3.4-7.6,6.1-7.2c3.9,0.5,7.5,3.9,11.2,6c2,1.1,0.5,2.4-0.1,3.2
		c-2,3.1-3.9,6.2-6.4,8.9c-2.4,2.6-2.3,4.2,0.4,6.2c2.1,1.6,3.9,3.6,6.6,6.1c-3.4,3.2-6.9,6.2-10.1,9.5c-1.6,1.7-3,1.3-4.1-0.1
		c-5.6-7.1-11.4-5.7-18.9-2.2c-11.2,5.3-23.5,5.3-34.6-0.9c-16.4-9.3-17.5-30.9-2.8-44.3c3-2.7,6.2-5.2,9.8-6.8
		c3.9-1.7,3.9-3.6,2.3-7.1c-2.4-5.3-3.3-11-1.6-16.9c3.1-10.7,9.5-14.8,20.8-16.4c3.9-0.5,8.7-1,12.7,0.2
		c11.7,3.4,16.6,14.8,10.9,25.5c-3.6,6.9-9.2,11.7-16,15.1c-3.1,1.6-3.1,3-1.4,5.5C1575.5,327,1579.1,333.4,1584,338.9z
		 M1555.4,355.9c4.7,0.4,8.6-1.4,12.5-3.3c2.6-1.2,3.3-2.5,1.2-5.2c-4-5.2-7.8-10.7-11.3-16.2c-4.4-6.9-4.3-7-10.4-1.6
		c-1.5,1.3-2.9,2.8-3.9,4.5c-3,4.8-3.6,10.1-0.7,15C1545.6,353.9,1549.8,356.6,1555.4,355.9z M1559.7,296.3c0.5,1.6,1.2,4.1,1.9,6.6
		c0.5,1.9,1.4,2.5,3.2,1.4c3.4-2,7-4,9.2-7.4c2.1-3.2,3.1-6.9-0.1-10c-3.1-3-6.8-2.3-10.1-0.2
		C1560.8,288.6,1559.8,291.7,1559.7,296.3z"/>
	<path class="st0" d="M1298.8,499c3.2-14.9,6.6-29.8,9.5-44.8c0.6-3.3,1.9-7.5-2.2-9.9c-4.2-2.5-8-0.9-11.6,1.4
		c-7.6,4.9-9.6,13.1-11.6,21c-2.5,9.9-4.3,19.9-6.1,29.9c-0.5,2.5-1.3,3.5-3.8,3.4c-3.8-0.1-7.7-0.1-11.5,0
		c-2.9,0.1-3.1-0.8-2.5-3.5c3.3-14.6,6.3-29.3,9.3-43.9c1.3-6.6-3.6-10.8-10.2-8.8c-7.7,2.3-11.6,8.2-13.4,15.3
		c-3,11.9-5.4,24-8.1,36.1c-0.3,1.3-0.8,2.5-1.1,3.8c-5.6,0-11.3,0-16.9,0c1.8-9,3.5-18,5.3-27c2.5-11.9,5.2-23.8,7.5-35.7
		c0.6-2.9,1.5-4.1,4.5-3.8c2,0.2,4,0,6,0.1c6.8,0,6.8,0,5.9,6.6c2,0.2,3.1-1.3,4.5-2.3c6.8-5,14.2-7.1,22.8-5.2
		c5.9,1.4,8.8,5.3,11.3,11c5.2-6,11.3-9.7,18.8-11.3c9.2-2,17.7,1.5,20.7,9.1c1.6,4,1.1,8.2,0.3,12.2c-3.1,15.5-6.5,30.9-9.7,46.3
		C1310.6,499,1304.7,499,1298.8,499z"/>
	<path class="st0" d="M984.8,499.1c-2.1-5.5-1.8-11.3-3-17c-0.5-2.1-0.7-3.1-3.2-3.1c-10.8,0.1-21.6,0.1-32.4,0
		c-2.3,0-3.2,1.1-4.1,2.8c-3.1,5.8-6.3,11.5-9.5,17.3c-2,0-3.9,0.2-5.8,0c-4.1-0.5-8.4,1.4-12.3-1.2c5.9-10.6,11.8-21.3,17.7-31.9
		c10.4-18.5,21-37,31.3-55.6c1.7-3,3.6-4.2,7-4c4.5,0.3,9,0.1,13.5,0c2.5-0.1,3.4,1,3.8,3.4c4.2,26.7,8.6,53.4,12.9,80
		c0.3,1.6,0.2,3.3,0.3,5c0.2,3.1-0.9,4.5-4.3,4.3C992.7,498.9,988.7,499.1,984.8,499.1z M973.6,427.3c-0.4-0.1-0.8-0.3-1.2-0.5
		c-6.7,12.2-13.3,24.3-20.3,37.1c8.4,0,15.9-0.1,23.4,0.1c2.8,0.1,3.5-0.9,3.1-3.4C976.9,449.5,975.2,438.4,973.6,427.3z"/>
	<path class="st0" d="M1131.3,275c-2.2,10.5-4.2,20.5-6.3,30.8c1.7,0.3,2.7-1,3.8-1.7c18.2-10.5,35.5-3.1,38.4,17.4
		c2.1,14.8-1.3,28.8-12.3,39.8c-13.2,13.2-30.6,11.9-41.9-2.8c-0.2,0.2-0.6,0.3-0.7,0.6c-1.2,3,0,8-2.8,8.9c-4,1.4-8.9,0.6-13.3,0.4
		c-2.8-0.1-1.6-2.5-1.3-3.8c2.6-12.9,5.3-25.8,8-38.8c3.2-15.5,6.6-31,9.7-46.5c0.7-3.4,2-4.7,5.5-4.4
		C1122.2,275.2,1126.4,275,1131.3,275z M1150.6,329.9c0.2-9.4-3.1-14.8-9.7-17.1c-5.8-2-11.8,0.5-16.5,7.1c-5.7,8-7.1,17.1-5.5,26.5
		c0.8,5,4.1,8.9,9.2,10.3c4.7,1.2,9.1,0.2,12.9-3.3C1148.1,346.7,1149.4,337.8,1150.6,329.9z"/>
	<path class="st0" d="M1131.8,237.1c6.3-30.5,12.6-60.5,18.8-90.6c0.5-2.3,1.5-2.6,3.4-2.6c20.7,0,41.3,0.1,62,0
		c2.6,0,3.1,0.8,2.7,3.2c-1.3,7-1.2,7-8.4,7c-14.8,0-29.7,0.2-44.5-0.1c-3.8-0.1-5.1,1.3-5.8,4.7c-1.5,8.3-3.3,16.5-5,25.1
		c18.2,0,36.3,0,54.5,0c-2.1,10.3-2.1,10.3-12.2,10.3c-13.7,0-27.3,0.1-41-0.1c-2.5,0-3.9,0.4-4.4,3.3c-1.6,8.8-3.1,17.6-5.3,26.1
		c-1,4,0.6,3.6,3.2,3.6c17-0.1,34-0.1,51,0c1.4,0,4.6-1.3,3.9,1.7c-0.6,2.9,1.4,8.2-3.7,8.3C1177.9,237.3,1155,237.1,1131.8,237.1z"
		/>
	<path class="st0" d="M1215.7,299.8c26.5-0.9,37.9,21.5,29.4,45.2c-7.9,22-27.7,29.3-48.2,23.5c-10.9-3.1-17.1-11-18.7-22.2
		c-2.6-17.7,4.4-36.6,22.3-43.9C1205.5,300.3,1210.7,299.5,1215.7,299.8z M1229.9,329.7c0.2-4,0-8-2.6-11.4
		c-5.4-7.2-16.8-7.3-23.5,0c-5.9,6.4-8,14.3-8,22.9c0.1,7.7,3.4,12.8,9.9,15c5.9,2,12.8-0.5,17.1-6.2
		C1227.3,344,1229.8,337.3,1229.9,329.7z"/>
	<path class="st0" d="M991.9,237.1c-10.7,0-21.3,0-32,0c-1.7,0-3.6,0.8-2.9-2.7c6.3-29,12.3-58.1,18.3-87.2c0.5-2.7,1.3-3.4,4-3.4
		c20.3,0.1,40.6,0.1,60.9,0c2.7,0,3.4,0.2,2.9,3.6c-0.8,5.2-2.5,7-8.1,6.8c-15.1-0.5-30.3,0-45.5-0.3c-3.3-0.1-4.3,1.2-4.8,4
		c-1.3,7.1-2.3,14.4-4.3,21.3c-1.5,4.9,0.8,4.7,4.1,4.6c14.5-0.1,29-0.1,43.5,0.1c1.8,0,5.5-2.5,5.6,2.1c0.1,6.5-1.1,7.9-6.3,7.9
		c-15.2,0-30.3,0.1-45.5-0.1c-3.3,0-4.8,0.4-5.4,4.4c-1.2,8.3-3,16.6-5.2,24.6c-1.1,4,0.4,4,3.4,4c16.7-0.1,33.3-0.1,49.9,0
		c2,0,4.7-0.8,5,2.5c0.4,4.7-1.7,7.6-5.3,7.6C1013.5,237.1,1002.7,237.1,991.9,237.1z"/>
	<path class="st0" d="M1491.5,470.5c0.5-16.2,6.3-29.4,21.8-36.4c13.9-6.3,35.9-4.7,44.2,10.8c10.7,19.9-0.8,53.5-28.9,56.3
		c-5.3,0.5-10.6,0.5-15.8-0.8C1498.8,496.9,1490.7,485.4,1491.5,470.5z M1543.6,459.7c0.5-6.2-1.7-11.7-7.8-14.4
		c-6.3-2.7-12.4-1.5-17.4,3.4c-7.4,7.4-9.8,16.5-8.8,26.7c0.7,6.2,4.2,10.4,10.2,12c6.1,1.6,11.6-0.3,15.7-5
		C1540.9,476.1,1543.7,468.6,1543.6,459.7z"/>
	<path class="st0" d="M1117.5,227.2c-2,10-2,9.9-11.7,9.9c-19,0-38-0.1-57,0.1c-3.9,0-4.6-0.9-3.8-4.8c6-27.8,11.8-55.5,17.6-83.3
		c0.8-3.8,1.9-5.4,6.3-5.3c19.2,0.3,38.3,0.1,57.5,0.2c1.5,0,5.3-1.8,4.3,2.2c-0.7,2.8,1.7,7.9-4.6,7.9c-15.7-0.1-31.3,0.1-47-0.1
		c-4-0.1-6.2,0.4-6.7,5.3c-0.8,6.7-2.7,13.3-4.3,19.9c-0.8,3.3-0.6,5,3.8,4.9c15-0.3,30-0.2,45,0c1.5,0,4.4-1.9,4.7,1.5
		c0.4,5.4-1.7,8.5-5.4,8.5c-14.3,0-28.7,0-43,0c-7.8,0-7.8,0-9.6,7.6c-1.6,7.1-3.1,14.2-4.7,21.3c-0.7,3.2,0.4,4.1,3.7,4.1
		c17.5-0.2,35-0.1,52.5-0.1C1115.8,227,1116.7,227.1,1117.5,227.2z"/>
	<path class="st0" d="M1086.9,330.6c0.7,18.1-11.9,34-25.3,37.8c-8.7,2.4-17.3,2.7-25.9-0.1c-9.2-3-14.9-9.4-17.4-18.8
		c-4.2-15.8,1.6-34.2,14.5-43.1c12.6-8.6,26.5-9.3,40-2.8C1083.8,308.9,1087.3,319,1086.9,330.6z M1069.5,330.3
		c0.1-9.4-3.3-14.8-9.4-16.8c-6.3-2-14.3,0.7-18.5,6.5c-4.5,6.2-6.5,13.5-6.5,21c0,6.6,2.4,12.4,9.3,15c6.6,2.4,11.9,0.2,16.6-4.6
		C1067.1,345,1068.8,337,1069.5,330.3z"/>
	<path class="st0" d="M1173.5,501.4c-21.4,0.5-33.3-12.8-32.3-33.5c0.9-17.6,12.7-32.2,26.6-35.4c11.7-2.7,22.9-2.6,33,5.1
		c11.8,9,12.4,26.8,7.3,39.5C1201.8,492.9,1190.2,501.5,1173.5,501.4z M1193.5,460.9c0.1-8.3-3.1-13.8-8.7-15.9
		c-6.3-2.4-14-0.3-18.4,5.2c-5.2,6.6-7.6,14.3-7.5,22.7c0.1,7.2,4.1,12.4,10.2,14.4c5.9,1.9,12.7-0.6,17.1-6.2
		C1191.1,474.9,1193.2,467.7,1193.5,460.9z"/>
	<path class="st0" d="M1376.8,499.1c-0.6-2-1.1-4-1.8-6.4c-5.4,4.5-10.9,8.2-18,8.7c-9.6,0.7-18.3-4.7-20.3-13.1
		c-2.8-11.7,2.1-21.8,12.2-25.5c7.6-2.8,15.5-2.6,23.3-3.9c4-0.6,9.3,0.3,10.3-5.9c0.8-5-2.2-9-7.7-9.7c-5.4-0.6-10.3,0.5-13.2,5.8
		c-0.7,1.3-1.4,2.2-3,1.8c-3.8-0.9-7.6-0.9-11.4-0.8c-3.1,0.1-3.8-1-2.4-3.8c3.5-7,9-11.5,16.6-13.6c8.7-2.4,17.3-2.6,25.9,0.2
		c9.1,3,13.6,11.2,12.1,20.6c-2.4,14.4-7.9,28.4-6.5,43.4c-0.3,2.3-2,2.2-3.7,2.2C1385,499,1380.9,499.1,1376.8,499.1z
		 M1361.6,488.1c9.7-0.1,17.3-8.2,17-18c0-1,0-1.9-1.6-1.6c-6.1,1.1-12.4,1.6-18.3,4c-4.4,1.8-6.9,5.8-5.8,9.7
		C1354.2,486.6,1357.3,488.6,1361.6,488.1z"/>
	<path class="st0" d="M1570.4,495.7c3.2-15.7,6.3-31.4,9.5-47.1c0.9-4.4,2-8.7,2.6-13.1c0.4-2.5,1.3-3.5,3.8-3.3
		c2.8,0.2,5.7,0.3,8.5,0c4.9-0.6,6,1.3,4.2,5.6c-0.2,0.6-0.2,1.3-0.3,2c2.1,0.6,3.1-1,4.3-1.9c4.4-3.4,9.3-5.6,14.7-6.6
		c15.6-3.1,25.9,7,22.7,22.6c-2.8,14-6,28-9,42.1c-0.6,2.9-1.6,4.5-5.1,4.2c-4.4-0.4-8.9-0.1-13.6-0.1c3.2-14.8,6.4-29.2,9.4-43.7
		c0.8-3.8,2-8-1.8-11.1c-4-3.3-8.1-2-12.1,0c-7.5,3.8-11.5,10.3-13.3,18.1c-2.6,11.1-4.8,22.2-7.2,33.4c-0.2,0.8-0.6,1.5-0.9,2.3
		c-4.2,0-8.5-0.1-12.7,0.1C1571.4,499.2,1570.4,498,1570.4,495.7z"/>
	<path class="st0" d="M1056.4,498.9c0.3-2.3,0.6-4.5,1-7c-3.8,2.4-7.2,5-11,7c-7.7,4-18.9,3.5-23.7-1.9c-4.7-5.4-5-11.6-3.8-17.8
		c2.9-14.6,6.5-29.1,9.6-43.8c0.4-2.1,0.9-2.9,3-2.8c5,0.1,9.9,0,15.3,0c-3.2,14.4-6.4,28.5-9.4,42.6c-0.9,4.4-2.8,9.5,2.2,12.6
		c4.9,3.1,9.1,0.5,13-2.8c6.2-5.3,8.2-12.6,10-19.9c2.3-9.3,4.1-18.6,6.1-27.9c0.6-3,1.3-5.3,5.5-4.6c4.2,0.6,8.6,0.1,13.2,0.1
		c-4.9,22.1-9.9,44.3-14.8,66.4C1067.2,499,1061.8,498.9,1056.4,498.9z"/>
	<path class="st0" d="M960,632.3c-10.1,0.1-18.8-1.3-26.5-6.6c-7.8-5.4-9.3-13.5-9.9-22.1c-0.1-1.2-0.1-2.4,1.6-2.5
		c2.6-0.2,5.4-0.5,7.9-0.4c3.6,0.1,1.7,3.9,2.1,5.8c3,12.8,9.7,14.8,21.1,16.3c8.1,1.1,16.2-0.2,22.6-6.5c7.2-7,4.8-17.3-2.7-21.3
		c-6.8-3.7-13.9-6.8-20.9-10c-7.7-3.4-15-7.5-18.5-15.6c-4.5-10.3-0.1-23.3,10.1-28.2c14.9-7.2,30-7.3,44.4,1.5
		c6.3,3.9,9.1,10.2,10.3,17.3c0.5,2.8-0.2,4.5-3.6,4.1c-1.5-0.2-3-0.1-4.5,0.1c-1.9,0.3-2.7-0.1-3.4-2.2
		c-3.7-12.5-15.6-18.8-28.8-15.5c-2.9,0.7-5.7,1.3-8.3,2.8c-8.1,4.7-9,15.1-1.3,20.6c8.1,5.8,17.7,8.8,26.6,13.1
		c7.7,3.7,14.3,8.3,16.3,17.2c3.3,14.9-7,24.8-16.3,28.9C972.2,631.7,965.7,632.5,960,632.3z"/>
	<path class="st0" d="M1438.6,370.2c-9.8-0.1-19.2-1.4-26.4-9.1c-0.2-0.2-0.5-0.5-0.7-0.7c-2.2-2.9-5.5-6.1-4.5-9.4
		c0.7-2.1,5.6-1.2,8.5-2.1c5.3-1.7,8.5-0.4,11.8,4.5c4,6,16.7,6.2,22.3,1.4c3.6-3.1,3.2-7.6-1.2-9.5c-6.7-2.8-13.5-5.2-20.3-7.8
		c-6.3-2.4-10.7-6.4-11.5-13.5c-0.9-8.3,2.2-14.9,9.3-18.9c12.3-7,25.3-7.1,38.2-2c4.9,2,8.1,6,10.1,11.1c0.8,2,0.9,2.9-1.7,3.2
		c-3.3,0.4-6.5,1.3-9.8,1.8c-2.4,0.4-4.3,0.4-6.2-2.3c-3.4-5-14.9-6.6-20.2-3.4c-1.9,1.2-3.4,2.9-3.3,5.2c0.1,2.3,1.7,4,3.9,4.7
		c4.3,1.5,8.7,3,13.1,4.4c1.3,0.4,2.5,0.8,3.8,1.2c12.2,4.3,17,10,16.4,19.4c-0.6,9.7-8.7,18.3-19.2,20.7
		C1446.8,370,1442.7,370.3,1438.6,370.2z"/>
	<path class="st0" d="M1375.8,299.8c16.4-0.8,26.1,9.5,27.3,19.7c0.2,1.9,0.4,2.7-1.8,2.7c-2.2,0.1-4.3,0.6-6.4,0.9
		c-4.7,0.6-8.4,1.2-10.5-5.3c-2.1-6.5-12.7-6.6-18.8-1.1c-7,6.4-8.7,15-9.7,23.8c-0.2,1.3,0,2.7,0,4c0.1,4.8,1.6,8.8,6.2,11
		c4.8,2.4,9,0.6,12.9-2.4c1.2-0.9,2.6-1.9,3.1-3.2c2.2-6.4,6.5-6,12-5.1c9.8,1.7,9.9,1.6,4.4,10.4c-10.4,16.7-36,20.5-49,7.4
		c-4.7-4.7-6.7-10.5-7.3-17c-1.6-19.4,7.6-40.3,30.1-45.2C1371,299.8,1373.8,300,1375.8,299.8z"/>
	<path class="st0" d="M1212.9,600c-7.2,0-14.3,0-21.5,0c-1.2,0-3.3-0.7-3.5,0.9c-0.8,6-0.1,12.1,3.7,17c3.4,4.4,8.3,6.7,14,5.7
		c7.6-1.3,13.2-5.7,17.1-12.3c1.6-2.6,9.7-3.6,11.3-1.2c0.8,1.2-0.4,2.7-1.1,3.9c-7.2,12-17.2,18.9-31.8,18.1
		c-11.7-0.7-20-6.8-23.1-18.1c-3.8-13.7-0.4-26.1,7.3-37.6c6.6-9.8,16.2-14.4,27.8-14.5c14.7-0.1,25.1,10.4,25.5,25.2
		c0.3,12.8,0.3,12.8-12.4,12.8C1221.9,600,1217.4,600,1212.9,600z M1190.2,591.8c12,0,24,0,35.9,0c1.2,0,2.1,0,2.5-1.6
		c2.1-8.2-4.6-18.2-13-19.2C1203.5,569.5,1192.7,578.2,1190.2,591.8z"/>
	<path class="st0" d="M1294.1,277.8c-1.3,6.6-2.1,12.5-3.7,18.2c-1.2,4.1-0.4,5.5,3.8,5c2-0.2,4,0,6.2,0c-0.2,1.1-0.4,2-0.6,2.9
		c-1.6,9.2-1.6,9.4-10.7,10.1c-2.7,0.2-2.9,1.9-3.3,3.5c-2.4,11-4.7,21.9-6.9,32.9c-0.8,4.2,1.5,6.7,6.5,6.4c4.1-0.3,5.9-0.1,4.5,5
		c-2.2,8.3-1.8,8.4-10.4,8.4c-1.3,0-2.7,0-4,0c-11.4-0.4-16.8-7.3-14.5-18.6c2.3-11.1,4.6-22.3,7.2-33.4c0.8-3.4,0.1-4.8-3.4-4.2
		c-4.1,0.7-5-1.1-4.1-4.7c0.4-1.5,0.8-2.9,0.9-4.4c0.3-3,1.5-4.7,4.8-4c4.3,0.9,6.1-1.1,6.2-5.1c0.2-4.3,2.3-6.8,6-8.8
		C1283.6,284.4,1288.4,281.3,1294.1,277.8z"/>
	<path class="st0" d="M1133,410.4c-1.2,6-1.9,12.1-3.6,17.9c-1.2,3.9,0.4,4.2,3.4,4.3c7.1,0.2,6.6,0.2,5.6,7.3
		c-0.7,4.6-2.7,6-6.8,5.2c-4.8-1-6.1,1.6-6.9,5.6c-1.8,9.2-4.1,18.3-5.7,27.5c-1.2,6.8-1,10.8,7.5,9.7c3.1-0.4,3.6,1,3.1,3.7
		c-1.9,10-2.4,10.5-12.6,9.9c-6.5-0.4-13.3-0.7-15.9-8.3c-2.1-6-0.4-12.1,0.8-18.1c1.8-8.3,3.7-16.6,5.5-25c0.7-3.3,0.4-5.9-4.2-5.1
		c-3.6,0.6-4.5-0.9-3-4.1c0.5-1.2,0.5-2.6,0.6-3.9c0.3-3.6,1.9-5.1,5.7-4.5c5.7,1,5.5-3.9,5.8-7c0.3-3.4,1.8-5,4.4-6.5
		c5.3-3,10.6-6.1,15.9-9.1C1132.8,410.1,1132.9,410.3,1133,410.4z"/>
	<path class="st0" d="M1447.3,409.3c-1.5,7.4-2.4,13.4-4,19.2c-0.9,3.3-0.3,4.2,2.9,4c2.4-0.1,4.8,0,7.2,0c0.4,1.2-0.3,2-0.5,3
		c-2,8.9-2,9-10.5,9.5c-2.2,0.1-2.8,1-3.2,2.8c-2.4,11.4-4.9,22.8-7.2,34.2c-0.8,3.9,1.5,6.1,6.4,5.8c4.8-0.3,5.9,0.7,4.5,5.7
		c-2.1,7.3-1.6,7.5-9,7.8c-4.3,0.2-8.7,0.2-12.7-1.5c-5.4-2.4-8.3-8-7.4-13.8c1.8-12,4.8-23.9,7.5-35.7c0.9-4,0.3-6-4.2-5.2
		c-3.3,0.5-4.1-0.9-3.3-3.9c0.3-1.3,0.7-2.6,0.8-3.9c0.2-3.4,1.3-5.5,5.3-4.8c3.5,0.6,5.7-0.4,5.8-4.6c0.1-5.1,2.9-8.3,7.6-10.4
		C1437.7,415.5,1441.8,412.6,1447.3,409.3z"/>
	<path class="st0" d="M1072,591.5c-0.3,18.7-9.2,33-24.2,38.7c-12.1,4.6-25.7,1.9-33.4-6.8c-5.7-6.4-6.5-14.3-5.8-22.4
		c1.2-14.2,6.3-26.5,18.9-34.2c8.5-5.2,17.9-6.7,27.5-3C1067.1,568.3,1072.2,576.8,1072,591.5z M1036,624c5.6-0.1,10.1-2,14.2-6
		c7.7-7.5,10.7-17,11.2-27.3c0.4-7.9-1.9-15.2-10.1-18.9c-6.6-3-15.3-1.2-21.4,5c-9.9,10.1-12.2,22.5-9.2,35.8
		C1022.4,620.3,1028.4,624.1,1036,624z"/>
	<path class="st0" d="M1279.6,647.4c10.8,1.8,13.2-0.1,19.3-8.8c5.3-7.5,2.3-14.5,1.2-21.7c-2.4-16.8-5.6-33.5-8.5-50.2
		c-0.4-2.2,0.3-3,2.6-2.9c7.7,0.2,7.9-0.9,8.7,6.2c1.7,15.6,4.5,31,7,47.2c5-5.2,7.2-11.4,10.4-17c5.7-9.8,11.4-19.7,16.2-29.9
		c3.3-7,8.4-7.2,15-6.1c-4.9,8.8-9.7,17.3-14.6,25.9c-10.8,19.1-21.5,38.2-32.4,57.2c-3.3,5.8-8.1,9.8-14.8,11.4
		c-3.1,0.7-5.9-0.2-8.8-0.6c-1.8-0.3-1.4-1.5-1.4-2.6C1279.6,652.8,1279.6,650.1,1279.6,647.4z"/>
	<path class="st0" d="M1136.7,608c-5.4,18.5-21.6,28.1-38.1,23.2c-9.5-2.9-14.7-9.8-15.8-18.9c-1.7-13.8,1.1-27,9.7-38.4
		c9.3-12.3,28.7-15.6,40.8-6.9c5.3,3.8,7,9.3,8.1,15.2c0.3,1.5-0.4,1.8-1.5,1.8c-0.8,0.1-1.7-0.1-2.5,0.2c-4.5,1.7-6.6,0.6-8-4.5
		c-2.6-9.6-16.1-11.8-24.2-4.7c-8.1,7.1-10.5,16.6-11.4,26.5c-0.5,5.2-1,10.6,1.6,15.6c5.1,9.7,17.2,8.9,24.9,0.5
		c1.3-1.5,2.7-3.2,3.2-5c1.6-5.9,5.2-6.7,10.3-4.8C1134.6,608.1,1135.5,608,1136.7,608z"/>
	<path class="st0" d="M1277.9,539.4c-1.6,7.7-2.7,14.3-4.3,20.8c-0.7,3-0.2,4.1,2.8,3.7c0.8-0.1,1.8-0.2,2.5,0
		c1.6,0.6,4.9-1.8,4.8,2.1c-0.1,3-0.5,6-5,6.1c-7.4,0.2-7.4,0.4-9,8c-2.6,12-5.1,24.1-7.7,36.2c-0.9,4.5,0.7,6.7,5.2,6.8
		c1.9,0,3.9,0,6,0c-0.2,1.6-0.3,3.5-0.6,5.3c-0.3,2-1.6,3.3-3.6,3.6c-4.6,0.6-9.3,0.6-13.6-1.6c-4.8-2.4-5.9-6.5-4.4-13.7
		c3.1-14.7,6.1-29.5,9.2-44.4c-1.3-0.1-2.6,0.2-3.6-0.2c-1.7-0.7-5.1,1.4-4.8-2.1c0.2-2.8-0.1-7.1,5.3-6c3.7,0.8,5.9-0.3,5.9-4.7
		c0-2.4,1.4-4.8,1.6-7.2c0.2-3.7,1.9-6,5.2-7.6C1272.2,543.1,1274.5,541.5,1277.9,539.4z"/>
	<path class="st0" d="M1307.9,368.5c-8.6,0-8.9,0-7.2-8.5c3.8-19.1,8-38.1,11.9-57.1c0.4-1.9,1.3-1.9,2.7-1.9c4.3,0,8.7,0.1,13,0
		c2.3-0.1,2.7,0.7,2.2,2.9c-4.3,20.2-8.5,40.4-12.7,60.5c-0.6,2.8-1.5,4.7-4.8,4.1C1311.3,368.3,1309.6,368.5,1307.9,368.5z"/>
	<path class="st0" d="M1452.8,499c0.8-9,3.5-17.6,5.3-26.5c2.4-12.1,5.2-24.1,7.5-36.1c0.5-2.9,1.4-4.1,4.4-3.8c2.5,0.2,5,0,7.5,0
		c6.5-0.1,6.7,0,5.3,6.4c-4,19.5-8.2,38.9-12.3,58.3c-0.1,0.6-0.5,1.2-0.8,1.8C1464,499,1458.4,499,1452.8,499z"/>
	<path class="st0" d="M928.9,237.1c-6.9,0-6.8,0-5.4-6.6c5.7-27.1,11.4-54.2,17.1-81.3c0.3-1.6,0.1-3.9,2-4.1
		c3.3-0.3,6.6-0.2,9.9,0.2c0.9,0.1,0.3,1.8,0.1,2.7c-4.3,21-8.7,41.9-13.1,62.9c-1.5,6.9-3.5,13.8-4.4,20.8
		C934.5,236.4,932.7,238.1,928.9,237.1z"/>
	<path class="st0" d="M823.5,617.9c17.9-0.5,31.3,14.7,30.9,31.1c-0.5,18-13,31-31.7,30.9c-17.6,0-30.6-13.4-30.8-31.4
		C791.9,631.6,806.3,616.8,823.5,617.9z M823.1,673.9c12,1.6,25.7-10,25.6-25.2c-0.1-14.4-11.1-25.6-25.4-25.7
		c-14.5,0-25.5,10.9-25.8,25.2C797.1,662.9,810.4,675.5,823.1,673.9z"/>
	<path class="st0" d="M1145,631.1c4.3-21.2,8.6-42,13-62.9c0.3-1.3-0.6-4.2,2.2-4.3c3-0.1,6-0.1,8.9,0.3c1,0.1,0.4,1.7,0.2,2.6
		c-4.2,19.9-8.6,39.7-12.5,59.7c-0.8,3.9-2.3,5-5.8,4.6C1149.1,630.9,1147.1,631.1,1145,631.1z"/>
	<path class="st0" d="M1324.3,291.1c-9.5,0-9.5,0-7.4-9c1.7-7.1,1.7-7.1,9.3-7.1c10.4,0,9.6-0.1,8.3,10
		C1333.4,292.6,1328.8,291,1324.3,291.1z"/>
	<path class="st0" d="M1489.4,406.5c-0.9,4.5-1.9,8.8-2.7,13.2c-0.3,1.8-1.2,2.5-3,2.5c-4.2,0-8.3-0.1-12.4,0
		c-2.8,0.1-2.9-1-2.2-3.4c1.2-3.9,0.8-9.4,3.3-11.4c2.6-2.1,7.9-0.8,12-0.9C1485.8,406.4,1487.3,406.5,1489.4,406.5z"/>
	<path class="st0" d="M1162.1,550.1c0.3-2,0.5-3.7,0.9-5.4c1.7-7.3,1.9-7.5,9.4-6.8c0.6,0.1,1.7,0,1.9,0.3c1.6,3.1-0.8,5.9-0.8,9
		c0,1.5-0.8,3.1-3.1,2.9C1167.7,549.9,1165.1,550.1,1162.1,550.1z"/>
	<path class="st0" d="M827.3,650.9c4.5,3.7,6.7,8.7,9.4,13.4c-6.6,1.6-6.5,1.6-9.6-4.1c-2-3.7-3.5-7.9-8.8-8.6
		c-2.4-0.3-3.5-0.1-3.4,2.5c0.1,2.7-0.1,5.3,0.1,8c0.2,2.4-0.6,3.1-3,3.1c-2.5,0-3.5-0.5-3.5-3.3c0.2-8.8,0.2-17.6,0-26.5
		c-0.1-2.8,1-3.2,3.5-3c4.6,0.3,9.3,0.2,14,0.4c5.7,0.2,8.7,2.6,9.6,7.5c0.7,3.9-2,7.8-6.7,9.8C828.5,650.2,828.1,650.5,827.3,650.9
		z M819.8,646.8c1.4,0,2.4,0.1,3.4,0c3-0.4,5.6-1.3,5.6-5c0-3.5-2.7-4.2-5.3-4.7c-1-0.2-2,0-3-0.1c-3.4-0.4-5.6,0-5.3,4.5
		C815.4,645.1,815.3,648,819.8,646.8z"/>
</g>
</svg>
