<?xml version="1.0" encoding="utf-8"?>
<!-- Generator: Adobe Illustrator 23.0.5, SVG Export Plug-In . SVG Version: 6.00 Build 0)  -->
<svg version="1.1" id="Logo" xmlns="http://www.w3.org/2000/svg" xmlns:xlink="http://www.w3.org/1999/xlink" x="0px" y="0px"
	 viewBox="0 0 720 720" style="enable-background:new 0 0 720 720;" xml:space="preserve">
<style type="text/css">
	.st0{fill:#FFFFFF;}
</style>
<g id="Reboot">
	<g id="Letters">
		<path d="M131.35,588.95h-6.77v20.5h-14.26v-62.38h24.95c11.85,0,21.39,9.53,21.39,21.39c0,7.66-4.63,14.61-11.5,18.09l13.28,22.9
			h-15.33L131.35,588.95z M124.57,576.47h10.69c3.92,0,7.13-3.48,7.13-8.02s-3.21-8.02-7.13-8.02h-10.69V576.47z"/>
		<path d="M239.98,595.72v13.72h-39.21v-62.38h38.76v13.72h-24.51v10.34h22.28v13.55h-22.28v11.05H239.98z"/>
		<path d="M329.98,591.17c0,11.05-9,18.27-20.14,18.27h-26.2v-62.38h24.42c10.87,0,19.69,7.04,19.69,17.82
			c0,5.17-2.05,9.27-5.44,12.21C326.95,580.03,329.98,584.85,329.98,591.17z M297.9,560.43v11.05h10.16c3.21,0,5.44-2.32,5.44-5.52
			c0-3.21-2.14-5.52-5.44-5.52H297.9z M315.72,590.1c0-3.48-2.32-5.97-5.88-5.97H297.9v11.94h11.94
			C313.41,596.07,315.72,593.58,315.72,590.1z"/>
		<path d="M402.52,559.72c10.16,0,18.18,7.4,18.18,18.54c0,3-0.59,5.73-1.64,8.12c-0.23,0.52-0.37,1.08-0.37,1.65v4.18
			c0,2.19,1.78,3.97,3.97,3.97h4.77c1.42,0,2.76-0.75,3.45-1.99c2.59-4.66,4.08-10.07,4.08-15.92c0-18.36-14.53-32.44-32.44-32.44
			c-17.91,0-32.44,14.08-32.44,32.44c0,16.31,11.46,29.23,26.58,31.92c2.42,0.43,4.64-1.46,4.64-3.91v-6.07
			c0-1.83-1.24-3.46-3.03-3.85c-8.06-1.76-13.94-8.55-13.94-18.08C384.34,567.11,392.36,559.72,402.52,559.72z"/>
		<path d="M622.81,560.79h-16.04v48.66h-14.26v-48.66h-16.04v-13.72h46.34V560.79z"/>
		<path d="M429.4,599.42l-11.17,1.22c-1.06,0.12-2.02-0.65-2.14-1.71l-1.21-11.05c-0.18-1.63,1.7-2.67,2.98-1.65l12.49,9.87
			C431.67,597.13,431.06,599.24,429.4,599.42z"/>
		<path d="M510.67,595.33c-9.61,3.31-19.6-1.07-23.22-11.61c-0.98-2.84-1.31-5.61-1.09-8.21c0.05-0.57,0-1.14-0.19-1.68l-1.36-3.96
			c-0.71-2.07-2.97-3.17-5.04-2.46l-4.51,1.55c-1.35,0.46-2.36,1.61-2.61,3.01c-0.94,5.25-0.58,10.85,1.33,16.38
			c5.98,17.36,24.3,25.94,41.23,20.11c16.93-5.83,26.08-23.87,20.11-41.23c-5.31-15.42-20.36-23.91-35.52-21.52
			c-2.43,0.38-3.91,2.89-3.11,5.21l1.98,5.74c0.6,1.73,2.3,2.87,4.12,2.66c8.2-0.96,15.96,3.54,19.07,12.56
			C525.45,582.42,520.28,592.02,510.67,595.33z"/>
		<path d="M472.33,566.54l10.16-4.8c0.97-0.46,2.12-0.04,2.58,0.92l4.74,10.06c0.7,1.48-0.74,3.08-2.28,2.53L472.51,570
			C470.93,569.45,470.81,567.26,472.33,566.54z"/>
	</g>
	<g id="Panda">
		<g>
			<path class="st0" d="M207.97,436.19c10.28-4.47,12.59-13.23,15.04-22.51c5.56-21.04,10.4-42.48,18.33-62.65
				c17.16-43.68,51.05-65.53,97.36-67.42c15.39-0.63,31.23,0.58,46.32,3.64c31.07,6.3,53.19,25.24,67.75,53.23
				c12.36,23.76,18.22,49.55,23.62,75.46c1.83,8.77,5.06,16.15,13.93,19.86C421.89,504.48,296.07,518.15,207.97,436.19z
				 M365.47,384.61c14.98-5.02,24.3-15.11,27.17-30.81c3.61-19.75-8.56-31.8-27.29-25.23c-12.5,4.39-23.38,3.63-35.64-0.11
				c-20.72-6.32-35.52,9.23-30.13,30.39c2.77,10.86,9.66,18.23,19.65,22.61C324.66,383.84,362.41,385.63,365.47,384.61z"/>
			<path class="st0" d="M140.86,224.67C160.42,133.3,248.55,56.53,356.91,59.79c103.74,3.12,186.91,80.23,205.32,170.36
				c-4-5.18-7.27-8.75-9.8-12.79c-9.82-15.72-19.88-31.33-28.97-47.48c-13.66-24.27-37.34-31.91-61.77-18.65
				c-23.56,12.79-47.17,25.25-74.14,29.38c-46.28,7.08-90.89,3.08-132.67-19.91c-6.45-3.55-12.97-6.99-19.51-10.38
				c-22.53-11.67-46.27-4.41-58.99,17.67c-8.71,15.12-17.77,30.04-26.87,44.93C146.99,217.06,143.76,220.77,140.86,224.67z
				 M473.4,122.94c0.12-0.88,0.24-1.75,0.36-2.63c-8.82,0-17.79-1.06-26.41,0.22c-17.23,2.57-30.02,13.39-41.87,25.32
				c-11.46,11.54-22.58,23.54-39,28.91c3.05,0.84,5.91,1.06,8.73,0.8c14.65-1.39,25.88-9.56,36.13-19.11
				C429.11,139.89,447.62,124.91,473.4,122.94z M223.51,121.66c34.01,8.97,36.06,10.42,61.83,32.78
				c7.94,6.89,16.82,13.07,26.15,17.83c6.04,3.08,13.7,2.99,20.63,4.32c0.22-0.85,0.45-1.7,0.67-2.56
				c-14.61-3.92-24.95-13.87-35.38-23.88c-7.45-7.15-14.99-14.43-23.41-20.31C259.21,119.5,242.63,116.69,223.51,121.66z"/>
			<path class="st0" d="M536.86,135.45c14.56-6.95,21.17-16.65,19.9-28.53c-1.18-11.06-8.91-20.48-19.06-23.23
				c-12.81-3.48-22.39,1.04-32.73,15.42c-10.93-6.69-10.98-6.81-7-18.35c10-28.99,37.94-37.96,62.62-19.73
				c14.7,10.86,23.87,25.38,24.88,44.04c0.82,15.27-6.07,26.24-20.17,32.28c-5.45,2.33-11.42,3.47-17.19,4.99
				C542.36,143.85,538.78,141.49,536.86,135.45z"/>
			<path class="st0" d="M160.54,134.86c-2.27,7.47-6.91,8.86-12.99,7c-5.2-1.59-10.6-2.82-15.45-5.16
				c-13.05-6.31-19.45-16.88-18.99-31.57c0.88-28.51,27.74-54.54,54.91-53.07c17.31,0.94,35.5,19.38,34.75,36.49
				c-0.16,3.54-5.11,6.86-8.61,11.22c-8.69-14.28-19.95-20.43-35.07-15.21c-10.18,3.51-15.94,11.34-16.82,22.12
				C141.13,120.46,148.22,129.34,160.54,134.86z"/>
			<path class="st0" d="M182.85,376.43c-9.82-17.62-19.41-35.37-29.56-52.8c-4.52-7.75-9.93-15.03-15.36-22.2
				c-9.88-13.06-12.78-31.5,2.54-46.32c18.94-18.32,32.88-40.69,44.41-64.43c11.27-23.22,22.22-27.87,46.86-19.38
				c22.16,7.64,43.75,17.28,66.33,23.26c50.22,13.31,99.51,8.5,147.33-11.92c11.44-4.89,23.21-9,34.83-13.48
				c0.36,0.98,0.72,1.95,1.09,2.93c-27.78,10.2-54.96,22.68-83.46,30.1c-47.12,12.28-93.67,6.06-138.74-12.03
				c-12.64-5.07-25.43-9.92-38.47-13.79c-12.34-3.67-20.03-0.31-25.67,11.3c-14.1,29.02-32.35,54.89-54.81,78.07
				c-3.66,3.78-5.26,11.7-4.39,17.16c1.05,6.63,4.99,13.2,8.95,18.92C160.82,325.02,172.55,350.38,182.85,376.43z"/>
			<path class="st0" d="M326.83,269.48c-53.08,6.49-82.4,40.41-100.98,88.22C229.78,308.59,280.27,264.86,326.83,269.48z"/>
			<path d="M557.08,40.72c-30.6-12.89-60.9-0.03-72.86,30.94c-1.11,2.89-2.16,5.8-3.17,8.55c-88.37-54.03-175.85-54.11-263.59-0.86
				c-1.6-4.1-2.94-7.95-4.59-11.67c-10.63-23.85-33.15-35.53-58.86-30.6c-26.25,5.03-49.39,28.64-55.35,56.46
				c-6.24,29.14,7.7,52.86,36.22,61.53c3.38,1.03,6.84,1.78,8.95,2.33c-7.34,22.52-14.93,44.29-21.42,66.39
				c-3.04,10.37-2.4,21.95-6.17,31.95c-6.71,17.81-5.74,33.93,4.27,50c2.95,4.74,5.18,10.22,6.43,15.67
				c8.38,36.38,23,69.85,45.44,99.79c59.2,79.01,157.49,111.64,246.53,79.33c81.96-29.74,129.73-90.85,151.64-173.86
				c2.18-8.28,5.56-16.43,9.6-23.99c8.64-16.18,9.19-32.11,1.21-48.6c-1.97-4.07-3.17-8.62-4.11-13.08
				c-1.79-8.53-2.27-17.43-4.85-25.68c-5.95-19-12.83-37.7-19.59-57.24c2.18-0.59,4.38-1.14,6.57-1.74
				c20.58-5.57,36.15-16.46,41.09-38.66C606.82,89.09,586.56,53.14,557.08,40.72z M132.09,136.71
				c-13.05-6.31-19.45-16.88-18.99-31.57c0.88-28.51,27.74-54.54,54.91-53.07c17.31,0.94,35.5,19.38,34.75,36.49
				c-0.16,3.54-5.11,6.86-8.61,11.22c-8.69-14.28-19.95-20.43-35.07-15.21c-10.18,3.51-15.94,11.34-16.82,22.12
				c-1.13,13.77,5.96,22.65,18.28,28.18c-2.27,7.47-6.91,8.86-12.99,7C142.35,140.28,136.94,139.05,132.09,136.71z M194.97,187.68
				c-14.1,29.02-32.35,54.89-54.81,78.07c-3.66,3.78-5.26,11.7-4.39,17.16c1.05,6.63,4.99,13.2,8.95,18.92
				c16.1,23.2,27.83,48.56,38.13,74.61c-9.82-17.62-19.41-35.37-29.56-52.8c-4.52-7.75-9.93-15.03-15.36-22.2
				c-9.88-13.06-12.78-31.5,2.54-46.32c18.94-18.32,32.88-40.69,44.41-64.43c11.27-23.22,22.22-27.87,46.86-19.38
				c22.16,7.64,43.75,17.28,66.33,23.26c50.22,13.31,99.51,8.5,147.33-11.92c11.44-4.89,23.21-9,34.83-13.48
				c0.36,0.98,0.72,1.95,1.09,2.93c-27.78,10.2-54.96,22.68-83.46,30.1c-47.12,12.28-93.67,6.06-138.74-12.03
				c-12.64-5.07-25.43-9.92-38.47-13.79C208.3,172.71,200.61,176.07,194.97,187.68z M489.39,400.98
				c-5.81-44.4-23.41-82.58-60.03-111.94C460.2,300.43,491.99,360.44,489.39,400.98z M326.83,269.48
				c-53.08,6.49-82.4,40.41-100.98,88.22C229.78,308.59,280.27,264.86,326.83,269.48z M207.97,436.19
				c10.28-4.47,12.59-13.23,15.04-22.51c5.56-21.04,10.4-42.48,18.33-62.65c17.16-43.68,51.05-65.53,97.36-67.42
				c15.39-0.63,31.23,0.58,46.32,3.64c31.07,6.3,53.19,25.24,67.75,53.23c12.36,23.76,18.22,49.55,23.62,75.46
				c1.83,8.77,5.06,16.15,13.93,19.86C421.89,504.48,296.07,518.15,207.97,436.19z M561.25,300.94
				c-7.6,13.53-15.65,26.82-23.32,40.32c-3.62,6.37-6.84,12.97-10.24,19.47c-0.59-0.18-1.18-0.36-1.76-0.54
				c2.79-6.08,5.27-12.32,8.42-18.2c7.73-14.39,15.72-28.64,23.69-42.9c10.18-18.22,8.49-32.45-5.51-47.65
				c-3.95-4.29-7.39-9.05-9.99-14.49c6.37,6.89,13.63,13.15,18.9,20.8C571.1,271.79,569.27,286.65,561.25,300.94z M552.43,217.36
				c-9.82-15.72-19.88-31.33-28.97-47.48c-13.66-24.27-37.34-31.91-61.77-18.65c-23.56,12.79-47.17,25.25-74.14,29.38
				c-46.28,7.08-90.89,3.08-132.67-19.91c-6.45-3.55-12.97-6.99-19.51-10.38c-22.53-11.67-46.27-4.41-58.99,17.67
				c-8.71,15.12-17.77,30.04-26.87,44.93c-2.53,4.14-5.75,7.84-8.66,11.75C160.42,133.3,248.55,56.53,356.91,59.79
				c103.74,3.12,186.91,80.23,205.32,170.36C558.22,224.97,554.95,221.4,552.43,217.36z M552.22,158.25
				C552.11,158.36,552.14,158.3,552.22,158.25L552.22,158.25z M565.29,137.34c-5.45,2.33-11.42,3.47-17.19,4.99
				c-5.74,1.52-9.33-0.85-11.24-6.89c14.56-6.95,21.17-16.65,19.9-28.53c-1.18-11.06-8.91-20.48-19.06-23.23
				c-12.81-3.48-22.39,1.04-32.73,15.42c-10.93-6.69-10.98-6.81-7-18.35c10-28.99,37.94-37.96,62.62-19.73
				c14.7,10.86,23.87,25.38,24.88,44.04C586.29,120.33,579.39,131.3,565.29,137.34z"/>
			<path class="st0" d="M525.92,360.19c2.79-6.08,5.27-12.32,8.42-18.2c7.73-14.39,15.72-28.64,23.69-42.9
				c10.18-18.22,8.49-32.45-5.51-47.65c-3.95-4.29-7.39-9.05-9.99-14.49c6.37,6.89,13.63,13.15,18.9,20.8
				c9.67,14.05,7.85,28.91-0.18,43.19c-7.6,13.53-15.65,26.82-23.32,40.32c-3.62,6.37-6.84,12.97-10.24,19.47
				C527.1,360.55,526.51,360.37,525.92,360.19z"/>
			<path class="st0" d="M489.39,400.98c-5.81-44.4-23.41-82.58-60.03-111.94C460.2,300.43,491.99,360.44,489.39,400.98z"/>
			<path d="M365.47,384.61c14.98-5.02,24.3-15.11,27.17-30.81c3.61-19.75-8.56-31.8-27.29-25.23c-12.5,4.39-23.38,3.63-35.64-0.11
				c-20.72-6.32-35.52,9.23-30.13,30.39c2.77,10.86,9.41,18.83,19.65,22.61C344.73,390.88,362.41,385.63,365.47,384.61z
				 M316.39,348.64c-3.12-3.52-7.51-6.52-7.08-8.44c0.67-2.96,5.05-7.56,7.12-7.2c4.14,0.72,7.78,4.33,11.63,6.74
				C324.62,342.37,321.19,344.99,316.39,348.64z"/>
			<path d="M473.4,122.94c-25.77,1.97-44.29,16.95-62.06,33.5c-10.26,9.55-21.48,17.72-36.13,19.11c-2.81,0.27-5.67,0.04-8.73-0.8
				c16.42-5.36,27.54-17.37,39-28.91c11.85-11.93,24.64-22.75,41.87-25.32c8.62-1.29,17.6-0.22,26.41-0.22
				C473.64,121.18,473.52,122.06,473.4,122.94z"/>
			<path d="M223.51,121.66c19.12-4.97,35.7-2.16,50.49,8.18c8.43,5.89,15.96,13.16,23.41,20.31c10.43,10.01,20.77,19.96,35.38,23.88
				c-0.22,0.85-0.45,1.7-0.67,2.56c-6.93-1.33-14.59-1.24-20.63-4.32c-9.34-4.76-18.22-10.94-26.15-17.83
				C259.57,132.07,257.52,130.63,223.51,121.66z"/>
			<path class="st0" d="M316.39,348.64c-3.12-3.52-7.51-6.52-7.08-8.44c0.67-2.96,5.05-7.56,7.12-7.2
				c4.14,0.72,7.78,4.33,11.63,6.74C324.62,342.37,321.19,344.99,316.39,348.64z"/>
		</g>
		<g>
			<path class="st0" d="M477.26,223.73c-0.73,3.41-1.6,7.51-2.49,11.6c-2,9.18-3.98,18.37-6.06,27.53
				c-0.31,1.39-0.86,2.83-1.69,3.97c-1.64,2.25-4.51,2.89-6.81,1.81c-2.27-1.07-3.66-3.73-3.1-6.38c1.61-7.64,3.3-15.27,4.97-22.9
				c1.2-5.52,2.38-11.05,3.65-16.55c0.25-1.09,0.69-2.2,1.31-3.12c1.45-2.18,4.08-3.09,6.33-2.38
				C475.78,218.04,477.28,220.26,477.26,223.73z"/>
			<path class="st0" d="M438.32,241.3c3.06,3.19,5.93,6.17,8.79,9.16c0.66,0.69,1.36,1.35,1.92,2.12c1.52,2.08,1.49,5.06,0,6.95
				c-1.45,1.85-4.21,2.6-6.57,1.59c-1.08-0.46-2.11-1.19-2.96-2.01c-4.26-4.1-8.47-8.26-12.68-12.43
				c-3.44-3.41-3.47-6.74-0.07-10.11c4.24-4.21,8.48-8.45,12.82-12.55c1.06-1,2.48-1.85,3.88-2.23c2.45-0.67,4.73,0.42,5.94,2.4
				c1.26,2.05,1.06,4.89-0.79,6.9c-2.5,2.71-5.2,5.24-7.81,7.84C439.94,239.75,439.07,240.58,438.32,241.3z"/>
			<path class="st0" d="M494.69,241.89c-3.23-3.36-6.32-6.47-9.29-9.69c-0.93-1-1.85-2.17-2.29-3.44c-0.71-2.03-0.34-4.06,1.3-5.63
				c1.68-1.61,3.74-1.94,5.84-1.18c1.15,0.42,2.27,1.18,3.16,2.03c4.32,4.14,8.57,8.35,12.81,12.57c3.41,3.39,3.39,6.69-0.06,10.11
				c-4.2,4.17-8.43,8.31-12.67,12.44c-0.59,0.57-1.23,1.13-1.93,1.54c-2.55,1.51-5.75,1.07-7.5-0.97c-1.75-2.04-1.78-5.34,0.24-7.53
				c2.72-2.94,5.64-5.69,8.49-8.51C493.43,243.01,494.1,242.43,494.69,241.89z"/>
		</g>
		<g>
			<path class="st0" d="M265.68,266.38c-3.49,0,3.79,0.01-0.4-0.01c-9.4-0.04-18.79-0.06-28.19-0.18c-1.42-0.02-2.95-0.25-4.23-0.82
				c-2.55-1.13-3.77-3.81-3.19-6.28c0.57-2.45,2.89-4.35,5.59-4.36c7.81-0.02,15.62,0.04,23.43,0.08c5.65,0.03-0.16,0.03,5.49,0.11
				c1.12,0.02,2.29,0.22,3.33,0.63c2.43,0.96,3.87,3.34,3.65,5.7C270.93,263.75,269.08,265.68,265.68,266.38z"/>
			<path class="st0" d="M219.22,240.35c-4-4.15-7.81-8.01-11.49-11.98c-1.15-1.24-2.29-2.69-2.84-4.25
				c-0.87-2.51-0.43-5.01,1.6-6.96c2.08-1.99,4.63-2.4,7.23-1.46c1.42,0.52,2.8,1.46,3.9,2.51c5.34,5.12,10.6,10.33,15.84,15.54
				c4.22,4.19,4.19,8.27-0.08,12.5c-5.2,5.15-10.43,10.27-15.66,15.39c-0.73,0.71-1.52,1.39-2.38,1.91
				c-3.15,1.87-7.11,1.32-9.27-1.2c-2.16-2.52-2.2-6.61,0.3-9.31c3.36-3.63,6.98-7.04,10.5-10.53
				C217.66,241.74,218.5,241.02,219.22,240.35z"/>
		</g>
		<path d="M405.4,392.13c0,0-24.43,38.44-110.65,19.04c0,0,62.51,57.84,91.25,13.29L405.4,392.13z"/>
	</g>
</g>
</svg>
