<?xml version="1.0" encoding="utf-8"?>
<!-- Generator: Adobe Illustrator 23.0.5, SVG Export Plug-In . SVG Version: 6.00 Build 0)  -->
<svg version="1.1" id="Layer_1" xmlns="http://www.w3.org/2000/svg" xmlns:xlink="http://www.w3.org/1999/xlink" x="0px" y="0px"
	 viewBox="0 0 1205.28 1248.48" style="enable-background:new 0 0 1205.28 1248.48;" xml:space="preserve">
<style type="text/css">
	.st0{fill:#D8A701;}
	.st1{fill:#FEFEFE;}
</style>
<g>
	<path d="M354.72,1093.89c-29.73,0.06-56.57-4.24-82.68-12.82c-13.47-4.43-18.87-7.37-16.64-24.93c0.93-7.3,2.06-14.55,4.37-21.56
		c3.78-11.48,10.67-20.61,20.78-27.29c4.87-3.22,9.63-6.57,14.05-10.41c15.78-13.69,20.72-30.66,15.75-50.78
		c-1.46-5.89-3.36-11.62-5.53-17.28c-6.81-17.7-6.13-35.14,1.97-52.27c9.71-20.54,20.04-40.72,31.96-60.12
		c13.64-22.19,18.86-46.91,19.86-72.7c1.37-35.53-4.29-70.23-12.39-104.61c-4.14-17.58-8.73-35.05-13.24-52.54
		c-1.94-7.52-5.64-14.29-9.75-20.81c-9.58-15.23-18.31-30.86-23.27-48.3c-3.57-12.56-5.42-25.33-3.98-38.39
		c0.68-6.14-0.85-11.76-3.06-17.36c-4.45-11.26-10.21-21.98-14.02-33.51c-0.26-0.77-0.59-1.53-0.78-2.31
		c-4.32-17.6-16.3-25.94-33.57-28.44c-8.19-1.19-16.51-1.51-24.56-3.61c-15.58-4.07-27.14-13.18-34.02-27.79
		c-7.71-16.38-11.38-33.3-5.59-51.19c3.41-10.52,10.01-18.85,18.06-26.19c8.22-7.49,16.88-14.34,26.88-19.37
		c7.44-3.74,12.1-9.93,15.36-17.47c8.8-20.37,19.29-39.82,32.17-57.94c21.15-29.75,46.86-54.4,79.79-70.84
		c24.99-12.47,51.61-18.75,79.43-20.01c47.61-2.17,91.56,10.42,132.77,33.5c8.76,4.9,17.91,7.6,27.76,8.69
		c6.17,0.68,12.11,2.47,17.7,5.22c16.12,7.93,21.57,21.86,20.89,38.7c-0.51,12.69-1.74,25.32-6.15,37.48
		c-2.8,7.73-2.54,15.87-0.7,23.85c1.9,8.24,5.38,15.88,9.7,23.11c2.68,4.49,5.41,5.49,10.32,3.59
		c13.25-5.11,26.43-10.38,39.63-15.61c78.66-31.15,157.44-62.01,235.85-93.82c14.6-5.92,21.09-17.44,24.08-31.92
		c2.11-10.21,1.67-20.69,3.44-30.94c2.22-12.86,7.18-24.3,16.65-33.55c5.14-5.02,8.1-5.41,14.2-1.47
		c13.41,8.67,22.57,20.92,28.3,35.57c12.91,32.94,11.16,64.5-9.93,93.95c-8.21,11.47-17.85,21.53-28.85,30.36
		c-46.79,37.57-94.15,74.4-142.63,109.77c-16.34,11.92-34.43,20.92-51.97,30.84c-14.82,8.38-30.52,14.99-45.5,23
		c-18.32,9.8-23.08,20.55-17.33,40.45c17.23,59.62,34.16,119.33,52.33,178.68c10.15,33.17,19.58,66.57,31.96,99.02
		c7.43,19.47,16.17,38.41,22.83,58.19c10.6,31.45,18.31,63.56,22.81,96.46c4,29.22,5.36,58.57,4.65,88.02
		c-0.23,9.56-0.81,19.11-1.13,28.67c-0.24,7.03,3.1,11.63,9.66,14.18c9.11,3.54,18.52,6.28,27.34,10.54
		c4.19,2.02,8.38,4.07,12.41,6.39c15.3,8.81,21.92,23.17,19.54,40.76c-2.06,15.21-10.56,24.77-25.05,28.48
		c-26.31,6.73-52.76,13.01-79.72,16.63c-28.25,3.8-51.19-14.16-55.43-43.01c-2.01-13.64-2.5-27.42-3.49-41.14
		c-3.18-43.87-18.65-82.3-50.38-113.35c-26.48-25.91-58.21-41.26-95.21-44.89c-32.73-3.21-63.82,2.24-91.76,20.34
		c-16.46,10.67-31.45,23.42-46.46,36.03c-13.76,11.57-27.16,23.58-41.04,34.99c-16.95,13.94-22.13,31.89-19.04,52.88
		c1.87,12.69,5.45,25.07,6.98,37.83c0.98,8.15,1.27,16.32-0.59,24.39c-3.67,15.86-15.35,26.03-32.48,28.49
		C370.24,1093.67,361.38,1093.82,354.72,1093.89z M767.47,656.4c-0.21-1.38-0.3-2.79-0.67-4.13c-2.11-7.71-4.27-15.42-6.45-23.11
		c-4.87-17.19-9.69-34.39-14.66-51.55c-4.35-15.01-9.17-29.9-13.25-44.98c-4.45-16.41-11.57-31.7-18.73-46.98
		c-2.49-5.3-6.69-6.58-12.17-4.34c-1.07,0.44-2.12,0.94-3.12,1.52c-5.82,3.34-12.18,5.26-18.77,5.83
		c-8.39,0.72-15.74-2.62-22.42-7.39c-8.21-5.87-14.03-13.9-19.62-22.12c-2.49-3.66-5.01-7.31-7.81-10.73
		c-2.74-3.35-6.09-3.52-9.43-0.83c-1.27,1.02-2.46,2.16-3.56,3.36c-20.94,22.91-41.75,45.93-62.81,68.74
		c-23.95,25.94-49.47,50.14-78.58,70.36c-17.64,12.25-35.77,22.86-57.83,25.07c-11.86,1.19-23.36,0-34.69-2.92
		c-10.54-2.72-20.6-6.92-30.45-11.56c-3.11-1.47-3.87-1.01-4.5,2.5c-0.18,1.03-0.64,2.07-0.56,3.07c0.65,8.27,1.17,16.51,3.46,24.61
		c4.84,17.1,9.22,34.33,13.82,51.5c4.53,16.92,9.22,33.79,14.61,50.47c2.91,9.01,5.47,18.14,9.14,26.88
		c8.43,20.1,20.68,37.93,33.54,55.35c11.2,15.18,26.13,25.35,44.01,31.11c14.1,4.55,28.84,5.6,43.46,6.33
		c15.68,0.78,31.43,0.82,47.13-1.09c14.02-1.71,27.8-4.31,41.32-8.42c39.52-12.03,71.85-34.81,97.74-66.6
		c23.41-28.75,43.7-59.82,64.84-90.24c3.93-5.65,6.15-12.04,6.91-18.9C768.2,663.6,768.05,660,767.47,656.4z M547.51,146.38
		c-0.61-0.51-0.86-0.77-1.15-0.96c-40.68-25.8-84.73-35.49-132.43-27.64c-33.14,5.46-62.43,19.31-88.24,40.67
		c-26.33,21.79-46.62,48.47-63.26,78.1c-3.64,6.49-7.1,13.08-10.49,19.7c-2,3.91-1.3,5.14,2.99,6.1c3.06,0.69,6.12,1.36,9.18,2.05
		c10.1,2.29,20.1,4.9,29.08,10.33c6.63,4.01,11.06,9.45,11.57,17.59c0.4,6.28-0.92,12.24-2.82,18.1
		c-8.86,27.38-17.05,54.96-24.89,82.64c-1.14,4.02-1.06,7.95,0.65,11.92c3.26,7.57,6.1,15.31,9.39,22.86
		c4.88,11.17,9.3,22.57,15.53,33.08c5.04,8.5,10.28,9.22,17.95,3.07c4.66-3.74,8.91-7.94,12.68-12.53
		c18.04-21.94,39.56-39.38,65.47-51.28c6.81-3.13,13.04-2.68,19.1,1.49c4.31,2.97,7.35,7.06,10.04,11.49
		c2.2,3.62,2.51,7.33,1.73,11.4c-1.7,8.89-5.93,16.28-12.38,22.57c-2.99,2.92-5.77,6.09-6.65,10.45c-1.02,5.1,0.8,8.6,5.19,9.28
		c3,0.47,5.96,0.33,8.79-1.27c7.38-4.2,14.76-8.4,22.3-12.3c16.73-8.67,32.09-20.01,50.05-26.27c-1.87-4.42-5.24-6.77-10.7-5.56
		c-1.57,0.35-3.26,0.22-4.89,0.17c-7.65-0.27-16.08-8-16.83-15.61c-0.49-5.01-0.18-10,0.91-14.95
		c5.72-26.06,33.59-38.18,55.92-34.47c10.45,1.74,19.48,6.69,27.99,12.76c7.11,5.07,13.96,10.54,21.45,15.06
		c7.24,4.37,14.1,4.33,19.78-0.54c5.87-5.03,11.21-10.87,13.92-18.16c9.92-26.74,16.98-54.09,15.67-83
		c-0.48-10.51-2-20.83-4.85-30.96c-1.47-5.23-4.71-8.35-10.16-9.21c-5.63-0.89-11.24-1.91-16.85-2.92
		c-25.06-4.51-50.11-9.07-75.24-13.15c-6.76-1.1-13.5-2.55-19.57-5.97c-7.18-4.04-8.92-9.02-5.95-16.7
		c1.14-2.94,2.77-5.63,4.58-8.22c6.76-9.64,14.97-17.9,24.18-25.15C526.52,162.37,536.95,154.5,547.51,146.38z"/>
	<path class="st0" d="M767.35,667.18c-0.76,6.87-2.98,13.25-6.91,18.9c-21.14,30.42-41.43,61.49-64.84,90.24
		c-25.89,31.79-58.22,54.57-97.74,66.6c-13.51,4.11-27.3,6.71-41.32,8.42c-15.7,1.91-31.45,1.87-47.13,1.09
		c-14.62-0.73-29.36-1.78-43.46-6.33c-17.88-5.76-32.8-15.94-44.01-31.11c-12.86-17.42-25.11-35.24-33.54-55.35
		c-3.67-8.74-6.23-17.87-9.14-26.88c-5.39-16.68-10.08-33.55-14.61-50.47c-4.6-17.17-8.99-34.4-13.82-51.5
		c-2.29-8.1-2.81-16.34-3.46-24.61c-0.08-1,0.37-2.04,0.56-3.07c0.63-3.51,1.39-3.96,4.5-2.5c9.85,4.64,19.92,8.85,30.45,11.56
		c11.34,2.92,22.84,4.11,34.69,2.92c22.06-2.21,40.19-12.81,57.83-25.07c29.12-20.22,54.63-44.42,78.58-70.36
		c21.05-22.8,41.87-45.83,62.81-68.74c1.1-1.2,2.29-2.34,3.56-3.36c3.33-2.69,6.69-2.52,9.43,0.83c2.8,3.42,5.32,7.07,7.81,10.73
		c5.6,8.22,11.41,16.25,19.62,22.12c6.69,4.77,14.04,8.12,22.42,7.39c6.59-0.57,12.94-2.49,18.77-5.83c1-0.58,2.05-1.08,3.12-1.52
		c5.48-2.24,9.68-0.96,12.17,4.34c7.16,15.28,14.28,30.57,18.73,46.98c4.09,15.08,8.9,29.97,13.25,44.98
		c4.97,17.16,9.8,34.36,14.66,51.55c2.18,7.7,4.34,15.4,6.45,23.11c0.37,1.34,0.45,2.75,0.67,4.13
		C767.44,660,767.4,663.59,767.35,667.18z"/>
	<path class="st1" d="M547.51,146.38c-10.57,8.12-20.99,15.99-31.26,24.07c-9.21,7.25-17.43,15.51-24.18,25.15
		c-1.81,2.58-3.44,5.27-4.58,8.22c-2.98,7.68-1.23,12.65,5.95,16.7c6.07,3.42,12.81,4.88,19.57,5.97
		c25.14,4.08,50.19,8.64,75.24,13.15c5.61,1.01,11.22,2.03,16.85,2.92c5.45,0.86,8.69,3.98,10.16,9.21
		c2.85,10.13,4.37,20.44,4.85,30.96c1.31,28.91-5.75,56.26-15.67,83c-2.71,7.29-8.05,13.13-13.92,18.16
		c-5.68,4.87-12.55,4.91-19.78,0.54c-7.49-4.52-14.34-9.99-21.45-15.06c-8.51-6.07-17.54-11.02-27.99-12.76
		c-22.33-3.71-50.2,8.41-55.92,34.47c-1.08,4.95-1.4,9.94-0.91,14.95c0.75,7.61,9.18,15.35,16.83,15.61
		c1.63,0.06,3.32,0.18,4.89-0.17c5.46-1.21,8.83,1.14,10.7,5.56c-17.96,6.26-33.32,17.6-50.05,26.27
		c-7.53,3.91-14.92,8.11-22.3,12.3c-2.83,1.61-5.79,1.74-8.79,1.27c-4.4-0.69-6.22-4.18-5.19-9.28c0.87-4.36,3.66-7.53,6.65-10.45
		c6.45-6.29,10.68-13.68,12.38-22.57c0.78-4.06,0.47-7.77-1.73-11.4c-2.7-4.44-5.73-8.52-10.04-11.49
		c-6.06-4.17-12.29-4.62-19.1-1.49c-25.92,11.91-47.43,29.34-65.47,51.28c-3.78,4.59-8.02,8.79-12.68,12.53
		c-7.67,6.15-12.91,5.43-17.95-3.07c-6.23-10.51-10.65-21.92-15.53-33.08c-3.3-7.55-6.14-15.29-9.39-22.86
		c-1.71-3.97-1.79-7.9-0.65-11.92c7.85-27.68,16.03-55.27,24.89-82.64c1.9-5.86,3.21-11.83,2.82-18.1
		c-0.51-8.14-4.94-13.58-11.57-17.59c-8.98-5.43-18.98-8.04-29.08-10.33c-3.06-0.69-6.12-1.36-9.18-2.05
		c-4.28-0.97-4.99-2.19-2.99-6.1c3.39-6.62,6.84-13.22,10.49-19.7c16.64-29.63,36.94-56.31,63.26-78.1
		c25.81-21.36,55.1-35.22,88.24-40.67c47.69-7.85,91.75,1.84,132.43,27.64C546.66,145.61,546.9,145.87,547.51,146.38z"/>
</g>
</svg>
