<?xml version="1.0" encoding="utf-8"?>
<!-- Generator: Adobe Illustrator 23.0.5, SVG Export Plug-In . SVG Version: 6.00 Build 0)  -->
<svg version="1.1" id="Layer_1" xmlns="http://www.w3.org/2000/svg" xmlns:xlink="http://www.w3.org/1999/xlink" x="0px" y="0px"
	 viewBox="0 0 400 400" style="enable-background:new 0 0 400 400;" xml:space="preserve">
<style type="text/css">
	.st0{fill:#FFFFFF;}
</style>
<g>
	<path d="M215.64,341.79c-11.11,1.86-22.1,2.29-33.35,0.91c-0.34,2.98-0.72,5.88-1,8.78c-0.76,7.85-1.66,15.68-4.22,23.21
		c-1.28,3.79-2.87,7.4-6.61,9.44c-4.05,2.21-7.89,1.21-11.42-1.19c-5.32-3.62-7.93-9.01-9.65-15.05
		c-3.17-11.17-4.23-22.59-4.43-34.13c-0.07-3.84-0.01-7.68-0.06-11.52c-0.01-0.65-0.15-1.39-0.49-1.92
		c-5.28-8.31-8.11-17.51-9.59-27.14c-2.33-15.21-2.04-30.41,1.02-45.49c3.43-16.94,7.5-33.72,13.47-49.98
		c0.09-0.24,0.13-0.51,0.19-0.76c-3.71-1.02-7.48-1.8-11.05-3.11c-3.98-1.45-7.93-3.12-11.63-5.16c-5.45-3.02-9.1-7.86-11.9-13.34
		c-3.69-7.2-5.55-14.94-6.57-22.9c-1.77-13.77-1.39-27.52,1.01-41.16c1.68-9.56,4.93-18.66,9.43-27.29
		c0.46-0.89,0.91-1.78,1.36-2.67c0.06-0.13,0.06-0.29,0.12-0.58c-1.49-0.11-2.94-0.12-4.37-0.34c-8.41-1.27-15.29-5.39-20.95-11.59
		c-4.85-5.31-8.12-11.48-9.14-18.69c-0.66-4.69,0.44-9.15,2.49-13.29c4.35-8.81,10.98-15.24,20.51-18.19
		c6.79-2.1,13.29-1.07,19.38,2.58c6.99,4.19,11.65,10.37,14.84,17.7c1.61,3.69,2.84,7.54,4.27,11.4c1.29-0.78,2.81-1.77,4.38-2.65
		c15.83-8.92,32.74-13.57,50.99-12.79c3.09,0.13,6.17,0.6,9.26,0.91c1.25,0.13,2.28,0.48,2.77,1.86c0.25,0.71,0.89,1.27,1.47,2.05
		c-3.01-0.42-5.86-0.88-8.72-1.22c-10.09-1.17-20.04-0.37-29.87,2.19c-8.12,2.11-15.94,5-23.25,9.14
		c-9.77,5.53-17.65,13.17-24.31,22.13c-8.4,11.3-14.13,23.85-17.02,37.61c-2.67,12.69-3.13,25.55-1.92,38.45
		c0.7,7.4,2.05,14.65,4.77,21.62c3.55,9.12,9.4,15.88,18.75,19.44c7.51,2.86,15.2,4.79,23.16,5.78c13.84,1.72,27.72,1.44,41.59,0.89
		c12.13-0.48,24.28-1,36.38-1.94c10.45-0.82,20.32-3.84,29.02-9.98c6.08-4.29,10.81-9.8,14.29-16.36
		c4.62-8.71,6.64-18.11,7.02-27.87c0.62-15.96-2.66-31.22-8.68-45.94c-2.93-7.17-6.49-14-10.88-20.4c-0.35-0.51-0.64-1.06-1.14-1.88
		c1.26,0,2.27-0.02,3.29,0.01c0.23,0.01,0.58,0.12,0.66,0.29c0.82,1.67,2.46,1.48,3.85,1.59c6.78,0.51,12.59-1.87,17.61-6.3
		c3.82-3.37,6.86-7.39,7.62-12.53c0.38-2.57,0.27-5.44-0.46-7.92c-1.86-6.3-5.8-11.17-11.72-14.18c-6.59-3.36-14.42-1.93-20.04,3.56
		c-0.94,0.92-1.83,1.51-3.15,1.32c-0.31-0.04-0.63,0.02-0.94,0.04c-3.77,0.17-3.78,0.18-5.49-3.06c-0.15-0.28-0.08-0.81,0.1-1.09
		c3.07-4.79,6.78-9,11.72-11.9c7.79-4.58,15.91-4.92,23.94-0.78c8.8,4.53,14.84,11.55,17.73,21.14c1.98,6.57,0.54,12.72-2.46,18.58
		c-5.01,9.78-12.7,16.51-23.37,19.51c-2.44,0.69-5.08,0.7-7.62,1c-0.5,0.06-1,0.01-1.74,0.01c0.97,2,1.84,3.78,2.69,5.56
		c6.27,13.11,10.19,26.87,11.4,41.38c0.96,11.55,0.13,22.89-3.8,33.89c-3.78,10.56-10.12,19.2-19.4,25.55
		c-5.06,3.47-10.64,5.91-16.56,7.55c-0.56,0.15-1.11,0.3-1.67,0.46c-0.09,0.03-0.15,0.13-0.32,0.28c0.68,2.08,1.34,4.23,2.07,6.35
		c4.34,12.64,7.43,25.62,9.86,38.73c1.57,8.5,2.85,17.09,3.65,25.7c1.41,15.01,0.32,29.85-4.95,44.13
		c-1.07,2.89-2.69,5.57-3.99,8.38c-0.38,0.82-0.75,1.75-0.75,2.64c-0.02,10.79,0.01,21.58-1.47,32.29
		c-1.01,7.29-2.31,14.56-5.63,21.22c-2.02,4.05-4.91,7.47-9.18,9.42c-5.4,2.46-10.52,0.85-13.55-4.28
		c-2.41-4.09-3.69-8.61-4.4-13.23c-1.13-7.32-1.94-14.68-2.88-22.03C215.89,343.74,215.78,342.86,215.64,341.79z M147.78,212.31
		c-0.12,0.32-0.27,0.64-0.37,0.97c-3.86,13-7.03,26.17-9.42,39.51c-1.85,10.35-2.01,20.82-1.19,31.29
		c0.84,10.66,2.95,21.01,7.91,30.61c3.87,7.48,9.14,13.71,16.47,18.04c6.82,4.02,14.29,6.01,22.06,6.99
		c9.4,1.18,18.8,0.98,28.16-0.36c8.37-1.19,16.42-3.46,23.87-7.62c8.94-4.99,15.65-11.99,19.38-21.62
		c2.92-7.54,4.52-15.41,5.2-23.46c1-11.76,0.33-23.49-1.71-35.04c-2.08-11.78-4.93-23.43-7.51-35.12c-0.52-2.37-1.35-4.67-2.11-7.27
		c-0.37,4.25-0.51,8.18-1.09,12.04c-2.22,14.73-7.87,28.16-15.96,40.6c-3.82,5.88-7.89,11.56-13.46,15.96
		c-4.77,3.77-9.97,6.24-16.29,5.25c-0.42-0.07-0.92,0.12-1.34,0.3c-5.18,2.2-10.26,1.82-15.23-0.62c-3.77-1.85-7.03-4.44-9.87-7.5
		c-9.63-10.38-16.8-22.3-21.77-35.53C150.22,230.94,148.16,221.84,147.78,212.31z M198.27,247.17c0.27-0.38,0.39-0.54,0.5-0.71
		c3.92-6.34,7.98-12.6,11.73-19.05c4.27-7.34,8.33-14.81,12.34-22.3c1.17-2.18,1.88-4.61,2.78-6.87
		c-18.67,0.43-37.14,0.85-55.68,1.27C176.59,216.81,188.25,231.37,198.27,247.17z M117.08,30.58c-3.04-0.01-5.32,0.56-9.22,3.32
		c-5.61,3.97-9.17,9.35-9.91,16.31c-0.61,5.64,1.87,10.26,5.45,14.29c5.25,5.92,11.77,9.21,19.87,8.82c1.28-0.06,2.21-0.44,3-1.59
		c3.95-5.74,8.6-10.88,13.75-15.57c0.43-0.39,0.76-1.29,0.63-1.84c-1.59-7.14-4.73-13.5-10.18-18.47
		C126.96,32.63,122.82,30.52,117.08,30.58z"/>
	<path d="M146.89,152.15c-3.07-0.24-6.84-0.05-10.33-1.7c-3.9-1.85-6.02-4.92-6.45-9.19c-0.78-7.76,1.68-14.62,6.04-20.87
		c3.92-5.61,8.91-10.01,15.23-12.81c5.01-2.22,9.81-1.71,14.51,0.84c6.99,3.8,10.29,10.08,11.58,17.61
		c1.76,10.25-3.6,17.97-12.28,22.22C159.08,151.25,154.24,152.15,146.89,152.15z M144.36,129.64c-1.63,0.46-2.78-0.16-3.96-0.88
		c-0.41-0.25-1.08-0.06-1.63-0.08c0.19,0.58,0.22,1.34,0.61,1.68c0.68,0.58,1.58,0.9,2.39,1.33c-0.04,0.18-0.08,0.37-0.13,0.55
		c-1.2-0.24-2.4-0.54-3.62-0.69c-0.47-0.06-0.98,0.22-1.48,0.35c0.18,0.44,0.25,0.99,0.56,1.3c0.35,0.35,0.9,0.61,1.39,0.67
		c2.62,0.32,5.11,0.43,7.47-1.35c3.07-2.32,6.57-2.66,10.11-1c1.13,0.53,2.14,1.29,3.19,1.98c0.83,0.55,1.74,0.59,2.2-0.25
		c0.3-0.54,0.3-1.76-0.07-2.07c-3.14-2.64-6.64-4.39-10.94-3.76c-1.71,0.25-3.41,1.17-5.16,0.17c-0.82-0.47-1.6-0.99-2.46-1.37
		c-0.4-0.18-0.93-0.07-1.39-0.09c0.05,0.52-0.09,1.23,0.19,1.51C142.38,128.38,143.31,128.9,144.36,129.64z"/>
	<path d="M252.09,152.08c-8.27,0.28-15.57-0.84-22.21-4.76c-10.71-6.31-13.11-16.41-8.9-27.32c2.34-6.07,6.45-10.48,12.66-12.82
		c5.79-2.18,10.95-0.59,15.85,2.52c7.53,4.79,12.89,11.36,15.82,19.81c1.53,4.43,2.14,8.97,1.01,13.63
		c-1.25,5.15-4.9,7.48-9.73,8.41C254.89,151.89,253.14,151.96,252.09,152.08z M252.52,131.31c-0.07-0.21-0.15-0.41-0.22-0.62
		c0.65-0.43,1.43-0.74,1.9-1.31c0.42-0.51,0.48-1.3,0.7-1.97c-0.63,0.13-1.37,0.09-1.88,0.41c-1.44,0.9-2.77,1.87-4.63,1.24
		c-4.74-1.61-8.99-0.38-12.92,2.41c-0.96,0.68-1.78,1.56-0.85,2.73c0.86,1.08,1.78,0.42,2.77-0.12c1.68-0.92,3.42-1.88,5.26-2.35
		c3.45-0.88,6.33,0.74,9.03,2.7c1.87,1.36,5.59,1.49,7.31,0.18c0.36-0.28,0.45-0.91,0.67-1.38c-0.53-0.09-1.07-0.31-1.58-0.25
		c-1.22,0.14-2.43,0.42-3.65,0.64c-0.03-0.16-0.05-0.31-0.08-0.47c0.86-0.49,1.79-0.9,2.54-1.52c0.38-0.31,0.43-1.01,0.63-1.54
		c-0.6,0.01-1.22-0.1-1.78,0.05C254.64,130.46,253.59,130.91,252.52,131.31z"/>
	<path d="M199.96,179.16c-2.35,0.97-4.25,2.02-6.29,2.52c-2.67,0.66-5.6-1.25-6.49-3.82c-0.76-2.19,0.58-5.96,2.63-7.08
		c0.43-0.23,1.42-0.18,1.64,0.12c0.3,0.41,0.32,1.26,0.1,1.78c-0.29,0.7-0.99,1.22-1.38,1.9c-1.19,2.05-0.02,4.26,2.36,4.46
		c2,0.17,3.51-0.94,4.91-2.15c0.26-0.23,0.23-0.87,0.23-1.33c0.02-3.84,0-7.68,0.02-11.52c0-0.87,0.12-1.73,0.17-2.3
		c-2.79-0.89-5.7-1.49-8.3-2.71c-5.49-2.59-8.09-9.74-5.68-14.85c1.22-2.58,3.48-4.08,5.91-5.23c6.45-3.06,13.03-3.25,19.39,0.13
		c4.04,2.15,6.34,5.78,6.09,10.45c-0.25,4.7-3.35,7.61-7.35,9.46c-2.4,1.11-5.03,1.7-7.36,2.46c0,1.71,0,3.62,0,5.52
		c0,2.42,0,4.84,0,7.26c0,2.93,4.48,5.74,7.15,4.48c1.61-0.76,2.14-2.14,1.42-3.78c-0.23-0.52-0.51-1.06-0.89-1.47
		c-0.72-0.79-1.77-1.61-0.59-2.61c1.29-1.11,2.07,0.17,2.79,1.03c1.53,1.83,2.46,3.87,1.47,6.24c-0.94,2.24-2.85,3.62-5.15,3.55
		c-1.89-0.06-3.76-1.04-5.6-1.71C200.57,179.78,200.12,179.27,199.96,179.16z"/>
	<path d="M250.12,52.97c7.38-3.06,8.7-5.01,9.18-13.62c3.85-0.51,7.73-0.52,11.52,0.37c2.42,0.57,4.87,1.36,7.06,2.52
		c3.59,1.9,4.89,5.28,3.87,9.22c-1.63,6.26-4.8,11.63-9.68,15.89c-3.29,2.87-6.05,2.99-9.77,0.64
		C256.54,64.37,252.79,59.12,250.12,52.97z"/>
	<path d="M246.29,30.22c-7.01,1.66-11.04,7.62-9.19,15.26c-4.76-0.14-9.31-1.04-13.54-3.18c-1.9-0.96-3.73-2.15-5.41-3.47
		c-2.52-1.98-3.38-4.67-2.35-7.75c2.3-6.87,6.52-12.32,12.62-16.21c2.96-1.89,6.12-1.46,9.06,0.92
		C242.12,19.56,244.43,24.74,246.29,30.22z"/>
	<path d="M257.42,41.76c-0.07,5.24-4.44,9.51-9.62,9.41c-5.09-0.1-9.41-4.55-9.34-9.6c0.07-4.95,4.45-9.4,9.22-9.36
		C253.32,32.25,257.49,36.34,257.42,41.76z"/>
	<path class="st0" d="M147.78,212.31c0.38,9.52,2.44,18.62,5.74,27.43c4.96,13.23,12.14,25.15,21.77,35.53
		c2.84,3.06,6.1,5.65,9.87,7.5c4.97,2.44,10.05,2.83,15.23,0.62c0.42-0.18,0.92-0.36,1.34-0.3c6.32,0.99,11.52-1.48,16.29-5.25
		c5.57-4.41,9.64-10.08,13.46-15.96c8.09-12.44,13.73-25.86,15.96-40.6c0.58-3.86,0.72-7.8,1.09-12.04c0.76,2.6,1.59,4.9,2.11,7.27
		c2.58,11.69,5.43,23.34,7.51,35.12c2.04,11.56,2.71,23.29,1.71,35.04c-0.68,8.05-2.28,15.92-5.2,23.46
		c-3.73,9.63-10.44,16.63-19.38,21.62c-7.44,4.15-15.5,6.43-23.87,7.62c-9.36,1.33-18.76,1.54-28.16,0.36
		c-7.77-0.98-15.25-2.97-22.06-6.99c-7.34-4.32-12.61-10.55-16.47-18.04c-4.96-9.6-7.07-19.95-7.91-30.61
		c-0.82-10.47-0.67-20.94,1.19-31.29c2.39-13.34,5.56-26.51,9.42-39.51C147.51,212.95,147.66,212.64,147.78,212.31z"/>
	<path class="st0" d="M198.27,247.17c-10.02-15.8-21.68-30.35-28.34-47.65c18.55-0.42,37.01-0.85,55.68-1.27
		c-0.9,2.26-1.61,4.69-2.78,6.87c-4.01,7.49-8.07,14.96-12.34,22.3c-3.75,6.44-7.81,12.71-11.73,19.05
		C198.66,246.63,198.54,246.79,198.27,247.17z"/>
	<path class="st0" d="M117.08,30.58c5.73-0.06,9.88,2.05,13.4,5.27c5.45,4.97,8.59,11.33,10.18,18.47c0.12,0.55-0.2,1.45-0.63,1.84
		c-5.16,4.69-9.81,9.82-13.75,15.57c-0.79,1.15-1.72,1.53-3,1.59c-8.11,0.39-14.62-2.9-19.87-8.82c-3.58-4.03-6.06-8.65-5.45-14.29
		c0.75-6.95,4.3-12.33,9.91-16.31C111.77,31.14,114.04,30.57,117.08,30.58z"/>
	<path class="st0" d="M144.36,129.64c-1.05-0.74-1.98-1.26-2.72-1.98c-0.28-0.28-0.14-0.99-0.19-1.51c0.47,0.02,0.99-0.09,1.39,0.09
		c0.85,0.38,1.64,0.9,2.46,1.37c1.76,1,3.45,0.08,5.16-0.17c4.29-0.64,7.8,1.12,10.94,3.76c0.37,0.31,0.37,1.53,0.07,2.07
		c-0.46,0.84-1.37,0.8-2.2,0.25c-1.05-0.69-2.06-1.46-3.19-1.98c-3.54-1.66-7.04-1.31-10.11,1c-2.36,1.78-4.86,1.67-7.47,1.35
		c-0.49-0.06-1.04-0.32-1.39-0.67c-0.31-0.31-0.38-0.86-0.56-1.3c0.49-0.13,1.01-0.41,1.48-0.35c1.22,0.15,2.41,0.45,3.62,0.69
		c0.04-0.18,0.08-0.37,0.13-0.55c-0.81-0.43-1.72-0.75-2.39-1.33c-0.39-0.34-0.42-1.11-0.61-1.68c0.55,0.01,1.23-0.17,1.63,0.08
		C141.59,129.48,142.73,130.1,144.36,129.64z"/>
	<path class="st0" d="M252.52,131.31c1.07-0.39,2.12-0.85,3.21-1.16c0.55-0.16,1.18-0.04,1.78-0.05c-0.2,0.53-0.25,1.23-0.63,1.54
		c-0.75,0.62-1.68,1.03-2.54,1.52c0.03,0.16,0.05,0.31,0.08,0.47c1.22-0.22,2.43-0.5,3.65-0.64c0.51-0.06,1.06,0.16,1.58,0.25
		c-0.22,0.47-0.3,1.11-0.67,1.38c-1.72,1.31-5.44,1.18-7.31-0.18c-2.7-1.97-5.58-3.58-9.03-2.7c-1.84,0.47-3.57,1.43-5.26,2.35
		c-0.99,0.54-1.91,1.2-2.77,0.12c-0.93-1.17-0.11-2.05,0.85-2.73c3.93-2.79,8.18-4.02,12.92-2.41c1.87,0.63,3.2-0.34,4.63-1.24
		c0.51-0.32,1.25-0.28,1.88-0.41c-0.22,0.67-0.29,1.46-0.7,1.97c-0.47,0.57-1.25,0.89-1.9,1.31
		C252.38,130.9,252.45,131.1,252.52,131.31z"/>
</g>
</svg>
