<?xml version="1.0" encoding="utf-8"?>
<!-- Generator: Adobe Illustrator 24.0.1, SVG Export Plug-In . SVG Version: 6.00 Build 0)  -->
<svg version="1.1" id="Layer_1" xmlns="http://www.w3.org/2000/svg" xmlns:xlink="http://www.w3.org/1999/xlink" x="0px" y="0px"
	 viewBox="0 0 1205.3 1248.5" style="enable-background:new 0 0 1205.3 1248.5;" xml:space="preserve">
<style type="text/css">
	.st0{fill:#FFFFFF;}
</style>
<g>
	<path class="st0" d="M773.9,141c5,9.4,5,9.4,16.2,9.1c0.9,0,1.8-0.3,2.6,0c3.8,0.6,6.5-1.2,9.4-3.8c16.5-16.2,39.7-20.3,58.9-10.6
		c17.4,8.8,29.1,23.2,34.4,41.8c2.1,7.4,2.4,15.6,1.5,23.2c-2.4,15-11.2,27.1-22.4,36.8c-14.7,12.9-31.8,20-51.8,18.5
		c-4.1-0.3-8.8,0.3-11.2-4.7c-0.3-0.6-1.2-0.9-2.1-0.9c-2.9,0-5.9,0-9.7,0c1.5,2.4,2.4,4.1,3.2,5.6c12.9,18.8,23.5,38.8,32.1,60
		c17.7,43.3,27.4,88.3,25.6,135.1c-1.2,28.8-7.1,56.5-20.6,82.1c-10.3,19.4-24.1,35.6-42.1,48.3c-25.6,18-54.7,27.1-85.3,29.4
		c-35.6,2.6-71.5,4.4-107.1,5.6c-40.9,1.5-81.8,2.4-122.4-2.6c-23.5-2.9-46.2-8.5-68.3-17.1c-27.4-10.6-44.7-30.3-55.3-57.1
		c-7.9-20.6-12.1-41.8-14.1-63.6c-3.5-38-2.4-75.9,5.6-113.3c8.5-40.6,25.3-77.4,50-110.7c19.7-26.5,42.7-48.9,71.5-65
		c21.5-12.1,44.4-20.6,68.6-26.8c28.8-7.7,58.3-10,88-6.5c8.5,0.9,16.8,2.4,25.6,3.5c0,0-4.7-5.9-5.6-8.2c-1.5-4.4-3.5-9.4-1.5-18.8
		c2.9-13.2,10.9-23.2,16.2-29.7c8.2-10.3,21.8-25.6,37.4-26.5c10-0.6,17.1,5.9,21.8,10.6c7.7,7.9,12.9,16.5,15.9,22.1
		c4.7,8.2,8.8,21.5,8.8,21.5s7.4,0,14.7,3.8C770.4,135.4,773.9,141,773.9,141z M323.1,230.2c-10.6-11.8-18-25.3-16.2-42.1
		c2.1-20.6,12.7-36.2,29.1-48c11.5-8.2,18.2-9.7,27.1-9.7c16.8-0.3,29.1,5.9,39.4,15.6c15.9,14.7,25.3,33.3,30,54.4
		c0.3,1.5-0.6,4.4-1.8,5.3c-15.3,13.8-28.8,28.8-40.6,45.9c-2.4,3.2-5,4.4-8.8,4.7C357.8,257.2,338.7,247.5,323.1,230.2z"/>
	<path d="M653.3,1046.2c-32.7,5.6-65,6.8-98,2.6c-0.9,8.8-2.1,17.4-2.9,25.9c-2.4,23.2-5,46.2-12.4,68.3
		c-3.8,11.2-8.5,21.8-19.4,27.7c-12.1,6.5-23.2,3.5-33.5-3.5c-15.6-10.6-23.2-26.5-28.3-44.1c-9.4-33-12.4-66.5-12.9-100.4
		c-0.3-11.2,0-22.7-0.3-33.8c0-1.8-0.3-4.1-1.5-5.6c-15.6-24.4-23.8-51.5-28.3-79.8c-6.8-44.7-5.9-89.5,2.9-133.9
		c10-49.7,22.1-99.2,39.7-147.1c0.3-0.6,0.3-1.5,0.6-2.4c-10.9-2.9-22.1-5.3-32.7-9.1c-11.8-4.1-23.2-9.1-34.1-15.3
		c-15.9-8.8-26.8-23.2-35-39.1c-10.9-21.2-16.5-43.8-19.4-67.4c-5.3-40.6-4.1-80.9,2.9-121.2c5-28.3,14.4-55,27.7-80.3
		c1.5-2.6,2.6-5.3,4.1-7.9c0.3-0.3,0.3-0.9,0.3-1.8c-4.4-0.3-8.5-0.3-12.9-0.9c-24.7-3.8-45-15.9-61.8-34.1
		c-14.1-15.6-23.8-33.8-26.8-55c-2.1-13.8,1.2-27.1,7.4-39.1c12.7-25.9,32.4-44.7,60.3-53.6c20-6.2,39.1-3.2,57.1,7.7
		c20.6,12.4,34.1,30.6,43.6,52.1c4.7,10.9,8.2,22.1,12.7,33.5c3.8-2.4,8.2-5.3,12.9-7.9c46.5-26.2,96.2-40,150.1-37.7
		c9.1,0.3,18.2,1.8,27.4,2.6c3.8,0.3,6.8,1.5,8.2,5.6c0.9,2.1,2.6,3.8,4.4,5.9c-8.8-1.2-17.4-2.6-25.6-3.5
		c-29.7-3.5-58.9-1.2-88,6.5c-23.8,6.2-46.8,14.7-68.6,26.8c-28.8,16.2-51.8,38.8-71.5,65c-24.7,33.3-41.5,70-50,110.7
		c-7.9,37.4-9.1,75.3-5.6,113c2.1,21.8,6.2,43,14.1,63.6c10.6,26.8,27.7,46.8,55,57.1c22.1,8.5,44.7,14.1,68.3,17.1
		c40.6,5,81.5,4.1,122.4,2.6c35.6-1.5,71.5-2.9,107.1-5.6c30.6-2.4,59.7-11.2,85.3-29.4c18-12.7,31.8-28.8,42.1-48.3
		c13.5-25.6,19.4-53.3,20.6-82.1c1.8-47.1-7.9-91.8-25.6-135.1c-8.5-21.2-19.1-41.2-32.1-60c-1.2-1.5-1.8-3.2-3.2-5.6
		c3.8,0,6.8,0,9.7,0c0.6,0,1.8,0.3,2.1,0.9c2.4,5,7.4,4.4,11.5,4.7c20,1.5,37.1-5.6,51.8-18.5c11.2-10,20.3-21.8,22.4-36.8
		c1.2-7.7,0.9-15.9-1.5-23.2c-5.6-18.5-17.1-33-34.4-41.8c-19.4-10-42.4-5.6-58.9,10.6c-2.6,2.6-5.3,4.4-9.1,3.8c-0.9,0-1.8,0-2.6,0
		c-11.2,0.6-11.2,0.6-16.2-9.1c-0.3-0.9-0.3-2.4,0.3-3.2c9.1-14.1,20-26.5,34.4-35c23-13.5,46.8-14.4,70.3-2.4
		c25.9,13.2,43.6,33.8,52.1,62.1c5.9,19.4,1.5,37.4-7.4,54.7c-14.7,28.8-37.4,48.6-68.9,57.4c-7.1,2.1-15,2.1-22.4,2.9
		c-1.5,0.3-2.9,0-5,0c2.9,5.9,5.3,11.2,7.9,16.5c18.5,38.6,30,79.2,33.5,121.8c2.9,34.1,0.3,67.4-11.2,99.8
		c-11.2,31.2-29.7,56.5-57.1,75.3c-15,10.3-31.2,17.4-48.9,22.4c-1.8,0.3-3.2,0.9-5,1.5c-0.3,0-0.3,0.3-0.9,0.9
		c2.1,6.2,3.8,12.4,6.2,18.8c12.7,37.1,21.8,75.3,29.1,113.9c4.7,25,8.5,50.3,10.6,75.6c4.1,44.1,0.9,88-14.7,129.8
		c-3.2,8.5-7.9,16.5-11.8,24.7c-1.2,2.4-2.4,5.3-2.4,7.7c0,31.8,0,63.6-4.4,95.1c-2.9,21.5-6.8,43-16.5,62.4
		c-5.9,11.8-14.4,22.1-27.1,27.7c-15.9,7.4-30.9,2.6-40-12.7c-7.1-12.1-10.9-25.3-12.9-38.8c-3.2-21.5-5.6-43.3-8.5-64.7
		C654.1,1051.8,653.8,1049.5,653.3,1046.2z M453.7,665.1c-0.3,0.9-0.9,1.8-1.2,2.9c-11.5,38.3-20.6,77.1-27.7,116.2
		c-5.6,30.3-5.9,61.2-3.5,92.1c2.4,31.5,8.5,61.8,23.2,90.1c11.5,22.1,26.8,40.3,48.6,53c20,11.8,42.1,17.7,65,20.6
		c27.7,3.5,55.3,2.9,83-1.2c24.7-3.5,48.3-10.3,70.3-22.4c26.2-14.7,45.9-35.3,57.1-63.6c8.5-22.1,13.2-45.3,15.3-69.2
		c2.9-34.7,0.9-69.2-5-103c-6.2-34.7-14.4-68.9-22.1-103.3c-1.5-7.1-4.1-13.8-6.2-21.5c-1.2,12.7-1.5,24.1-3.2,35.3
		c-6.5,43.3-23.2,83-47.1,119.5c-11.2,17.4-23.2,34.1-39.7,47.1c-14.1,11.2-29.4,18.2-48,15.6c-1.2-0.3-2.6,0.3-3.8,0.9
		c-15.3,6.5-30.3,5.3-44.7-1.8c-11.2-5.6-20.6-12.9-29.1-22.1c-28.3-30.6-49.4-65.6-64.2-104.5C460.8,719.9,454.9,693.1,453.7,665.1
		z M602.3,767.8c0.9-1.2,1.2-1.5,1.5-2.1c11.5-18.5,23.5-37.1,34.4-56.2c12.7-21.5,24.4-43.6,36.2-65.6c3.5-6.5,5.6-13.5,8.2-20.3
		c-55,1.2-109.2,2.6-163.9,3.8C538.5,678.4,572.9,721.3,602.3,767.8z M363.4,130.4c-8.8,0-15.6,1.8-27.1,9.7
		c-16.5,11.8-27.1,27.4-29.1,48c-1.8,16.5,5.6,30.3,15.9,42.1c15.6,17.4,34.7,27.1,58.6,25.9c3.8-0.3,6.5-1.2,8.8-4.7
		c11.8-16.8,25.3-32.1,40.3-45.9c1.2-1.2,2.4-3.8,1.8-5.3c-4.7-20.9-13.8-39.7-30-54.4C392.5,136.3,380.2,130.1,363.4,130.4z"/>
	<path d="M451.1,488c-9.1-0.6-20-0.3-30.3-5c-11.5-5.6-17.7-14.4-18.8-27.1c-2.4-23,5-43,17.7-61.5c11.5-16.5,26.2-29.4,44.7-37.7
		c14.7-6.5,28.8-5,42.7,2.4c20.6,11.2,30.3,29.7,34.1,51.8c5.3,30.3-10.6,53-36.2,65.3C487,485.6,472.6,488,451.1,488z M443.7,421.8
		c-4.7,1.5-8.2-0.6-11.8-2.6c-1.2-0.9-3.2-0.3-4.7-0.3c0.6,1.8,0.6,3.8,1.8,5c2.1,1.8,4.7,2.6,7.1,3.8c0,0.6-0.3,1.2-0.3,1.8
		c-3.5-0.6-7.1-1.5-10.6-2.1c-1.5-0.3-2.9,0.6-4.4,1.2c0.6,1.2,0.9,2.9,1.8,3.8c1.2,1.2,2.6,1.8,4.1,2.1c7.7,0.9,15,1.2,22.1-4.1
		c9.1-6.8,19.4-7.9,29.7-2.9c3.2,1.5,6.2,3.8,9.4,5.9c2.4,1.8,5,1.8,6.5-0.9c0.9-1.5,0.9-5.3-0.3-6.2c-9.1-7.7-19.4-12.9-32.1-11.2
		c-5,0.9-10,3.5-15.3,0.6c-2.4-1.5-4.7-2.9-7.4-4.1c-1.2-0.6-2.6-0.3-4.1-0.3c0.3,1.5-0.3,3.5,0.6,4.4
		C437.8,418.2,440.5,419.7,443.7,421.8z"/>
	<path d="M760.7,488c-24.4,0.9-45.9-2.4-65.3-14.1c-31.5-18.5-38.6-48.3-26.2-80.3c6.8-18,18.8-30.9,37.4-37.7
		c17.1-6.5,32.1-1.8,46.8,7.4c22.1,14.1,38,33.5,46.5,58.3c4.4,12.9,6.2,26.5,2.9,40c-3.8,15-14.4,22.1-28.5,24.7
		C768.9,487.4,763.6,487.7,760.7,488z M761.9,426.8c-0.3-0.6-0.3-1.2-0.6-1.8c1.8-1.2,4.1-2.1,5.6-3.8c1.2-1.5,1.5-3.8,2.1-5.9
		c-1.8,0.3-4.1,0.3-5.6,1.2c-4.1,2.6-8.2,5.6-13.5,3.5c-13.8-4.7-26.5-1.2-38,7.1c-2.9,2.1-5.3,4.7-2.6,7.9c2.6,3.2,5.3,1.2,8.2-0.3
		c5-2.6,10-5.6,15.6-7.1c10-2.6,18.5,2.1,26.5,7.9c5.6,4.1,16.5,4.4,21.5,0.6c1.2-0.9,1.5-2.6,2.1-4.1c-1.5-0.3-3.2-0.9-4.7-0.9
		c-3.5,0.3-7.1,1.2-10.6,1.8c0-0.6-0.3-0.9-0.3-1.5c2.6-1.5,5.3-2.6,7.4-4.4c1.2-0.9,1.2-2.9,1.8-4.4c-1.8,0-3.5-0.3-5.3,0.3
		C768,424.4,765.1,425.6,761.9,426.8z"/>
	<path d="M607.3,567.7c-7.1,2.9-12.7,5.9-18.5,7.4c-7.9,2.1-16.5-3.8-19.1-11.2c-2.4-6.5,1.8-17.7,7.7-20.9c1.2-0.6,4.1-0.6,4.7,0.3
		c0.9,1.2,0.9,3.8,0.3,5.3c-0.9,2.1-2.9,3.5-4.1,5.6c-3.5,6.2,0,12.7,7.1,13.2c5.9,0.6,10.3-2.6,14.4-6.2c0.9-0.6,0.6-2.6,0.6-3.8
		c0-11.2,0-22.7,0-33.8c0-2.6,0.3-5,0.6-6.8c-8.2-2.6-16.8-4.4-24.4-7.9c-16.2-7.7-23.8-28.5-16.8-43.8c3.5-7.7,10.3-12.1,17.4-15.3
		c18.8-9.1,38.3-9.7,57.1,0.3c11.8,6.2,18.5,17.1,18,30.6c-0.9,13.8-10,22.4-21.8,28c-7.1,3.2-14.7,5-21.8,7.4c0,5,0,10.6,0,16.2
		c0,7.1,0,14.1,0,21.5c0,8.5,13.2,16.8,20.9,13.2c4.7-2.4,6.2-6.2,4.1-11.2c-0.6-1.5-1.5-3.2-2.6-4.4c-2.1-2.4-5.3-4.7-1.8-7.7
		c3.8-3.2,6.2,0.6,8.2,2.9c4.4,5.3,7.4,11.5,4.4,18.2c-2.6,6.5-8.5,10.6-15,10.6c-5.6-0.3-11.2-2.9-16.5-5
		C609.1,569.5,607.6,568,607.3,567.7z"/>
	<path d="M754.8,196.3c21.8-9.1,25.6-14.7,27.1-40c11.5-1.5,22.7-1.5,33.8,1.2c7.1,1.8,14.4,4.1,20.9,7.4
		c10.6,5.6,14.4,15.6,11.5,27.1c-4.7,18.5-14.1,34.1-28.5,46.8c-9.7,8.5-17.7,8.8-28.8,1.8C773.6,229.9,762.7,214.3,754.8,196.3z"/>
	<path d="M743.6,129.2c-20.6,5-32.4,22.4-27.1,45c-14.1-0.3-27.4-2.9-39.7-9.4c-5.6-2.9-10.9-6.5-15.9-10.3c-7.4-5.9-10-13.8-7.1-23
		c6.8-20.3,19.1-36.2,37.1-47.7c8.8-5.6,18-4.4,26.8,2.6C731.2,98,738,113,743.6,129.2z"/>
	<path d="M776.3,163.4c-0.3,15.3-12.9,28-28.3,27.7c-15-0.3-27.7-13.2-27.4-28.3c0.3-14.7,12.9-27.7,27.1-27.7
		C764.2,135.4,776.6,147.2,776.3,163.4z"/>
	<path class="st0" d="M453.7,665.1c1.2,28,7.1,54.7,16.8,80.6c14.7,38.8,35.6,73.9,64.2,104.5c8.2,9.1,18,16.5,29.1,22.1
		c14.7,7.1,29.7,8.2,44.7,1.8c1.2-0.6,2.6-1.2,3.8-0.9c18.5,2.9,33.8-4.4,48-15.6c16.5-12.9,28.3-29.7,39.7-47.1
		c23.8-36.5,40.3-76.2,47.1-119.5c1.8-11.5,2.1-23,3.2-35.3c2.4,7.7,4.7,14.4,6.2,21.5c7.7,34.4,15.9,68.6,22.1,103.3
		c5.9,34.1,7.9,68.6,5,103c-2.1,23.5-6.8,46.8-15.3,69.2c-10.9,28.3-30.6,48.9-57.1,63.6c-21.8,12.1-45.6,18.8-70.3,22.4
		c-27.7,3.8-55.3,4.4-83,1.2c-23-2.9-45-8.8-65-20.6c-21.5-12.7-37.1-30.9-48.6-53c-14.7-28.3-20.9-58.9-23.2-90.1
		c-2.4-30.9-2.1-61.5,3.5-92.1c7.1-39.1,16.5-78,27.7-116.2C452.8,666.9,453.4,666,453.7,665.1z"/>
	<path class="st0" d="M602.3,767.8c-29.4-46.5-63.9-89.5-83.3-140.4c54.7-1.2,108.9-2.6,163.9-3.8c-2.6,6.8-4.7,13.8-8.2,20.3
		c-11.8,22.1-23.8,44.1-36.2,65.6c-11.2,18.8-23,37.4-34.4,56.2C603.5,766.1,602.9,766.7,602.3,767.8z"/>
	<path class="st0" d="M363.4,130.4c16.8-0.3,29.1,6.2,39.4,15.6c15.9,14.7,25.3,33.3,30,54.4c0.3,1.5-0.6,4.4-1.8,5.3
		c-15.3,13.8-28.8,28.8-40.6,45.9c-2.4,3.5-5,4.4-8.8,4.7c-23.8,1.2-43-8.5-58.6-25.9c-10.6-11.8-18-25.6-15.9-42.1
		c2.4-20.6,12.7-36.2,29.1-48C347.8,131.9,354.3,130.4,363.4,130.4z"/>
	<path class="st0" d="M443.7,421.8c-3.2-2.1-5.9-3.8-7.9-5.9c-0.9-0.9-0.3-2.9-0.6-4.4c1.5,0,2.9-0.3,4.1,0.3
		c2.6,1.2,4.7,2.6,7.4,4.1c5.3,2.9,10,0.3,15.3-0.6c12.7-1.8,23,3.2,32.1,11.2c1.2,0.9,1.2,4.4,0.3,6.2c-1.5,2.4-4.1,2.4-6.5,0.9
		c-3.2-2.1-6.2-4.4-9.4-5.9c-10.3-5-20.6-3.8-29.7,2.9c-7.1,5.3-14.4,5-22.1,4.1c-1.5-0.3-2.9-0.9-4.1-2.1c-0.9-0.9-1.2-2.6-1.8-3.8
		c1.5-0.3,2.9-1.2,4.4-1.2c3.5,0.3,7.1,1.2,10.6,2.1c0-0.6,0.3-1.2,0.3-1.8c-2.4-1.2-5-2.4-7.1-3.8c-1.2-0.9-1.2-3.2-1.8-5
		c1.8,0,3.5-0.6,4.7,0.3C435.5,421.5,438.7,423.2,443.7,421.8z"/>
	<path class="st0" d="M761.9,426.8c3.2-1.2,6.2-2.6,9.4-3.5c1.5-0.6,3.5,0,5.3-0.3c-0.6,1.5-0.9,3.5-1.8,4.4c-2.4,1.8-5,2.9-7.4,4.4
		c0,0.6,0.3,0.9,0.3,1.5c3.5-0.6,7.1-1.5,10.6-1.8c1.5-0.3,3.2,0.6,4.7,0.9c-0.6,1.5-0.9,3.2-2.1,4.1c-5,3.8-15.9,3.5-21.5-0.6
		c-7.9-5.9-16.5-10.6-26.5-7.9c-5.3,1.5-10.6,4.1-15.6,7.1c-2.9,1.5-5.6,3.5-8.2,0.3c-2.6-3.5-0.3-6.2,2.6-7.9
		c11.5-8.2,24.1-11.8,38-7.1c5.6,1.8,9.4-0.9,13.5-3.5c1.5-0.9,3.8-0.9,5.6-1.2c-0.6,2.1-0.9,4.4-2.1,5.9c-1.5,1.8-3.8,2.6-5.6,3.8
		C761.6,425.6,761.6,426.2,761.9,426.8z"/>
</g>
</svg>
