<?xml version="1.0" encoding="utf-8"?>
<!-- Generator: Adobe Illustrator 24.0.1, SVG Export Plug-In . SVG Version: 6.00 Build 0)  -->
<svg version="1.1" id="Layer_1" xmlns="http://www.w3.org/2000/svg" xmlns:xlink="http://www.w3.org/1999/xlink" x="0px" y="0px"
	 viewBox="0 0 400 400" style="enable-background:new 0 0 400 400;" xml:space="preserve">
<style type="text/css">
	.st0{fill:#FFFFFF;}
</style>
<g>
	<path class="st0" d="M256.6,34.2c1.7,3.2,1.7,3.2,5.5,3.1c0.3,0,0.6-0.1,0.9,0c1.3,0.2,2.2-0.4,3.2-1.3c5.6-5.5,13.5-6.9,20-3.6
		c5.9,3,9.9,7.9,11.7,14.2c0.7,2.5,0.8,5.3,0.5,7.9c-0.8,5.1-3.8,9.2-7.6,12.5c-5,4.4-10.8,6.8-17.6,6.3c-1.4-0.1-3,0.1-3.8-1.6
		c-0.1-0.2-0.4-0.3-0.7-0.3c-1,0-2,0-3.3,0c0.5,0.8,0.8,1.4,1.1,1.9c4.4,6.4,8,13.2,10.9,20.4c6,14.7,9.3,30,8.7,45.9
		c-0.4,9.8-2.4,19.2-7,27.9c-3.5,6.6-8.2,12.1-14.3,16.4c-8.7,6.1-18.6,9.2-29,10c-12.1,0.9-24.3,1.5-36.4,1.9
		c-13.9,0.5-27.8,0.8-41.6-0.9c-8-1-15.7-2.9-23.2-5.8c-9.3-3.6-15.2-10.3-18.8-19.4c-2.7-7-4.1-14.2-4.8-21.6
		c-1.2-12.9-0.8-25.8,1.9-38.5c2.9-13.8,8.6-26.3,17-37.6c6.7-9,14.5-16.6,24.3-22.1c7.3-4.1,15.1-7,23.3-9.1
		c9.8-2.6,19.8-3.4,29.9-2.2c2.9,0.3,5.7,0.8,8.7,1.2c0,0-1.6-2-1.9-2.8c-0.5-1.5-1.2-3.2-0.5-6.4c1-4.5,3.7-7.9,5.5-10.1
		c2.8-3.5,7.4-8.7,12.7-9c3.4-0.2,5.8,2,7.4,3.6c2.6,2.7,4.4,5.6,5.4,7.5c1.6,2.8,3,7.3,3,7.3s2.5,0,5,1.3
		C255.4,32.3,256.6,34.2,256.6,34.2z M103.4,64.5c-3.6-4-6.1-8.6-5.5-14.3c0.7-7,4.3-12.3,9.9-16.3c3.9-2.8,6.2-3.3,9.2-3.3
		c5.7-0.1,9.9,2,13.4,5.3c5.4,5,8.6,11.3,10.2,18.5c0.1,0.5-0.2,1.5-0.6,1.8c-5.2,4.7-9.8,9.8-13.8,15.6c-0.8,1.1-1.7,1.5-3,1.6
		C115.2,73.7,108.7,70.4,103.4,64.5z"/>
	<path d="M215.6,341.8c-11.1,1.9-22.1,2.3-33.3,0.9c-0.3,3-0.7,5.9-1,8.8c-0.8,7.9-1.7,15.7-4.2,23.2c-1.3,3.8-2.9,7.4-6.6,9.4
		c-4.1,2.2-7.9,1.2-11.4-1.2c-5.3-3.6-7.9-9-9.6-15c-3.2-11.2-4.2-22.6-4.4-34.1c-0.1-3.8,0-7.7-0.1-11.5c0-0.6-0.1-1.4-0.5-1.9
		c-5.3-8.3-8.1-17.5-9.6-27.1c-2.3-15.2-2-30.4,1-45.5c3.4-16.9,7.5-33.7,13.5-50c0.1-0.2,0.1-0.5,0.2-0.8c-3.7-1-7.5-1.8-11.1-3.1
		c-4-1.4-7.9-3.1-11.6-5.2c-5.4-3-9.1-7.9-11.9-13.3c-3.7-7.2-5.6-14.9-6.6-22.9c-1.8-13.8-1.4-27.5,1-41.2
		c1.7-9.6,4.9-18.7,9.4-27.3c0.5-0.9,0.9-1.8,1.4-2.7c0.1-0.1,0.1-0.3,0.1-0.6c-1.5-0.1-2.9-0.1-4.4-0.3c-8.4-1.3-15.3-5.4-21-11.6
		c-4.8-5.3-8.1-11.5-9.1-18.7c-0.7-4.7,0.4-9.2,2.5-13.3c4.3-8.8,11-15.2,20.5-18.2c6.8-2.1,13.3-1.1,19.4,2.6
		c7,4.2,11.6,10.4,14.8,17.7c1.6,3.7,2.8,7.5,4.3,11.4c1.3-0.8,2.8-1.8,4.4-2.7c15.8-8.9,32.7-13.6,51-12.8c3.1,0.1,6.2,0.6,9.3,0.9
		c1.3,0.1,2.3,0.5,2.8,1.9c0.3,0.7,0.9,1.3,1.5,2c-3-0.4-5.9-0.9-8.7-1.2c-10.1-1.2-20-0.4-29.9,2.2c-8.1,2.1-15.9,5-23.3,9.1
		c-9.8,5.5-17.6,13.2-24.3,22.1c-8.4,11.3-14.1,23.8-17,37.6c-2.7,12.7-3.1,25.6-1.9,38.4c0.7,7.4,2.1,14.6,4.8,21.6
		c3.6,9.1,9.4,15.9,18.7,19.4c7.5,2.9,15.2,4.8,23.2,5.8c13.8,1.7,27.7,1.4,41.6,0.9c12.1-0.5,24.3-1,36.4-1.9
		c10.4-0.8,20.3-3.8,29-10c6.1-4.3,10.8-9.8,14.3-16.4c4.6-8.7,6.6-18.1,7-27.9c0.6-16-2.7-31.2-8.7-45.9c-2.9-7.2-6.5-14-10.9-20.4
		c-0.4-0.5-0.6-1.1-1.1-1.9c1.3,0,2.3,0,3.3,0c0.2,0,0.6,0.1,0.7,0.3c0.8,1.7,2.5,1.5,3.9,1.6c6.8,0.5,12.6-1.9,17.6-6.3
		c3.8-3.4,6.9-7.4,7.6-12.5c0.4-2.6,0.3-5.4-0.5-7.9c-1.9-6.3-5.8-11.2-11.7-14.2c-6.6-3.4-14.4-1.9-20,3.6
		c-0.9,0.9-1.8,1.5-3.1,1.3c-0.3,0-0.6,0-0.9,0c-3.8,0.2-3.8,0.2-5.5-3.1c-0.1-0.3-0.1-0.8,0.1-1.1c3.1-4.8,6.8-9,11.7-11.9
		c7.8-4.6,15.9-4.9,23.9-0.8c8.8,4.5,14.8,11.5,17.7,21.1c2,6.6,0.5,12.7-2.5,18.6c-5,9.8-12.7,16.5-23.4,19.5
		c-2.4,0.7-5.1,0.7-7.6,1c-0.5,0.1-1,0-1.7,0c1,2,1.8,3.8,2.7,5.6c6.3,13.1,10.2,26.9,11.4,41.4c1,11.6,0.1,22.9-3.8,33.9
		c-3.8,10.6-10.1,19.2-19.4,25.6c-5.1,3.5-10.6,5.9-16.6,7.6c-0.6,0.1-1.1,0.3-1.7,0.5c-0.1,0-0.1,0.1-0.3,0.3
		c0.7,2.1,1.3,4.2,2.1,6.4c4.3,12.6,7.4,25.6,9.9,38.7c1.6,8.5,2.9,17.1,3.6,25.7c1.4,15,0.3,29.9-5,44.1c-1.1,2.9-2.7,5.6-4,8.4
		c-0.4,0.8-0.8,1.8-0.8,2.6c0,10.8,0,21.6-1.5,32.3c-1,7.3-2.3,14.6-5.6,21.2c-2,4-4.9,7.5-9.2,9.4c-5.4,2.5-10.5,0.9-13.6-4.3
		c-2.4-4.1-3.7-8.6-4.4-13.2c-1.1-7.3-1.9-14.7-2.9-22C215.9,343.7,215.8,342.9,215.6,341.8z M147.8,212.3c-0.1,0.3-0.3,0.6-0.4,1
		c-3.9,13-7,26.2-9.4,39.5c-1.9,10.3-2,20.8-1.2,31.3c0.8,10.7,2.9,21,7.9,30.6c3.9,7.5,9.1,13.7,16.5,18c6.8,4,14.3,6,22.1,7
		c9.4,1.2,18.8,1,28.2-0.4c8.4-1.2,16.4-3.5,23.9-7.6c8.9-5,15.6-12,19.4-21.6c2.9-7.5,4.5-15.4,5.2-23.5c1-11.8,0.3-23.5-1.7-35
		c-2.1-11.8-4.9-23.4-7.5-35.1c-0.5-2.4-1.4-4.7-2.1-7.3c-0.4,4.3-0.5,8.2-1.1,12c-2.2,14.7-7.9,28.2-16,40.6
		c-3.8,5.9-7.9,11.6-13.5,16c-4.8,3.8-10,6.2-16.3,5.3c-0.4-0.1-0.9,0.1-1.3,0.3c-5.2,2.2-10.3,1.8-15.2-0.6c-3.8-1.9-7-4.4-9.9-7.5
		c-9.6-10.4-16.8-22.3-21.8-35.5C150.2,230.9,148.2,221.8,147.8,212.3z M198.3,247.2c0.3-0.4,0.4-0.5,0.5-0.7
		c3.9-6.3,8-12.6,11.7-19.1c4.3-7.3,8.3-14.8,12.3-22.3c1.2-2.2,1.9-4.6,2.8-6.9c-18.7,0.4-37.1,0.9-55.7,1.3
		C176.6,216.8,188.3,231.4,198.3,247.2z M117.1,30.6c-3,0-5.3,0.6-9.2,3.3c-5.6,4-9.2,9.3-9.9,16.3c-0.6,5.6,1.9,10.3,5.4,14.3
		c5.3,5.9,11.8,9.2,19.9,8.8c1.3-0.1,2.2-0.4,3-1.6c4-5.7,8.6-10.9,13.7-15.6c0.4-0.4,0.8-1.3,0.6-1.8c-1.6-7.1-4.7-13.5-10.2-18.5
		C127,32.6,122.8,30.5,117.1,30.6z"/>
	<path d="M146.9,152.1c-3.1-0.2-6.8-0.1-10.3-1.7c-3.9-1.9-6-4.9-6.4-9.2c-0.8-7.8,1.7-14.6,6-20.9c3.9-5.6,8.9-10,15.2-12.8
		c5-2.2,9.8-1.7,14.5,0.8c7,3.8,10.3,10.1,11.6,17.6c1.8,10.3-3.6,18-12.3,22.2C159.1,151.3,154.2,152.1,146.9,152.1z M144.4,129.6
		c-1.6,0.5-2.8-0.2-4-0.9c-0.4-0.3-1.1-0.1-1.6-0.1c0.2,0.6,0.2,1.3,0.6,1.7c0.7,0.6,1.6,0.9,2.4,1.3c0,0.2-0.1,0.4-0.1,0.6
		c-1.2-0.2-2.4-0.5-3.6-0.7c-0.5-0.1-1,0.2-1.5,0.4c0.2,0.4,0.3,1,0.6,1.3c0.4,0.4,0.9,0.6,1.4,0.7c2.6,0.3,5.1,0.4,7.5-1.4
		c3.1-2.3,6.6-2.7,10.1-1c1.1,0.5,2.1,1.3,3.2,2c0.8,0.6,1.7,0.6,2.2-0.3c0.3-0.5,0.3-1.8-0.1-2.1c-3.1-2.6-6.6-4.4-10.9-3.8
		c-1.7,0.3-3.4,1.2-5.2,0.2c-0.8-0.5-1.6-1-2.5-1.4c-0.4-0.2-0.9-0.1-1.4-0.1c0.1,0.5-0.1,1.2,0.2,1.5
		C142.4,128.4,143.3,128.9,144.4,129.6z"/>
	<path d="M252.1,152.1c-8.3,0.3-15.6-0.8-22.2-4.8c-10.7-6.3-13.1-16.4-8.9-27.3c2.3-6.1,6.4-10.5,12.7-12.8
		c5.8-2.2,10.9-0.6,15.9,2.5c7.5,4.8,12.9,11.4,15.8,19.8c1.5,4.4,2.1,9,1,13.6c-1.3,5.1-4.9,7.5-9.7,8.4
		C254.9,151.9,253.1,152,252.1,152.1z M252.5,131.3c-0.1-0.2-0.1-0.4-0.2-0.6c0.6-0.4,1.4-0.7,1.9-1.3c0.4-0.5,0.5-1.3,0.7-2
		c-0.6,0.1-1.4,0.1-1.9,0.4c-1.4,0.9-2.8,1.9-4.6,1.2c-4.7-1.6-9-0.4-12.9,2.4c-1,0.7-1.8,1.6-0.9,2.7c0.9,1.1,1.8,0.4,2.8-0.1
		c1.7-0.9,3.4-1.9,5.3-2.4c3.4-0.9,6.3,0.7,9,2.7c1.9,1.4,5.6,1.5,7.3,0.2c0.4-0.3,0.5-0.9,0.7-1.4c-0.5-0.1-1.1-0.3-1.6-0.3
		c-1.2,0.1-2.4,0.4-3.6,0.6c0-0.2-0.1-0.3-0.1-0.5c0.9-0.5,1.8-0.9,2.5-1.5c0.4-0.3,0.4-1,0.6-1.5c-0.6,0-1.2-0.1-1.8,0.1
		C254.6,130.5,253.6,130.9,252.5,131.3z"/>
	<path d="M200,179.2c-2.4,1-4.3,2-6.3,2.5c-2.7,0.7-5.6-1.3-6.5-3.8c-0.8-2.2,0.6-6,2.6-7.1c0.4-0.2,1.4-0.2,1.6,0.1
		c0.3,0.4,0.3,1.3,0.1,1.8c-0.3,0.7-1,1.2-1.4,1.9c-1.2,2.1,0,4.3,2.4,4.5c2,0.2,3.5-0.9,4.9-2.1c0.3-0.2,0.2-0.9,0.2-1.3
		c0-3.8,0-7.7,0-11.5c0-0.9,0.1-1.7,0.2-2.3c-2.8-0.9-5.7-1.5-8.3-2.7c-5.5-2.6-8.1-9.7-5.7-14.9c1.2-2.6,3.5-4.1,5.9-5.2
		c6.4-3.1,13-3.3,19.4,0.1c4,2.1,6.3,5.8,6.1,10.4c-0.3,4.7-3.4,7.6-7.4,9.5c-2.4,1.1-5,1.7-7.4,2.5c0,1.7,0,3.6,0,5.5
		c0,2.4,0,4.8,0,7.3c0,2.9,4.5,5.7,7.1,4.5c1.6-0.8,2.1-2.1,1.4-3.8c-0.2-0.5-0.5-1.1-0.9-1.5c-0.7-0.8-1.8-1.6-0.6-2.6
		c1.3-1.1,2.1,0.2,2.8,1c1.5,1.8,2.5,3.9,1.5,6.2c-0.9,2.2-2.9,3.6-5.1,3.6c-1.9-0.1-3.8-1-5.6-1.7
		C200.6,179.8,200.1,179.3,200,179.2z"/>
	<path d="M250.1,53c7.4-3.1,8.7-5,9.2-13.6c3.9-0.5,7.7-0.5,11.5,0.4c2.4,0.6,4.9,1.4,7.1,2.5c3.6,1.9,4.9,5.3,3.9,9.2
		c-1.6,6.3-4.8,11.6-9.7,15.9c-3.3,2.9-6,3-9.8,0.6C256.5,64.4,252.8,59.1,250.1,53z"/>
	<path d="M246.3,30.2c-7,1.7-11,7.6-9.2,15.3c-4.8-0.1-9.3-1-13.5-3.2c-1.9-1-3.7-2.2-5.4-3.5c-2.5-2-3.4-4.7-2.4-7.8
		c2.3-6.9,6.5-12.3,12.6-16.2c3-1.9,6.1-1.5,9.1,0.9C242.1,19.6,244.4,24.7,246.3,30.2z"/>
	<path d="M257.4,41.8c-0.1,5.2-4.4,9.5-9.6,9.4c-5.1-0.1-9.4-4.5-9.3-9.6c0.1-5,4.4-9.4,9.2-9.4C253.3,32.3,257.5,36.3,257.4,41.8z"
		/>
	<path class="st0" d="M147.8,212.3c0.4,9.5,2.4,18.6,5.7,27.4c5,13.2,12.1,25.1,21.8,35.5c2.8,3.1,6.1,5.6,9.9,7.5
		c5,2.4,10.1,2.8,15.2,0.6c0.4-0.2,0.9-0.4,1.3-0.3c6.3,1,11.5-1.5,16.3-5.3c5.6-4.4,9.6-10.1,13.5-16c8.1-12.4,13.7-25.9,16-40.6
		c0.6-3.9,0.7-7.8,1.1-12c0.8,2.6,1.6,4.9,2.1,7.3c2.6,11.7,5.4,23.3,7.5,35.1c2,11.6,2.7,23.3,1.7,35c-0.7,8-2.3,15.9-5.2,23.5
		c-3.7,9.6-10.4,16.6-19.4,21.6c-7.4,4.1-15.5,6.4-23.9,7.6c-9.4,1.3-18.8,1.5-28.2,0.4c-7.8-1-15.3-3-22.1-7
		c-7.3-4.3-12.6-10.5-16.5-18c-5-9.6-7.1-20-7.9-30.6c-0.8-10.5-0.7-20.9,1.2-31.3c2.4-13.3,5.6-26.5,9.4-39.5
		C147.5,212.9,147.7,212.6,147.8,212.3z"/>
	<path class="st0" d="M198.3,247.2c-10-15.8-21.7-30.4-28.3-47.7c18.6-0.4,37-0.9,55.7-1.3c-0.9,2.3-1.6,4.7-2.8,6.9
		c-4,7.5-8.1,15-12.3,22.3c-3.8,6.4-7.8,12.7-11.7,19.1C198.7,246.6,198.5,246.8,198.3,247.2z"/>
	<path class="st0" d="M117.1,30.6c5.7-0.1,9.9,2.1,13.4,5.3c5.4,5,8.6,11.3,10.2,18.5c0.1,0.5-0.2,1.5-0.6,1.8
		c-5.2,4.7-9.8,9.8-13.8,15.6c-0.8,1.2-1.7,1.5-3,1.6c-8.1,0.4-14.6-2.9-19.9-8.8c-3.6-4-6.1-8.7-5.4-14.3c0.8-7,4.3-12.3,9.9-16.3
		C111.8,31.1,114,30.6,117.1,30.6z"/>
	<path class="st0" d="M144.4,129.6c-1.1-0.7-2-1.3-2.7-2c-0.3-0.3-0.1-1-0.2-1.5c0.5,0,1-0.1,1.4,0.1c0.9,0.4,1.6,0.9,2.5,1.4
		c1.8,1,3.4,0.1,5.2-0.2c4.3-0.6,7.8,1.1,10.9,3.8c0.4,0.3,0.4,1.5,0.1,2.1c-0.5,0.8-1.4,0.8-2.2,0.3c-1.1-0.7-2.1-1.5-3.2-2
		c-3.5-1.7-7-1.3-10.1,1c-2.4,1.8-4.9,1.7-7.5,1.4c-0.5-0.1-1-0.3-1.4-0.7c-0.3-0.3-0.4-0.9-0.6-1.3c0.5-0.1,1-0.4,1.5-0.4
		c1.2,0.1,2.4,0.4,3.6,0.7c0-0.2,0.1-0.4,0.1-0.6c-0.8-0.4-1.7-0.8-2.4-1.3c-0.4-0.3-0.4-1.1-0.6-1.7c0.6,0,1.2-0.2,1.6,0.1
		C141.6,129.5,142.7,130.1,144.4,129.6z"/>
	<path class="st0" d="M252.5,131.3c1.1-0.4,2.1-0.9,3.2-1.2c0.5-0.2,1.2,0,1.8-0.1c-0.2,0.5-0.3,1.2-0.6,1.5c-0.8,0.6-1.7,1-2.5,1.5
		c0,0.2,0.1,0.3,0.1,0.5c1.2-0.2,2.4-0.5,3.6-0.6c0.5-0.1,1.1,0.2,1.6,0.3c-0.2,0.5-0.3,1.1-0.7,1.4c-1.7,1.3-5.4,1.2-7.3-0.2
		c-2.7-2-5.6-3.6-9-2.7c-1.8,0.5-3.6,1.4-5.3,2.4c-1,0.5-1.9,1.2-2.8,0.1c-0.9-1.2-0.1-2.1,0.9-2.7c3.9-2.8,8.2-4,12.9-2.4
		c1.9,0.6,3.2-0.3,4.6-1.2c0.5-0.3,1.3-0.3,1.9-0.4c-0.2,0.7-0.3,1.5-0.7,2c-0.5,0.6-1.3,0.9-1.9,1.3
		C252.4,130.9,252.4,131.1,252.5,131.3z"/>
</g>
</svg>
