<?xml version="1.0" encoding="utf-8"?>
<!-- Generator: Adobe Illustrator 24.0.1, SVG Export Plug-In . SVG Version: 6.00 Build 0)  -->
<svg version="1.1" id="Layer_1" xmlns="http://www.w3.org/2000/svg" xmlns:xlink="http://www.w3.org/1999/xlink" x="0px" y="0px"
	 viewBox="0 0 1205.3 1248.5" style="enable-background:new 0 0 1205.3 1248.5;" xml:space="preserve">
<style type="text/css">
	.st0{fill:#FFFFFF;}
	.st1{fill:#210B20;}
</style>
<g>
	<path d="M240,992.7c4.8-30.1,7.7-58.3,14.2-85.7c9.3-39.4,27.3-75.1,51.2-107.9c4.3-5.8,7.8-12.8,9.4-19.8
		c0.4-1.6,3.8-10.8,3.8-10.8l0.1-130.1c0-5.1,1.4-8.5,7.7-8.6l29.6,0c-0.9-8.7-6.5-16.4-10.1-29.5c-19.3-67.9-19.4-135.3,13.2-201.8
		c-30.4-15.2-52.8-36.8-54.2-72.5c-0.8-21.9,6.2-42,22.2-57.6c19.2-18.7,42.3-25.6,68.8-21c26.6,4.6,44.3,21.3,58.2,44.4
		c43.4-25.1,89.1-39.2,138.7-39.3c49.7,0,95.4,13.8,138.5,39.6c4.9-6.6,9.2-13.2,14.4-19c40.4-45.8,111.8-31.5,131.5,26.1
		c11.9,34.8-2.3,71.3-35.6,91.3c-13.9,8.3-13.6,8.2-7.6,22.9c17.4,42.5,23.1,86.6,17.1,132.2c-0.4,3.2-0.1,6.5-0.1,11.1
		c22.1,0,43.2-0.1,64.2,0c15.8,0.1,31.7-0.4,47.5,0.8c13.2,1,21.2,11.4,21.4,26.3c0.4,21.2,0.2,42.4,0.1,63.6
		c0,40.1,0,80.2-0.1,120.2c0,23.1-0.1,46.2-0.2,69.3c-0.1,20.8-8.7,29.4-29.8,29.7c-6.7,0.1-13.4,0-21.6,0
		c16.3,41.2,23.4,82.1,23.6,126c5.3,0,9.7,0,14.1,0c32.2,0,64.4-0.2,96.5,0.2c4,0,12,0.4,12,4.7c0,4.4-8.1,4.7-12.1,4.7
		c-233.9,0.2-467.9,0.2-701.8,0.2c-74.9,0-149.9,0-224.8,0c-3.4,0-6.9,0.3-10.1-0.5c-1.6-0.4-3.7-1.8-3.7-4.6c0-2.6,2.3-3.8,4-4.2
		c2.8-0.8,6-0.4,9-0.4c29.9-0.1,59.8-0.1,89.7-0.1C233.2,992.7,237.2,992.7,240,992.7z M272.5,888.3c4.2-4,9.6-7.4,12.4-12.2
		c9.7-16.6,18.7-33.6,27.4-50.8c2.1-4.1,2.1-9.3,3-14c-15.4,13.6-36.8,54.7-42.6,77.3c-3.9,11.9-7.8,23.7-11.6,35.6
		c1.5,0.4,3,0.8,4.5,1.1C267.9,913,270.2,900.7,272.5,888.3z M391.2,638.7c2.7,10.7,6.1,20.2,7.5,29.9c6,40.9-20.5,78.3-61.1,85.9
		c-8.5,1.6-11.1,4.5-11.1,13c0.3,67.8,0.2,135.5-0.1,203.3c-0.1,10.9,3,14.7,14.8,14.6c165.4-0.5,330.9-0.3,496.3-0.4
		c8.7,0,17.4-0.2,26.1,0c6.1,0.1,8.8-1.8,8.8-8.4c-0.3-34.8-0.1-69.6-0.2-104.5c0-1.8-0.9-3.5-1.6-6.1c-21,0-41.8,0.1-62.6,0
		c-29.2-0.1-35.5-6.3-35.6-35.2c0-60.2-0.2-120.4,0.2-180.6c0.1-9.6-2.9-12.5-12.2-12.2c-14.6,0.5-29.3-0.5-43.9-0.4
		c-33.1,0.2-66.2,1-99.3,1c-31.6,0-63.2-1-94.8-1c-23.7,0-47.4,0.8-71.1,1C431.2,638.8,411.1,638.7,391.2,638.7z M772.8,627.2
		c0-14.8,0-29.1,0-43.4c0-16,8.8-25.5,24.9-26.2c9.4-0.4,19-0.7,28.4-0.1c8.8,0.6,12.7-2,13.8-11.4c6.7-58-4.4-111.8-34.2-162.4
		C747.7,285.3,621,237.4,514,276.8c-102,37.5-159.1,111.6-169.6,220.1c-3.7,37.5,3.2,74,17.1,108.9c5,12.6,15.7,21.4,30,21.6
		c41,0.5,82.1,0.2,123.1,0.2c11.5,0,23,0,37.4,0c-5.7-7-9.5-10.4-11.7-14.6c-11.2-21.3-11.7-27.2,11.2-34.3
		c28.4-8.8,57.4-9.4,85.8,1.4c16.7,6.3,19.4,15.1,9.4,30.2c-3.6,5.4-8,10.3-13.2,16.8C680.7,627.2,725.8,627.2,772.8,627.2z
		 M781.5,732.1c0.1,0,0.2,0,0.4,0c0,35.6-0.1,71.1,0.1,106.7c0.1,12,4.9,17.6,15.9,17.7c53.7,0.2,107.5,0,161.2,0
		c8.1,0,12.6-4.4,14.4-11.8c0.8-3.3,0.9-6.7,0.9-10.1c-0.2-82.7-0.5-165.4-0.9-248c-0.1-16.4-3.4-19.7-19.6-19.7
		c-12.1,0-24.2,0.4-36.2,0.4c-40.1-0.1-80.2-0.5-120.2-0.4c-10.1,0-15.9,6.7-15.9,16.8C781.5,633.1,781.5,682.6,781.5,732.1z
		 M314.8,984.1c0-14.9,0-29,0-44.7c-13.4,0-26.6-0.6-39.7,0.3c-6.2,0.4-16.6,2.2-17.6,5.6c-2,6.7-0.1,15.4,2.8,22.3
		c4,9.5,12.8,15.2,23.1,16.3C293.5,984.9,303.7,984.1,314.8,984.1z M883.9,939.7c0,7.2,0,13.2,0,19.2c0,28.4,0.5,28.9,29.1,25.5
		c0.4,0,0.8-0.1,1.1-0.1c16.5-2.5,30.4-18.1,29-33.9c-0.3-3.8-4.8-10-7.7-10.2C918.6,939.2,901.7,939.7,883.9,939.7z M275.7,928.4
		c11.6,0,23.2,0.3,34.8-0.3c1.9-0.1,5-3.7,5.1-5.8c0.5-13.9,0.2-27.8,0.2-41.5C288.9,879.6,277.3,893.6,275.7,928.4z M323,345.5
		c-0.5-5.1-1-8.7-1.3-12.4c-1.6-21.5,7-35.8,26.1-44.6c5.4-2.5,10.6-6,15.1-9.9c15.9-14,32.8-16.1,52.2-5.8c4,2.1,8,4.4,14.5,8
		c-19.7-25.4-58.1-30-84.3-12.5C319.9,285.2,308.7,321.8,323,345.5z M920.2,928.3c-1.9-8.3-3.7-15.5-5.1-22.8
		c-3-16.2-12.4-24-31.4-24.4c0,13.8-0.2,27.7,0.2,41.5c0.1,1.9,3.4,5.3,5.3,5.4C899.3,928.6,909.4,928.3,920.2,928.3z M858,286.6
		c-14.2-20.9-34.2-30.5-59.4-28.8c-25.5,1.7-41.8,17.2-54.2,38c-0.7,1.3,0.9,3.9,1.7,7.1C779.5,258.9,821.3,254.7,858,286.6z"/>
	<path class="st0" d="M391.2,638.7c19.9,0,40,0.1,60.2,0c23.7-0.2,47.4-1,71.1-1c31.6,0.1,63.2,1,94.8,1c33.1,0,66.2-0.8,99.3-1
		c14.6-0.1,29.3,0.9,43.9,0.4c9.3-0.3,12.3,2.6,12.2,12.2c-0.4,60.2-0.2,120.4-0.2,180.6c0,28.8,6.3,35.1,35.6,35.2
		c19.2,0.1,38.4,0,57.8,0c3.2,0,6.1,2.3,6.4,5.5c0,0.2,0,0.4,0,0.6c0.1,34.8-0.1,69.6,0.2,104.5c0,6.6-2.7,8.6-8.8,8.4
		c-8.7-0.2-17.4,0-26.1,0c-165.4,0-330.9-0.1-496.3,0.4c-11.8,0-14.9-3.8-14.8-14.6c0.3-67.8,0.3-135.5,0.1-203.3
		c0-4.8-0.1-97.6-0.1-123.3c0-3.6,2.9-6.5,6.6-6.5C346.7,638,378.4,638.4,391.2,638.7z"/>
	<path class="st0" d="M772.8,627.2c-47,0-92.1,0-139.3,0c5.2-6.5,9.6-11.4,13.2-16.8c10-15,7.3-23.9-9.4-30.2
		c-28.4-10.8-57.4-10.3-85.8-1.4c-22.9,7.1-22.4,13-11.2,34.3c2.2,4.2,6,7.6,11.7,14.6c-14.5,0-25.9,0-37.4,0
		c-41,0-82.1,0.3-123.1-0.2c-14.4-0.2-25-9-30-21.6c-13.8-34.9-20.7-71.5-17.1-108.9c10.6-108.5,67.6-182.6,169.6-220.1
		c107-39.3,233.8,8.6,291.7,107c29.7,50.6,40.8,104.4,34.2,162.4c-1.1,9.4-5,12-13.8,11.4c-9.4-0.7-18.9-0.3-28.4,0.1
		c-16.1,0.7-24.9,10.2-24.9,26.2C772.8,598.1,772.8,612.4,772.8,627.2z M615.5,458.5c0.2,33.2,19.4,68.6,49.3,91.9
		c19.6,15.3,41.7,25.7,66.3,26.4c31.5,0.9,62.7-18.3,60.8-63.1c-2.2-51.1-51.8-105.3-102.7-112.9
		C645.3,394.2,615.2,417.8,615.5,458.5z M511.5,399.8C458.5,399.7,405,447.6,395,504.4c-8,45.2,23.8,79.8,73,70.3
		c17.6-3.4,33.8-9.7,48.3-20.8c28.5-21.8,48.3-48.9,53.6-85C575.7,429.2,550.7,399.8,511.5,399.8z"/>
	<path class="st0" d="M781.5,732.1c0-49.5,0-99,0-148.5c0-10.1,5.8-16.7,15.9-16.8c40.1-0.1,80.2,0.3,120.2,0.4
		c12.1,0,24.2-0.4,36.2-0.4c16.2,0,19.5,3.3,19.6,19.7c0.3,82.7,0.6,165.4,0.9,248c0,3.4-0.1,6.9-0.9,10.1
		c-1.8,7.4-6.3,11.8-14.4,11.8c-53.7,0-107.5,0.2-161.2,0c-11,0-15.8-5.6-15.9-17.7c-0.2-35.6-0.1-71.1-0.1-106.7
		C781.8,732.1,781.7,732.1,781.5,732.1z"/>
	<path class="st0" d="M314.8,984.1c-11.1,0-21.3,0.8-31.3-0.2c-10.3-1.1-19.1-6.7-23.1-16.3c-2.9-6.8-4.7-15.6-2.8-22.3
		c1-3.4,11.3-5.2,17.6-5.6c13.1-0.8,26.2-0.3,39.7-0.3C314.8,955.1,314.8,969.2,314.8,984.1z"/>
	<path class="st0" d="M883.9,939.7c17.8,0,34.7-0.5,51.5,0.5c2.9,0.2,7.4,6.4,7.7,10.2c1.4,15.8-12.5,31.4-29,33.9
		c-0.4,0.1-0.8,0.1-1.1,0.1c-28.6,3.4-29.1,3-29.1-25.5C883.9,953,883.9,947,883.9,939.7z"/>
	<path class="st0" d="M275.7,928.4c1.5-34.8,13.2-48.8,40.1-47.6c0,13.8,0.2,27.7-0.2,41.5c-0.1,2.1-3.2,5.7-5.1,5.8
		C298.9,928.7,287.3,928.4,275.7,928.4z"/>
	<path class="st0" d="M323,345.5c-14.2-23.7-3.1-60.3,22.4-77.3c26.2-17.5,64.6-12.8,84.3,12.5c-6.6-3.6-10.5-5.9-14.5-8
		c-19.4-10.3-36.3-8.2-52.2,5.8c-4.5,3.9-9.7,7.4-15.1,9.9c-19.1,8.8-27.7,23.1-26.1,44.6C322,336.8,322.4,340.5,323,345.5z"/>
	<path class="st0" d="M920.2,928.3c-10.8,0-20.8,0.3-30.9-0.3c-2-0.1-5.3-3.5-5.3-5.4c-0.5-13.8-0.2-27.7-0.2-41.5
		c19,0.4,28.4,8.1,31.4,24.4C916.5,912.8,918.3,920,920.2,928.3z"/>
	<path class="st0" d="M858,286.6c-36.7-31.9-78.5-27.7-111.8,16.3c-0.8-3.2-2.5-5.9-1.7-7.1c12.3-20.7,28.7-36.3,54.2-38
		C823.8,256.2,843.8,265.8,858,286.6z"/>
	<path class="st0" d="M272.7,888.5c5.8-22.6,27.2-63.7,42.6-77.2c-1,4.7-0.9,9.9-3,14c-8.7,17.1-17.7,34.2-27.4,50.8
		c-2.8,4.8-8.2,8.2-12.4,12.2L272.7,888.5z"/>
	<path class="st0" d="M272.5,888.3c-2.3,12.3-4.6,24.7-6.9,37c-1.5-0.4-3-0.8-4.5-1.1c3.9-11.9,7.8-23.7,11.6-35.6
		C272.7,888.5,272.5,888.3,272.5,888.3z"/>
	<path d="M615.5,458.5c-0.3-40.7,29.8-64.3,73.7-57.8c50.9,7.6,100.6,61.8,102.7,112.9c1.9,44.8-29.4,64-60.8,63.1
		c-24.7-0.7-46.7-11.1-66.3-26.4C634.9,527.1,615.7,491.7,615.5,458.5z M692.2,544.6c24-0.5,41.3-18.1,41.1-41.9
		c-0.2-22.1-19.9-41.3-41.8-40.6c-22.4,0.8-41.6,20.3-41,41.8C651.1,526.5,670.1,545.1,692.2,544.6z M778.1,494.7
		c-7.7-29.4-26-51-50.6-67.6c-17.6-11.9-36.7-19.1-58.6-17.4c-20.8,1.6-35.4,12.8-41.3,35.1c13.7-24.5,33.4-32.4,55.9-27.7
		c16.9,3.6,33.7,11.1,48.5,20.3C753.6,450.6,767.7,471.5,778.1,494.7z"/>
	<path d="M511.5,399.8c39.2,0,64.2,29.4,58.4,69.2c-5.3,36.1-25.2,63.2-53.6,85c-14.5,11-30.7,17.4-48.3,20.8
		c-49.2,9.5-81-25-73-70.3C405,447.6,458.5,399.7,511.5,399.8z M534.9,504.6c0.4-23.2-18-42.3-41-42.5
		c-21.7-0.2-40.9,18.3-41.5,39.9c-0.7,23,17.8,42.7,40.5,43.1C515,545.5,534.5,526.8,534.9,504.6z M406.4,530.3
		c-4-69.8,80.2-136.6,135.7-110.6c-14.9-16-53.9-14.6-89.7,10.9C418,455.2,395.2,504.7,406.4,530.3z"/>
	<path class="st0" d="M692.2,544.6c-22.1,0.5-41.1-18.1-41.7-40.7c-0.6-21.5,18.6-41.1,41-41.8c21.9-0.7,41.6,18.5,41.8,40.6
		C733.5,526.5,716.2,544.1,692.2,544.6z M687.8,540.1c16.4,0.5,28.1-10.8,28.3-27.1c0.1-15.1-12-27.3-27.2-27.5
		c-14.8-0.1-27,11.3-27.6,25.8C660.7,528,671.4,539.6,687.8,540.1z"/>
	<path class="st0" d="M778.1,494.7c-10.3-23.2-24.5-44-46.1-57.4c-14.8-9.1-31.6-16.7-48.5-20.3c-22.4-4.8-42.2,3.2-55.9,27.7
		c5.9-22.3,20.5-33.5,41.3-35.1c21.8-1.7,41,5.6,58.6,17.4C752.1,443.6,770.4,465.3,778.1,494.7z"/>
	<path class="st0" d="M534.9,504.6c-0.4,22.2-19.8,40.9-41.9,40.5c-22.7-0.5-41.2-20.1-40.5-43.1c0.6-21.6,19.8-40.1,41.5-39.9
		C516.9,462.3,535.3,481.4,534.9,504.6z M470.1,512.2c-0.4,15.7,10.5,27.4,26.1,28.1c15.3,0.6,27.8-10.8,28.6-26
		c0.8-15.5-11.5-28.5-27-28.7C482.2,485.4,470.5,496.6,470.1,512.2z"/>
	<path class="st0" d="M406.4,530.3c-11.2-25.6,11.6-75.1,46-99.6c35.8-25.5,74.8-26.9,89.7-10.9
		C486.6,393.7,402.4,460.5,406.4,530.3z"/>
	<path d="M687.8,540.1c-16.4-0.5-27.1-12.1-26.5-28.7c0.5-14.5,12.8-26,27.6-25.8c15.2,0.1,27.3,12.4,27.2,27.5
		C715.9,529.3,704.1,540.6,687.8,540.1z M697.7,520.6c-6.7-4.7-11.3-10.2-14.3-9.4c-4.1,1-7.1,6.8-10.5,10.6c3.6,3.1,7.1,8.5,11,8.8
		C687.4,530.8,691.3,525.5,697.7,520.6z"/>
	<path d="M470.1,512.2c0.4-15.6,12-26.8,27.7-26.6c15.5,0.2,27.8,13.2,27,28.7c-0.8,15.2-13.3,26.6-28.6,26
		C480.6,539.7,469.7,528,470.1,512.2z M488.2,520.6c6.4,4.9,10.3,10.2,13.9,10c3.9-0.3,7.3-5.7,11-8.9c-3.5-3.7-6.6-9.4-10.7-10.4
		C499.3,510.4,494.8,515.9,488.2,520.6z"/>
	<path class="st0" d="M697.7,520.6c-6.4,4.9-10.3,10.2-13.9,9.9c-3.8-0.3-7.3-5.6-11-8.8c3.4-3.8,6.4-9.5,10.5-10.6
		C686.4,510.4,691,515.9,697.7,520.6z"/>
	<path class="st0" d="M488.2,520.6c6.6-4.6,11.1-10.1,14.1-9.4c4.2,1,7.2,6.7,10.7,10.4c-3.6,3.2-7.1,8.7-11,8.9
		C498.6,530.8,494.6,525.4,488.2,520.6z"/>
</g>
<g>
	<path class="st1" d="M914.2,738.7c11.5-10.4,18-25.1,18-40.4c0-30-24.6-54.6-54.6-54.6c-30,0-54.6,24.6-54.6,54.6
		c0,15.7,6.9,30.7,18.5,41c8.7,8.7,7.8,27,7.8,27.2c0,0.9,0.4,1.8,0.9,2.5c0.7,0.7,1.6,1.1,2.5,1.1h50c0.9,0,1.8-0.4,2.5-1.1
		c0.7-0.7,0.9-1.6,0.9-2.5c0-0.2-0.9-18.5,7.8-27.2C914,739,914.2,738.9,914.2,738.7z M909.2,734.3c-0.4,0.2-0.5,0.5-0.7,0.9
		c-7.8,8.3-9,21.9-9.2,28.3h-43.3c-0.2-6.5-1.6-20.7-9.9-29c-10.4-9.2-16.4-22.3-16.4-36c0-26.5,21.5-47.9,47.9-47.9
		c26.5,0,47.9,21.5,47.9,47.9C925.5,712,919.6,725.3,909.2,734.3z"/>
	<path class="st1" d="M877.6,657.8c-1.8,0-3.4,1.4-3.4,3.4c0,1.8,1.4,3.4,3.4,3.4c19.8,0,35.9,16.1,35.9,35.9c0,1.8,1.4,3.4,3.4,3.4
		c1.8,0,3.4-1.4,3.4-3.4C920.2,676.9,901.1,657.8,877.6,657.8z"/>
	<path class="st1" d="M907.6,782.5c0-4.6-3.7-8.1-8.1-8.1h-43.6c-4.6,0-8.1,3.7-8.1,8.1c0,4.6,3.7,8.1,8.1,8.1h43.5
		C903.9,790.6,907.6,787.1,907.6,782.5z M899.3,783.9h-43.5c-0.9,0-1.4-0.7-1.4-1.4c0-0.9,0.7-1.4,1.4-1.4h43.5
		c0.9,0,1.4,0.7,1.4,1.4C900.9,783.4,900.2,783.9,899.3,783.9z"/>
	<path class="st1" d="M893,794.1h-30.6c-4.6,0-8.1,3.7-8.1,8.1c0,4.6,3.7,8.1,8.1,8.1H893c4.6,0,8.1-3.7,8.1-8.1
		S897.4,794.1,893,794.1z M893,803.7h-30.6c-0.9,0-1.4-0.7-1.4-1.4c0-0.9,0.7-1.4,1.4-1.4H893c0.9,0,1.4,0.7,1.4,1.4
		C894.4,803.2,893.9,803.7,893,803.7z"/>
	<path class="st1" d="M881,624v-22.6c0-1.8-1.4-3.4-3.4-3.4c-1.8,0-3.4,1.4-3.4,3.4v22.8c0,1.8,1.4,3.4,3.4,3.4
		C879.5,627.4,881,626,881,624z"/>
	<path class="st1" d="M933.2,614.9c-1.6-1.1-3.5-0.5-4.6,0.9l-12.5,18.9c-1.1,1.6-0.5,3.5,0.9,4.6c0.5,0.4,1.2,0.5,1.8,0.5
		c1.1,0,2.1-0.5,2.8-1.4l12.5-18.9C935.2,618,934.7,615.9,933.2,614.9z"/>
	<path class="st1" d="M837.7,639.1c0.5,0,1.2-0.2,1.8-0.5c1.6-1.1,1.9-3,1.1-4.6l-12.2-19.1c-1.1-1.6-3-1.9-4.6-1.1
		c-1.6,1.1-1.9,3-1.1,4.6l12.2,19.1C835.6,638.5,836.6,639.1,837.7,639.1z"/>
	<path class="st1" d="M790.9,655l20,10.8c0.5,0.4,1.1,0.4,1.6,0.4c1.2,0,2.3-0.7,3-1.8c0.9-1.6,0.4-3.7-1.4-4.6l-20-10.8
		c-1.6-0.9-3.7-0.4-4.6,1.4C788.8,652.1,789.3,654.1,790.9,655z"/>
	<path class="st1" d="M942.8,666.3c0.5,0,1.1-0.2,1.6-0.4l20-10.8c1.6-0.9,2.3-2.8,1.4-4.6c-0.9-1.6-2.8-2.3-4.6-1.4l-20,10.8
		c-1.6,0.9-2.3,2.8-1.4,4.6C940.3,665.6,941.5,666.3,942.8,666.3z"/>
</g>
</svg>
