<?xml version="1.0" encoding="utf-8"?>
<!-- Generator: Adobe Illustrator 23.0.5, SVG Export Plug-In . SVG Version: 6.00 Build 0)  -->
<svg version="1.1" id="Layer_1" xmlns="http://www.w3.org/2000/svg" xmlns:xlink="http://www.w3.org/1999/xlink" x="0px" y="0px"
	 viewBox="0 0 400 400" style="enable-background:new 0 0 400 400;" xml:space="preserve">
<style type="text/css">
	.st0{fill:#040605;}
	.st1{fill:#CACBC9;}
	.st2{fill:#FDFDFD;}
	.st3{fill:#B54D28;}
	.st4{fill:#22B4D5;}
	.st5{fill:#EA6826;}
</style>
<g>
	<path class="st0" d="M156.62,377.01c0.4,4.63,0.4,4.64-4.22,4.93c-2.12,0.13-4.26,0.17-6.38,0.33c-1.28,0.1-1.71-0.37-1.72-1.66
		c-0.02-1.81-0.09-3.67-1.89-5.72c0.4,2.27,0.82,3.84,0.86,5.47c0.04,1.54-0.51,1.97-1.99,1.92c-2.95-0.1-5.9-0.15-8.84-0.01
		c-5.98,0.29-10.16-2.47-13.15-7.4c-2.83-4.69-4.29-9.87-5.24-15.2c-1.7-9.58-1.9-19.19-0.44-28.84c1.05-6.95,4.45-12.55,9.41-17.34
		c4.26-4.13,9.1-7.47,14.28-10.32c0.92-0.5,1.5-0.86,1.16-2.21c-1.72-6.95-2.22-14.05-2.26-21.19c-0.01-1.13,0.05-1.91-1.53-1.4
		c-4.09,1.32-7.93,0.31-11.56-1.66c-7.89-4.31-13.04-10.84-16.23-19.23c-5.04-13.26-8.65-26.9-11.65-40.72
		c-2.98-13.75-5.36-27.61-6.27-41.67c-0.42-6.46-0.69-12.93,0.76-19.32c0.4-1.77,0.93-3.54,2.25-4.83c0.93-0.91,0.39-1.3-0.24-1.9
		c-5.98-5.7-11.92-11.45-17.94-17.12c-1.52-1.43-2.67-3-3.55-4.9c-3.01-6.56-7.03-12.54-11.02-18.49c0.35-0.54,0.73-0.35,1.05-0.12
		c5.36,3.72,11.46,5.91,17.38,8.48c2.99,1.29,5.45,3.14,7.62,5.6c4.85,5.51,9.89,10.86,15.29,16.04
		c-1.08-5.65-2.15-11.29-3.23-16.94c-0.06-0.32-0.15-0.64-0.2-0.96c-1.15-6.27-1.15-6.27-7.57-5.37c-2.11,0.29-4.21,0.58-6.32,0.86
		c-0.73,0.09-1.48,0.23-2.02-0.49c-0.63-0.84-0.16-1.61,0.27-2.26c2.26-3.45,5.44-5.91,9.04-7.73c2.13-1.07,2.55-2.18,2.01-4.49
		c-5.03-21.66-9.9-43.35-14.88-65.01c-0.35-1.51-0.16-1.99,1.45-2.1c8.9-0.62,17.8-1.29,26.69-2.08c1.82-0.16,2.31,0.43,2.63,2.12
		c3.5,18.48,7.11,36.94,10.65,55.41c0.46,2.4,0.43,4.87,1.33,7.21c0.36,0.95,0.73,1.22,1.69,1.24c2.86,0.04,5.73,0.15,8.59,0.31
		c0.94,0.05,1.27-0.16,1.28-1.16c0.02-3.68,0.1-7.37,0.26-11.05c0.05-1.06-0.51-1.39-1.26-1.82c-9.93-5.69-13.16-13.25-10.32-24.33
		c1.37-5.34,3.52-10.36,6.75-14.86c5.87-8.2,14.56-11.2,24.18-8.27c1.47,0.45,2.57,0.34,3.86-0.46c3.8-2.34,7.95-3.96,12.32-4.65
		c7.41-1.18,14.83-2.26,22.21-3.61c6.13-1.12,12.26-0.28,18.19,1.54c2.09,0.64,3.32,0.65,4.31-1.67c1.12-2.64,3.06-4.83,5.28-6.69
		c4.4-3.68,9.22-4.33,14.41-1.86c14.76,7.03,19.78,21.11,12.69,35.86c-0.7,1.46-0.67,2.39,0.18,3.72c2.69,4.21,4.83,8.72,6.37,13.48
		c0.32,1,0.76,1.65,1.84,2.03c2.62,0.92,4.85,2.59,6.32,4.87c7.5,11.65,11.1,24.17,7.53,38c-1.52,5.9-5.05,10.76-9.01,15.29
		c-1.67,1.91-3.47,3.71-5.14,5.62c-0.58,0.66-2.02,1.19-1.34,2.21c0.61,0.92,1.7,1.6,3.13,1.54c5.41-0.21,10.8,0.2,16.14,1.13
		c15.98,2.76,31.03,7.82,44.21,17.63c12.51,9.3,16.4,22.26,15.28,37.01c-0.77,10.06-7.79,16.34-18.69,18.01
		c-4.89,0.75-9.8,0.86-14.69,0.24c-1.73-0.22-1.89,0.31-1.74,1.78c0.46,4.46,0.62,9.25-2.21,12.77c-3.19,3.97-1.2,8.11-1.79,12.11
		c-0.12,0.83,0.79,1.17,1.3,1.66c6,5.72,11.34,11.98,16.02,18.85c9.66,14.19,12.14,29.35,7.04,45.78
		c-1.57,5.05-3.11,10.11-5.01,15.49c5.28-1.76,10.29-3.12,15.52-3.18c5.15-0.07,10.23,0.24,13.78,4.81
		c0.35,0.45,0.77,0.44,1.27,0.51c6.54,0.85,10.01,6.69,8.77,13.18c-0.95,4.98-3.93,7.93-7.66,10.56c-4.3,3.03-8.98,5.39-13.89,7.23
		c-11.5,4.29-23.2,7.95-35.24,10.31c-7.23,1.42-14.07,0.5-19.27-5.59c-3.23-3.79-4.42-8.35-4.77-13.15
		c-0.44-6.04-0.57-12.1-1.01-18.14c-0.39-5.37-1.79-10.44-4.91-14.96c-1.21-1.75-2.69-2.58-4.78-2.9
		c-9.17-1.42-18.06-3.81-26.27-8.3c-3.03-1.66-5.86-3.59-8.5-5.79c-0.68-0.57-1.32-1.08-2.32-1.23c-4.65-0.67-4.61-0.7-5.95,3.77
		c-4.03,13.4-12.39,23.6-23.54,31.72c-0.94,0.68-1.72,1.43-2.39,2.39c-1.9,2.73-4.51,4.72-7.29,6.49
		c-8.21,5.23-17.26,8.54-26.39,11.69c-0.67,0.23-1.34,0.47-2.2,0.77c2.06,1.23,3.98,2.31,5.82,3.5c1.23,0.8,2.42,1.69,3.5,2.69
		c3.18,2.92,5.82,6.22,4.72,10.9c-1.16,4.92-4.83,7.52-9.35,9.31c-0.28-1.44-0.52-2.71-0.77-3.98c-0.29-1.55-0.65-3.07-2.26-3.81
		C155.67,374.47,156.15,375.74,156.62,377.01z M252.4,156.8L252.4,156.8c0.17,0.16,0.33,0.31,0.49,0.47
		c3.23,3.1,6.61,6.08,8.87,10.04c0.24,0.43,0.55,0.96,1.12,0.66c3.17-1.67,6.69-2.22,10.21-2.9c-1.69-3.8-8.33-11.13-13.65-15.23
		c-0.22-0.51-0.55-0.87-1.16-0.87l-0.02-0.01c-2.21-2.65-5.23-4.33-7.84-6.49c-0.62-0.52-1.06-0.24-1.64,0.29
		c-2.39,2.17-2.82,5.18-3.63,8.03c-0.16,0.58,0.18,0.89,0.6,1.19c2.05,1.44,4.1,2.89,6.15,4.34l0.01,0.01
		C251.94,156.63,252.1,156.79,252.4,156.8z M167.78,163.26c0.03-0.11,0.06-0.22,0.09-0.33c-0.1,0-0.21,0-0.31,0
		c0.09,0.1,0.18,0.19,0.28,0.29c0.37,0.42,0.73,0.83,1.1,1.25c2.83,3.55,5.91,6.9,7.29,11.44c0.3,1,0.22,2.59,2.07,3.21
		c4.74,1.61,6.02,4.04,5.46,9.27c-0.08,0.79-0.15,1.37,0.69,1.85c3.02,1.72,4.19,4.68,5,7.82c0.43,1.68,0.7,3.41,1.07,5.24
		c1.3-0.71,2.38-1.3,3.45-1.88c8.21-4.41,16.54-8.55,25.66-10.81c0.47-0.12,1-0.34,1.42-0.22c1.21,0.34,1.22,0.41,1.64-0.28
		c0.42-0.71,0.79-1.44,1.4-2.57c-11.83,3.53-22.51,8.48-33.03,14.14c-0.14-5.18-0.99-9.74-5.79-12.37c-0.69-0.38-0.58-0.77-0.5-1.38
		c0.71-5.28-0.64-7.74-5.55-9.73c-1.22-0.5-1.7-1.18-2.11-2.37c-1.59-4.52-3.87-8.64-7.68-11.72
		C168.95,163.67,168.67,162.86,167.78,163.26z M287.18,165.26c0.14,0,0.28,0,0.42,0c-0.03,0.06-0.06,0.12-0.1,0.18
		c-0.12-0.07-0.24-0.14-0.36-0.21c-4.08-2.11-8.19-0.98-12.29-0.57c0,0.2,0,0.4-0.01,0.61
		C278.95,165.26,283.06,165.26,287.18,165.26z M238.1,99.27c-1.4,1.29-2.81,2.58-4.58,4.2c2.98-0.73,5.23-1.9,7.27-3.52
		c4.85-3.41,4.89-6.41,0.15-10.13c-0.92-0.72-1.92-1.27-3.03-1.54c-6.89-1.65-13.56-0.34-20.31,1.36c0.39,0.7,0.68,0.57,1.13,0.54
		c5.78-0.44,11.57-1.29,17.36-0.18c3.57,0.68,5.12,4.09,3.39,7.28C239.09,97.98,238.57,98.61,238.1,99.27z M222.42,75.75
		c-2.02,1.58-4.33,1.98-6.83,1.58c2.83,1.47,5.63,1.86,8.41-0.04c4.38-2.6,5.6-8.03,2.87-12.8c-2.66-4.65-8.01-6.38-12.3-3.96
		c-4.51,2.3-6.03,8.41-3.07,12.38c-0.06-4.4,0.22-5.11,3.08-7.71c4.12-1.21,6.87-0.55,8.68,2.08
		C225.01,69.81,224.73,72.57,222.42,75.75z M213.28,144.41c4.57,2.31,9.3,3.61,14.45,2.21c3.43-0.76,4.81-3.64,6.4-6.27
		c0.41-0.68-0.13-0.94-0.66-1.28c-7.09-4.63-17.13-4.5-24.31,0.34c-1.82,1.23-1.84,1.92,0,3.01
		C210.48,143.2,211.73,144.13,213.28,144.41z M246.05,118.76c3.25-1.55,3.91-4.39,3.64-7.59c-0.36-4.37-2.02-8.35-3.98-12.52
		c-1.81,2.36-4.19,3.76-6.56,5.19c-0.96,0.43-1.88,1.01-2.89,1.27c-1.82,0.48-2.35,1.4-2.07,3.33c0.46,3.15,0.48,6.36-0.86,9.39
		c-0.3,0.67-0.47,1.27,0.52,1.43C237.95,119.93,242.06,120.85,246.05,118.76z M150.61,261.49c8.27-6.29,15.59-13.57,22.16-21.61
		c2.53-3,4.79-6.17,6.52-9.72c0.68-1.4,0.41-2.2-1.12-2.4c-4.7-0.62-8.97-0.66-12.81,3.33c-10.09,10.46-20.28,20.85-31.23,30.45
		c-1.71,1.49-3.99,2.27-5.2,4.38c-1.09,1.91-2.3,3.92-0.62,5.86c1.54,1.79,3.88,1.81,5.9,0.86c5.71-2.67,10.9-6.16,15.53-10.45
		c0.17-0.03,0.31-0.11,0.42-0.23C150.46,261.95,150.64,261.82,150.61,261.49z M162.54,180.56c-6.7,3.52-12.63,8.13-18.33,13.06
		c-1.8,1.56-3.75,2.06-6.04,1.45c-5.65-1.51-11.46-0.62-17.3-1.45c0.36,1.11,0.97,0.99,1.54,1.01c6.29,0.2,12.55,0.66,18.8,1.41
		c1.12,0.13,1.85-0.32,2.62-0.95c6.07-4.99,12.41-9.6,19.06-13.78c1.61-0.91,3.22-1.81,5.01-2.33c1.65-0.48,3.35-0.63,5.05-0.53
		c1.61,0.1,1.84-0.54,1.27-1.87c-1.99-4.65-4.87-8.64-8.72-11.92c-1.6-2.21-3.56-4.08-5.92-5.37c-5.2-2.84-10.02-6.14-14.16-10.39
		c-0.52-0.53-0.98-1.04-1.89-0.66c-2.32,0.97-4.67,1.87-7.38,2.94C146.91,159.47,156.91,168.08,162.54,180.56z M106.02,78.68
		c0.33-0.65,0.08-1.21-0.25-1.77c-0.07-0.48-0.13-0.96-0.21-1.44c-1.34-7.58-2.68-15.16-4.02-22.74c0.67,0.24,0.69,0.89,0.78,1.41
		c1.46,8.28,3.78,16.37,5.35,24.64c1.05,5.51,2.65,10.99,4.03,16.48c0.87,3.46,0.89,3.46,4.56,2.8c2.05,0.49,2.09-0.56,1.8-2.15
		c-2.29-12.77-4.52-25.55-6.78-38.32c-1.3-7.39-2.58-14.79-3.97-22.16c-0.14-0.77,0.29-2.3-1.29-2.17
		c-5.92,0.5-11.88,0.66-17.76,1.62c-2.36,0.12-4.73,0.26-7.09,0.34c-1.3,0.04-1.76,0.53-1.35,1.83c0.58,1.87,1.11,3.75,1.61,5.65
		c0.29,1.09,0.93,1.38,1.99,1.19c2.41-0.42,4.84-0.77,7.26-1.14c0.48-0.06,0.98-0.07,1.44-0.19c0.85-0.22,1.37-0.13,1.52,0.92
		c0.15,1.06-0.38,1.26-1.23,1.32c-0.39,0.03-0.77,0.2-1.16,0.31c-1.78,0.22-3.55,0.46-5.33,0.67c-3.58,0.43-3.57,0.55-2.88,4.03
		c0.37,1.88,1.31,2.19,2.9,1.83c0.79-0.18,1.59-0.32,2.4-0.44c0.71-0.11,1.01,0.31,1.18,0.94c0.2,0.74-0.2,1.09-0.82,1.22
		c-0.87,0.19-1.76,0.33-2.64,0.45c-1.34,0.18-2.15,0.63-1.49,2.22c0.31,0.74,0.36,1.58,0.5,2.38c0.17,0.95,0.6,1.44,1.67,1.22
		c2.69-0.54,5.4-1.03,8.1-1.54c1.98,0.21,2.19,0.66,1.14,2.38c-2.5,0.38-4.99,0.86-7.5,1.12c-2.04,0.21-2.59,0.95-2.01,3.01
		c0.94,3.31,0.8,3.35,4.29,2.93c0.16-0.02,0.33-0.03,0.49-0.06c0.86-0.17,1.16,0.3,1.3,1.04s-0.23,1.05-0.87,1.19
		c-0.72,0.16-1.43,0.41-2.15,0.46c-1.35,0.09-1.67,0.74-1.32,1.95c0.2,0.7,0.4,1.43,0.47,2.15c0.13,1.27,0.72,1.67,1.97,1.42
		c3.04-0.6,6.09-1.13,9.14-1.68c0.55,0.61,0.63,1.38,0.74,2.14c-2.11,0.67-4.31,0.87-6.49,1.21c-4.52,0.7-4.41,0.72-3.5,5.14
		c0.33,1.57,0.98,1.86,2.31,1.52c0.55-0.14,1.13-0.19,1.67-0.37c0.98-0.33,1.58-0.08,1.77,0.98c0.21,1.17-0.78,1.07-1.4,1.26
		c-0.7,0.22-1.44,0.27-2.16,0.39c-0.91,0.16-1.21,0.65-0.98,1.56c0.43,1.74,0.83,3.49,1.18,5.25c0.22,1.12,0.72,1.44,1.88,1.2
		c2.56-0.51,5.15-0.91,7.73-1.27c0.7-0.1,1.67-0.58,1.89,0.79c0.21,1.28-0.72,1.28-1.48,1.42c-2.49,0.46-4.98,0.93-7.48,1.3
		c-1.28,0.19-1.64,0.73-1.25,1.97c0.31,1.01,0.45,2.07,0.64,3.12c0.17,0.96,0.54,1.51,1.64,1.05c4.01-1.69,8.22-2.68,12.46-3.56
		c0.83-0.17,1.28-0.37,1.06-1.42c-1.33-6.34-2.27-12.76-4.02-19.02L106.02,78.68z M91.25,107.77c-2.88,1.64-5.68,3.38-7.88,6.03
		c0.86,0.53,1.51,0.27,2.13,0.2c9.52-1.14,19.06-2.21,28.58-0.33c11.62,2.28,14.2,5.14,16,15.17c1.13,6.31,1.3,12.68,1.33,19.06
		c0.01,2.87,0.13,2.99,2.86,1.91c1.82-0.72,3.61-1.53,5.39-2.37c2.96-1.4,2.98-1.44,1.06-4.13c-4.19-5.9-6.44-12.26-4.83-19.6
		c0.24-1.1,0.38-2.22-0.03-3.37c-2.09-5.89-3.14-12-3.75-18.19c-0.09-0.94-0.29-1.51-1.36-1.62c-5.05-0.48-10.09-0.75-15.12,0.16
		C107,101.3,98.83,103.52,91.25,107.77z M238.39,124.9c0.6,6.35,0.63,12.61-3.19,18.19c-0.85,0.8-1.69,1.6-2.54,2.39
		c-2.8,1.62-5.8,2.5-9.06,2.59c-10.27,0.28-18.44-4.02-25.22-11.43c-0.85-1.75-2.22-3.28-2.53-5.25c-0.23-1.44-1.04-1.8-2.31-1.95
		c-2.95-0.36-5.71-1.31-8.41-2.97c1.24-0.29,2.18-0.01,3.14,0.21c4.49,0.99,9,1.63,13.61,0.72c1.29-0.25,1.45-0.62,0.81-1.71
		c-1.02-1.73-1.61-3.65-2.02-5.65c1.61,1.71,3,3.59,4.59,5.27c3.77,3.98,7.31,4.68,12.42,2.62c3.85-1.56,6.93-4.24,10.12-6.81
		c4.27-3.43,4.88-7.84,4.12-12.81c-0.15-0.97-0.36-1.44-1.51-1.25c-4.62,0.77-9.27,0.82-13.92,0.22c-0.84-0.32-1.68-0.61-2.5-0.96
		c-4.08-1.74-5.69-4.74-4.7-9.02c0.36-1.57,1.06-3.07,1.61-4.6c0.04-0.19,0.18-0.51,0.12-0.56c-0.23-0.17-0.4-0.02-0.47,0.24
		c-7.14,3.5-12.17,9.2-16.36,15.84c0.14-2.3,1.08-4.24,1.93-6.21l-0.04-0.16l-0.17,0.02c0.54,0.03,0.52-0.4,0.62-0.75
		c5.01-7.66,13-11.17,21-14.71c-5.64-0.71-9.57-3.7-12.7-7.95c-3.53-4.78-4.62-10.19-4.09-16.01c0.57-2.13,1.42-4.18,2.82-5.84
		c5.21-6.17,10.8-8.58,18.32-4.81c4.88,2.45,9.27,5.52,12.98,9.54c3.62,3.92,6.51,8.2,6.24,13.98c1.14-0.39,2.12-0.79,3.14-1.06
		s2.08-0.57,3.12-0.57c1.74,0,2-0.51,1.37-2.12c-6.13-15.69-16.38-27.85-31.24-35.84c-8.04-4.33-16.69-6.61-25.97-5.51
		c-0.73,0.03-1.46,0.02-2.18,0.11c-5.02,0.6-9.79,2.47-14.92,2.63c-5.44,0.17-10.63,1.74-15.56,4.06c-0.81,0.38-1.84,0.59-2.16,1.37
		c1.41,2.15,3.39,0.87,5.71,1.1c-6.01,3.1-8.41,8.36-10.66,13.6c-5.24,12.18-8.13,25-9.96,38.08c-0.12,0.84,0.15,1.86-0.85,2.63
		c-0.06-0.77-0.1-1.34-0.14-1.91c-0.31-4.5-0.33-4.44-4.7-5.67c-1.42-0.4-1.66-0.01-1.68,1.3c-0.08,4.34-0.3,8.67-0.04,13.01
		c0.34,5.8,1.27,11.49,3.07,17.23c6.92-11.72,20.77-18.47,31.63-15.57c-0.82,0.5-1.73,0.45-2.6,0.55c-4.91,0.6-9.63,1.84-14.09,3.99
		c-14.06,6.76-18.99,20.9-10.74,33.37c10.35,15.65,25.23,23.28,44.23,22.03c1.77-0.12,3.62-0.31,5.26-1.18
		c-0.42-0.98-1.46-0.85-1.92-1.51c1.05-0.46,1.96,0.08,2.88,0.35c5.65,1.7,11.38,3.05,17.25,3.68c6.87,0.74,13.74,0.94,20.35-1.65
		c6.25-2.45,11.12-6.9,13.37-12.96c1.62-4.35,4.18-7.6,6.96-10.95c0.62-0.75,1.23-1.49,1.85-2.24c5.2-4.93,9.96-10.25,12.38-17.12
		c4.5-12.83,1.12-24.76-5.22-35.92c-4.9-8.61-12.68-8.62-19.82-3.22c-3.84,2.91-7.99,4.44-12.55,5.36c0.49,0.48,0.98,0.48,1.67,0.42
		c2.78-0.25,5.56-0.12,8.31,0.39c4.59,0.84,8.21,3.24,9.69,7.67c0.8,2.4,1.7,4.73,2.67,7.05c1.16,2.8,2.17,5.64,2.74,8.62
		c1.13,5.96-0.37,9.56-5.23,12.51c-2.08,0.33-4.13,1.11-6.24,0.85C237.79,121.99,237.72,123.11,238.39,124.9z M128.53,152.97
		c-11.72-0.2-23.19,1.71-34.62,4.21c0.3-1.05,1.22-1.51,2-2.01c1.31-0.84,0.78-1.42-0.05-2.19s-1.52-1.64-2.46-0.16
		c-1.25,1.98-1.88,4.13-1.75,6.48c-0.17,1.13-0.45,2.25-0.51,3.38c-0.61,11.67,0.95,23.19,2.69,34.66
		c1.19,7.89,3.01,15.69,4.74,23.49c2.94,13.26,6.46,26.36,11.86,38.87c3.61,8.35,9.7,14.03,18.44,16.71
		c2.93,0.9,5.76,0.08,7.41-2.03c-1.03,0.33-1.77,0.64-2.54,0.81c-6.53,1.43-9.29-2.78-8.35-6.97c0.57-2.54,1.96-4.65,4.12-6.2
		c1.13-0.81,2.19-1.72,3.36-2.47c0.97-0.63,1.22-1.41,1.06-2.49c-0.94-6.3-1.9-12.6-2.75-18.92c-0.19-1.39-0.8-1.61-2.04-1.75
		c-5.47-0.63-10.99-0.99-16.5-2.07c0.96-1.19,2.47-0.47,3.64-1.44c-3.14-2.18-6.41-3.97-9.37-6.21c-5.02-3.8-8.48-8.57-9.68-14.81
		c-0.73-3.77-1.57-7.53-1.95-11.34c-0.97-9.62,0.74-18.59,7.29-26.15c4.55-5.25,10.38-8.67,16.56-11.61
		c5.99-2.85,12.31-4.84,18.66-7.04C135.25,152.6,132.32,151.31,128.53,152.97z M141.56,272.15c15.21-4.07,29.47-1.66,42.96,6.23
		c6,3.51,12.03,6.95,18.14,10.26c4.66,2.52,9.34,5.27,14.58,6.26c8,1.51,16.12,1.53,24.16,0.01c10.24-1.94,19.1-6.47,26.18-14.25
		c7.69-7.72,13.7-16.62,18.3-26.48c1.14-2.45,1.97-5.02,2.42-7.69c1.47-8.81-0.11-17.42-1.63-26.06c-0.41-2.31-1.39-2.67-3.41-2
		c-1.23,0.41-2.56,0.55-3.86,0.69c-8.41,0.94-15-2.48-17.03-9.54c-1.09-3.79-1.73-7.62-3.56-11.26c-0.97-1.93-1.71-2.96-3.77-2.98
		c-0.74-0.01-1.47-0.11-2.2-0.15c-10.41-0.44-20.78,0.25-31.14,1.02c-3.27,0.24-3.27,0.23-3.43-2.97c-2.58,0.82-5.16,1.56-7.68,2.46
		c-1.99,0.71-3.91,1.61-5.86,2.43c-4.43,1.47-8.54,3.66-12.79,5.54c-2.03,0.9-2.45,2.79-3.29,4.36c-0.55,1.02,1.08,1.6,1.45,2.55
		c0.24,0.6,0.72,1.14,0.83,1.76c0.96,5.07,1.45,10.17-0.02,15.23c-1.32,4.53-4.43,6.57-9.08,5.9c-1.15-0.17-1.69,0.01-2.29,1
		c-2.46,4.08-5.49,7.74-8.68,11.26c-8.89,9.8-18.78,18.44-29.69,25.93c-0.26,0.18-0.94,0.06-0.67,0.59
		C140.69,272.59,141.21,272.3,141.56,272.15z M86.08,134.13c-0.28,0.28-0.56,0.57-0.84,0.85c-2.01-1.72-4.04-3.41-6.02-5.17
		c-0.97-0.86-1.89-1.75-3.08-0.48c-1.37,1.46,0.42,2.01,1.03,2.61c6.61,6.54,13.44,12.87,19.89,19.56c2.18,2.26,3.8,3.15,6.8,1.67
		c2.66-1.32,3.65-3.48,1.6-5.67c-7.31-7.78-14.74-15.46-21.81-23.46c-0.48-0.54-0.99-1.03-1.44,0c-0.79,1.8-2.32,2.35-4.17,2.4
		c-0.16,0.21-0.31,0.43-0.47,0.64C80.4,129.43,83.24,131.78,86.08,134.13z M104.08,114.56c-5.95-0.09-5.84-0.11-4.86,4.96
		c0.36,1.85,1.08,2.16,2.75,1.86c1.14-0.21,2.99-1.73,3.4,0.3c0.46,2.29-1.98,1.42-3.16,1.76c-1.38,0.4-2.24,0.86-1.71,2.47
		c0.17,0.54,0.25,1.12,0.28,1.69c0.12,1.89,0.96,2.49,2.88,2.03c2.46-0.58,4.99-0.88,7.49-1.28c0.66-0.1,1.31-0.15,1.49,0.79
		c0.2,1.01-0.34,1.31-1.17,1.45c-1.85,0.31-3.71,0.62-5.56,0.95c-4.16,0.74-4.1,0.74-3.42,4.96c0.24,1.49,0.83,1.94,2.26,1.66
		c1.1-0.21,2.62-1.13,3.26-0.37c1.22,1.46,2.18,0.5,3.19,0.16c1.63-0.54,3.18-1.29,4.8-1.86c1.03-0.36,1.41-0.89,1.23-1.99
		c-0.92-5.65-1.8-11.3-2.65-16.96c-0.16-1.03-0.55-1.55-1.66-1.7C109.83,115.05,106.77,114.49,104.08,114.56z M236,130.15
		c0.02,0,0.04,0,0.06,0c0-1.55,0.02-3.11-0.01-4.66c-0.01-0.39-0.2-0.78-0.3-1.18c-0.77-3.12-3.68-3.92-6.11-1.74
		c-1.7,1.52-3.39,3.07-5.26,4.38c-5.2,3.64-10.73,6.11-17.11,3.16c-1.35-0.62-2.59-1.03-3.95-0.7c-1.71,0.41-4.37-0.36-4.94,1.21
		c-0.63,1.72,1.33,3.51,2.53,5.01c3.33,4.15,3.38,4.11,8.2,1.75c0.15-0.07,0.31-0.1,0.46-0.15c7.99-2.97,16.02-4.55,24.19-0.65
		c1.43,0.68,2.18,0.25,2.23-1.28C236.05,133.59,236,131.87,236,130.15z M160.73,232.62c-0.52-0.05-0.7-0.12-0.84-0.08
		c-8.22,2.28-16.55,3.84-25.1,3.94c-1.31,0.01-1.45,0.59-1.34,1.66c0.37,3.82,0.63,7.66,1.05,11.47c0.27,2.44,0.27,4.95,1.09,7.57
		C144.26,249.18,152.37,241.03,160.73,232.62z M129.56,144.04c0.12-2.87-0.38-5.7-0.49-8.55c-0.07-1.83-0.77-1.73-2.09-1.2
		c-4.92,1.97-9.87,3.88-14.81,5.81c-3.83,1.49-3.83,1.49-3.75,5.69c0.03,1.39,0.14,2.78,0.04,4.16c-0.13,1.72,0.62,2.09,2.17,1.88
		c5.74-0.77,11.5-1.4,17.3-1.36c1.4,0.01,2.13-0.44,1.89-2.04C129.61,146.99,129.64,145.5,129.56,144.04z M243.65,45.55
		c-0.07,1.09-0.08,2.4-0.25,3.7c-0.08,0.65-0.84,1.56,0.09,1.8c0.92,0.24,0.86-0.95,1.06-1.59c3.8-12.41-2.86-24.91-15.32-28.78
		c-3.3-1.03-6.3-0.43-9.06,1.55c-2.79,2-4.81,4.69-6.27,7.74c-1.19,2.49,1.58,1.71,2.41,2.53c0.98,0.98,1.35,0.25,1.7-0.84
		c1.61-4.97,4.69-7.11,9.88-7.08c3.43,0.02,6.4,1.21,8.91,3.5C241.9,32.7,243.45,38.75,243.65,45.55z M137.99,83.92
		c-2.12-1.26-4.22-2.2-5.96-3.59c-7.01-5.64-10.07-10.71-7.83-18.17c2.48-8.24,5.26-16.25,13.5-20.73c1.98-1.08,3.94-2.2,6.42-3.58
		c-4.13,0.32-7.51,1.31-10.14,3.67c-8.34,7.47-12.49,16.93-11.68,28.11C122.79,76.66,131.17,83.97,137.99,83.92z M256.83,190.58
		c-6.33,0.54-12.41,1.19-18.5,1.55c-6.23,0.36-12.3,2.09-18.57,2.08c-0.24,0-0.68,0.41-0.67,0.61c0.03,0.48,0.34,0.77,0.95,0.69
		c1.53-0.22,3.07-0.37,4.61-0.54c10.81-1.21,21.63-2.48,32.54-1.65c0.76,0.06,1.53,0.26,1.67-0.83c0.12-0.94,1.18-1.81-0.07-2.85
		c-4.51-3.72-6.8-8.27-4.66-14.47C250.29,178.81,251.37,184.62,256.83,190.58z M116.82,116.67c0.78,5.13,1.52,10.19,2.37,15.23
		c0.15,0.9-0.4,2.85,1.53,2.24c1.39-0.44,3.93-0.19,3.24-3.15c-0.75-3.25-1.28-6.56-1.91-9.84
		C121.41,117.79,120.87,117.32,116.82,116.67z M345.88,338.5c-0.53-1.39-1.65-2.11-2.65-2.9c-5.43-4.26-11.67-5.74-18.44-5.11
		c-8.59,0.8-16.25,4.12-23.34,8.89c-0.43,0.29-1.12,0.39-1,1.19c0.32,0.26,0.59,0.06,0.85-0.12c3.66-2.69,7.88-4.26,12.03-5.97
		c10.82-4.47,21.05-3.82,30.56,3.41C344.36,338.26,344.79,338.89,345.88,338.5z M80.25,122.17c-0.01-0.61,0.09-1.26-0.48-1.6
		c-2.53-1.52-5.2-2.79-8.06-3.49c-1.15-0.28-2.03,1.28-3.33,1.19c0.02,0.98,0.77,1.59,1.2,2.36c1.17,2.06,2.47,4.05,3.26,6.31
		c0.22,0.62,0.53,0.98,1.23,0.91c0.64-0.06,0.75-0.52,0.84-1.02c0.39-2,1.6-2.95,3.65-2.79C79.94,124.13,80.16,123.18,80.25,122.17z
		 M290.69,231.04c1.83-3.95,2.58-8.08,2.44-12.41c-0.11-3.29-0.7-3.7-3.77-2.21c-0.62,0.3-2.34-0.18-1.68,1.63
		C289.21,222.24,290.03,226.59,290.69,231.04z M294.18,351.86c7.58-0.83,14.43,1.49,21.58,5.39
		C310.46,350.69,301,348.47,294.18,351.86z M300.58,168.65c1.4-0.66,2.45-0.25,3.52-1.13c-3.66-0.77-6.86-1.76-10.12-1.85
		c1.38,1.53,3.79,0.88,5.65,2.03c-0.79,0.44-1.42,0.78-2.41,1.32c5.54,1.3,10.56,3.02,15.55,4.9
		C309.4,171.03,305.27,169.84,300.58,168.65z M286.16,356.01c4.32-5.44,8.77-10.76,14.05-15.32
		C294.2,344.54,289.16,349.32,286.16,356.01z M124.25,121c0.63,3.19,1.25,6.35,1.87,9.51c0.12,0.62,0.04,1.46,1.08,1.17
		c0.82-0.24,1.41-0.57,1.12-1.73c-0.61-2.46-1.09-4.95-2.23-7.24C125.72,121.98,125.57,120.9,124.25,121z M106.01,144.71
		c-0.27-1.88,0.61-3.3-0.68-4.3c-0.41-0.31-1.47-0.1-1.67,0.51C103.1,142.59,104.59,143.24,106.01,144.71z M224.06,85.65
		c-1.61-0.3-3.16-0.31-4.45,0.9C221.09,86.25,222.57,85.95,224.06,85.65z"/>
	<path class="st1" d="M156.62,377.01c-0.48-1.27-0.95-2.54-1.43-3.81c1.62,0.75,1.97,2.26,2.26,3.81
		C157.18,377.01,156.9,377.01,156.62,377.01z"/>
	<path class="st2" d="M204.73,198.13c1.95-0.82,3.87-1.72,5.86-2.43c2.52-0.9,5.1-1.64,7.68-2.46c0.16,3.2,0.16,3.21,3.43,2.97
		c10.37-0.77,20.74-1.45,31.14-1.02c0.74,0.03,1.47,0.14,2.2,0.15c2.06,0.03,2.8,1.05,3.77,2.98c1.83,3.64,2.47,7.46,3.56,11.26
		c2.03,7.06,8.61,10.49,17.03,9.54c1.3-0.15,2.63-0.29,3.86-0.69c2.02-0.67,3-0.31,3.41,2c1.52,8.63,3.1,17.25,1.63,26.06
		c-0.44,2.67-1.27,5.24-2.42,7.69c-4.6,9.86-10.6,18.75-18.3,26.48c-0.81-0.11-1.37,0.33-1.97,0.79
		c-6.81,5.29-14.62,7.87-23.16,8.01c-8.07,0.13-15.54-2.2-21.91-7.17c-4.79-3.74-8.08-8.52-7-15.15c0.34-2.08,0.91-4.11,1.01-6.26
		c0.47-9.76-1.94-19.07-4.22-28.41C207.59,221.17,204.49,209.92,204.73,198.13z M239.93,284.33c0.17-1.98,0.44-3.49,1.03-4.93
		c0.5-1.21,1.35-1.75,2.67-1.62c0.5,0.05,1.26,1.01,1.49-0.19c0.15-0.83-0.7-1.04-1.3-1.19c-1.42-0.34-2.83-0.26-3.65,1.18
		C239.04,279.56,238,281.6,239.93,284.33z"/>
	<path class="st1" d="M204.73,198.13c-0.24,11.79,2.86,23.04,5.62,34.34c2.28,9.34,4.69,18.65,4.22,28.41
		c-0.1,2.14-0.67,4.17-1.01,6.26c-1.08,6.63,2.21,11.41,7,15.15c6.36,4.97,13.84,7.3,21.91,7.17c8.54-0.14,16.35-2.71,23.16-8.01
		c0.6-0.47,1.16-0.9,1.97-0.79c-7.08,7.78-15.94,12.31-26.18,14.25c-8.05,1.52-16.16,1.5-24.16-0.01
		c-5.24-0.99-9.92-3.74-14.58-6.26c-6.11-3.3-12.15-6.75-18.14-10.26c-13.49-7.89-27.75-10.29-42.96-6.23
		c-0.13-0.16-0.25-0.33-0.38-0.49c10.9-7.49,20.8-16.14,29.69-25.93c3.19-3.52,6.22-7.18,8.68-11.26c0.6-0.99,1.13-1.17,2.29-1
		c4.65,0.67,7.76-1.38,9.08-5.9c1.47-5.06,0.98-10.15,0.02-15.23c-0.12-0.62-0.59-1.15-0.83-1.76c-0.38-0.95-2-1.53-1.45-2.55
		c0.85-1.57,1.26-3.46,3.29-4.36C196.19,201.79,200.3,199.6,204.73,198.13z"/>
	<path class="st1" d="M251.85,135.67c-0.62,0.75-1.23,1.49-1.85,2.24c-2.78,3.35-5.35,6.59-6.96,10.95
		c-2.25,6.05-7.11,10.51-13.37,12.96c-6.6,2.58-13.47,2.38-20.35,1.65c-5.87-0.63-11.6-1.99-17.25-3.68
		c-0.92-0.28-1.83-0.81-2.88-0.35c0.46,0.66,1.49,0.53,1.92,1.51c-1.64,0.87-3.49,1.07-5.26,1.18c-19,1.24-33.89-6.38-44.23-22.03
		c-8.25-12.47-3.32-26.61,10.74-33.37c4.46-2.14,9.19-3.39,14.09-3.99c0.87-0.11,1.78-0.05,2.6-0.55
		c-10.85-2.91-24.71,3.85-31.63,15.57c-1.8-5.74-2.74-11.42-3.07-17.23c-0.25-4.34-0.04-8.67,0.04-13.01
		c0.02-1.31,0.26-1.69,1.68-1.3c4.38,1.23,4.4,1.16,4.7,5.67c0.04,0.57,0.08,1.14,0.14,1.91c1-0.77,0.73-1.79,0.85-2.63
		c1.83-13.08,4.72-25.9,9.96-38.08c2.25-5.24,4.65-10.5,10.66-13.6c-2.32-0.23-4.31,1.04-5.71-1.1c0.32-0.78,1.34-0.99,2.16-1.37
		c4.93-2.31,10.12-3.88,15.56-4.06c5.14-0.16,9.9-2.04,14.92-2.63c0.72-0.09,1.45-0.07,2.18-0.11c-0.18,0.24-0.33,0.65-0.55,0.7
		c-7.08,1.59-13.03,5.97-19.94,8.01c-4.2,1.24-7.9,3.6-11.02,6.66c-6.1,5.97-8.47,13.6-9.27,21.84c-0.17,1.76-0.24,3.58,0.36,5.35
		c1.18,3.45,3.24,4.17,6.42,2.41c1.67-0.92,2.56-2.74,4.37-3.41c-0.16,0.63-0.29,1.26-0.48,1.88c-3.69,12.02,0.82,21.48,12.19,26.65
		c10.2,4.64,18.08-0.59,21.8-7.18c5.4-9.54,6.11-19.46,1.99-29.67c1.3,0.24,2.17-0.96,3.38-1c-0.53,5.82,0.56,11.23,4.09,16.01
		c3.13,4.25,7.06,7.24,12.7,7.95c-8,3.54-15.99,7.05-21,14.71c-0.21,0.25-0.41,0.5-0.62,0.74l0.17-0.02l0.04,0.16
		c-0.48-0.06-1.04-0.32-1.43-0.15c-4.57,1.99-9.3,1.63-14.15,1.56c-9.13-0.13-17.54,2.63-24.62,8.67
		c-6.54,5.58-8.62,15.55-3.3,22.93c2.49,3.46,5.73,6.02,9.27,8.24c5.19,3.26,10.68,5.99,16.09,8.86c0.83,0.44,1.54,1.58,2.55,0.97
		c1.07-0.64,0.38-1.74,0.2-2.68c-0.67-3.61,0.51-4.67,3.94-3.41c1.83,0.68,3.6,1.56,5.32,2.51c5.03,2.79,10.3,4.96,15.92,6.11
		c2.81,0.57,5.71,1.43,8.62,0.28c4.78,0.34,9.49,0.05,14.03-1.59c2.44-0.88,4.59-2.21,5.95-4.5c0.48-0.81,1.3-1.77,0.2-2.77
		c0.15-1.62-1-1.53-2.06-1.56c0.85-0.8,1.69-1.6,2.54-2.39c1.82,2.54,2,2.61,4.58,0.85c1.67-1.14,3.15-2.55,4.86-3.6
		C247.09,138.83,248.96,136.45,251.85,135.67z"/>
	<path class="st2" d="M232.66,145.48c1.06,0.03,2.21-0.07,2.06,1.56c-1.86,3.64-5.18,5.28-8.85,6.36c-4.77,1.4-9.65,1.41-14.56,1.03
		c-0.84-0.2-1.68-0.31-3.01,0.25c1.35,0.26,2.18,0.42,3.02,0.58c1.07,0.21,2.15,0.43,3.22,0.64c-2.91,1.15-5.82,0.3-8.62-0.28
		c-5.62-1.15-10.9-3.32-15.92-6.11c-1.71-0.95-3.48-1.84-5.32-2.51c-3.43-1.26-4.62-0.2-3.94,3.41c0.18,0.94,0.86,2.03-0.2,2.68
		c-1.02,0.62-1.73-0.53-2.55-0.97c-5.41-2.87-10.9-5.6-16.09-8.86c-3.54-2.22-6.78-4.78-9.27-8.24c-5.32-7.38-3.24-17.35,3.3-22.93
		c7.08-6.05,15.49-8.8,24.62-8.67c4.86,0.07,9.58,0.43,14.15-1.56c0.38-0.17,0.95,0.09,1.43,0.15c-0.85,1.97-1.79,3.92-1.93,6.22
		c4.18-6.64,9.21-12.34,16.36-15.84c0.11,0.11,0.23,0.22,0.36,0.32c-0.55,1.53-1.25,3.02-1.61,4.6c-0.99,4.29,0.62,7.29,4.7,9.02
		c0.82,0.35,1.67,0.64,2.5,0.96c0.8,2.13,3.03,2.83,4.39,4.44c2.51,2.99,2.09,6.03-1.46,7.48c-6.8,2.77-13.52,3.63-19.72-1.55
		c-0.6-0.5-1.02-0.75-1.35,0.33c-1.39,4.44-4.85,5.75-9.08,5.95c-2.84,0.13-5.6-0.45-8.37-0.92c-0.21,1.02,0.44,1.4,0.91,1.78
		c3.23,2.66,6.2,5.65,9.78,7.84c2.25,1.38,3.93,3.71,6.81,4.03c6.77,7.41,14.95,11.71,25.22,11.43
		C226.86,147.98,229.86,147.1,232.66,145.48z"/>
	<path class="st2" d="M200.72,62.45c-1.21,0.05-2.08,1.24-3.38,1c-6.52-11.31-18.45-9.61-25.55-4.48c-4.58,3.3-7.62,7.76-9.94,12.81
		c-1.81,0.67-2.71,2.48-4.37,3.41c-3.17,1.76-5.24,1.04-6.42-2.41c-0.61-1.77-0.54-3.59-0.36-5.35c0.8-8.23,3.18-15.87,9.27-21.84
		c3.13-3.06,6.83-5.42,11.02-6.66c6.91-2.04,12.86-6.42,19.94-8.01c0.23-0.05,0.37-0.46,0.55-0.7c9.28-1.1,17.93,1.19,25.97,5.51
		c14.86,7.99,25.11,20.14,31.24,35.84c0.63,1.61,0.37,2.13-1.37,2.12c-1.04,0-2.1,0.3-3.12,0.57c-1.02,0.27-2,0.67-3.14,1.06
		c0.28-5.78-2.62-10.06-6.24-13.98c-3.7-4.02-8.1-7.09-12.98-9.54c-7.52-3.77-13.1-1.36-18.32,4.81
		C202.14,58.27,201.29,60.32,200.72,62.45z"/>
	<path class="st3" d="M128.53,152.97c3.79-1.67,6.72-0.38,9.27,2.74c-6.35,2.19-12.67,4.19-18.66,7.04
		c-6.18,2.93-12.01,6.36-16.56,11.61c-6.55,7.56-8.26,16.52-7.29,26.15c0.38,3.81,1.22,7.57,1.95,11.34
		c1.2,6.24,4.67,11.01,9.68,14.81c2.96,2.25,6.23,4.03,9.37,6.21c-1.17,0.97-2.68,0.25-3.64,1.44c5.51,1.08,11.03,1.44,16.5,2.07
		c1.24,0.14,1.85,0.36,2.04,1.75c0.84,6.32,1.8,12.62,2.75,18.92c0.16,1.08-0.09,1.87-1.06,2.49c-1.17,0.75-2.23,1.66-3.36,2.47
		c-2.16,1.55-3.55,3.66-4.12,6.2c-0.95,4.19,1.81,8.41,8.35,6.97c0.77-0.17,1.51-0.48,2.54-0.81c-1.65,2.1-4.48,2.92-7.41,2.03
		c-8.74-2.67-14.84-8.36-18.44-16.71c-5.4-12.51-8.92-25.61-11.86-38.87c-1.73-7.8-3.55-15.6-4.74-23.49
		c-1.74-11.47-3.3-22.99-2.69-34.66c0.06-1.13,0.33-2.26,0.51-3.38c7.6,2.67,15.45,1.93,23.19,1.31c3.88-0.31,7.93-0.73,11.55-2.68
		C129.27,156.36,129.45,156.08,128.53,152.97z"/>
	<path class="st2" d="M251.85,135.67c-2.9,0.78-4.77,3.16-7.21,4.66c-1.71,1.05-3.2,2.46-4.86,3.6c-2.58,1.76-2.76,1.69-4.58-0.85
		c3.81-5.58,3.78-11.83,3.19-18.19c0.64-0.03,1.33,0.08,1.92-0.11c2.26-0.73,5.05-0.53,6.18-3.36c4.86-2.95,6.36-6.55,5.23-12.51
		c-0.57-2.99-1.57-5.83-2.74-8.62c-0.97-2.32-1.86-4.65-2.67-7.05c-1.48-4.43-5.09-6.83-9.69-7.67c-2.76-0.51-5.54-0.64-8.31-0.39
		c-0.69,0.06-1.18,0.06-1.67-0.42c4.56-0.92,8.71-2.46,12.55-5.36c7.13-5.4,14.92-5.4,19.82,3.22c6.35,11.16,9.73,23.1,5.22,35.92
		C261.82,125.42,257.06,130.74,251.85,135.67z"/>
	<path class="st1" d="M88.26,34.88c5.88-0.96,11.84-1.11,17.76-1.62c1.58-0.13,1.15,1.39,1.29,2.17c1.38,7.38,2.66,14.77,3.97,22.16
		c2.25,12.77,4.49,25.55,6.78,38.32c0.29,1.59,0.24,2.64-1.8,2.15c-0.65-5.02-2.27-9.82-3.46-14.72c-2.39-9.8-4.84-19.59-7.4-29.35
		c-1.07-4.08-1.75-8.3-3.66-12.14c-0.46-0.93-1.04-2.31-2.19-1.78c-0.74,0.34-0.58,1.8-0.31,2.87c0.82,3.24,1.53,6.51,2.29,9.77
		c1.34,7.58,2.68,15.16,4.02,22.74c0.08,0.48,0.14,0.96,0.21,1.44c-0.23,0.63-0.43,1.26,0.25,1.77l-0.03-0.04
		c-0.21,3.65,1.08,7.29,0.13,11.39c-2.71-4.62-3.59-9.49-5.59-13.9c-0.11-0.76-0.19-1.54-0.74-2.14c-1.04-4.57-2.95-8.9-3.79-13.52
		c1.05-1.72,0.83-2.16-1.14-2.38c-1.2-4.33-2.4-8.65-3.6-12.98c0.39-0.11,0.77-0.28,1.16-0.31c0.85-0.06,1.37-0.26,1.23-1.32
		c-0.14-1.05-0.66-1.14-1.52-0.92c-0.47,0.12-0.96,0.13-1.44,0.19C89.88,40.12,89.07,37.5,88.26,34.88z"/>
	<path class="st3" d="M115.63,100.68c5.03-0.91,10.07-0.64,15.12-0.16c1.06,0.1,1.26,0.67,1.36,1.62c0.61,6.19,1.66,12.3,3.75,18.19
		c0.41,1.15,0.28,2.27,0.03,3.37c-1.61,7.34,0.64,13.7,4.83,19.6c1.92,2.7,1.9,2.73-1.06,4.13c-1.77,0.84-3.56,1.65-5.39,2.37
		c-2.73,1.08-2.85,0.96-2.86-1.91c-0.02-6.38-0.19-12.75-1.33-19.06c-1.8-10.02-4.38-12.88-16-15.17
		c-9.52-1.87-19.06-0.81-28.58,0.33c-0.61,0.07-1.26,0.33-2.13-0.2c2.2-2.65,5-4.4,7.88-6.03c0.53,0.96,1.46,1.21,2.44,1.41
		c8.98,1.82,17.94,0.98,26.9-0.23c2.66-0.36,5.36-0.67,7.78-1.85c1.33-0.65,3.23-1.26,2.83-3.41c-0.42-2.19-1.87-2.98-4.08-2.94
		C123.29,100.84,119.46,100.72,115.63,100.68z"/>
	<path class="st3" d="M149.73,262.19c-4.63,4.29-9.82,7.78-15.53,10.45c-2.03,0.95-4.36,0.93-5.9-0.86
		c-1.67-1.94-0.47-3.95,0.62-5.86c1.21-2.12,3.5-2.89,5.2-4.38c10.95-9.59,21.14-19.98,31.23-30.45c3.85-3.99,8.11-3.95,12.81-3.33
		c1.53,0.2,1.8,1,1.12,2.4c-1.73,3.55-3.99,6.72-6.52,9.72c0.05-0.57,0.06-1.14,0.16-1.7c0.41-2.26-0.43-3.01-2.64-2.3
		c-0.54,0.17-1.1,0.34-1.58,0.63c-7.89,4.73-13.5,11.64-18.13,19.4C149.49,257.76,148.73,259.93,149.73,262.19z"/>
	<path class="st1" d="M198.39,136.64c-2.87-0.32-4.56-2.65-6.81-4.03c-3.58-2.19-6.55-5.19-9.78-7.84
		c-0.46-0.38-1.12-0.76-0.91-1.78c2.77,0.47,5.53,1.06,8.37,0.92c4.23-0.2,7.69-1.51,9.08-5.95c0.34-1.07,0.75-0.83,1.35-0.33
		c6.21,5.18,12.93,4.31,19.72,1.55c3.55-1.44,3.97-4.49,1.46-7.48c-1.35-1.61-3.59-2.31-4.39-4.44c4.65,0.6,9.3,0.56,13.92-0.22
		c1.15-0.19,1.36,0.28,1.51,1.25c0.76,4.97,0.14,9.37-4.12,12.81c-3.19,2.57-6.27,5.25-10.12,6.81c-5.11,2.07-8.65,1.36-12.42-2.62
		c-1.59-1.68-2.98-3.56-4.59-5.27c0.41,2,1,3.92,2.02,5.65c0.65,1.09,0.48,1.45-0.81,1.71c-4.61,0.91-9.12,0.28-13.61-0.72
		c-0.96-0.21-1.9-0.5-3.14-0.21c2.7,1.67,5.46,2.62,8.41,2.97c1.27,0.15,2.08,0.51,2.31,1.95
		C196.17,133.36,197.53,134.89,198.39,136.64z"/>
	<path class="st3" d="M86.08,134.13c-2.84-2.35-5.68-4.7-8.52-7.05c0.16-0.21,0.31-0.43,0.47-0.64c1.85-0.05,3.38-0.6,4.17-2.4
		c0.45-1.03,0.96-0.54,1.44,0c7.08,8,14.5,15.68,21.81,23.46c2.05,2.18,1.06,4.35-1.6,5.67c-3,1.49-4.62,0.59-6.8-1.67
		c-6.45-6.69-13.28-13.01-19.89-19.56c-0.61-0.6-2.4-1.16-1.03-2.61c1.19-1.27,2.12-0.38,3.08,0.48c1.97,1.76,4.01,3.45,6.02,5.17
		C85.52,134.69,85.8,134.41,86.08,134.13z"/>
	<path class="st4" d="M104.08,114.56c2.69-0.07,5.75,0.49,8.83,0.9c1.11,0.15,1.51,0.67,1.66,1.7c0.86,5.66,1.73,11.31,2.65,16.96
		c0.18,1.1-0.2,1.64-1.23,1.99c-1.62,0.56-3.17,1.32-4.8,1.86c-1.01,0.33-1.97,1.29-3.19-0.16c-0.64-0.76-2.15,0.15-3.26,0.37
		c-1.43,0.28-2.03-0.17-2.26-1.66c-0.67-4.22-0.74-4.22,3.42-4.96c1.85-0.33,3.7-0.65,5.56-0.95c0.83-0.14,1.37-0.44,1.17-1.45
		c-0.19-0.94-0.84-0.89-1.49-0.79c-2.5,0.4-5.03,0.7-7.49,1.28c-1.92,0.45-2.76-0.14-2.88-2.03c-0.04-0.57-0.11-1.15-0.28-1.69
		c-0.52-1.62,0.33-2.08,1.71-2.47c1.18-0.34,3.62,0.53,3.16-1.76c-0.41-2.03-2.26-0.51-3.4-0.3c-1.67,0.31-2.39,0-2.75-1.86
		C98.24,114.46,98.13,114.48,104.08,114.56z"/>
	<path class="st3" d="M236,130.15c0,1.72,0.05,3.43-0.01,5.15c-0.05,1.53-0.8,1.96-2.23,1.28c-8.17-3.9-16.2-2.32-24.19,0.65
		c-0.15,0.06-0.32,0.08-0.46,0.15c-4.82,2.35-4.87,2.4-8.2-1.75c-1.2-1.5-3.16-3.28-2.53-5.01c0.58-1.57,3.23-0.8,4.94-1.21
		c1.36-0.33,2.61,0.08,3.95,0.7c6.38,2.95,11.91,0.48,17.11-3.16c1.86-1.3,3.56-2.86,5.26-4.38c2.43-2.18,5.34-1.38,6.11,1.74
		c0.1,0.39,0.29,0.78,0.3,1.18c0.04,1.55,0.01,3.11,0.01,4.66C236.04,130.15,236.02,130.15,236,130.15z"/>
	<path class="st4" d="M100.53,76.13c2,4.41,2.89,9.28,5.59,13.9c0.95-4.1-0.34-7.74-0.13-11.39c1.75,6.25,2.69,12.68,4.02,19.02
		c0.22,1.05-0.23,1.24-1.06,1.42c-4.24,0.89-8.45,1.88-12.46,3.56c-1.1,0.46-1.46-0.09-1.64-1.05c-0.19-1.04-0.33-2.11-0.64-3.12
		c-0.38-1.24-0.03-1.77,1.25-1.97c2.5-0.37,4.99-0.84,7.48-1.3c0.76-0.14,1.69-0.14,1.48-1.42c-0.22-1.36-1.19-0.89-1.89-0.79
		c-2.59,0.37-5.17,0.76-7.73,1.27c-1.16,0.23-1.66-0.09-1.88-1.2c-0.35-1.76-0.75-3.51-1.18-5.25c-0.22-0.91,0.07-1.41,0.98-1.56
		c0.72-0.12,1.47-0.18,2.16-0.39c0.62-0.19,1.61-0.1,1.4-1.26c-0.19-1.06-0.8-1.3-1.77-0.98c-0.54,0.18-1.12,0.23-1.67,0.37
		c-1.34,0.34-1.99,0.06-2.31-1.52c-0.92-4.43-1.02-4.45,3.5-5.14C96.22,77,98.42,76.8,100.53,76.13z"/>
	<path class="st1" d="M160.73,232.62c-8.36,8.42-16.47,16.56-25.14,24.56c-0.82-2.63-0.82-5.13-1.09-7.57
		c-0.42-3.82-0.68-7.65-1.05-11.47c-0.11-1.07,0.03-1.65,1.34-1.66c8.55-0.09,16.89-1.65,25.1-3.94
		C160.03,232.5,160.21,232.56,160.73,232.62z"/>
	<path class="st3" d="M167.9,178.96c-1.79,0.52-3.4,1.42-5.01,2.33c-0.12-0.24-0.23-0.49-0.35-0.73
		c-5.62-12.47-15.62-21.09-26.39-29.41c2.71-1.07,5.06-1.96,7.38-2.94c0.91-0.38,1.37,0.13,1.89,0.66
		c4.14,4.25,8.96,7.55,14.16,10.39c2.35,1.28,4.32,3.16,5.92,5.37c-0.47-0.12-0.96-0.18-1.39-0.37c-1.07-0.49-2.22-1.07-3.18-0.09
		c-0.95,0.98-0.17,2.09,0.1,3.2c0.96,3.8,3.45,6.83,4.97,10.34C166.37,178.57,166.99,178.96,167.9,178.96z"/>
	<path class="st5" d="M115.63,100.68c3.83,0.03,7.66,0.15,11.49,0.07c2.21-0.05,3.67,0.74,4.08,2.94c0.41,2.15-1.5,2.76-2.83,3.41
		c-2.42,1.18-5.12,1.49-7.78,1.85c-8.96,1.21-17.92,2.05-26.9,0.23c-0.98-0.2-1.91-0.45-2.44-1.41
		C98.83,103.52,107,101.3,115.63,100.68z"/>
	<path class="st3" d="M129.56,144.04c0.08,1.47,0.05,2.95,0.26,4.4c0.24,1.6-0.49,2.05-1.89,2.04c-5.8-0.04-11.56,0.59-17.3,1.36
		c-1.55,0.21-2.3-0.16-2.17-1.88c0.1-1.38-0.02-2.78-0.04-4.16c-0.08-4.21-0.08-4.2,3.75-5.69c4.94-1.92,9.89-3.84,14.81-5.81
		c1.32-0.53,2.03-0.63,2.09,1.2C129.18,138.34,129.68,141.17,129.56,144.04z M126.81,140.86c-5.47,0.94-10.33,0.81-15.51,0.47
		C115.98,144.93,120.99,144.83,126.81,140.86z M127.63,140.82c-0.06-0.01-0.12-0.04-0.18-0.04c-0.02,0-0.04,0.06-0.06,0.1
		c0.06,0.01,0.12,0.04,0.17,0.04C127.59,140.92,127.61,140.86,127.63,140.82z"/>
	<path class="st5" d="M259.45,149.84c5.33,4.09,11.96,11.42,13.65,15.23c-3.52,0.68-7.04,1.23-10.21,2.9
		c-0.57,0.3-0.88-0.23-1.12-0.66c-2.26-3.96-5.64-6.93-8.87-10.04c-0.16-0.15-0.32-0.3-0.48-0.46l-0.01-0.01
		c-0.16-0.16-0.33-0.32-0.49-0.47l-0.01-0.01c0-2.09-1.89-3.29-2.4-5.21c-0.77-2.91-0.35-3.54,2.75-3.68
		c2.2-0.09,3.95,1.27,6.02,1.53l0.02,0.01C258.49,149.51,258.81,149.89,259.45,149.84z"/>
	<path class="st5" d="M128.53,152.97c0.93,3.11,0.74,3.39-2.15,4.95c-3.62,1.95-7.67,2.37-11.55,2.68
		c-7.74,0.62-15.59,1.36-23.19-1.31c-0.13-2.35,0.5-4.5,1.75-6.48c0.94-1.48,1.63-0.6,2.46,0.16c0.83,0.77,1.36,1.35,0.05,2.19
		c-0.78,0.5-1.69,0.97-2,2.01C105.33,154.68,116.8,152.77,128.53,152.97z"/>
	<path class="st4" d="M101.54,52.74c-0.75-3.26-1.46-6.53-2.29-9.77c-0.27-1.07-0.43-2.53,0.31-2.87c1.15-0.53,1.73,0.85,2.19,1.78
		c1.91,3.83,2.59,8.05,3.66,12.14c2.56,9.76,5.01,19.55,7.4,29.35c1.19,4.9,2.81,9.69,3.46,14.72c-3.68,0.65-3.69,0.66-4.56-2.8
		c-1.38-5.49-2.98-10.97-4.03-16.48c-1.57-8.27-3.89-16.36-5.35-24.64C102.23,53.63,102.21,52.97,101.54,52.74z"/>
	<path class="st5" d="M149.73,262.19c-1-2.26-0.25-4.43,0.85-6.28c4.63-7.76,10.24-14.67,18.13-19.4c0.48-0.29,1.04-0.46,1.58-0.63
		c2.21-0.71,3.05,0.04,2.64,2.3c-0.1,0.56-0.11,1.13-0.16,1.7c-6.58,8.04-13.89,15.31-22.16,21.61c-0.15,0.16-0.3,0.32-0.45,0.48
		C150.04,262.08,149.9,262.16,149.73,262.19z"/>
	<path class="st2" d="M243.65,45.55c-0.2-6.8-1.75-12.85-6.84-17.48c-2.51-2.29-5.49-3.48-8.91-3.5c-5.19-0.03-8.27,2.11-9.88,7.08
		c-0.35,1.09-0.71,1.82-1.7,0.84c-0.83-0.82-3.6-0.05-2.41-2.53c1.46-3.05,3.48-5.74,6.27-7.74c2.75-1.98,5.76-2.57,9.06-1.55
		c12.45,3.87,19.12,16.37,15.32,28.78c-0.2,0.64-0.14,1.83-1.06,1.59c-0.93-0.24-0.18-1.15-0.09-1.8
		C243.57,47.95,243.59,46.64,243.65,45.55z"/>
	<path class="st2" d="M239.15,103.84c2.37-1.43,4.75-2.83,6.56-5.19c1.96,4.18,3.62,8.15,3.98,12.52c0.27,3.2-0.39,6.04-3.64,7.59
		c-0.14-0.18-0.27-0.51-0.42-0.53c-4.34-0.44-6.08-2.2-7.1-6.23C237.8,109.11,238.79,106.54,239.15,103.84z"/>
	<path class="st5" d="M213.28,144.41c-1.56-0.28-2.81-1.21-4.12-1.99c-1.84-1.09-1.82-1.78,0-3.01c7.18-4.85,17.22-4.98,24.31-0.34
		c0.52,0.34,1.07,0.6,0.66,1.28c-1.59,2.64-2.97,5.51-6.4,6.27c0.35-1.45-0.51-2.28-1.56-2.99c-3.46-2.34-7.36-3.23-11.46-3.46
		c-1.97-0.11-2.41,0.94-1.96,2.63C212.9,143.35,213.1,143.88,213.28,144.41z"/>
	<path class="st4" d="M96,60.46c0.84,4.63,2.76,8.95,3.79,13.52c-3.04,0.55-6.1,1.08-9.13,1.68c-1.25,0.25-1.84-0.15-1.97-1.42
		c-0.07-0.73-0.27-1.45-0.47-2.15c-0.35-1.2-0.03-1.86,1.32-1.95c0.72-0.05,1.44-0.3,2.15-0.46c0.64-0.14,1.02-0.45,0.87-1.19
		c-0.14-0.74-0.45-1.22-1.3-1.04c-0.16,0.03-0.32,0.04-0.49,0.06c-3.49,0.42-3.36,0.38-4.29-2.93c-0.58-2.06-0.02-2.8,2.01-3.01
		C91.01,61.32,93.5,60.85,96,60.46z"/>
	<path class="st5" d="M167.9,178.96c-0.91,0.01-1.53-0.38-1.9-1.24c-1.52-3.51-4.01-6.54-4.97-10.34c-0.28-1.1-1.06-2.22-0.1-3.2
		c0.96-0.98,2.11-0.4,3.18,0.09c0.43,0.2,0.93,0.25,1.39,0.37c3.85,3.29,6.73,7.28,8.72,11.92c0.57,1.33,0.34,1.96-1.27,1.87
		C171.25,178.32,169.55,178.48,167.9,178.96z"/>
	<path class="st1" d="M137.99,83.92c-6.82,0.06-15.2-7.25-15.7-14.29c-0.8-11.18,3.35-20.64,11.68-28.11
		c2.63-2.36,6.01-3.35,10.14-3.67c-2.48,1.38-4.44,2.5-6.42,3.58c-8.23,4.48-11.02,12.49-13.5,20.73
		c-2.24,7.46,0.81,12.53,7.83,18.17C133.76,81.72,135.87,82.66,137.99,83.92z"/>
	<path class="st4" d="M91.26,45.11c1.2,4.33,2.4,8.65,3.6,12.98c-2.7,0.51-5.41,0.99-8.1,1.54c-1.07,0.22-1.5-0.27-1.67-1.22
		c-0.15-0.8-0.2-1.65-0.5-2.38c-0.66-1.58,0.15-2.03,1.49-2.22c0.89-0.12,1.77-0.26,2.64-0.45c0.62-0.14,1.01-0.48,0.82-1.22
		c-0.17-0.62-0.47-1.05-1.18-0.94c-0.8,0.13-1.6,0.26-2.4,0.44c-1.59,0.37-2.53,0.05-2.9-1.83c-0.69-3.48-0.71-3.6,2.88-4.03
		C87.71,45.57,89.48,45.33,91.26,45.11z"/>
	<path class="st1" d="M169.42,164.1c3.81,3.09,6.09,7.2,7.68,11.72c0.42,1.19,0.89,1.87,2.11,2.37c4.91,2,6.26,4.45,5.55,9.73
		c-0.08,0.62-0.18,1.01,0.5,1.38c4.8,2.63,5.65,7.19,5.79,12.37c10.52-5.66,21.2-10.61,33.03-14.14c-0.61,1.13-0.97,1.86-1.4,2.57
		c-0.42,0.7-0.43,0.62-1.64,0.28c-0.42-0.12-0.95,0.1-1.42,0.22c-9.12,2.26-17.45,6.4-25.66,10.81c-1.08,0.58-2.15,1.17-3.45,1.88
		c-0.37-1.83-0.63-3.55-1.07-5.24c-0.81-3.14-1.98-6.1-5-7.82c-0.83-0.47-0.77-1.05-0.69-1.85c0.56-5.22-0.72-7.66-5.46-9.27
		c-1.85-0.63-1.77-2.21-2.07-3.21c-1.38-4.55-4.46-7.89-7.29-11.44C169.1,164.35,169.26,164.23,169.42,164.1z"/>
	<path class="st2" d="M214.56,60.53c4.29-2.41,9.64-0.69,12.3,3.96c2.73,4.77,1.51,10.2-2.87,12.8c-0.63-0.4-1.23-0.85-1.57-1.54
		c2.31-3.18,2.59-5.93,0.84-8.47c-1.82-2.64-4.56-3.29-8.68-2.08C214.57,63.64,214.57,62.08,214.56,60.53z"/>
	<path class="st1" d="M256.83,190.58c-5.46-5.96-6.54-11.77-2.71-15.41c-2.14,6.2,0.16,10.75,4.66,14.47
		c1.26,1.04,0.2,1.91,0.07,2.85c-0.14,1.08-0.92,0.88-1.67,0.83c-10.92-0.83-21.73,0.44-32.54,1.65c-1.54,0.17-3.08,0.32-4.61,0.54
		c-0.61,0.09-0.91-0.21-0.95-0.69c-0.01-0.19,0.43-0.61,0.67-0.61c6.27,0,12.34-1.72,18.57-2.08
		C244.42,191.77,250.5,191.12,256.83,190.58z"/>
	<path class="st1" d="M239.15,103.84c-0.36,2.7-1.35,5.27-0.62,8.16c1.01,4.04,2.75,5.79,7.1,6.23c0.16,0.02,0.28,0.34,0.42,0.53
		c-3.99,2.09-8.1,1.17-12.2,0.51c-0.99-0.16-0.82-0.76-0.52-1.43c1.34-3.03,1.32-6.24,0.86-9.39c-0.28-1.94,0.25-2.85,2.07-3.33
		C237.26,104.85,238.19,104.27,239.15,103.84z"/>
	<path class="st2" d="M238.1,99.27c0.46-0.67,0.99-1.29,1.37-2c1.74-3.19,0.18-6.6-3.39-7.28c-5.79-1.1-11.58-0.25-17.36,0.18
		c-0.45,0.03-0.74,0.16-1.13-0.54c6.75-1.7,13.42-3.01,20.31-1.36c1.12,0.27,2.12,0.82,3.03,1.54c4.73,3.72,4.69,6.72-0.15,10.13
		C239.96,99.49,238.82,100.21,238.1,99.27z"/>
	<path class="st4" d="M116.82,116.67c4.05,0.65,4.59,1.13,5.23,4.48c0.63,3.28,1.16,6.59,1.91,9.84c0.69,2.96-1.85,2.71-3.24,3.15
		c-1.93,0.62-1.38-1.34-1.53-2.24C118.34,126.86,117.61,121.8,116.82,116.67z"/>
	<path class="st4" d="M88.26,34.88c0.81,2.62,1.61,5.25,2.42,7.87c-2.42,0.38-4.84,0.72-7.26,1.14c-1.07,0.19-1.7-0.11-1.99-1.19
		c-0.5-1.89-1.03-3.78-1.61-5.65c-0.41-1.3,0.06-1.79,1.35-1.83C83.54,35.14,85.9,34.99,88.26,34.88z"/>
	<path class="st1" d="M213.28,144.41c-0.18-0.54-0.39-1.07-0.53-1.61c-0.45-1.69-0.01-2.74,1.96-2.63c4.1,0.23,8,1.12,11.46,3.46
		c1.05,0.71,1.91,1.54,1.56,2.99C222.59,148.02,217.86,146.72,213.28,144.41z"/>
	<path class="st1" d="M345.88,338.5c-1.09,0.39-1.51-0.24-2-0.61c-9.51-7.22-19.74-7.88-30.56-3.41c-4.15,1.72-8.37,3.28-12.03,5.97
		c-0.25,0.19-0.52,0.39-0.85,0.12c-0.12-0.8,0.58-0.91,1-1.19c7.09-4.77,14.75-8.09,23.34-8.89c6.77-0.63,13.01,0.85,18.44,5.11
		C344.23,336.39,345.34,337.11,345.88,338.5z"/>
	<path class="st1" d="M80.25,122.17c-0.09,1.01-0.31,1.96-1.68,1.86c-2.05-0.15-3.26,0.79-3.65,2.79c-0.1,0.5-0.21,0.96-0.84,1.02
		c-0.7,0.07-1.01-0.29-1.23-0.91c-0.79-2.25-2.09-4.25-3.26-6.31c-0.44-0.77-1.19-1.38-1.2-2.36c1.3,0.09,2.19-1.47,3.33-1.19
		c2.86,0.69,5.53,1.97,8.06,3.49C80.34,120.91,80.25,121.56,80.25,122.17z"/>
	<path class="st3" d="M258.28,148.96c-2.07-0.25-3.82-1.62-6.02-1.53c-3.1,0.13-3.52,0.77-2.75,3.68c0.51,1.92,2.4,3.12,2.4,5.21
		c-2.05-1.45-4.09-2.9-6.15-4.34c-0.42-0.3-0.77-0.61-0.6-1.19c0.82-2.85,1.24-5.86,3.63-8.03c0.58-0.53,1.02-0.8,1.64-0.29
		C253.05,144.63,256.06,146.31,258.28,148.96z"/>
	<path class="st1" d="M162.54,180.56c0.12,0.24,0.23,0.49,0.35,0.73c-6.65,4.18-13,8.79-19.06,13.78c-0.77,0.64-1.5,1.09-2.62,0.95
		c-6.24-0.74-12.51-1.2-18.8-1.41c-0.56-0.02-1.18,0.1-1.54-1.01c5.84,0.83,11.65-0.05,17.3,1.45c2.28,0.61,4.23,0.11,6.04-1.45
		C149.9,188.69,155.84,184.08,162.54,180.56z"/>
	<path class="st3" d="M290.69,231.04c-0.65-4.45-1.48-8.8-3.01-12.99c-0.66-1.81,1.06-1.33,1.68-1.63c3.07-1.48,3.67-1.07,3.77,2.21
		C293.27,222.96,292.52,227.1,290.69,231.04z"/>
	<path class="st1" d="M294.18,351.86c6.81-3.39,16.28-1.17,21.58,5.39C308.62,353.35,301.77,351.04,294.18,351.86z"/>
	<path class="st1" d="M300.58,168.65c4.69,1.2,8.82,2.39,12.19,5.27c-4.98-1.88-10-3.6-15.55-4.9c0.99-0.54,1.61-0.89,2.41-1.32
		c-1.86-1.15-4.27-0.51-5.65-2.03c3.26,0.08,6.46,1.07,10.12,1.85C303.03,168.4,301.98,167.99,300.58,168.65z"/>
	<path class="st1" d="M214.56,60.53c0.01,1.56,0.01,3.12,0.02,4.67c-2.86,2.6-3.15,3.31-3.08,7.71
		C208.54,68.94,210.05,62.83,214.56,60.53z"/>
	<path class="st1" d="M286.16,356.01c3-6.69,8.04-11.46,14.05-15.32C294.93,345.24,290.48,350.57,286.16,356.01z"/>
	<path class="st2" d="M124.25,121c1.32-0.1,1.47,0.98,1.84,1.71c1.14,2.28,1.62,4.78,2.23,7.24c0.29,1.16-0.3,1.49-1.12,1.73
		c-1.04,0.3-0.96-0.55-1.08-1.17C125.49,127.35,124.87,124.19,124.25,121z"/>
	<path class="st1" d="M246.49,121.43c-1.13,2.82-3.92,2.63-6.18,3.36c-0.59,0.19-1.28,0.08-1.92,0.11c-0.66-1.78-0.6-2.91,1.86-2.61
		C242.36,122.54,244.41,121.76,246.49,121.43z"/>
	<path class="st1" d="M222.42,75.75c0.35,0.69,0.94,1.14,1.57,1.54c-2.78,1.9-5.58,1.51-8.41,0.04
		C218.09,77.73,220.4,77.33,222.42,75.75z"/>
	<path class="st1" d="M287.18,165.26c-4.11,0-8.23,0-12.34,0c0-0.2,0-0.4,0.01-0.61c4.1-0.41,8.22-1.53,12.29,0.57L287.18,165.26z"
		/>
	<path class="st1" d="M238.1,99.27c0.72,0.94,1.85,0.22,2.69,0.68c-2.04,1.62-4.29,2.8-7.27,3.52
		C235.3,101.85,236.7,100.56,238.1,99.27z"/>
	<path class="st4" d="M106.01,144.71c-1.43-1.47-2.92-2.12-2.36-3.79c0.2-0.61,1.27-0.82,1.67-0.51
		C106.63,141.41,105.75,142.84,106.01,144.71z"/>
	<path class="st1" d="M224.06,85.65c-1.48,0.3-2.97,0.6-4.45,0.9C220.9,85.34,222.45,85.35,224.06,85.65z"/>
	<path class="st1" d="M167.78,163.27c0.9-0.4,1.18,0.4,1.65,0.84c-0.16,0.13-0.33,0.25-0.49,0.38c-0.37-0.42-0.73-0.83-1.1-1.25
		L167.78,163.27z"/>
	<path class="st3" d="M259.45,149.84c-0.64,0.05-0.96-0.32-1.16-0.87C258.9,148.96,259.23,149.33,259.45,149.84z"/>
	<path class="st4" d="M106.02,78.68c-0.69-0.5-0.48-1.13-0.25-1.77C106.11,77.47,106.35,78.04,106.02,78.68z"/>
	<path class="st1" d="M287.14,165.23c0.12,0.07,0.24,0.14,0.36,0.21c0.03-0.06,0.06-0.12,0.1-0.18c-0.14,0-0.28,0-0.42,0
		C287.18,165.26,287.14,165.23,287.14,165.23z"/>
	<path class="st1" d="M141.56,272.15c-0.35,0.15-0.87,0.45-1.05,0.1c-0.27-0.53,0.41-0.41,0.67-0.59
		C141.31,271.82,141.44,271.98,141.56,272.15z"/>
	<path class="st2" d="M195.9,101.85c0.21-0.25,0.41-0.49,0.62-0.74C196.43,101.45,196.44,101.88,195.9,101.85z"/>
	<path class="st2" d="M210.54,92.37c0.07-0.26,0.24-0.41,0.47-0.24c0.06,0.05-0.07,0.37-0.12,0.56
		C210.77,92.59,210.66,92.48,210.54,92.37z"/>
	<path class="st1" d="M167.84,163.23c-0.09-0.1-0.18-0.19-0.28-0.29c0.1,0,0.21,0,0.31,0c-0.03,0.11-0.06,0.22-0.09,0.33
		L167.84,163.23z"/>
	<path class="st3" d="M150.16,261.96c0.15-0.16,0.3-0.32,0.45-0.48C150.64,261.82,150.46,261.95,150.16,261.96z"/>
	<path class="st3" d="M252.42,156.81c0.16,0.15,0.32,0.3,0.48,0.46C252.74,157.11,252.58,156.96,252.42,156.81z"/>
	<path class="st3" d="M251.92,156.32c0.16,0.16,0.33,0.32,0.49,0.47C252.1,156.79,251.94,156.63,251.92,156.32z"/>
	<path class="st0" d="M239.93,284.33c-1.93-2.73-0.89-4.78,0.24-6.76c0.82-1.43,2.23-1.52,3.65-1.18c0.59,0.14,1.45,0.36,1.3,1.19
		c-0.23,1.21-0.99,0.24-1.49,0.19c-1.32-0.12-2.17,0.41-2.67,1.62C240.37,280.84,240.1,282.35,239.93,284.33z"/>
	<path class="st0" d="M161.86,71.78c2.32-5.04,5.36-9.5,9.94-12.81c7.11-5.13,19.03-6.84,25.55,4.48
		c4.12,10.21,3.41,20.13-1.99,29.67c-3.72,6.59-11.6,11.82-21.8,7.18c-11.37-5.17-15.88-14.63-12.19-26.65
		C161.56,73.04,161.7,72.4,161.86,71.78z M183.61,67.45c-3.9,0.1-7.2,2.96-8.19,7.08c-1.07,4.47,0.95,9.44,4.79,11.32
		c2.59,1.27,5.27,1.57,7.81-0.27c3.99-2.21,5.82-6.64,4.63-11.2C191.47,69.91,188.17,67.38,183.61,67.45z"/>
	<path class="st0" d="M214.53,155.89c-1.07-0.21-2.15-0.43-3.22-0.64c0-0.28,0-0.55-0.01-0.83c4.9,0.39,9.79,0.37,14.56-1.03
		c3.67-1.08,7-2.72,8.85-6.36c1.1,1,0.28,1.95-0.2,2.77c-1.35,2.29-3.51,3.62-5.95,4.5C224.02,155.94,219.31,156.23,214.53,155.89z"
		/>
	<path class="st3" d="M211.31,154.42c0,0.28,0.01,0.55,0.01,0.83c-0.84-0.16-1.67-0.32-3.02-0.59
		C209.63,154.1,210.47,154.22,211.31,154.42z"/>
	<path class="st0" d="M126.81,140.86c-5.83,3.97-10.83,4.07-15.51,0.47C116.48,141.67,121.35,141.81,126.81,140.86z"/>
	<path class="st0" d="M127.63,140.82c-0.02,0.03-0.04,0.1-0.06,0.1c-0.06,0-0.12-0.02-0.17-0.04c0.02-0.03,0.04-0.1,0.06-0.1
		C127.51,140.78,127.57,140.81,127.63,140.82z"/>
	<path class="st2" d="M183.61,67.45c4.56-0.07,7.86,2.46,9.03,6.93c1.2,4.56-0.63,9-4.63,11.2c-0.21-1.45-1.59-1.16-2.45-1.63
		c3.44-2.51,4.49-5.14,3.34-8.33c-1.06-2.92-3.76-4.4-7.53-4.11c-1.24-1.16-0.12-1.81,0.57-2.51
		C182.47,68.47,183.56,68.52,183.61,67.45z"/>
	<path class="st1" d="M183.61,67.45c-0.05,1.07-1.13,1.02-1.67,1.55c-0.69,0.69-1.81,1.35-0.57,2.51c-2.93,1.04-4.89,2.95-5.02,6.18
		c-0.11,2.66,1.18,4.66,3.52,5.98c1.86,1.04,3.77,0.73,5.7,0.28c0.86,0.48,2.24,0.18,2.45,1.63c-2.54,1.85-5.22,1.55-7.81,0.27
		c-3.83-1.89-5.86-6.86-4.79-11.32C176.41,70.41,179.71,67.55,183.61,67.45z"/>
	<path class="st0" d="M185.56,83.95c-1.93,0.45-3.84,0.76-5.7-0.28c-2.34-1.31-3.63-3.31-3.52-5.98c0.13-3.23,2.09-5.14,5.02-6.18
		c3.77-0.29,6.47,1.18,7.53,4.11C190.05,78.81,189,81.44,185.56,83.95z"/>
</g>
</svg>
