<?xml version="1.0" encoding="utf-8"?>
<!-- Generator: Adobe Illustrator 24.0.1, SVG Export Plug-In . SVG Version: 6.00 Build 0)  -->
<svg version="1.1" id="Layer_1" xmlns="http://www.w3.org/2000/svg" xmlns:xlink="http://www.w3.org/1999/xlink" x="0px" y="0px"
	 viewBox="0 0 1205.3 1248.5" style="enable-background:new 0 0 1205.3 1248.5;" xml:space="preserve">
<style type="text/css">
	.st0{fill:#050505;}
	.st1{fill:#CACACA;}
	.st2{fill:#FDFDFD;}
	.st3{fill:#686868;}
	.st4{fill:#8C8C8C;}
	.st5{fill:#888888;}
</style>
<g>
	<path class="st0" d="M452.2,1178c1.3,14.5,1.3,14.5-13.2,15.4c-6.6,0.4-13.3,0.5-20,1c-4,0.3-5.4-1.2-5.4-5.2
		c-0.1-5.7-0.3-11.5-5.9-17.9c1.3,7.1,2.6,12,2.7,17.1c0.1,4.8-1.6,6.2-6.2,6c-9.2-0.3-18.5-0.5-27.7,0
		c-18.7,0.9-31.8-7.7-41.2-23.2c-8.9-14.7-13.4-30.9-16.4-47.6c-5.3-30-5.9-60.1-1.4-90.3c3.3-21.8,13.9-39.3,29.5-54.3
		c13.3-12.9,28.5-23.4,44.7-32.3c2.9-1.6,4.7-2.7,3.6-6.9c-5.4-21.8-6.9-44-7.1-66.3c0-3.5,0.2-6-4.8-4.4c-12.8,4.1-24.8,1-36.2-5.2
		c-24.7-13.5-40.8-33.9-50.8-60.2c-15.8-41.5-27.1-84.2-36.5-127.4c-9.3-43-16.8-86.4-19.6-130.4c-1.3-20.2-2.2-40.5,2.4-60.5
		c1.3-5.5,2.9-11.1,7-15.1c2.9-2.8,1.2-4.1-0.8-5.9c-18.7-17.8-37.3-35.8-56.1-53.6c-4.8-4.5-8.4-9.4-11.1-15.3
		c-9.4-20.5-22-39.2-34.5-57.9c1.1-1.7,2.3-1.1,3.3-0.4c16.8,11.6,35.9,18.5,54.4,26.5c9.4,4,17.1,9.8,23.8,17.5
		c15.2,17.2,31,34,47.9,50.2c-3.4-17.7-6.7-35.3-10.1-53c-0.2-1-0.5-2-0.6-3c-3.6-19.6-3.6-19.6-23.7-16.8
		c-6.6,0.9-13.2,1.8-19.8,2.7c-2.3,0.3-4.6,0.7-6.3-1.5c-2-2.6-0.5-5,0.8-7.1c7.1-10.8,17-18.5,28.3-24.2c6.7-3.3,8-6.8,6.3-14.1
		c-15.7-67.8-31-135.7-46.6-203.5c-1.1-4.7-0.5-6.2,4.5-6.6c27.9-1.9,55.7-4,83.5-6.5c5.7-0.5,7.2,1.3,8.2,6.6
		c11,57.8,22.3,115.6,33.3,173.4c1.4,7.5,1.3,15.2,4.2,22.6c1.1,3,2.3,3.8,5.3,3.9c9,0.1,17.9,0.5,26.9,1c2.9,0.2,4-0.5,4-3.6
		c0.1-11.5,0.3-23.1,0.8-34.6c0.2-3.3-1.6-4.4-3.9-5.7c-31.1-17.8-41.2-41.5-32.3-76.1c4.3-16.7,11-32.4,21.1-46.5
		c18.4-25.7,45.6-35.1,75.7-25.9c4.6,1.4,8,1.1,12.1-1.4c11.9-7.3,24.9-12.4,38.6-14.6c23.2-3.7,46.4-7.1,69.5-11.3
		c19.2-3.5,38.4-0.9,56.9,4.8c6.5,2,10.4,2,13.5-5.2c3.5-8.3,9.6-15.1,16.5-20.9c13.8-11.5,28.9-13.6,45.1-5.8
		c46.2,22,61.9,66.1,39.7,112.2c-2.2,4.6-2.1,7.5,0.6,11.6c8.4,13.2,15.1,27.3,19.9,42.2c1,3.1,2.4,5.2,5.8,6.4
		c8.2,2.9,15.2,8.1,19.8,15.2c23.5,36.5,34.7,75.6,23.6,118.9c-4.8,18.5-15.8,33.7-28.2,47.9c-5.2,6-10.9,11.6-16.1,17.6
		c-1.8,2.1-6.3,3.7-4.2,6.9c1.9,2.9,5.3,5,9.8,4.8c16.9-0.7,33.8,0.6,50.5,3.5c50,8.6,97.1,24.5,138.4,55.2
		c39.2,29.1,51.3,69.7,47.8,115.8c-2.4,31.5-24.4,51.1-58.5,56.4c-15.3,2.3-30.7,2.7-46,0.8c-5.4-0.7-5.9,1-5.4,5.6
		c1.4,14,1.9,28.9-6.9,40c-10,12.4-3.8,25.4-5.6,37.9c-0.4,2.6,2.5,3.7,4.1,5.2c18.8,17.9,35.5,37.5,50.1,59
		c30.2,44.4,38,91.9,22,143.3c-4.9,15.8-9.7,31.6-15.7,48.5c16.5-5.5,32.2-9.8,48.6-10c16.1-0.2,32,0.8,43.1,15.1
		c1.1,1.4,2.4,1.4,4,1.6c20.5,2.7,31.3,20.9,27.4,41.2c-3,15.6-12.3,24.8-24,33c-13.5,9.5-28.1,16.9-43.5,22.6
		c-36,13.4-72.6,24.9-110.3,32.3c-22.6,4.4-44,1.6-60.3-17.5c-10.1-11.9-13.8-26.1-14.9-41.2c-1.4-18.9-1.8-37.9-3.2-56.8
		c-1.2-16.8-5.6-32.7-15.4-46.8c-3.8-5.5-8.4-8.1-15-9.1c-28.7-4.4-56.5-11.9-82.2-26c-9.5-5.2-18.3-11.2-26.6-18.1
		c-2.1-1.8-4.1-3.4-7.3-3.8c-14.6-2.1-14.4-2.2-18.6,11.8c-12.6,41.9-38.8,73.9-73.7,99.3c-2.9,2.1-5.4,4.5-7.5,7.5
		c-5.9,8.5-14.1,14.8-22.8,20.3c-25.7,16.4-54,26.7-82.6,36.6c-2.1,0.7-4.2,1.5-6.9,2.4c6.4,3.8,12.5,7.2,18.2,11
		c3.8,2.5,7.6,5.3,11,8.4c10,9.1,18.2,19.5,14.8,34.1c-3.6,15.4-15.1,23.5-29.3,29.1c-0.9-4.5-1.6-8.5-2.4-12.5
		c-0.9-4.9-2-9.6-7.1-11.9C449.2,1170,450.7,1174,452.2,1178z M751.9,488.8L751.9,488.8c0.5,0.5,1,1,1.5,1.5
		c10.1,9.7,20.7,19,27.8,31.4c0.8,1.3,1.7,3,3.5,2.1c9.9-5.2,20.9-6.9,32-9.1c-5.3-11.9-26.1-34.8-42.7-47.7
		c-0.7-1.6-1.7-2.7-3.6-2.7l-0.1,0c-6.9-8.3-16.4-13.6-24.5-20.3c-1.9-1.6-3.3-0.8-5.1,0.9c-7.5,6.8-8.8,16.2-11.4,25.1
		c-0.5,1.8,0.6,2.8,1.9,3.7c6.4,4.5,12.8,9,19.2,13.6l0,0C750.5,488.2,751,488.7,751.9,488.8z M487.1,509c0.1-0.3,0.2-0.7,0.3-1
		c-0.3,0-0.7,0-1,0c0.3,0.3,0.6,0.6,0.9,0.9c1.2,1.3,2.3,2.6,3.4,3.9c8.9,11.1,18.5,21.6,22.8,35.8c0.9,3.1,0.7,8.1,6.5,10
		c14.8,5,18.8,12.6,17.1,29c-0.3,2.5-0.5,4.3,2.2,5.8c9.5,5.4,13.1,14.6,15.6,24.5c1.3,5.3,2.2,10.7,3.3,16.4
		c4.1-2.2,7.4-4.1,10.8-5.9c25.7-13.8,51.8-26.8,80.3-33.8c1.5-0.4,3.1-1.1,4.4-0.7c3.8,1.1,3.8,1.3,5.1-0.9c1.3-2.2,2.5-4.5,4.4-8
		c-37,11-70.5,26.5-103.4,44.3c-0.4-16.2-3.1-30.5-18.1-38.7c-2.2-1.2-1.8-2.4-1.6-4.3c2.2-16.5-2-24.2-17.4-30.5
		c-3.8-1.6-5.3-3.7-6.6-7.4c-5-14.1-12.1-27-24-36.7C490.8,510.3,489.9,507.7,487.1,509z M860.8,515.2c0.4,0,0.9,0,1.3,0
		c-0.1,0.2-0.2,0.4-0.3,0.6c-0.4-0.2-0.8-0.4-1.1-0.7c-12.8-6.6-25.6-3.1-38.5-1.8c0,0.6,0,1.3,0,1.9
		C835,515.2,847.9,515.2,860.8,515.2z M707.2,308.7c-4.4,4-8.8,8.1-14.3,13.1c9.3-2.3,16.4-5.9,22.8-11
		c15.2-10.7,15.3-20.1,0.5-31.7c-2.9-2.3-6-4-9.5-4.8c-21.6-5.2-42.4-1.1-63.6,4.3c1.2,2.2,2.1,1.8,3.5,1.7
		c18.1-1.4,36.2-4,54.3-0.6c11.2,2.1,16,12.8,10.6,22.8C710.3,304.7,708.6,306.6,707.2,308.7z M658.1,235.1
		c-6.3,4.9-13.6,6.2-21.4,4.9c8.9,4.6,17.6,5.8,26.3-0.1c13.7-8.1,17.5-25.1,9-40.1c-8.3-14.6-25.1-20-38.5-12.4
		c-14.1,7.2-18.9,26.3-9.6,38.7c-0.2-13.8,0.7-16,9.6-24.1c12.9-3.8,21.5-1.7,27.2,6.5C666.2,216.5,665.3,225.1,658.1,235.1z
		 M629.5,450c14.3,7.2,29.1,11.3,45.2,6.9c10.7-2.4,15.1-11.4,20-19.6c1.3-2.1-0.4-2.9-2.1-4c-22.2-14.5-53.6-14.1-76.1,1.1
		c-5.7,3.8-5.8,6,0,9.4C620.7,446.2,624.6,449.1,629.5,450z M732.1,369.7c10.2-4.9,12.2-13.7,11.4-23.8
		c-1.1-13.7-6.3-26.1-12.5-39.2c-5.7,7.4-13.1,11.8-20.5,16.2c-3,1.3-5.9,3.2-9,4c-5.7,1.5-7.4,4.4-6.5,10.4
		c1.4,9.9,1.5,19.9-2.7,29.4c-0.9,2.1-1.5,4,1.6,4.5C706.7,373.4,719.6,376.2,732.1,369.7z M433.4,816.4
		c25.9-19.7,48.8-42.5,69.4-67.6c7.9-9.4,15-19.3,20.4-30.4c2.1-4.4,1.3-6.9-3.5-7.5c-14.7-1.9-28.1-2.1-40.1,10.4
		c-31.6,32.7-63.5,65.3-97.7,95.3c-5.4,4.7-12.5,7.1-16.3,13.7c-3.4,6-7.2,12.3-1.9,18.3c4.8,5.6,12.1,5.7,18.5,2.7
		c17.9-8.4,34.1-19.3,48.6-32.7c0.5-0.1,1-0.3,1.3-0.7C432.9,817.8,433.4,817.4,433.4,816.4z M470.7,563.1
		c-21,11-39.5,25.4-57.4,40.9c-5.6,4.9-11.7,6.4-18.9,4.5c-17.7-4.7-35.9-1.9-54.1-4.5c1.1,3.5,3,3.1,4.8,3.2
		c19.7,0.6,39.3,2.1,58.8,4.4c3.5,0.4,5.8-1,8.2-3c19-15.6,38.8-30,59.7-43.1c5-2.8,10.1-5.7,15.7-7.3c5.2-1.5,10.5-2,15.8-1.7
		c5,0.3,5.8-1.7,4-5.9c-6.2-14.6-15.2-27-27.3-37.3c-5-6.9-11.1-12.8-18.5-16.8c-16.3-8.9-31.4-19.2-44.3-32.5
		c-1.6-1.7-3.1-3.3-5.9-2.1c-7.3,3-14.6,5.9-23.1,9.2C421.8,497.1,453.1,524.1,470.7,563.1z M293.8,244.3c1-2,0.3-3.8-0.8-5.5
		c-0.2-1.5-0.4-3-0.7-4.5c-4.2-23.7-8.4-47.4-12.6-71.2c2.1,0.8,2.2,2.8,2.4,4.4c4.6,25.9,11.8,51.2,16.7,77.1
		c3.3,17.2,8.3,34.4,12.6,51.6c2.7,10.8,2.8,10.8,14.3,8.8c6.4,1.5,6.5-1.8,5.6-6.7c-7.2-40-14.1-80-21.2-119.9
		c-4.1-23.1-8.1-46.3-12.4-69.4c-0.4-2.4,0.9-7.2-4-6.8c-18.5,1.6-37.2,2.1-55.6,5.1c-7.4,0.4-14.8,0.8-22.2,1.1
		c-4.1,0.1-5.5,1.7-4.2,5.7c1.8,5.9,3.5,11.7,5,17.7c0.9,3.4,2.9,4.3,6.2,3.7c7.5-1.3,15.1-2.4,22.7-3.6c1.5-0.2,3.1-0.2,4.5-0.6
		c2.7-0.7,4.3-0.4,4.8,2.9c0.5,3.3-1.2,3.9-3.8,4.1c-1.2,0.1-2.4,0.6-3.6,1c-5.6,0.7-11.1,1.4-16.7,2.1c-11.2,1.3-11.2,1.7-9,12.6
		c1.2,5.9,4.1,6.9,9.1,5.7c2.5-0.6,5-1,7.5-1.4c2.2-0.3,3.2,1,3.7,2.9c0.6,2.3-0.6,3.4-2.6,3.8c-2.7,0.6-5.5,1-8.3,1.4
		c-4.2,0.6-6.7,2-4.7,6.9c1,2.3,1.1,4.9,1.6,7.4c0.5,3,1.9,4.5,5.2,3.8c8.4-1.7,16.9-3.2,25.4-4.8c6.2,0.7,6.9,2.1,3.6,7.4
		c-7.8,1.2-15.6,2.7-23.5,3.5c-6.4,0.7-8.1,3-6.3,9.4c2.9,10.4,2.5,10.5,13.4,9.2c0.5-0.1,1-0.1,1.5-0.2c2.7-0.5,3.6,0.9,4.1,3.3
		c0.4,2.3-0.7,3.3-2.7,3.7c-2.3,0.5-4.5,1.3-6.7,1.4c-4.2,0.3-5.2,2.3-4.1,6.1c0.6,2.2,1.3,4.5,1.5,6.7c0.4,4,2.3,5.2,6.2,4.4
		c9.5-1.9,19.1-3.5,28.6-5.3c1.7,1.9,2,4.3,2.3,6.7c-6.6,2.1-13.5,2.7-20.3,3.8c-14.1,2.2-13.8,2.3-11,16.1c1,4.9,3.1,5.8,7.2,4.8
		c1.7-0.4,3.5-0.6,5.2-1.2c3.1-1,4.9-0.3,5.5,3.1c0.7,3.7-2.4,3.3-4.4,3.9c-2.2,0.7-4.5,0.8-6.8,1.2c-2.8,0.5-3.8,2-3.1,4.9
		c1.3,5.4,2.6,10.9,3.7,16.4c0.7,3.5,2.3,4.5,5.9,3.8c8-1.6,16.1-2.8,24.2-4c2.2-0.3,5.2-1.8,5.9,2.5c0.7,4-2.3,4-4.6,4.4
		c-7.8,1.4-15.6,2.9-23.4,4.1c-4,0.6-5.1,2.3-3.9,6.2c1,3.2,1.4,6.5,2,9.8c0.5,3,1.7,4.7,5.1,3.3c12.6-5.3,25.7-8.4,39-11.1
		c2.6-0.5,4-1.2,3.3-4.4C302.2,283.9,299.2,263.8,293.8,244.3L293.8,244.3z M247.6,335.3c-9,5.1-17.8,10.6-24.7,18.9
		c2.7,1.7,4.7,0.8,6.7,0.6c29.8-3.6,59.7-6.9,89.4-1c36.4,7.1,44.4,16.1,50.1,47.5c3.5,19.7,4.1,39.7,4.2,59.7c0,9,0.4,9.4,9,6
		c5.7-2.3,11.3-4.8,16.9-7.4c9.3-4.4,9.3-4.5,3.3-12.9c-13.1-18.5-20.2-38.4-15.1-61.3c0.8-3.4,1.2-6.9-0.1-10.5
		c-6.5-18.4-9.8-37.6-11.7-56.9c-0.3-2.9-0.9-4.7-4.3-5.1c-15.8-1.5-31.6-2.3-47.3,0.5C296.9,315.1,271.3,322,247.6,335.3z
		 M708.1,388.9c1.9,19.9,2,39.5-10,56.9c-2.7,2.5-5.3,5-7.9,7.5c-8.8,5.1-18.2,7.8-28.4,8.1c-32.1,0.9-57.7-12.6-78.9-35.8
		c-2.7-5.5-6.9-10.3-7.9-16.4c-0.7-4.5-3.3-5.6-7.2-6.1c-9.2-1.1-17.9-4.1-26.3-9.3c3.9-0.9,6.8,0,9.8,0.7
		c14.1,3.1,28.2,5.1,42.6,2.3c4-0.8,4.5-1.9,2.5-5.4c-3.2-5.4-5-11.4-6.3-17.7c5,5.4,9.4,11.2,14.4,16.5
		c11.8,12.5,22.9,14.6,38.9,8.2c12-4.9,21.7-13.3,31.7-21.3c13.4-10.7,15.3-24.5,12.9-40.1c-0.5-3-1.1-4.5-4.7-3.9
		c-14.5,2.4-29,2.6-43.6,0.7c-2.6-1-5.3-1.9-7.8-3c-12.8-5.4-17.8-14.8-14.7-28.2c1.1-4.9,3.3-9.6,5-14.4c0.1-0.6,0.6-1.6,0.4-1.8
		c-0.7-0.5-1.3-0.1-1.5,0.8c-22.3,11-38.1,28.8-51.2,49.6c0.4-7.2,3.4-13.3,6-19.4l-0.1-0.5l-0.5,0.1c1.7,0.1,1.6-1.3,1.9-2.3
		c15.7-24,40.7-35,65.7-46c-17.7-2.2-30-11.6-39.7-24.9c-11-15-14.5-31.9-12.8-50.1c1.8-6.7,4.4-13.1,8.8-18.3
		c16.3-19.3,33.8-26.9,57.3-15.1c15.3,7.7,29,17.3,40.6,29.9c11.3,12.3,20.4,25.7,19.5,43.8c3.6-1.2,6.6-2.5,9.8-3.3
		c3.2-0.8,6.5-1.8,9.8-1.8c5.4,0,6.3-1.6,4.3-6.6c-19.2-49.1-51.3-87.2-97.8-112.2c-25.2-13.6-52.2-20.7-81.3-17.2
		c-2.3,0.1-4.6,0.1-6.8,0.3c-15.7,1.9-30.6,7.7-46.7,8.2c-17,0.5-33.3,5.4-48.7,12.7c-2.5,1.2-5.8,1.8-6.8,4.3
		c4.4,6.7,10.6,2.7,17.9,3.4c-18.8,9.7-26.3,26.2-33.4,42.6c-16.4,38.1-25.4,78.2-31.2,119.2c-0.4,2.6,0.5,5.8-2.7,8.2
		c-0.2-2.4-0.3-4.2-0.4-6c-1-14.1-1-13.9-14.7-17.7c-4.4-1.3-5.2,0-5.3,4.1c-0.3,13.6-0.9,27.1-0.1,40.7c1.1,18.2,4,36,9.6,53.9
		c21.7-36.7,65-57.8,99-48.7c-2.6,1.6-5.4,1.4-8.1,1.7c-15.4,1.9-30.1,5.8-44.1,12.5c-44,21.2-59.4,65.4-33.6,104.4
		c32.4,49,79,72.9,138.4,68.9c5.5-0.4,11.3-1,16.5-3.7c-1.3-3.1-4.6-2.7-6-4.7c3.3-1.4,6.1,0.3,9,1.1c17.7,5.3,35.6,9.5,54,11.5
		c21.5,2.3,43,2.9,63.7-5.2c19.6-7.7,34.8-21.6,41.8-40.6c5.1-13.6,13.1-23.8,21.8-34.3c1.9-2.3,3.8-4.7,5.8-7
		c16.3-15.4,31.2-32.1,38.7-53.6c14.1-40.2,3.5-77.5-16.3-112.4c-15.3-26.9-39.7-27-62-10.1c-12,9.1-25,13.9-39.3,16.8
		c1.5,1.5,3.1,1.5,5.2,1.3c8.7-0.8,17.4-0.4,26,1.2c14.4,2.6,25.7,10.1,30.3,24c2.5,7.5,5.3,14.8,8.4,22.1c3.6,8.8,6.8,17.7,8.6,27
		c3.5,18.7-1.2,29.9-16.4,39.2c-6.5,1-12.9,3.5-19.5,2.7C706.2,379.8,706,383.3,708.1,388.9z M364.3,476.8
		c-36.7-0.6-72.6,5.4-108.4,13.2c0.9-3.3,3.8-4.7,6.3-6.3c4.1-2.6,2.4-4.4-0.2-6.9c-2.6-2.4-4.8-5.1-7.7-0.5
		c-3.9,6.2-5.9,12.9-5.5,20.3c-0.5,3.5-1.4,7-1.6,10.6c-1.9,36.5,3,72.6,8.4,108.5c3.7,24.7,9.4,49.1,14.8,73.5
		c9.2,41.5,20.2,82.5,37.1,121.7c11.3,26.1,30.4,43.9,57.7,52.3c9.2,2.8,18,0.3,23.2-6.4c-3.2,1-5.5,2-7.9,2.5
		c-20.4,4.5-29.1-8.7-26.1-21.8c1.8-7.9,6.1-14.6,12.9-19.4c3.5-2.5,6.9-5.4,10.5-7.7c3-2,3.8-4.4,3.3-7.8
		c-2.9-19.7-5.9-39.4-8.6-59.2c-0.6-4.4-2.5-5-6.4-5.5c-17.1-2-34.4-3.1-51.6-6.5c3-3.7,7.7-1.5,11.4-4.5
		c-9.8-6.8-20.1-12.4-29.3-19.4c-15.7-11.9-26.5-26.8-30.3-46.4c-2.3-11.8-4.9-23.6-6.1-35.5c-3-30.1,2.3-58.2,22.8-81.8
		c14.2-16.4,32.5-27.1,51.8-36.3c18.7-8.9,38.5-15.1,58.4-22C385.3,475.6,376.1,471.6,364.3,476.8z M405,849.8
		c47.6-12.7,92.2-5.2,134.5,19.5c18.8,11,37.7,21.8,56.8,32.1c14.6,7.9,29.2,16.5,45.6,19.6c25,4.7,50.5,4.8,75.6,0
		c32-6.1,59.8-20.2,81.9-44.6c24.1-24.2,42.9-52,57.3-82.9c3.6-7.7,6.2-15.7,7.6-24.1c4.6-27.6-0.3-54.5-5.1-81.6
		c-1.3-7.2-4.4-8.4-10.7-6.3c-3.8,1.3-8,1.7-12.1,2.2c-26.3,2.9-46.9-7.8-53.3-29.9c-3.4-11.9-5.4-23.8-11.1-35.2
		c-3-6-5.4-9.3-11.8-9.3c-2.3,0-4.6-0.3-6.9-0.5c-32.6-1.4-65,0.8-97.5,3.2c-10.2,0.8-10.2,0.7-10.7-9.3c-8.1,2.6-16.1,4.9-24,7.7
		c-6.2,2.2-12.2,5-18.3,7.6c-13.9,4.6-26.7,11.5-40,17.3c-6.4,2.8-7.7,8.7-10.3,13.6c-1.7,3.2,3.4,5,4.5,8c0.8,1.9,2.3,3.6,2.6,5.5
		c3,15.9,4.5,31.8-0.1,47.7c-4.1,14.2-13.9,20.6-28.4,18.5c-3.6-0.5-5.3,0-7.2,3.1c-7.7,12.8-17.2,24.2-27.2,35.2
		c-27.8,30.7-58.8,57.7-92.9,81.2c-0.8,0.6-2.9,0.2-2.1,1.8C402.3,851.1,403.9,850.2,405,849.8z M231.4,417.8
		c-0.9,0.9-1.8,1.8-2.6,2.7c-6.3-5.4-12.6-10.7-18.8-16.2c-3-2.7-5.9-5.5-9.6-1.5c-4.3,4.6,1.3,6.3,3.2,8.2
		c20.7,20.5,42.1,40.3,62.3,61.2c6.8,7.1,11.9,9.9,21.3,5.2c8.3-4.1,11.4-10.9,5-17.7c-22.9-24.3-46.1-48.4-68.3-73.4
		c-1.5-1.7-3.1-3.2-4.5,0c-2.5,5.6-7.3,7.4-13.1,7.5c-0.5,0.7-1,1.3-1.5,2C213.6,403.1,222.5,410.5,231.4,417.8z M287.7,356.6
		c-18.6-0.3-18.3-0.3-15.2,15.5c1.1,5.8,3.4,6.8,8.6,5.8c3.6-0.7,9.4-5.4,10.6,0.9c1.4,7.2-6.2,4.4-9.9,5.5c-4.3,1.3-7,2.7-5.4,7.7
		c0.5,1.7,0.8,3.5,0.9,5.3c0.4,5.9,3,7.8,9,6.4c7.7-1.8,15.6-2.8,23.4-4c2.1-0.3,4.1-0.5,4.7,2.5c0.6,3.2-1.1,4.1-3.7,4.5
		c-5.8,1-11.6,1.9-17.4,3c-13,2.3-12.8,2.3-10.7,15.5c0.8,4.7,2.6,6.1,7.1,5.2c3.4-0.7,8.2-3.5,10.2-1.2c3.8,4.6,6.8,1.6,10,0.5
		c5.1-1.7,10-4,15-5.8c3.2-1.1,4.4-2.8,3.8-6.2c-2.9-17.7-5.6-35.4-8.3-53.1c-0.5-3.2-1.7-4.9-5.2-5.3
		C305.7,358.1,296.1,356.3,287.7,356.6z M700.6,405.3c0.1,0,0.1,0,0.2,0c0-4.9,0.1-9.7,0-14.6c0-1.2-0.6-2.4-0.9-3.7
		c-2.4-9.8-11.5-12.3-19.1-5.4c-5.3,4.8-10.6,9.6-16.5,13.7c-16.3,11.4-33.6,19.1-53.5,9.9c-4.2-1.9-8.1-3.2-12.4-2.2
		c-5.4,1.3-13.7-1.1-15.5,3.8c-2,5.4,4.2,11,7.9,15.7c10.4,13,10.6,12.9,25.7,5.5c0.5-0.2,1-0.3,1.4-0.5c25-9.3,50.1-14.2,75.7-2
		c4.5,2.1,6.8,0.8,7-4C700.8,416.1,700.6,410.7,700.6,405.3z M465,726.1c-1.6-0.2-2.2-0.4-2.6-0.3c-25.7,7.1-51.8,12-78.6,12.3
		c-4.1,0-4.5,1.8-4.2,5.2c1.2,12,2,24,3.3,35.9c0.8,7.6,0.8,15.5,3.4,23.7C413.5,777.9,438.9,752.4,465,726.1z M367.5,448.8
		c0.4-9-1.2-17.8-1.5-26.8c-0.2-5.7-2.4-5.4-6.5-3.8c-15.4,6.2-30.9,12.1-46.4,18.2c-12,4.7-12,4.7-11.7,17.8
		c0.1,4.4,0.4,8.7,0.1,13c-0.4,5.4,1.9,6.5,6.8,5.9c18-2.4,36-4.4,54.1-4.3c4.4,0,6.7-1.4,5.9-6.4
		C367.6,458.1,367.7,453.4,367.5,448.8z M724.5,140.6c-0.2,3.4-0.3,7.5-0.8,11.6c-0.3,2-2.6,4.9,0.3,5.6c2.9,0.8,2.7-3,3.3-5
		c11.9-38.8-9-78-47.9-90.1c-10.3-3.2-19.7-1.3-28.4,4.9c-8.7,6.3-15.1,14.7-19.6,24.2c-3.7,7.8,4.9,5.4,7.5,7.9
		c3.1,3.1,4.2,0.8,5.3-2.6c5-15.6,14.7-22.3,30.9-22.2c10.7,0.1,20,3.8,27.9,11C719.1,100.4,723.9,119.3,724.5,140.6z M393.9,260.7
		c-6.6-3.9-13.2-6.9-18.7-11.2c-21.9-17.7-31.5-33.5-24.5-56.9c7.8-25.8,16.5-50.9,42.3-64.9c6.2-3.4,12.3-6.9,20.1-11.2
		c-12.9,1-23.5,4.1-31.7,11.5c-26.1,23.4-39.1,53-36.6,88C346.3,237.9,372.5,260.8,393.9,260.7z M765.8,594.5
		c-19.8,1.7-38.8,3.7-57.9,4.9c-19.5,1.1-38.5,6.5-58.1,6.5c-0.8,0-2.1,1.3-2.1,1.9c0.1,1.5,1.1,2.4,3,2.2c4.8-0.7,9.6-1.2,14.4-1.7
		c33.8-3.8,67.7-7.8,101.8-5.2c2.4,0.2,4.8,0.8,5.2-2.6c0.4-2.9,3.7-5.7-0.2-8.9c-14.1-11.6-21.3-25.9-14.6-45.3
		C745.3,557.6,748.7,575.8,765.8,594.5z M327.6,363.2c2.4,16.1,4.8,31.9,7.4,47.7c0.5,2.8-1.3,8.9,4.8,7c4.4-1.4,12.3-0.6,10.1-9.9
		c-2.3-10.2-4-20.5-6-30.8C342,366.7,340.3,365.2,327.6,363.2z M1044.5,1057.4c-1.7-4.4-5.2-6.6-8.3-9.1c-17-13.3-36.5-18-57.7-16
		c-26.9,2.5-50.9,12.9-73,27.8c-1.3,0.9-3.5,1.2-3.1,3.7c1,0.8,1.8,0.2,2.7-0.4c11.5-8.4,24.7-13.3,37.7-18.7
		c33.9-14,65.9-12,95.6,10.7C1039.7,1056.7,1041.1,1058.6,1044.5,1057.4z M213.1,380.4c0-1.9,0.3-3.9-1.5-5
		c-7.9-4.8-16.3-8.7-25.2-10.9c-3.6-0.9-6.4,4-10.4,3.7c0.1,3.1,2.4,5,3.8,7.4c3.7,6.4,7.7,12.7,10.2,19.7c0.7,1.9,1.7,3.1,3.8,2.8
		c2-0.2,2.3-1.6,2.6-3.2c1.2-6.3,5-9.2,11.4-8.7C212.2,386.5,212.9,383.5,213.1,380.4z M871.8,721.1c5.7-12.4,8.1-25.3,7.6-38.8
		c-0.3-10.3-2.2-11.6-11.8-6.9c-1.9,0.9-7.3-0.6-5.3,5.1C867.1,693.6,869.7,707.2,871.8,721.1z M882.7,1099.2
		c23.7-2.6,45.2,4.7,67.5,16.9C933.6,1095.6,904,1088.6,882.7,1099.2z M902.7,525.8c4.4-2.1,7.7-0.8,11-3.5
		c-11.5-2.4-21.5-5.5-31.7-5.8c4.3,4.8,11.9,2.8,17.7,6.4c-2.5,1.4-4.4,2.4-7.5,4.1c17.3,4.1,33,9.5,48.7,15.3
		C930.3,533.3,917.4,529.6,902.7,525.8z M857.6,1112.2c13.5-17,27.4-33.7,44-47.9C882.8,1076.3,867,1091.3,857.6,1112.2z
		 M350.9,376.7c2,10,3.9,19.9,5.9,29.8c0.4,1.9,0.1,4.6,3.4,3.7c2.6-0.8,4.4-1.8,3.5-5.4c-1.9-7.7-3.4-15.5-7-22.7
		C355.5,379.8,355,376.4,350.9,376.7z M293.8,450.9c-0.8-5.9,1.9-10.3-2.1-13.5c-1.3-1-4.6-0.3-5.2,1.6
		C284.7,444.3,289.3,446.3,293.8,450.9z M663.2,266.1c-5-0.9-9.9-1-13.9,2.8C653.9,268,658.6,267,663.2,266.1z"/>
	<path class="st1" d="M452.2,1178c-1.5-4-3-7.9-4.5-11.9c5.1,2.3,6.2,7.1,7.1,11.9C453.9,1178,453,1178,452.2,1178z"/>
	<path class="st2" d="M602.7,618.1c6.1-2.6,12.1-5.4,18.3-7.6c7.9-2.8,16-5.1,24-7.7c0.5,10,0.5,10,10.7,9.3
		c32.5-2.4,64.9-4.5,97.5-3.2c2.3,0.1,4.6,0.4,6.9,0.5c6.4,0.1,8.8,3.3,11.8,9.3c5.7,11.4,7.7,23.3,11.1,35.2
		c6.4,22.1,26.9,32.8,53.3,29.9c4.1-0.5,8.2-0.9,12.1-2.2c6.3-2.1,9.4-1,10.7,6.3c4.8,27,9.7,54,5.1,81.6c-1.4,8.4-4,16.4-7.6,24.1
		c-14.4,30.9-33.2,58.7-57.3,82.9c-2.5-0.3-4.3,1-6.2,2.5c-21.3,16.6-45.8,24.6-72.5,25.1c-25.3,0.4-48.6-6.9-68.6-22.4
		c-15-11.7-25.3-26.7-21.9-47.4c1.1-6.5,2.8-12.9,3.2-19.6c1.5-30.5-6.1-59.7-13.2-88.9C611.7,690.2,602,655,602.7,618.1z
		 M712.9,887.9c0.5-6.2,1.4-10.9,3.2-15.4c1.6-3.8,4.2-5.5,8.4-5.1c1.6,0.2,3.9,3.2,4.7-0.6c0.5-2.6-2.2-3.3-4.1-3.7
		c-4.4-1.1-8.9-0.8-11.4,3.7C710.1,873,706.9,879.3,712.9,887.9z"/>
	<path class="st1" d="M602.7,618.1c-0.8,36.9,9,72.1,17.6,107.5c7.1,29.2,14.7,58.4,13.2,88.9c-0.3,6.7-2.1,13.1-3.2,19.6
		c-3.4,20.8,6.9,35.7,21.9,47.4c19.9,15.6,43.3,22.8,68.6,22.4c26.7-0.4,51.2-8.5,72.5-25.1c1.9-1.5,3.6-2.8,6.2-2.5
		c-22.2,24.3-49.9,38.5-81.9,44.6c-25.2,4.8-50.6,4.7-75.6,0c-16.4-3.1-31-11.7-45.6-19.6c-19.1-10.3-38-21.1-56.8-32.1
		c-42.2-24.7-86.8-32.2-134.5-19.5c-0.4-0.5-0.8-1-1.2-1.5c34.1-23.4,65.1-50.5,92.9-81.2c10-11,19.5-22.5,27.2-35.2
		c1.9-3.1,3.5-3.7,7.2-3.1c14.6,2.1,24.3-4.3,28.4-18.5c4.6-15.8,3.1-31.8,0.1-47.7c-0.4-1.9-1.8-3.6-2.6-5.5c-1.2-3-6.3-4.8-4.5-8
		c2.7-4.9,3.9-10.8,10.3-13.6C576,629.6,588.9,622.7,602.7,618.1z"/>
	<path class="st1" d="M750.2,422.6c-1.9,2.3-3.8,4.7-5.8,7c-8.7,10.5-16.7,20.6-21.8,34.3c-7,18.9-22.3,32.9-41.8,40.6
		c-20.7,8.1-42.2,7.4-63.7,5.2c-18.4-2-36.3-6.2-54-11.5c-2.9-0.9-5.7-2.5-9-1.1c1.4,2.1,4.7,1.7,6,4.7c-5.1,2.7-10.9,3.3-16.5,3.7
		c-59.5,3.9-106.1-20-138.4-68.9c-25.8-39-10.4-83.3,33.6-104.4c14-6.7,28.8-10.6,44.1-12.5c2.7-0.3,5.6-0.2,8.1-1.7
		c-34-9.1-77.3,12-99,48.7c-5.6-18-8.6-35.7-9.6-53.9c-0.8-13.6-0.1-27.1,0.1-40.7c0.1-4.1,0.8-5.3,5.3-4.1
		c13.7,3.8,13.8,3.6,14.7,17.7c0.1,1.8,0.3,3.6,0.4,6c3.1-2.4,2.3-5.6,2.7-8.2c5.7-40.9,14.8-81.1,31.2-119.2
		c7-16.4,14.6-32.9,33.4-42.6c-7.3-0.7-13.5,3.3-17.9-3.4c1-2.4,4.2-3.1,6.8-4.3c15.4-7.2,31.7-12.1,48.7-12.7
		c16.1-0.5,31-6.4,46.7-8.2c2.3-0.3,4.5-0.2,6.8-0.3c-0.6,0.8-1,2-1.7,2.2c-22.2,5-40.8,18.7-62.4,25.1
		c-13.1,3.9-24.7,11.3-34.5,20.8c-19.1,18.7-26.5,42.6-29,68.4c-0.5,5.5-0.8,11.2,1.1,16.7c3.7,10.8,10.1,13.1,20.1,7.5
		c5.2-2.9,8-8.6,13.7-10.7c-0.5,2-0.9,3.9-1.5,5.9c-11.5,37.6,2.6,67.2,38.2,83.4c31.9,14.5,56.6-1.8,68.2-22.5
		c16.9-29.9,19.1-60.9,6.2-92.9c4.1,0.8,6.8-3,10.6-3.1c-1.7,18.2,1.8,35.1,12.8,50.1c9.8,13.3,22.1,22.7,39.7,24.9
		c-25,11.1-50,22.1-65.7,46c-0.7,0.8-1.3,1.6-1.9,2.3l0.5-0.1l0.1,0.5c-1.5-0.2-3.3-1-4.5-0.5c-14.3,6.2-29.1,5.1-44.3,4.9
		c-28.6-0.4-54.9,8.2-77.1,27.1c-20.5,17.5-27,48.7-10.3,71.8c7.8,10.8,17.9,18.8,29,25.8c16.2,10.2,33.4,18.7,50.4,27.7
		c2.6,1.4,4.8,4.9,8,3c3.3-2,1.2-5.4,0.6-8.4c-2.1-11.3,1.6-14.6,12.3-10.7c5.7,2.1,11.3,4.9,16.7,7.9c15.7,8.7,32.2,15.5,49.8,19.1
		c8.8,1.8,17.9,4.5,27,0.9c15,1.1,29.7,0.2,43.9-5c7.6-2.8,14.4-6.9,18.6-14.1c1.5-2.5,4.1-5.5,0.6-8.7c0.5-5.1-3.1-4.8-6.4-4.9
		c2.7-2.5,5.3-5,7.9-7.5c5.7,7.9,6.3,8.2,14.3,2.7c5.2-3.6,9.9-8,15.2-11.3C735.3,432.5,741.2,425.1,750.2,422.6z"/>
	<path class="st2" d="M690.1,453.3c3.3,0.1,6.9-0.2,6.4,4.9c-5.8,11.4-16.2,16.5-27.7,19.9c-14.9,4.4-30.2,4.4-45.6,3.2
		c-2.6-0.6-5.3-1-9.4,0.8c4.2,0.8,6.8,1.3,9.5,1.8c3.3,0.7,6.7,1.3,10.1,2c-9.1,3.6-18.2,0.9-27-0.9c-17.6-3.6-34.1-10.4-49.8-19.1
		c-5.4-3-10.9-5.8-16.7-7.9c-10.7-3.9-14.5-0.6-12.3,10.7c0.6,2.9,2.7,6.4-0.6,8.4c-3.2,1.9-5.4-1.7-8-3
		c-16.9-9-34.1-17.5-50.4-27.7c-11.1-6.9-21.2-15-29-25.8c-16.7-23.1-10.1-54.3,10.3-71.8c22.2-18.9,48.5-27.5,77.1-27.1
		c15.2,0.2,30,1.3,44.3-4.9c1.2-0.5,3,0.3,4.5,0.5c-2.7,6.2-5.6,12.3-6,19.5c13.1-20.8,28.8-38.6,51.2-49.6c0.3,0.3,0.7,0.7,1.1,1
		c-1.7,4.8-3.9,9.5-5,14.4c-3.1,13.4,1.9,22.8,14.7,28.2c2.6,1.1,5.2,2,7.8,3c2.5,6.7,9.5,8.9,13.7,13.9c7.9,9.4,6.5,18.9-4.6,23.4
		c-21.3,8.7-42.3,11.4-61.7-4.9c-1.9-1.6-3.2-2.3-4.2,1c-4.4,13.9-15.2,18-28.4,18.6c-8.9,0.4-17.5-1.4-26.2-2.9
		c-0.7,3.2,1.4,4.4,2.8,5.6c10.1,8.3,19.4,17.7,30.6,24.5c7,4.3,12.3,11.6,21.3,12.6c21.2,23.2,46.8,36.6,78.9,35.8
		C672,461.2,681.4,458.4,690.1,453.3z"/>
	<path class="st2" d="M590.2,193.5c-3.8,0.2-6.5,3.9-10.6,3.1c-20.4-35.4-57.7-30.1-80-14c-14.3,10.3-23.8,24.3-31.1,40.1
		c-5.7,2.1-8.5,7.8-13.7,10.7c-9.9,5.5-16.4,3.3-20.1-7.5c-1.9-5.5-1.7-11.2-1.1-16.7c2.5-25.8,10-49.7,29-68.4
		c9.8-9.6,21.4-17,34.5-20.8c21.6-6.4,40.2-20.1,62.4-25.1c0.7-0.2,1.2-1.4,1.7-2.2c29-3.4,56.1,3.7,81.3,17.2
		c46.5,25,78.6,63,97.8,112.2c2,5,1.2,6.7-4.3,6.6c-3.3,0-6.6,0.9-9.8,1.8c-3.2,0.8-6.3,2.1-9.8,3.3c0.9-18.1-8.2-31.5-19.5-43.8
		c-11.6-12.6-25.4-22.2-40.6-29.9c-23.5-11.8-41-4.3-57.3,15.1C594.6,180.4,592,186.8,590.2,193.5z"/>
	<path class="st3" d="M364.3,476.8c11.9-5.2,21-1.2,29,8.6c-19.9,6.9-39.7,13.1-58.4,22c-19.3,9.2-37.6,19.9-51.8,36.3
		c-20.5,23.7-25.9,51.7-22.8,81.8c1.2,11.9,3.8,23.7,6.1,35.5c3.8,19.5,14.6,34.5,30.3,46.4c9.3,7,19.5,12.6,29.3,19.4
		c-3.7,3-8.4,0.8-11.4,4.5c17.2,3.4,34.5,4.5,51.6,6.5c3.9,0.4,5.8,1.1,6.4,5.5c2.6,19.8,5.6,39.5,8.6,59.2c0.5,3.4-0.3,5.9-3.3,7.8
		c-3.7,2.3-7,5.2-10.5,7.7c-6.8,4.9-11.1,11.5-12.9,19.4c-3,13.1,5.7,26.3,26.1,21.8c2.4-0.5,4.7-1.5,7.9-2.5
		c-5.2,6.6-14,9.1-23.2,6.4c-27.4-8.4-46.4-26.2-57.7-52.3c-16.9-39.2-27.9-80.2-37.1-121.7c-5.4-24.4-11.1-48.8-14.8-73.5
		c-5.4-35.9-10.3-72-8.4-108.5c0.2-3.5,1-7.1,1.6-10.6c23.8,8.4,48.4,6,72.6,4.1c12.1-1,24.8-2.3,36.1-8.4
		C366.6,487.4,367.1,486.5,364.3,476.8z"/>
	<path class="st2" d="M750.2,422.6c-9.1,2.4-14.9,9.9-22.6,14.6c-5.4,3.3-10,7.7-15.2,11.3c-8.1,5.5-8.6,5.3-14.3-2.7
		c11.9-17.5,11.8-37,10-56.9c2-0.1,4.2,0.3,6-0.3c7.1-2.3,15.8-1.7,19.3-10.5c15.2-9.2,19.9-20.5,16.4-39.2
		c-1.8-9.4-4.9-18.2-8.6-27c-3-7.3-5.8-14.6-8.4-22.1c-4.6-13.9-15.9-21.4-30.3-24c-8.6-1.6-17.3-2-26-1.2c-2.2,0.2-3.7,0.2-5.2-1.3
		c14.3-2.9,27.3-7.7,39.3-16.8c22.3-16.9,46.7-16.9,62,10.1c19.9,34.9,30.5,72.3,16.3,112.4C781.4,390.5,766.5,407.2,750.2,422.6z"
		/>
	<path class="st1" d="M238.2,107.2c18.4-3,37.1-3.5,55.6-5.1c4.9-0.4,3.6,4.4,4,6.8c4.3,23.1,8.3,46.2,12.4,69.4
		c7,40,14.1,80,21.2,119.9c0.9,5,0.8,8.3-5.6,6.7c-2-15.7-7.1-30.7-10.8-46.1c-7.5-30.7-15.1-61.3-23.2-91.9
		c-3.3-12.8-5.5-26-11.5-38c-1.4-2.9-3.3-7.2-6.9-5.6c-2.3,1.1-1.8,5.6-1,9c2.6,10.1,4.8,20.4,7.2,30.6c4.2,23.7,8.4,47.4,12.6,71.2
		c0.3,1.5,0.4,3,0.7,4.5c-0.7,2-1.3,3.9,0.8,5.5l-0.1-0.1c-0.7,11.4,3.4,22.8,0.4,35.6c-8.5-14.5-11.2-29.7-17.5-43.5
		c-0.3-2.4-0.6-4.8-2.3-6.7c-3.3-14.3-9.2-27.9-11.9-42.3c3.3-5.4,2.6-6.8-3.6-7.4c-3.8-13.6-7.5-27.1-11.3-40.6
		c1.2-0.3,2.4-0.9,3.6-1c2.7-0.2,4.3-0.8,3.8-4.1c-0.4-3.3-2.1-3.6-4.8-2.9c-1.5,0.4-3,0.4-4.5,0.6
		C243.3,123.6,240.8,115.4,238.2,107.2z"/>
	<path class="st3" d="M323.9,313.1c15.7-2.8,31.5-2,47.3-0.5c3.3,0.3,3.9,2.1,4.3,5.1c1.9,19.4,5.2,38.5,11.7,56.9
		c1.3,3.6,0.9,7.1,0.1,10.5c-5,23,2,42.9,15.1,61.3c6,8.5,5.9,8.5-3.3,12.9c-5.5,2.6-11.1,5.2-16.9,7.4c-8.5,3.4-8.9,3-9-6
		c-0.1-20-0.6-39.9-4.2-59.7c-5.6-31.4-13.7-40.3-50.1-47.5c-29.8-5.9-59.7-2.5-89.4,1c-1.9,0.2-3.9,1-6.7-0.6
		c6.9-8.3,15.6-13.8,24.7-18.9c1.7,3,4.6,3.8,7.6,4.4c28.1,5.7,56.1,3.1,84.2-0.7c8.3-1.1,16.8-2.1,24.3-5.8
		c4.2-2,10.1-3.9,8.9-10.7c-1.3-6.9-5.9-9.3-12.8-9.2C347.9,313.6,335.9,313.2,323.9,313.1z"/>
	<path class="st3" d="M430.6,818.6c-14.5,13.4-30.7,24.3-48.6,32.7c-6.4,3-13.6,2.9-18.5-2.7c-5.2-6.1-1.5-12.4,1.9-18.3
		c3.8-6.6,11-9,16.3-13.7c34.3-30,66.2-62.5,97.7-95.3c12-12.5,25.4-12.4,40.1-10.4c4.8,0.6,5.6,3.1,3.5,7.5
		c-5.4,11.1-12.5,21-20.4,30.4c0.2-1.8,0.2-3.6,0.5-5.3c1.3-7.1-1.3-9.4-8.3-7.2c-1.7,0.5-3.4,1.1-4.9,2
		c-24.7,14.8-42.3,36.4-56.7,60.7C429.9,804.7,427.5,811.5,430.6,818.6z"/>
	<path class="st1" d="M582.9,425.7c-9-1-14.3-8.3-21.3-12.6c-11.2-6.9-20.5-16.2-30.6-24.5c-1.4-1.2-3.5-2.4-2.8-5.6
		c8.7,1.5,17.3,3.3,26.2,2.9c13.2-0.6,24.1-4.7,28.4-18.6c1.1-3.3,2.3-2.6,4.2-1c19.4,16.2,40.5,13.5,61.7,4.9
		c11.1-4.5,12.4-14.1,4.6-23.4c-4.2-5-11.2-7.2-13.7-13.9c14.6,1.9,29.1,1.8,43.6-0.7c3.6-0.6,4.3,0.9,4.7,3.9
		c2.4,15.6,0.4,29.3-12.9,40.1c-10,8-19.6,16.4-31.7,21.3c-16,6.5-27.1,4.3-38.9-8.2c-5-5.3-9.3-11.1-14.4-16.5
		c1.3,6.3,3.1,12.3,6.3,17.7c2,3.4,1.5,4.5-2.5,5.4c-14.4,2.8-28.5,0.9-42.6-2.3c-3-0.7-5.9-1.6-9.8-0.7c8.5,5.2,17.1,8.2,26.3,9.3
		c4,0.5,6.5,1.6,7.2,6.1C575.9,415.4,580.2,420.2,582.9,425.7z"/>
	<path class="st3" d="M231.4,417.8c-8.9-7.4-17.8-14.7-26.7-22.1c0.5-0.7,1-1.3,1.5-2c5.8-0.2,10.6-1.9,13.1-7.5
		c1.4-3.2,3-1.7,4.5,0c22.2,25,45.4,49.1,68.3,73.4c6.4,6.8,3.3,13.6-5,17.7c-9.4,4.7-14.5,1.8-21.3-5.2
		c-20.2-20.9-41.6-40.7-62.3-61.2c-1.9-1.9-7.5-3.6-3.2-8.2c3.7-4,6.6-1.2,9.6,1.5c6.2,5.5,12.6,10.8,18.8,16.2
		C229.6,419.6,230.5,418.7,231.4,417.8z"/>
	<path class="st4" d="M287.7,356.6c8.4-0.2,18,1.5,27.6,2.8c3.5,0.5,4.7,2.1,5.2,5.3c2.7,17.7,5.4,35.4,8.3,53.1
		c0.6,3.4-0.6,5.1-3.8,6.2c-5.1,1.8-9.9,4.1-15,5.8c-3.2,1-6.2,4-10-0.5c-2-2.4-6.7,0.5-10.2,1.2c-4.5,0.9-6.4-0.5-7.1-5.2
		c-2.1-13.2-2.3-13.2,10.7-15.5c5.8-1,11.6-2,17.4-3c2.6-0.4,4.3-1.4,3.7-4.5c-0.6-2.9-2.6-2.8-4.7-2.5c-7.8,1.3-15.7,2.2-23.4,4
		c-6,1.4-8.6-0.4-9-6.4c-0.1-1.8-0.3-3.6-0.9-5.3c-1.6-5.1,1-6.5,5.4-7.7c3.7-1.1,11.3,1.7,9.9-5.5c-1.3-6.4-7.1-1.6-10.6-0.9
		c-5.2,1-7.5,0-8.6-5.8C269.5,356.2,269.1,356.3,287.7,356.6z"/>
	<path class="st3" d="M700.6,405.3c0,5.4,0.2,10.7,0,16.1c-0.2,4.8-2.5,6.1-7,4c-25.6-12.2-50.7-7.3-75.7,2c-0.5,0.2-1,0.3-1.4,0.5
		c-15.1,7.4-15.2,7.5-25.7-5.5c-3.8-4.7-9.9-10.3-7.9-15.7c1.8-4.9,10.1-2.5,15.5-3.8c4.3-1,8.2,0.3,12.4,2.2
		c20,9.2,37.3,1.5,53.5-9.9c5.8-4.1,11.1-9,16.5-13.7c7.6-6.8,16.7-4.3,19.1,5.4c0.3,1.2,0.9,2.4,0.9,3.7c0.1,4.9,0,9.7,0,14.6
		C700.7,405.3,700.7,405.3,700.6,405.3z"/>
	<path class="st4" d="M276.6,236.3c6.3,13.8,9,29,17.5,43.5c3-12.8-1.1-24.2-0.4-35.6c5.5,19.6,8.4,39.7,12.6,59.5
		c0.7,3.3-0.7,3.9-3.3,4.4c-13.3,2.8-26.4,5.9-39,11.1c-3.4,1.4-4.6-0.3-5.1-3.3c-0.6-3.3-1-6.6-2-9.8c-1.2-3.9-0.1-5.5,3.9-6.2
		c7.8-1.2,15.6-2.6,23.4-4.1c2.4-0.4,5.3-0.4,4.6-4.4c-0.7-4.3-3.7-2.8-5.9-2.5c-8.1,1.2-16.2,2.4-24.2,4c-3.6,0.7-5.2-0.3-5.9-3.8
		c-1.1-5.5-2.3-11-3.7-16.4c-0.7-2.8,0.2-4.4,3.1-4.9c2.3-0.4,4.6-0.6,6.8-1.2c1.9-0.6,5-0.3,4.4-3.9c-0.6-3.3-2.5-4.1-5.5-3.1
		c-1.7,0.6-3.5,0.7-5.2,1.2c-4.2,1.1-6.2,0.2-7.2-4.8c-2.9-13.9-3.2-13.9,11-16.1C263.1,239,270,238.4,276.6,236.3z"/>
	<path class="st1" d="M465,726.1c-26.2,26.4-51.5,51.8-78.7,76.9c-2.6-8.2-2.6-16.1-3.4-23.7c-1.3-12-2.1-23.9-3.3-35.9
		c-0.3-3.3,0.1-5.2,4.2-5.2c26.8-0.3,52.9-5.2,78.6-12.3C462.8,725.7,463.4,725.9,465,726.1z"/>
	<path class="st3" d="M487.5,558.1c-5.6,1.6-10.6,4.4-15.7,7.3c-0.4-0.8-0.7-1.5-1.1-2.3c-17.6-39-48.9-66-82.6-92
		c8.5-3.3,15.8-6.1,23.1-9.2c2.8-1.2,4.3,0.4,5.9,2.1c13,13.3,28,23.6,44.3,32.5c7.4,4,13.5,9.9,18.5,16.8c-1.5-0.4-3-0.6-4.4-1.2
		c-3.3-1.5-6.9-3.3-10-0.3c-3,3.1-0.5,6.5,0.3,10c3,11.9,10.8,21.4,15.6,32.4C482.7,556.9,484.6,558.1,487.5,558.1z"/>
	<path class="st5" d="M323.9,313.1c12,0.1,24,0.5,36,0.2c6.9-0.2,11.5,2.3,12.8,9.2c1.3,6.7-4.7,8.6-8.9,10.7
		c-7.6,3.7-16,4.7-24.3,5.8c-28,3.8-56.1,6.4-84.2,0.7c-3.1-0.6-6-1.4-7.6-4.4C271.3,322,296.9,315.1,323.9,313.1z"/>
	<path class="st3" d="M367.5,448.8c0.3,4.6,0.2,9.2,0.8,13.8c0.8,5-1.5,6.4-5.9,6.4c-18.2-0.1-36.2,1.8-54.1,4.3
		c-4.9,0.7-7.2-0.5-6.8-5.9c0.3-4.3-0.1-8.7-0.1-13c-0.3-13.2-0.3-13.1,11.7-17.8c15.5-6,31-12,46.4-18.2c4.1-1.7,6.4-2,6.5,3.8
		C366.3,431,367.9,439.8,367.5,448.8z M358.9,438.9c-17.1,2.9-32.3,2.5-48.5,1.5C325,451.6,340.7,451.3,358.9,438.9z M361.4,438.7
		c-0.2,0-0.4-0.1-0.6-0.1c-0.1,0-0.1,0.2-0.2,0.3c0.2,0,0.4,0.1,0.5,0.1C361.3,439.1,361.4,438.9,361.4,438.7z"/>
	<path class="st5" d="M774,467c16.7,12.8,37.4,35.7,42.7,47.7c-11,2.1-22,3.8-32,9.1c-1.8,0.9-2.8-0.7-3.5-2.1
		c-7.1-12.4-17.7-21.7-27.8-31.4c-0.5-0.5-1-0.9-1.5-1.4l0,0c-0.5-0.5-1-1-1.5-1.5l0,0c0-6.5-5.9-10.3-7.5-16.3
		c-2.4-9.1-1.1-11.1,8.6-11.5c6.9-0.3,12.4,4,18.8,4.8l0.1,0C771,465.9,772,467.1,774,467z"/>
	<path class="st5" d="M364.3,476.8c2.9,9.7,2.3,10.6-6.7,15.5c-11.3,6.1-24,7.4-36.1,8.4c-24.2,1.9-48.8,4.3-72.6-4.1
		c-0.4-7.4,1.6-14.1,5.5-20.3c2.9-4.6,5.1-1.9,7.7,0.5c2.6,2.4,4.3,4.2,0.2,6.9c-2.4,1.6-5.3,3-6.3,6.3
		C291.6,482.1,327.5,476.1,364.3,476.8z"/>
	<path class="st4" d="M279.8,163.1c-2.3-10.2-4.6-20.4-7.2-30.6c-0.8-3.3-1.3-7.9,1-9c3.6-1.7,5.4,2.7,6.9,5.6
		c6,12,8.1,25.2,11.5,38c8,30.5,15.7,61.2,23.2,91.9c3.7,15.3,8.8,30.3,10.8,46.1c-11.5,2-11.5,2.1-14.3-8.8
		c-4.3-17.2-9.3-34.3-12.6-51.6c-4.9-25.9-12.2-51.2-16.7-77.1C281.9,165.9,281.9,163.8,279.8,163.1z"/>
	<path class="st5" d="M430.6,818.6c-3.1-7.1-0.8-13.9,2.7-19.7c14.5-24.3,32-45.9,56.7-60.7c1.5-0.9,3.3-1.4,4.9-2
		c6.9-2.2,9.5,0.1,8.3,7.2c-0.3,1.8-0.3,3.5-0.5,5.3c-20.6,25.2-43.5,47.9-69.4,67.6c-0.5,0.5-0.9,1-1.4,1.5
		C431.6,818.3,431.1,818.5,430.6,818.6z"/>
	<path class="st2" d="M724.5,140.6c-0.6-21.3-5.5-40.2-21.4-54.7c-7.9-7.2-17.2-10.9-27.9-11c-16.2-0.1-25.9,6.6-30.9,22.2
		c-1.1,3.4-2.2,5.7-5.3,2.6c-2.6-2.6-11.3-0.2-7.5-7.9c4.6-9.5,10.9-18,19.6-24.2c8.6-6.2,18-8,28.4-4.9
		c39,12.1,59.8,51.2,47.9,90.1c-0.6,2-0.4,5.7-3.3,5c-2.9-0.8-0.6-3.6-0.3-5.6C724.3,148.1,724.4,144,724.5,140.6z"/>
	<path class="st2" d="M710.5,323c7.4-4.5,14.9-8.9,20.5-16.2c6.1,13.1,11.3,25.5,12.5,39.2c0.8,10-1.2,18.9-11.4,23.8
		c-0.4-0.6-0.8-1.6-1.3-1.7c-13.6-1.4-19-6.9-22.2-19.5C706.2,339.5,709.3,331.5,710.5,323z"/>
	<path class="st5" d="M629.5,450c-4.9-0.9-8.8-3.8-12.9-6.2c-5.8-3.4-5.7-5.6,0-9.4c22.5-15.2,53.9-15.6,76.1-1.1
		c1.6,1.1,3.3,1.9,2.1,4c-5,8.3-9.3,17.2-20,19.6c1.1-4.5-1.6-7.1-4.9-9.4c-10.8-7.3-23-10.1-35.9-10.8c-6.2-0.3-7.5,2.9-6.1,8.2
		C628.3,446.7,628.9,448.3,629.5,450z"/>
	<path class="st4" d="M262.4,187.2c2.6,14.5,8.6,28,11.9,42.3c-9.5,1.7-19.1,3.4-28.6,5.3c-3.9,0.8-5.8-0.5-6.2-4.4
		c-0.2-2.3-0.8-4.5-1.5-6.7c-1.1-3.8-0.1-5.8,4.1-6.1c2.3-0.2,4.5-0.9,6.7-1.4c2-0.4,3.2-1.4,2.7-3.7c-0.4-2.3-1.4-3.8-4.1-3.3
		c-0.5,0.1-1,0.1-1.5,0.2c-10.9,1.3-10.5,1.2-13.4-9.2c-1.8-6.4-0.1-8.8,6.3-9.4C246.8,189.9,254.6,188.5,262.4,187.2z"/>
	<path class="st5" d="M487.5,558.1c-2.8,0-4.8-1.2-5.9-3.9c-4.8-11-12.6-20.5-15.6-32.4c-0.9-3.4-3.3-6.9-0.3-10
		c3-3.1,6.6-1.3,10,0.3c1.3,0.6,2.9,0.8,4.4,1.2c12,10.3,21.1,22.8,27.3,37.3c1.8,4.2,1.1,6.1-4,5.9
		C498,556.1,492.6,556.6,487.5,558.1z"/>
	<path class="st1" d="M393.9,260.7c-21.3,0.2-47.6-22.7-49.1-44.7c-2.5-35,10.5-64.6,36.6-88c8.2-7.4,18.8-10.5,31.7-11.5
		c-7.8,4.3-13.9,7.8-20.1,11.2c-25.8,14-34.5,39.1-42.3,64.9c-7,23.3,2.5,39.2,24.5,56.9C380.6,253.8,387.2,256.7,393.9,260.7z"/>
	<path class="st4" d="M247.6,139.2c3.8,13.6,7.5,27.1,11.3,40.6c-8.5,1.6-16.9,3.1-25.4,4.8c-3.3,0.7-4.7-0.8-5.2-3.8
		c-0.5-2.5-0.6-5.2-1.6-7.4c-2.1-4.9,0.5-6.4,4.7-6.9c2.8-0.4,5.5-0.8,8.3-1.4c1.9-0.4,3.2-1.5,2.6-3.8c-0.5-1.9-1.5-3.3-3.7-2.9
		c-2.5,0.4-5,0.8-7.5,1.4c-5,1.2-7.9,0.2-9.1-5.7c-2.2-10.9-2.2-11.3,9-12.6C236.5,140.6,242,139.9,247.6,139.2z"/>
	<path class="st1" d="M492.2,511.6c11.9,9.7,19.1,22.5,24,36.7c1.3,3.7,2.8,5.9,6.6,7.4c15.4,6.3,19.6,13.9,17.4,30.5
		c-0.3,1.9-0.6,3.2,1.6,4.3c15,8.2,17.7,22.5,18.1,38.7c32.9-17.7,66.4-33.2,103.4-44.3c-1.9,3.5-3,5.8-4.4,8
		c-1.3,2.2-1.3,1.9-5.1,0.9c-1.3-0.4-3,0.3-4.4,0.7c-28.5,7.1-54.6,20-80.3,33.8c-3.4,1.8-6.7,3.7-10.8,5.9
		c-1.2-5.7-2-11.1-3.3-16.4c-2.5-9.8-6.2-19.1-15.6-24.5c-2.6-1.5-2.4-3.3-2.2-5.8c1.8-16.3-2.3-24-17.1-29c-5.8-2-5.5-6.9-6.5-10
		c-4.3-14.2-14-24.7-22.8-35.8C491.2,512.4,491.7,512,492.2,511.6z"/>
	<path class="st2" d="M633.5,187.5c13.4-7.5,30.2-2.2,38.5,12.4c8.5,14.9,4.7,31.9-9,40.1c-2-1.3-3.8-2.7-4.9-4.8
		c7.2-10,8.1-18.6,2.6-26.5c-5.7-8.3-14.3-10.3-27.2-6.5C633.5,197.2,633.5,192.3,633.5,187.5z"/>
	<path class="st1" d="M765.8,594.5c-17.1-18.7-20.5-36.8-8.5-48.2c-6.7,19.4,0.5,33.6,14.6,45.3c3.9,3.3,0.6,6,0.2,8.9
		c-0.4,3.4-2.9,2.8-5.2,2.6c-34.2-2.6-68,1.4-101.8,5.2c-4.8,0.5-9.6,1-14.4,1.7c-1.9,0.3-2.8-0.7-3-2.2c0-0.6,1.3-1.9,2.1-1.9
		c19.6,0,38.6-5.4,58.1-6.5C727,598.2,746,596.2,765.8,594.5z"/>
	<path class="st1" d="M710.5,323c-1.1,8.5-4.2,16.5-1.9,25.5c3.2,12.6,8.6,18.1,22.2,19.5c0.5,0.1,0.9,1.1,1.3,1.7
		c-12.5,6.5-25.4,3.7-38.2,1.6c-3.1-0.5-2.6-2.4-1.6-4.5c4.2-9.5,4.1-19.5,2.7-29.4c-0.9-6.1,0.8-8.9,6.5-10.4
		C704.5,326.2,707.5,324.4,710.5,323z"/>
	<path class="st2" d="M707.2,308.7c1.4-2.1,3.1-4,4.3-6.3c5.4-10,0.6-20.7-10.6-22.8c-18.1-3.4-36.2-0.8-54.3,0.6
		c-1.4,0.1-2.3,0.5-3.5-1.7c21.1-5.3,42-9.4,63.6-4.3c3.5,0.8,6.6,2.6,9.5,4.8c14.8,11.6,14.7,21-0.5,31.7
		C713,309.4,709.4,311.6,707.2,308.7z"/>
	<path class="st4" d="M327.6,363.2c12.7,2,14.4,3.5,16.4,14c2,10.3,3.6,20.6,6,30.8c2.2,9.3-5.8,8.5-10.1,9.9c-6,1.9-4.3-4.2-4.8-7
		C332.4,395.1,330.1,379.2,327.6,363.2z"/>
	<path class="st4" d="M238.2,107.2c2.5,8.2,5,16.4,7.6,24.6c-7.6,1.2-15.1,2.3-22.7,3.6c-3.3,0.6-5.3-0.3-6.2-3.7
		c-1.6-5.9-3.2-11.8-5-17.7c-1.3-4.1,0.2-5.6,4.2-5.7C223.4,108,230.8,107.5,238.2,107.2z"/>
	<path class="st1" d="M629.5,450c-0.6-1.7-1.2-3.3-1.7-5c-1.4-5.3,0-8.6,6.1-8.2c12.8,0.7,25,3.5,35.9,10.8c3.3,2.2,6,4.8,4.9,9.4
		C658.6,461.3,643.8,457.2,629.5,450z"/>
	<path class="st1" d="M1044.5,1057.4c-3.4,1.2-4.7-0.8-6.3-1.9c-29.8-22.6-61.8-24.7-95.6-10.7c-13,5.4-26.2,10.3-37.7,18.7
		c-0.8,0.6-1.6,1.2-2.7,0.4c-0.4-2.5,1.8-2.8,3.1-3.7c22.2-14.9,46.2-25.3,73-27.8c21.2-2,40.7,2.7,57.7,16
		C1039.3,1050.8,1042.8,1053.1,1044.5,1057.4z"/>
	<path class="st1" d="M213.1,380.4c-0.3,3.2-1,6.1-5.3,5.8c-6.4-0.5-10.2,2.5-11.4,8.7c-0.3,1.6-0.7,3-2.6,3.2
		c-2.2,0.2-3.2-0.9-3.8-2.8c-2.5-7-6.5-13.3-10.2-19.7c-1.4-2.4-3.7-4.3-3.8-7.4c4.1,0.3,6.9-4.6,10.4-3.7c9,2.2,17.3,6.2,25.2,10.9
		C213.4,376.4,213.1,378.5,213.1,380.4z"/>
	<path class="st3" d="M770.3,464.2c-6.5-0.8-12-5.1-18.8-4.8c-9.7,0.4-11,2.4-8.6,11.5c1.6,6,7.5,9.8,7.5,16.3
		c-6.4-4.5-12.8-9.1-19.2-13.6c-1.3-0.9-2.4-1.9-1.9-3.7c2.6-8.9,3.9-18.3,11.4-25.1c1.8-1.7,3.2-2.5,5.1-0.9
		C754,450.7,763.4,455.9,770.3,464.2z"/>
	<path class="st1" d="M470.7,563.1c0.4,0.8,0.7,1.5,1.1,2.3c-20.8,13.1-40.7,27.5-59.7,43.1c-2.4,2-4.7,3.4-8.2,3
		c-19.5-2.3-39.2-3.8-58.8-4.4c-1.8-0.1-3.7,0.3-4.8-3.2c18.3,2.6,36.5-0.2,54.1,4.5c7.1,1.9,13.2,0.3,18.9-4.5
		C431.1,588.6,449.7,574.1,470.7,563.1z"/>
	<path class="st3" d="M871.8,721.1c-2-13.9-4.6-27.5-9.4-40.7c-2.1-5.7,3.3-4.2,5.3-5.1c9.6-4.6,11.5-3.3,11.8,6.9
		C879.8,695.8,877.5,708.8,871.8,721.1z"/>
	<path class="st1" d="M882.7,1099.2c21.3-10.6,51-3.7,67.5,16.9C927.9,1103.9,906.4,1096.7,882.7,1099.2z"/>
	<path class="st1" d="M902.7,525.8c14.7,3.8,27.6,7.5,38.2,16.5c-15.6-5.9-31.3-11.3-48.7-15.3c3.1-1.7,5-2.8,7.5-4.1
		c-5.8-3.6-13.4-1.6-17.7-6.4c10.2,0.3,20.2,3.3,31.7,5.8C910.4,525.1,907.1,523.8,902.7,525.8z"/>
	<path class="st1" d="M633.5,187.5c0,4.9,0,9.8,0.1,14.6c-9,8.1-9.9,10.4-9.6,24.1C614.7,213.8,619.4,194.7,633.5,187.5z"/>
	<path class="st1" d="M857.6,1112.2c9.4-20.9,25.2-35.9,44-47.9C885,1078.5,871.1,1095.2,857.6,1112.2z"/>
	<path class="st2" d="M350.9,376.7c4.1-0.3,4.6,3.1,5.8,5.4c3.6,7.1,5.1,15,7,22.7c0.9,3.6-0.9,4.7-3.5,5.4c-3.3,0.9-3-1.7-3.4-3.7
		C354.7,396.6,352.8,386.7,350.9,376.7z"/>
	<path class="st1" d="M733.4,378.1c-3.5,8.8-12.3,8.2-19.3,10.5c-1.8,0.6-4,0.3-6,0.3c-2.1-5.6-1.9-9.1,5.8-8.2
		C720.5,381.5,726.9,379.1,733.4,378.1z"/>
	<path class="st1" d="M658.1,235.1c1.1,2.2,2.9,3.6,4.9,4.8c-8.7,5.9-17.5,4.7-26.3,0.1C644.5,241.3,651.8,240,658.1,235.1z"/>
	<path class="st1" d="M860.8,515.2c-12.9,0-25.8,0-38.6,0c0-0.6,0-1.3,0-1.9c12.8-1.3,25.7-4.8,38.5,1.8L860.8,515.2z"/>
	<path class="st1" d="M707.2,308.7c2.3,2.9,5.8,0.7,8.4,2.1c-6.4,5.1-13.4,8.8-22.8,11C698.4,316.8,702.8,312.7,707.2,308.7z"/>
	<path class="st4" d="M293.8,450.9c-4.5-4.6-9.1-6.6-7.4-11.9c0.6-1.9,4-2.6,5.2-1.6C295.7,440.6,293,445.1,293.8,450.9z"/>
	<path class="st1" d="M663.2,266.1c-4.6,0.9-9.3,1.9-13.9,2.8C653.3,265.1,658.2,265.1,663.2,266.1z"/>
	<path class="st1" d="M487.1,509c2.8-1.3,3.7,1.3,5.2,2.6c-0.5,0.4-1,0.8-1.5,1.2c-1.2-1.3-2.3-2.6-3.4-3.9L487.1,509z"/>
	<path class="st3" d="M774,467c-2,0.2-3-1-3.6-2.7C772.3,464.2,773.3,465.4,774,467z"/>
	<path class="st4" d="M293.8,244.3c-2.2-1.6-1.5-3.5-0.8-5.5C294.1,240.5,294.8,242.3,293.8,244.3z"/>
	<path class="st1" d="M860.7,515.1c0.4,0.2,0.8,0.4,1.1,0.7c0.1-0.2,0.2-0.4,0.3-0.6c-0.4,0-0.9,0-1.3,0
		C860.8,515.2,860.7,515.1,860.7,515.1z"/>
	<path class="st1" d="M405,849.8c-1.1,0.5-2.7,1.4-3.3,0.3c-0.8-1.7,1.3-1.3,2.1-1.8C404.2,848.7,404.7,849.2,405,849.8z"/>
	<path class="st2" d="M575.1,316.8c0.7-0.8,1.3-1.5,1.9-2.3C576.8,315.5,576.8,316.9,575.1,316.8z"/>
	<path class="st2" d="M620.9,287.1c0.2-0.8,0.8-1.3,1.5-0.8c0.2,0.2-0.2,1.2-0.4,1.8C621.6,287.8,621.3,287.5,620.9,287.1z"/>
	<path class="st1" d="M487.3,508.9c-0.3-0.3-0.6-0.6-0.9-0.9c0.3,0,0.7,0,1,0c-0.1,0.3-0.2,0.7-0.3,1L487.3,508.9z"/>
	<path class="st3" d="M431.9,817.9c0.5-0.5,0.9-1,1.4-1.5C433.4,817.4,432.9,817.8,431.9,817.9z"/>
	<path class="st3" d="M752,488.8c0.5,0.5,1,0.9,1.5,1.4C753,489.7,752.5,489.3,752,488.8z"/>
	<path class="st3" d="M750.4,487.3c0.5,0.5,1,1,1.5,1.5C751,488.7,750.5,488.2,750.4,487.3z"/>
	<path class="st0" d="M712.9,887.9c-6-8.5-2.8-15,0.8-21.2c2.6-4.5,7-4.8,11.4-3.7c1.8,0.4,4.5,1.1,4.1,3.7
		c-0.7,3.8-3.1,0.8-4.7,0.6c-4.1-0.4-6.8,1.3-8.4,5.1C714.3,877,713.4,881.7,712.9,887.9z"/>
	<path class="st0" d="M468.6,222.7c7.3-15.8,16.8-29.7,31.1-40.1c22.3-16.1,59.6-21.4,80,14c12.9,32,10.7,63-6.2,92.9
		c-11.6,20.6-36.3,37-68.2,22.5c-35.6-16.2-49.7-45.8-38.2-83.4C467.6,226.6,468.1,224.6,468.6,222.7z M536.6,209.1
		c-12.2,0.3-22.5,9.3-25.6,22.2c-3.3,14,3,29.5,15,35.4c8.1,4,16.5,4.9,24.4-0.8c12.5-6.9,18.2-20.8,14.5-35.1
		C561.2,216.8,550.9,208.9,536.6,209.1z"/>
	<path class="st0" d="M633.4,485.9c-3.3-0.7-6.7-1.3-10.1-2c0-0.9,0-1.7,0-2.6c15.3,1.2,30.6,1.2,45.6-3.2
		c11.5-3.4,21.9-8.5,27.7-19.9c3.4,3.1,0.9,6.1-0.6,8.7c-4.2,7.2-11,11.3-18.6,14.1C663.1,486.1,648.4,487,633.4,485.9z"/>
	<path class="st3" d="M623.3,481.3c0,0.9,0,1.7,0,2.6c-2.6-0.5-5.2-1-9.5-1.8C618.1,480.3,620.7,480.7,623.3,481.3z"/>
	<path class="st0" d="M358.9,438.9c-18.2,12.4-33.9,12.7-48.5,1.5C326.5,441.4,341.8,441.8,358.9,438.9z"/>
	<path class="st0" d="M361.4,438.7c-0.1,0.1-0.1,0.3-0.2,0.3c-0.2,0-0.4-0.1-0.5-0.1c0.1-0.1,0.1-0.3,0.2-0.3
		C361.1,438.6,361.2,438.7,361.4,438.7z"/>
	<path class="st2" d="M536.6,209.1c14.3-0.2,24.6,7.7,28.3,21.7c3.8,14.3-2,28.2-14.5,35.1c-0.7-4.5-5-3.6-7.7-5.1
		c10.8-7.9,14.1-16.1,10.5-26.1c-3.3-9.1-11.8-13.8-23.6-12.9c-3.9-3.6-0.4-5.7,1.8-7.9C533.1,212.3,536.5,212.5,536.6,209.1z"/>
	<path class="st1" d="M536.6,209.1c-0.2,3.3-3.5,3.2-5.2,4.9c-2.2,2.2-5.7,4.2-1.8,7.9c-9.2,3.3-15.3,9.2-15.7,19.3
		c-0.3,8.3,3.7,14.6,11,18.7c5.8,3.3,11.8,2.3,17.8,0.9c2.7,1.5,7,0.6,7.7,5.1c-7.9,5.8-16.3,4.9-24.4,0.8
		c-12-5.9-18.3-21.5-15-35.4C514.1,218.4,524.4,209.4,536.6,209.1z"/>
	<path class="st0" d="M542.7,260.8c-6,1.4-12,2.4-17.8-0.9c-7.3-4.1-11.4-10.4-11-18.7c0.4-10.1,6.5-16.1,15.7-19.3
		c11.8-0.9,20.2,3.7,23.6,12.9C556.8,244.7,553.5,252.9,542.7,260.8z"/>
</g>
</svg>
