<?xml version="1.0" encoding="utf-8"?>
<!-- Generator: Adobe Illustrator 24.0.1, SVG Export Plug-In . SVG Version: 6.00 Build 0)  -->
<svg version="1.1" id="Layer_1" xmlns="http://www.w3.org/2000/svg" xmlns:xlink="http://www.w3.org/1999/xlink" x="0px" y="0px"
	 viewBox="0 0 400 400" style="enable-background:new 0 0 400 400;" xml:space="preserve">
<style type="text/css">
	.st0{fill:#FFFFFF;}
</style>
<g>
	<path d="M64.9,141.1c-5.8-2.2-13.4-4.8-20.7-7.9c-11.2-4.7-15.9-13.5-15.5-25.4c1.2-34.6,42-61.5,74.1-48.5
		c10.5,4.2,16.5,12.1,16.8,25.2c54.7-33.4,107.6-31.3,159.7,6.4c0.5-2.3,1.1-4.1,1.1-5.8c0.9-16.3,8.1-24.7,24.4-27.8
		c29.3-5.6,59.4,14.5,65.5,43.7c3.4,16.4-1.9,27.4-17.4,33.6c-8.9,3.6-18.3,5.7-28.3,8.8c1,2.3,1.9,4.9,3.2,7.4
		c11.4,22.6,18.8,46.2,19.4,71.7c1.1,50.9-21.8,87.6-69.2,105.8c-55,21.1-111.1,21.2-166-0.4c-52.8-20.8-77.1-67.4-66-125.2
		C50,182,58.3,162.2,64.9,141.1z M191.7,338c23.2-3.5,43.9-5.3,63.8-10.1c61-14.7,92.4-60.4,83.1-120.5
		c-7.3-47.6-30.6-86.5-69.8-114.6c-39.1-28-81.9-34-125.5-12.2C88.5,108.2,58.2,154.8,51.8,215c-5.8,54.7,20.2,92.7,72.8,109.4
		C146.9,331.5,170.6,333.9,191.7,338z"/>
	<path class="st0" d="M191.7,338c-21.1-4.1-44.8-6.6-67.1-13.6C71.9,307.8,46,269.8,51.8,215c6.4-60.3,36.7-106.8,91.5-134.3
		c43.6-21.9,86.4-15.8,125.5,12.2c39.2,28.1,62.5,67,69.8,114.6c9.3,60.2-22.1,105.8-83.1,120.5C235.6,332.8,214.9,334.5,191.7,338z
		 M179.1,221.9c0.1-15.6-4.8-23.3-16.8-27.3c-30.4-10.1-59.5-6.7-84.7,13.4c-7.5,6-13.8,15.9-16.3,25.2
		c-8.2,30.8,28.3,66.5,62.8,62.2c6.9-0.9,14.7-3.6,19.9-8C165,269.2,173.7,244.2,179.1,221.9z M251.6,189
		c-5.4,1.1-14.8,1.9-23.6,4.7c-16.3,5.2-23.2,16.4-17.5,32.4c6.4,18,14.5,35.7,24.7,51.8c10.9,17.1,28,21.4,47.5,15.6
		c14.8-4.3,27.1-12.6,36.3-25.1c14.1-19.3,12.3-41.1-4.9-57.7C297.7,195.1,277.2,190.5,251.6,189z M168.3,285.5
		c1.4,3.5,1.8,8.6,4.3,10c4.5,2.5,11.1,4.9,15.4,3.3c5.8-2.2,9.5-1.5,15.1,0c4.6,1.3,11-1.9,15.9-4.5c2-1.1,2.1-5.9,3-9
		c-10.7,12.4-16.5,13.5-20.2,7.3c3.5-5.5,7-9.8,8.9-14.6c0.8-2-1.9-7.6-3.2-7.7c-9.4-0.7-18.9-0.4-28.4-0.4
		c-0.6,1.3-1.3,2.5-1.9,3.8c4.6,5.3,9.2,10.6,13.9,16.1C184.6,298,182.1,297.5,168.3,285.5z"/>
	<path d="M179.1,221.9c-5.3,22.3-14.1,47.3-35.1,65.5c-5.1,4.5-12.9,7.1-19.9,8c-34.6,4.3-71-31.4-62.8-62.2
		c2.5-9.3,8.8-19.2,16.3-25.2c25.3-20.1,54.3-23.5,84.7-13.4C174.3,198.6,179.2,206.3,179.1,221.9z M124.3,230.8
		c0-1.4,0.1-2.9,0.1-4.3c-3.6-2.5-7.5-7.2-10.8-6.8c-3.4,0.4-8.2,5.4-8.7,9c-0.4,2.4,5.2,8,8.4,8.3
		C116.7,237.3,120.6,233.1,124.3,230.8z M130.4,243.5c2.2-4.1,4.4-6.5,4.2-8.7c-0.1-1.7-3.7-4.7-4.9-4.4c-2.3,0.7-5.3,3.3-5.4,5.3
		C124.2,237.6,127.3,239.8,130.4,243.5z"/>
	<path d="M251.6,189c25.6,1.5,46.1,6.1,62.5,21.8c17.2,16.6,19,38.4,4.9,57.7c-9.2,12.5-21.4,20.8-36.3,25.1
		c-19.5,5.7-36.6,1.5-47.5-15.6c-10.2-16-18.3-33.8-24.7-51.8c-5.7-16.1,1.3-27.2,17.5-32.4C236.8,191,246.1,190.1,251.6,189z
		 M265.4,233.1c1.9,1.3,3.6,3.1,5.7,3.7c6,1.9,11.4-0.2,12-6.4c0.4-3.4-2.8-9.1-5.9-10.6c-5.5-2.7-10.2,0.6-11.9,6.6
		c-0.6,2.1,0.1,4.6,0.2,6.8c-1.3-0.8-2.7-2.4-4-2.3c-2.8,0.2-5.5,1.3-8.3,2.1c0.7,2.3,1.4,4.6,2,6.9c2.7-0.8,5.6-1.3,8.1-2.6
		C264.6,236.9,264.8,234.6,265.4,233.1z"/>
	<path d="M168.3,285.5c13.8,12,16.3,12.5,22.7,4.3c-4.7-5.4-9.3-10.8-13.9-16.1c0.6-1.3,1.3-2.5,1.9-3.8c9.5,0,19-0.3,28.4,0.4
		c1.4,0.1,4,5.7,3.2,7.7c-1.9,4.9-5.4,9.1-8.9,14.6c3.7,6.2,9.5,5.2,20.2-7.3c-0.9,3.1-1,7.9-3,9c-4.8,2.6-11.2,5.8-15.9,4.5
		c-5.6-1.5-9.4-2.2-15.1,0c-4.2,1.6-10.8-0.8-15.4-3.3C170.1,294.2,169.7,289,168.3,285.5z"/>
	<path class="st0" d="M124.3,230.8c-3.7,2.3-7.6,6.5-11.1,6.3c-3.2-0.3-8.8-5.9-8.4-8.3c0.6-3.6,5.3-8.6,8.7-9
		c3.3-0.4,7.2,4.3,10.8,6.8C124.3,227.9,124.3,229.4,124.3,230.8z"/>
	<path class="st0" d="M130.4,243.5c-3.1-3.7-6.3-5.8-6.1-7.8c0.1-2,3.2-4.6,5.4-5.3c1.2-0.4,4.8,2.7,4.9,4.4
		C134.8,237,132.6,239.3,130.4,243.5z"/>
	<path class="st0" d="M265.7,233.4c-0.1-2.3-0.8-4.7-0.3-6.9c1.6-6.1,6.4-9.4,11.9-6.6c3.1,1.5,6.2,7.2,5.9,10.6
		c-0.7,6.1-6.1,8.2-12,6.4c-2.1-0.6-3.8-2.4-5.7-3.7L265.7,233.4z"/>
	<path class="st0" d="M265.4,233.1c-0.6,1.5-0.8,3.7-1.9,4.3c-2.5,1.3-5.4,1.8-8.1,2.6c-0.7-2.3-1.4-4.6-2-6.9
		c2.8-0.7,5.5-1.8,8.3-2.1c1.3-0.1,2.6,1.5,4,2.3C265.7,233.4,265.4,233.1,265.4,233.1z"/>
</g>
</svg>
