<?xml version="1.0" encoding="utf-8"?>
<!-- Generator: Adobe Illustrator 24.0.1, SVG Export Plug-In . SVG Version: 6.00 Build 0)  -->
<svg version="1.1" id="Layer_1" xmlns="http://www.w3.org/2000/svg" xmlns:xlink="http://www.w3.org/1999/xlink" x="0px" y="0px"
	 viewBox="0 0 1205.3 1248.5" style="enable-background:new 0 0 1205.3 1248.5;" xml:space="preserve">
<style type="text/css">
	.st0{fill:#FFFFFF;}
</style>
<g>
	<path d="M224.5,459.3c-16.2-6.2-37.5-13.4-57.9-22.1c-31.4-13.2-44.5-37.8-43.4-71.1c3.4-96.9,117.6-172.2,207.4-135.8
		c29.4,11.8,46.2,33.9,47,70.5c153.1-93.5,301.2-87.6,447,17.9c1.4-6.4,3.1-11.5,3.1-16.2c2.5-45.6,22.7-69.1,68.3-77.8
		c82-15.7,166.3,40.6,183.3,122.3c9.5,45.9-5.3,76.7-48.7,94.1c-24.9,10.1-51.2,16-79.2,24.6c2.8,6.4,5.3,13.7,9,20.7
		c31.9,63.3,52.6,129.3,54.3,200.7c3.1,142.5-61,245.2-193.7,296.2c-154,59.1-311,59.3-464.7-1.1
		c-147.8-58.2-215.8-188.7-184.7-350.5C182.8,573.7,206,518.3,224.5,459.3z M579.5,1010.4c64.9-9.8,122.9-14.8,178.6-28.3
		c170.8-41.1,258.6-169.1,232.6-337.3C970.2,511.6,905,402.7,795.3,324C685.8,245.7,566,228.9,444,289.9
		c-153.4,77.3-238.2,207.7-256.1,376.2c-16.2,153.1,56.5,259.5,203.8,306.2C454.1,992.2,520.4,998.9,579.5,1010.4z"/>
	<path class="st0" d="M579.5,1010.4c-59.1-11.5-125.4-18.5-187.8-38.1c-147.5-46.5-220-152.8-203.8-306.2
		c17.9-168.8,102.7-299,256.1-375.9c122-61.3,241.9-44.2,351.3,34.2C905,403,970.2,511.9,990.7,645.1
		c26,168.5-61.9,296.2-232.6,337.3C702.3,995.9,644.4,1000.6,579.5,1010.4z M544.2,685.4c0.3-43.7-13.4-65.2-47-76.4
		c-85.1-28.3-166.6-18.8-237.1,37.5c-21,16.8-38.6,44.5-45.6,70.5c-23,86.2,79.2,186.1,175.8,174.1c19.3-2.5,41.1-10.1,55.7-22.4
		C504.7,817.8,529.1,747.9,544.2,685.4z M747.1,593.3c-15.1,3.1-41.4,5.3-66.1,13.2c-45.6,14.6-64.9,45.9-49,90.7
		c17.9,50.4,40.6,99.9,69.1,145c30.5,47.9,78.4,59.9,133,43.7c41.4-12,75.9-35.3,101.6-70.3c39.5-54,34.4-115-13.7-161.5
		C876.2,610.4,818.8,597.5,747.1,593.3z M514,863.5c3.9,9.8,5,24.1,12,28c12.6,7,31.1,13.7,43.1,9.2c16.2-6.2,26.6-4.2,42.3,0
		c12.9,3.6,30.8-5.3,44.5-12.6c5.6-3.1,5.9-16.5,8.4-25.2c-30,34.7-46.2,37.8-56.5,20.4c9.8-15.4,19.6-27.4,24.9-40.9
		c2.2-5.6-5.3-21.3-9-21.6c-26.3-2-52.9-1.1-79.5-1.1c-1.7,3.6-3.6,7-5.3,10.6c12.9,14.8,25.8,29.7,38.9,45.1
		C559.6,898.5,552.6,897.1,514,863.5z"/>
	<path d="M544.2,685.4c-14.8,62.4-39.5,132.4-98.3,183.3c-14.3,12.6-36.1,19.9-55.7,22.4c-96.9,12-198.7-87.9-175.8-174.1
		c7-26,24.6-53.7,45.6-70.5c70.8-56.3,152-65.8,237.1-37.5C530.8,620.2,544.5,641.8,544.2,685.4z M390.8,710.3c0-3.9,0.3-8.1,0.3-12
		c-10.1-7-21-20.2-30.2-19c-9.5,1.1-23,15.1-24.4,25.2c-1.1,6.7,14.6,22.4,23.5,23.2C369.5,728.5,380.4,716.8,390.8,710.3z
		 M407.9,745.9c6.2-11.5,12.3-18.2,11.8-24.4c-0.3-4.8-10.4-13.2-13.7-12.3c-6.4,2-14.8,9.2-15.1,14.8
		C390.5,729.4,399.2,735.5,407.9,745.9z"/>
	<path d="M747.1,593.3c71.7,4.2,129,17.1,175,61c48.1,46.5,53.2,107.5,13.7,161.5c-25.8,35-59.9,58.2-101.6,70.3
		c-54.6,16-102.5,4.2-133-43.7c-28.6-44.8-51.2-94.6-69.1-145c-16-45.1,3.6-76.1,49-90.7C705.7,598.9,731.7,596.4,747.1,593.3z
		 M785.8,716.8c5.3,3.6,10.1,8.7,16,10.4c16.8,5.3,31.9-0.6,33.6-17.9c1.1-9.5-7.8-25.5-16.5-29.7c-15.4-7.6-28.6,1.7-33.3,18.5
		c-1.7,5.9,0.3,12.9,0.6,19c-3.6-2.2-7.6-6.7-11.2-6.4c-7.8,0.6-15.4,3.6-23.2,5.9c2,6.4,3.9,12.9,5.6,19.3
		c7.6-2.2,15.7-3.6,22.7-7.3C783.5,727.4,784.1,721,785.8,716.8z"/>
	<path d="M514,863.5c38.6,33.6,45.6,35,63.5,12c-13.2-15.1-26-30.2-38.9-45.1c1.7-3.6,3.6-7,5.3-10.6c26.6,0,53.2-0.8,79.5,1.1
		c3.9,0.3,11.2,16,9,21.6c-5.3,13.7-15.1,25.5-24.9,40.9c10.4,17.4,26.6,14.6,56.5-20.4c-2.5,8.7-2.8,22.1-8.4,25.2
		c-13.4,7.3-31.4,16.2-44.5,12.6c-15.7-4.2-26.3-6.2-42.3,0c-11.8,4.5-30.2-2.2-43.1-9.2C519,887.8,517.9,873.3,514,863.5z"/>
	<path class="st0" d="M390.8,710.3c-10.4,6.4-21.3,18.2-31.1,17.6c-9-0.8-24.6-16.5-23.5-23.2c1.7-10.1,14.8-24.1,24.4-25.2
		c9.2-1.1,20.2,12,30.2,19C390.8,702.2,390.8,706.4,390.8,710.3z"/>
	<path class="st0" d="M407.9,745.9c-8.7-10.4-17.6-16.2-17.1-21.8c0.3-5.6,9-12.9,15.1-14.8c3.4-1.1,13.4,7.6,13.7,12.3
		C420.2,727.7,414,734.1,407.9,745.9z"/>
	<path class="st0" d="M786.6,717.6c-0.3-6.4-2.2-13.2-0.8-19.3c4.5-17.1,17.9-26.3,33.3-18.5c8.7,4.2,17.4,20.2,16.5,29.7
		c-2,17.1-17.1,23-33.6,17.9c-5.9-1.7-10.6-6.7-16-10.4L786.6,717.6z"/>
	<path class="st0" d="M785.8,716.8c-1.7,4.2-2.2,10.4-5.3,12c-7,3.6-15.1,5-22.7,7.3c-2-6.4-3.9-12.9-5.6-19.3
		c7.8-2,15.4-5,23.2-5.9c3.6-0.3,7.3,4.2,11.2,6.4C786.6,717.6,785.8,716.8,785.8,716.8z"/>
</g>
</svg>
