<?xml version="1.0" encoding="utf-8"?>
<!-- Generator: Adobe Illustrator 23.0.5, SVG Export Plug-In . SVG Version: 6.00 Build 0)  -->
<svg version="1.1" id="Layer_1" xmlns="http://www.w3.org/2000/svg" xmlns:xlink="http://www.w3.org/1999/xlink" x="0px" y="0px"
	 viewBox="0 0 400 400" style="enable-background:new 0 0 400 400;" xml:space="preserve">
<style type="text/css">
	.st0{fill:#FFFFFF;}
</style>
<g>
	<path d="M67.96,156.28c-5.84-2.2-13.37-4.78-20.7-7.85c-11.19-4.68-15.85-13.48-15.46-25.42c1.16-34.63,42-61.53,74.06-48.54
		c10.46,4.24,16.48,12.11,16.79,25.21c54.73-33.41,107.65-31.27,159.67,6.37c0.48-2.35,1.06-4.07,1.15-5.81
		c0.87-16.34,8.15-24.68,24.41-27.81c29.28-5.64,59.41,14.46,65.49,43.68c3.41,16.39-1.9,27.36-17.4,33.59
		c-8.85,3.56-18.27,5.71-28.34,8.78c0.96,2.26,1.9,4.92,3.16,7.42c11.39,22.57,18.8,46.21,19.36,71.68
		c1.12,50.87-21.75,87.62-69.2,105.81c-54.98,21.08-111.11,21.19-165.96-0.37c-52.82-20.76-77.12-67.41-65.96-125.23
		C53.02,197.16,61.34,177.35,67.96,156.28z M194.77,353.21c23.18-3.55,43.87-5.25,63.81-10.06c60.97-14.71,92.37-60.35,83.09-120.51
		c-7.34-47.62-30.58-86.53-69.8-114.62c-39.07-27.99-81.93-34.03-125.48-12.15c-54.8,27.53-85.15,74.06-91.54,134.33
		c-5.8,54.74,20.15,92.72,72.82,109.38C149.96,346.62,173.71,349.07,194.77,353.21z"/>
	<path class="st0" d="M194.77,353.21c-21.06-4.14-44.81-6.59-67.1-13.64C75,322.92,49.05,284.93,54.85,230.19
		c6.39-60.27,36.74-106.8,91.54-134.33c43.55-21.88,86.41-15.84,125.48,12.15c39.22,28.09,62.46,67,69.8,114.62
		c9.28,60.16-22.13,105.8-83.09,120.51C238.64,347.96,217.95,349.65,194.77,353.21z M182.12,237.05
		c0.11-15.55-4.78-23.3-16.78-27.29c-30.41-10.11-59.46-6.73-84.75,13.36c-7.5,5.96-13.84,15.91-16.3,25.19
		c-8.16,30.82,28.27,66.54,62.84,62.22c6.91-0.86,14.71-3.56,19.86-8.01C168.07,284.32,176.8,259.36,182.12,237.05z M254.66,204.18
		c-5.45,1.05-14.82,1.95-23.58,4.74c-16.25,5.17-23.23,16.35-17.51,32.4c6.4,17.96,14.49,35.74,24.69,51.8
		c10.89,17.14,27.96,21.35,47.49,15.63c14.81-4.33,27.08-12.58,36.25-25.11c14.1-19.26,12.34-41.08-4.87-57.66
		C300.8,210.25,280.27,205.66,254.66,204.18z M171.36,300.66c1.36,3.47,1.78,8.65,4.29,10.03c4.53,2.47,11.13,4.87,15.35,3.27
		c5.75-2.17,9.54-1.53,15.12,0.01c4.61,1.27,11.01-1.88,15.85-4.49c2.03-1.1,2.08-5.87,3.02-8.97
		c-10.71,12.43-16.46,13.47-20.18,7.25c3.49-5.52,6.99-9.75,8.86-14.61c0.76-1.98-1.86-7.58-3.22-7.68
		c-9.42-0.69-18.91-0.36-28.38-0.36c-0.65,1.26-1.3,2.52-1.95,3.78c4.62,5.32,9.24,10.64,13.95,16.07
		C187.67,313.21,185.12,312.7,171.36,300.66z"/>
	<path d="M182.12,237.05c-5.32,22.31-14.05,47.27-35.14,65.48c-5.15,4.45-12.95,7.15-19.86,8.01
		c-34.56,4.32-70.99-31.41-62.84-62.22c2.46-9.29,8.81-19.24,16.3-25.19c25.29-20.09,54.34-23.47,84.75-13.36
		C177.33,213.75,182.23,221.51,182.12,237.05z M127.32,245.96c0.02-1.43,0.05-2.85,0.07-4.28c-3.62-2.47-7.51-7.21-10.77-6.8
		c-3.45,0.43-8.15,5.44-8.74,9.04c-0.4,2.43,5.17,8.03,8.39,8.3C119.76,252.51,123.62,248.24,127.32,245.96z M133.5,258.64
		c2.16-4.13,4.38-6.49,4.21-8.67c-0.12-1.68-3.71-4.71-4.92-4.35c-2.26,0.67-5.31,3.29-5.43,5.26
		C127.24,252.8,130.37,254.92,133.5,258.64z"/>
	<path d="M254.66,204.18c25.61,1.49,46.15,6.07,62.46,21.79c17.21,16.58,18.97,38.4,4.87,57.66c-9.17,12.52-21.44,20.77-36.25,25.11
		c-19.53,5.71-36.6,1.51-47.49-15.63c-10.2-16.05-18.29-33.84-24.69-51.8c-5.72-16.05,1.27-27.23,17.51-32.4
		C239.84,206.13,249.21,205.23,254.66,204.18z M268.46,248.31c1.9,1.28,3.64,3.08,5.73,3.73c5.98,1.86,11.38-0.2,12.05-6.35
		c0.37-3.42-2.75-9.07-5.85-10.62c-5.5-2.74-10.24,0.55-11.88,6.64c-0.57,2.11,0.13,4.56,0.21,6.82c-1.33-0.81-2.72-2.37-3.97-2.26
		c-2.81,0.24-5.55,1.32-8.32,2.05c0.68,2.31,1.36,4.62,2.04,6.93c2.73-0.83,5.63-1.33,8.11-2.65
		C267.66,252.02,267.86,249.79,268.46,248.31z"/>
	<path d="M171.36,300.66c13.77,12.04,16.31,12.54,22.71,4.28c-4.72-5.43-9.33-10.75-13.95-16.07c0.65-1.26,1.3-2.52,1.95-3.78
		c9.47,0,18.96-0.33,28.38,0.36c1.36,0.1,3.98,5.7,3.22,7.68c-1.87,4.86-5.37,9.1-8.86,14.61c3.72,6.21,9.47,5.17,20.18-7.25
		c-0.95,3.1-0.99,7.87-3.02,8.97c-4.84,2.62-11.23,5.76-15.85,4.49c-5.58-1.53-9.37-2.18-15.12-0.01
		c-4.22,1.59-10.82-0.8-15.35-3.27C173.14,309.32,172.72,304.13,171.36,300.66z"/>
	<path class="st0" d="M127.32,245.96c-3.7,2.28-7.56,6.54-11.05,6.25c-3.22-0.27-8.79-5.86-8.39-8.3c0.59-3.6,5.29-8.61,8.74-9.04
		c3.26-0.4,7.16,4.33,10.77,6.8C127.37,243.11,127.35,244.53,127.32,245.96z"/>
	<path class="st0" d="M133.5,258.64c-3.12-3.72-6.26-5.84-6.14-7.76c0.12-1.97,3.17-4.59,5.43-5.26c1.21-0.36,4.8,2.67,4.92,4.35
		C137.87,252.15,135.66,254.51,133.5,258.64z"/>
	<path class="st0" d="M268.76,248.55c-0.12-2.29-0.82-4.74-0.25-6.85c1.64-6.09,6.38-9.38,11.88-6.64c3.1,1.54,6.22,7.19,5.85,10.62
		c-0.67,6.15-6.07,8.21-12.05,6.35c-2.1-0.65-3.83-2.45-5.73-3.73L268.76,248.55z"/>
	<path class="st0" d="M268.46,248.31c-0.6,1.48-0.81,3.71-1.89,4.29c-2.47,1.31-5.38,1.82-8.11,2.65c-0.68-2.31-1.36-4.62-2.04-6.93
		c2.77-0.73,5.51-1.81,8.32-2.05c1.25-0.11,2.64,1.46,3.99,2.28C268.76,248.55,268.46,248.31,268.46,248.31z"/>
</g>
</svg>
